<svg width="30" height="30" viewBox="0 0 30 30" fill="none" xmlns="http://www.w3.org/2000/svg">
<g id="cube-variant-with-shadow 1" clip-path="url(#clip0_206_6696)">
<g id="Group">
<path id="Vector" d="M14.9971 0.578415C14.2325 0.923923 2.90434 6.88251 2.81371 6.98447C2.74008 7.06376 2.67778 7.22802 2.66079 7.39228C2.63813 7.53955 2.64379 11.0456 2.66645 15.1804L2.7061 22.7022L2.8477 22.8382C2.97797 22.9685 13.7397 28.6438 15.0141 29.2556C15.3936 29.4368 15.5862 29.5048 15.6938 29.4821C15.909 29.4368 27.6563 23.0591 27.8262 22.8948L27.9678 22.7589V14.7442V6.72959L27.8262 6.59365C27.6676 6.44072 15.5805 0.57275 15.3313 0.527439C15.2407 0.510447 15.0934 0.533102 14.9971 0.578415ZM20.7178 4.28271C23.6801 5.73837 26.1157 6.95048 26.127 6.98447C26.1553 7.04677 15.7278 12.9034 15.5918 12.8977C15.5465 12.8977 12.9977 11.6403 9.93344 10.1054L4.36 7.31298L8.37582 5.21728C10.5848 4.06181 13.0317 2.78173 13.8077 2.37392C14.5893 1.96611 15.252 1.63193 15.2803 1.63193C15.3143 1.63193 17.7612 2.82705 20.7178 4.28271ZM26.9086 15.0614L26.8916 22.2604L21.9639 24.9339C19.2565 26.4009 16.8379 27.7149 16.6 27.8452L16.1582 28.0888V20.9577V13.8323L21.4995 10.8474C24.4334 9.21044 26.852 7.8624 26.8803 7.8624C26.903 7.8624 26.9143 11.1022 26.9086 15.0614Z" fill="url(#paint0_linear_206_6696)"/>
</g>
</g>
<defs>
<linearGradient id="paint0_linear_206_6696" x1="15.3071" y1="29.4863" x2="15.3071" y2="0.521795" gradientUnits="userSpaceOnUse">
<stop stop-color="#2F4C8F"/>
<stop offset="1" stop-color="#2581BF"/>
</linearGradient>
<clipPath id="clip0_206_6696">
<rect width="29" height="29" fill="white" transform="translate(0.808594 0.5)"/>
</clipPath>
</defs>
</svg>
