<svg width="28" height="33" viewBox="0 0 28 33" fill="none" xmlns="http://www.w3.org/2000/svg">
<g clip-path="url(#clip0_31_1666)">
<path d="M14.5334 0.564453C14.9042 0.645695 15.284 0.702933 15.6458 0.813717C18.7322 1.75538 20.6059 3.86951 21.1737 7.12103C21.5212 9.10776 21.0788 10.9819 19.9754 12.6695C19.7604 12.9981 19.515 13.0812 19.2696 12.915C19.017 12.7433 18.9973 12.4627 19.2123 12.1229C21.738 8.14209 19.8249 2.94631 15.3825 1.72769C11.6996 0.715858 7.89674 3.24912 7.25188 7.14503C6.62314 10.9357 9.11302 14.4993 12.7923 15.0476C14.5102 15.3043 16.0937 14.8981 17.5285 13.8881C17.9315 13.6056 18.1859 13.5908 18.3722 13.853C18.571 14.1318 18.4761 14.3792 18.0533 14.682C16.9123 15.5019 15.6422 15.9505 14.2397 16.065V17.6861H14.6015C17.3189 17.6861 20.0363 17.6861 22.7536 17.6861C23.9413 17.6861 24.5772 18.3472 24.579 19.5806C24.579 20.0994 24.579 20.6182 24.579 21.1278C26.5798 21.6504 27.273 24.1079 25.6716 25.6275C26.2789 26.0208 26.7697 26.5341 26.999 27.232C27.1423 27.6659 27.2103 28.1405 27.2318 28.6021C27.2677 29.3923 27.2318 30.1844 27.2444 30.9747C27.2641 32.0419 26.4867 32.5958 25.6949 32.5608C24.5951 32.5109 23.4934 32.5497 22.3918 32.5478C21.5857 32.5478 20.991 31.9644 20.9695 31.1316C20.9552 30.5482 20.9624 29.9647 20.9695 29.3831C20.9731 29.0563 21.163 28.8347 21.4263 28.8255C21.6986 28.8144 21.9064 29.0415 21.9135 29.385C21.9225 29.937 21.9135 30.4891 21.9171 31.0412C21.9207 31.4418 22.0801 31.6099 22.4688 31.6117C23.5597 31.6154 24.6506 31.6154 25.7415 31.6117C26.132 31.6117 26.2968 31.44 26.2968 31.0449C26.2986 30.1697 26.3004 29.2963 26.2968 28.4211C26.2914 27.4093 25.6501 26.5304 24.7276 26.2553C23.8069 25.9802 22.8325 26.3495 22.2879 27.1822C22.2592 27.2247 22.236 27.2708 22.2073 27.3133C22.0246 27.5939 21.7774 27.666 21.5374 27.5109C21.3009 27.3576 21.2275 27.0733 21.4299 26.8074C21.7541 26.379 22.1231 25.9857 22.4939 25.5537C21.8222 24.913 21.4818 24.0618 21.7254 23.0407C21.9691 22.0197 22.639 21.414 23.6278 21.1389C23.6278 20.5019 23.6385 19.8686 23.6224 19.2353C23.6152 18.9435 23.3842 18.7183 23.0994 18.6758C22.9901 18.6592 22.8772 18.6574 22.7662 18.6574C20.0291 18.6574 17.292 18.6574 14.5531 18.6574H14.2379V21.1371C16.1886 21.6374 16.932 24.0821 15.3127 25.6238C15.4506 25.7291 15.5903 25.8251 15.7211 25.9377C16.4985 26.6061 16.8693 27.4739 16.88 28.5079C16.8908 29.3517 16.8872 30.1955 16.88 31.0375C16.8729 31.9699 16.2979 32.5515 15.3986 32.5515C14.288 32.5515 13.1757 32.5515 12.0651 32.5515C11.2482 32.5515 10.6482 32.0364 10.6195 31.2018C10.5837 30.1844 10.5908 29.1615 10.6482 28.1442C10.7073 27.1028 11.2321 26.3088 12.0651 25.7254C12.1045 25.6977 12.1421 25.6663 12.1815 25.6331C10.4995 24.0193 11.379 21.5857 13.267 21.1389C13.267 20.7346 13.267 20.3191 13.267 19.9055C13.267 19.4919 13.267 19.0986 13.267 18.6777C13.1506 18.6684 13.0628 18.6574 12.975 18.6574C10.2182 18.6574 7.45967 18.6518 4.70289 18.6647C4.48614 18.6647 4.24969 18.746 4.05982 18.8568C3.95413 18.9177 3.87352 19.1171 3.86994 19.2556C3.85024 19.8778 3.86098 20.5019 3.86098 21.1371C4.84081 21.4085 5.51434 22.0086 5.76153 23.0296C6.00873 24.0544 5.67018 24.9056 4.92142 25.6238C5.47851 25.9894 5.92633 26.4362 6.18249 27.0419C6.31325 27.3521 6.40819 27.6863 6.46372 28.0186C6.51566 28.3251 6.34549 28.5245 6.09113 28.5541C5.81169 28.5873 5.62002 28.4414 5.5627 28.1276C5.43194 27.4148 5.08622 26.8517 4.47718 26.4787C3.04058 25.598 1.20989 26.6652 1.19376 28.3916C1.1866 29.276 1.19018 30.1623 1.19376 31.0467C1.19376 31.4289 1.35498 31.608 1.72219 31.6099C2.83279 31.6154 3.94517 31.6154 5.05577 31.6099C5.40686 31.608 5.56628 31.4308 5.57345 31.0689C5.57703 30.8602 5.56628 30.6516 5.57703 30.4448C5.59674 30.1143 5.78661 29.9167 6.06426 29.9259C6.32758 29.9352 6.51387 30.1309 6.51745 30.4466C6.52104 30.7679 6.5282 31.0947 6.47267 31.4086C6.35087 32.1102 5.81348 32.5478 5.12563 32.5478C3.99354 32.5478 2.86324 32.5478 1.73115 32.5478C0.862376 32.5478 0.274836 32.0161 0.256923 31.1298C0.235427 30.0792 0.22468 29.0249 0.301705 27.978C0.373356 27.0142 0.899993 26.2775 1.67024 25.7291C1.71861 25.6958 1.76518 25.6608 1.83504 25.6109C1.0827 24.8927 0.767438 24.0359 1.01284 23.0149C1.25646 22.003 1.92461 21.4122 2.90981 21.1334C2.90981 20.5758 2.90981 20.0163 2.90981 19.455C2.90981 18.9214 3.06565 18.4542 3.4669 18.0942C3.80366 17.7932 4.19954 17.6806 4.64019 17.6806C7.38802 17.6825 10.1358 17.6806 12.8837 17.6806C13.0019 17.6806 13.1201 17.6806 13.2527 17.6806V16.1315C12.5738 15.9598 11.8806 15.8545 11.2393 15.6089C8.56489 14.5805 6.89721 12.6104 6.35445 9.71707C5.56987 5.52758 8.24067 1.59105 12.2245 0.708473C12.4681 0.654927 12.7135 0.61246 12.9589 0.564453C13.4838 0.564453 14.0086 0.564453 14.5352 0.564453H14.5334ZM13.7148 31.6136C14.2701 31.6136 14.8236 31.6173 15.3789 31.6136C15.7712 31.6099 15.9342 31.4437 15.9342 31.0486C15.936 30.1641 15.9414 29.2816 15.9324 28.3971C15.9181 27.1453 14.9598 26.1759 13.7524 26.1741C12.5595 26.1741 11.5778 27.1619 11.5599 28.3953C11.5474 29.2686 11.5545 30.142 11.5563 31.0153C11.5563 31.4529 11.7122 31.6099 12.1421 31.6117C12.6669 31.6154 13.1918 31.6117 13.7148 31.6117V31.6136ZM13.7542 25.1955C14.6051 25.1918 15.2643 24.5086 15.2643 23.6316C15.2643 22.7656 14.5872 22.0603 13.7524 22.0566C12.907 22.0529 12.2245 22.7656 12.2281 23.65C12.2316 24.5197 12.9034 25.201 13.756 25.1955H13.7542ZM4.90351 23.6279C4.90351 22.7582 4.2264 22.0584 3.38988 22.0566C2.54618 22.0566 1.86012 22.773 1.86549 23.6537C1.87087 24.5178 2.55156 25.2029 3.39883 25.1973C4.25148 25.1918 4.9053 24.5104 4.90351 23.6297V23.6279ZM24.1061 25.1955C24.9533 25.1955 25.6269 24.5068 25.6269 23.6389C25.6269 22.7748 24.9515 22.064 24.1186 22.0547C23.2713 22.0455 22.587 22.7545 22.5888 23.6389C22.5888 24.516 23.2516 25.1936 24.1061 25.1936V25.1955Z" fill="url(#paint0_linear_31_1666)"/>
<path d="M18.1678 8.37391C18.1678 9.04969 18.166 9.72732 18.1678 10.4031C18.1696 10.8869 17.9672 11.2451 17.5516 11.4648C16.4517 12.0464 15.3465 12.6225 14.2431 13.2004C13.9045 13.3777 13.5696 13.3721 13.231 13.193C12.1473 12.6225 11.06 12.0538 9.97447 11.4869C9.53739 11.258 9.31707 10.8998 9.31886 10.3883C9.32423 9.046 9.32244 7.70366 9.31886 6.36133C9.31886 5.85726 9.52127 5.48798 9.95655 5.24795C11.0313 4.6571 12.1061 4.0644 13.1755 3.46432C13.5535 3.25199 13.9225 3.24829 14.2986 3.45694C15.3806 4.05702 16.4625 4.65525 17.5426 5.25718C17.9618 5.48983 18.1696 5.85357 18.166 6.3484C18.1624 7.02419 18.166 7.70182 18.166 8.3776L18.1678 8.37391ZM10.2485 6.66414C10.2485 7.94369 10.245 9.16047 10.2575 10.3754C10.2575 10.4696 10.3614 10.597 10.4492 10.6487C10.8719 10.8887 11.3054 11.1084 11.7371 11.3355C12.2351 11.5977 12.7348 11.8562 13.2704 12.1369C13.2704 10.8536 13.2722 9.61838 13.2651 8.38314C13.2651 8.31851 13.2059 8.22435 13.1486 8.19296C12.2028 7.68889 11.2534 7.19221 10.2485 6.66598V6.66414ZM17.2417 6.66783C16.2332 7.1959 15.2749 7.69258 14.3237 8.20588C14.2574 8.24096 14.2252 8.39791 14.2234 8.49946C14.2162 9.63315 14.218 10.7668 14.2198 11.9005C14.2198 11.967 14.227 12.0335 14.2341 12.1332C15.2122 11.6199 16.1526 11.1287 17.0876 10.6228C17.1647 10.5822 17.2345 10.4437 17.2345 10.3514C17.2435 9.1457 17.2417 7.94 17.2417 6.66598V6.66783ZM10.7913 5.87203C11.7819 6.39272 12.7098 6.88571 13.6448 7.36208C13.72 7.40085 13.8562 7.36023 13.9457 7.31407C14.5225 7.02049 15.0957 6.71768 15.669 6.41672C15.995 6.245 16.321 6.0696 16.6972 5.87018C15.7084 5.32365 14.7715 4.80481 13.8311 4.29151C13.7827 4.26566 13.6932 4.27305 13.6412 4.30074C12.7098 4.81035 11.7801 5.32365 10.7913 5.87018V5.87203Z" fill="url(#paint1_linear_31_1666)"/>
</g>
<defs>
<linearGradient id="paint0_linear_31_1666" x1="13.7447" y1="0.564453" x2="13.7447" y2="32.5623" gradientUnits="userSpaceOnUse">
<stop stop-color="#2F4C8F"/>
<stop offset="1" stop-color="#2581BF"/>
</linearGradient>
<linearGradient id="paint1_linear_31_1666" x1="13.7433" y1="3.30273" x2="13.7433" y2="13.3304" gradientUnits="userSpaceOnUse">
<stop stop-color="#2F4C8F"/>
<stop offset="1" stop-color="#2581BF"/>
</linearGradient>
<clipPath id="clip0_31_1666">
<rect width="27" height="32" fill="white" transform="translate(0.246094 0.564453)"/>
</clipPath>
</defs>
</svg>
