<svg width="30" height="34" viewBox="0 0 30 34" fill="none" xmlns="http://www.w3.org/2000/svg">
<g id="Group 291">
<path id="Vector" d="M8.98549 12.7831C8.3668 9.86956 9.10975 7.45499 11.5854 5.79623C13.8107 4.30552 16.1986 4.29943 18.4309 5.77969C20.9256 7.43497 21.679 9.8565 21.0551 12.7839C21.2011 12.8449 21.367 12.918 21.5347 12.9833C23.0875 13.5894 24.6438 14.1858 26.1897 14.8093C26.4008 14.8946 26.6154 15.0783 26.731 15.2743C27.5278 16.6169 28.2994 17.9753 29.078 19.3284C29.3778 19.85 29.2866 20.1077 28.7235 20.328C28.1491 20.5527 27.5782 20.7869 26.996 20.9915C26.771 21.0708 26.711 21.1857 26.7119 21.4139C26.7206 23.6186 26.7171 25.8242 26.7171 28.0289C26.7171 28.5635 26.6519 28.6636 26.1645 28.8535C22.5853 30.2493 19.0044 31.6433 15.4261 33.0426C15.1602 33.1471 14.916 33.1593 14.6432 33.0522C11.0553 31.6468 7.46484 30.2484 3.87525 28.8482C3.39559 28.661 3.32521 28.5635 3.32434 28.0576C3.32434 25.8529 3.31912 23.6473 3.33042 21.4426C3.33216 21.184 3.26177 21.0612 3.01326 20.9741C2.41108 20.7634 1.8202 20.5196 1.22671 20.2845C0.78529 20.1095 0.679279 19.8221 0.915631 19.4094C1.72375 17.9979 2.53273 16.5865 3.35996 15.1854C3.45468 15.0252 3.64584 14.8868 3.82311 14.8162C5.48192 14.1554 7.14768 13.511 8.81083 12.8614C8.86992 12.8379 8.9264 12.8083 8.98549 12.7804V12.7831ZM15.5529 31.8532C15.6616 31.8175 15.7537 31.7922 15.8423 31.7583C19.0296 30.5175 22.2151 29.274 25.405 28.0411C25.6327 27.9531 25.6831 27.8312 25.6822 27.6092C25.6744 25.6866 25.6778 23.764 25.677 21.8414C25.677 21.7482 25.6674 21.655 25.6613 21.5314C25.4945 21.5924 25.3529 21.6411 25.2138 21.6951C22.773 22.6451 20.333 23.5959 17.8921 24.5442C17.4507 24.7157 17.2726 24.653 17.0354 24.2438C16.6 23.4932 16.169 22.7409 15.7337 21.9894C15.6902 21.9137 15.6338 21.8449 15.5529 21.7291V31.8523V31.8532ZM4.36533 21.521C4.36533 21.669 4.36533 21.7761 4.36533 21.8823C4.36533 23.7831 4.37141 25.684 4.35838 27.5857C4.35664 27.8469 4.43658 27.9583 4.67902 28.0524C7.67773 29.2105 10.6712 30.3825 13.6665 31.5493C13.9332 31.6529 14.2017 31.7504 14.472 31.8514V21.7099C13.9819 22.558 13.5318 23.3364 13.0825 24.1158C12.7489 24.6948 12.6333 24.7357 12.0155 24.4945C9.6763 23.582 7.33624 22.6695 4.99705 21.7578C4.79806 21.6803 4.5982 21.608 4.3662 21.5218L4.36533 21.521ZM15.0342 5.77882C12.1632 5.7675 9.81793 8.1037 9.81011 10.9841C9.80229 13.868 12.1258 16.2242 14.9907 16.2364C17.8635 16.2495 20.2192 13.9159 20.2313 11.0442C20.2444 8.14027 17.9243 5.79013 15.0342 5.77882ZM17.7879 23.4697C21.1959 22.1409 24.5769 20.8226 27.9762 19.4982C27.2993 18.3236 26.6398 17.1803 25.9646 16.0083C22.567 17.3318 19.186 18.6492 15.7763 19.978C16.448 21.1439 17.1057 22.2863 17.7879 23.4697ZM2.06785 19.4973C5.47584 20.8244 8.85949 22.1427 12.2571 23.4662C12.9331 22.2924 13.5926 21.1474 14.2643 19.9824C14.1235 19.9249 14.0054 19.8744 13.8854 19.8274C12.4743 19.2771 11.0623 18.7267 9.6511 18.1764C7.88628 17.4885 6.1232 16.7989 4.3549 16.1206C4.2541 16.0823 4.04469 16.0936 4.00819 16.1546C3.35562 17.2526 2.72303 18.3619 2.06872 19.4965L2.06785 19.4973ZM20.671 13.7287C20.6102 13.834 20.5676 13.9072 20.525 13.9812C19.3606 16.0065 17.6184 17.169 15.2871 17.2543C12.7532 17.3475 10.8285 16.2129 9.54682 14.016C9.41822 13.7957 9.32611 13.7261 9.07933 13.8358C8.58578 14.0552 8.07571 14.2398 7.57346 14.4401C6.83138 14.7361 6.09018 15.0322 5.30031 15.3483C5.42804 15.404 5.5019 15.4397 5.57837 15.4693C8.65268 16.6666 11.727 17.8665 14.8057 19.0533C14.9473 19.1081 15.148 19.0951 15.2931 19.0393C17.1318 18.334 18.9644 17.6157 20.7996 16.9008C22.0987 16.394 23.3986 15.8881 24.7681 15.3544C23.3639 14.7971 22.0222 14.2642 20.6719 13.7278L20.671 13.7287Z" fill="url(#paint0_linear_31_5462)"/>
<path id="Vector_2" d="M10.8267 4.67184C10.7512 4.60159 10.5731 4.5051 10.4869 4.34492C10.097 3.61894 9.72851 2.87798 9.36328 2.13515C9.21226 1.82883 9.29762 1.50191 9.53974 1.34922C9.77447 1.20121 10.047 1.27615 10.2004 1.57029C10.5928 2.32249 10.981 3.07751 11.3495 3.8447C11.5342 4.22876 11.2904 4.67184 10.8259 4.67278L10.8267 4.67184Z" fill="url(#paint1_linear_31_5462)"/>
<path id="Vector_3" d="M15.655 1.71385C15.655 2.08519 15.6593 2.45652 15.6536 2.82786C15.6487 3.1745 15.4784 3.39934 15.2319 3.39934C14.9853 3.39934 14.8129 3.17535 14.8108 2.82786C14.8066 2.07496 14.8066 1.32122 14.8108 0.568326C14.8129 0.216579 14.9804 0.00195312 15.2326 0.00195312C15.4855 0.00195312 15.6494 0.216579 15.6543 0.568326C15.6593 0.949883 15.6557 1.33229 15.6557 1.71385H15.655Z" fill="url(#paint2_linear_31_5462)"/>
<path id="Vector_4" d="M5.8982 5.09862C6.07761 5.18714 6.18575 5.22563 6.2816 5.28913C6.89356 5.69903 7.50388 6.11085 8.11093 6.52845C8.42797 6.7459 8.51809 7.05862 8.36735 7.36556C8.21907 7.66769 7.93807 7.73408 7.62267 7.5224C6.99269 7.10192 6.3668 6.67374 5.74091 6.24652C5.50661 6.0868 5.39847 5.82604 5.50989 5.547C5.58526 5.35937 5.7745 5.23525 5.89902 5.09766L5.8982 5.09862Z" fill="url(#paint3_linear_31_5462)"/>
<path id="Vector_5" d="M19.1945 4.67193C18.7485 4.65718 18.512 4.28516 18.6888 3.95903C19.0628 3.26908 19.4614 2.59223 19.8648 1.91948C20.0048 1.68676 20.288 1.64087 20.5106 1.77034C20.7291 1.89817 20.8257 2.16859 20.6923 2.40868C20.3117 3.09536 19.9205 3.7763 19.5121 4.44659C19.4384 4.56787 19.2617 4.62605 19.1937 4.67193H19.1945Z" fill="url(#paint4_linear_31_5462)"/>
<path id="Vector_6" d="M24.5743 6.1104C24.5192 6.17888 24.4354 6.35627 24.2966 6.44125C23.6688 6.82738 23.0279 7.19289 22.3871 7.55592C22.0946 7.72176 21.8094 7.64833 21.6689 7.39668C21.5268 7.14008 21.6106 6.87441 21.9105 6.69702C22.5366 6.32739 23.1643 5.96106 23.7978 5.60464C24.1766 5.39094 24.571 5.59969 24.5735 6.10958L24.5743 6.1104Z" fill="url(#paint5_linear_31_5462)"/>
<path id="Vector_7" d="M24.1342 11.8895C23.7627 11.8895 23.3912 11.898 23.0197 11.8874C22.6635 11.8768 22.4539 11.6319 22.4522 11.2525C22.4505 10.8688 22.6584 10.6282 23.0163 10.6239C23.7695 10.6176 24.5228 10.6176 25.2769 10.6239C25.6297 10.6271 25.8487 10.8762 25.8495 11.2482C25.8495 11.6171 25.6288 11.8768 25.2803 11.8874C24.8986 11.899 24.516 11.8895 24.1342 11.8895Z" fill="url(#paint6_linear_31_5462)"/>
<path id="Vector_8" d="M5.45921 11.466C5.08728 11.466 4.71621 11.4724 4.34428 11.4646C3.96468 11.4569 3.75398 11.2909 3.76507 11.0267C3.7753 10.7752 3.98003 10.6262 4.35111 10.6234C5.0941 10.6177 5.83796 10.6177 6.58096 10.6234C6.94691 10.6262 7.15505 10.7809 7.16188 11.0316C7.1687 11.2937 6.95544 11.4569 6.57413 11.4646C6.20306 11.4717 5.83113 11.466 5.45921 11.466Z" fill="url(#paint7_linear_31_5462)"/>
<path id="Vector_9" d="M13.76 11.0435C14.7628 10.0359 15.7307 9.06769 16.6926 8.09507C17.0874 7.69608 17.5545 7.55202 18.0885 7.7083C19.059 7.9903 19.373 9.18206 18.6746 9.94164C18.285 10.3651 17.8658 10.7615 17.4597 11.1701C16.5395 12.0938 15.6212 13.0193 14.6984 13.9412C13.9914 14.6475 13.1304 14.6021 12.5103 13.8269C11.9737 13.1563 11.4406 12.4832 10.9109 11.8083C10.3909 11.1456 10.4535 10.3127 11.0527 9.82989C11.6719 9.33136 12.4929 9.45272 13.0295 10.1232C13.266 10.4183 13.5 10.7161 13.76 11.0443V11.0435ZM11.9137 10.5257C11.8006 10.6095 11.6563 10.6637 11.6484 10.7344C11.6328 10.8689 11.6519 11.0435 11.7302 11.1465C12.2363 11.8135 12.7616 12.4648 13.2808 13.1214C13.5574 13.4715 13.6852 13.4785 14.0062 13.1572C15.2646 11.8947 16.5222 10.6322 17.7797 9.3689C17.8406 9.30778 17.9363 9.24754 17.9476 9.17595C17.9667 9.0511 17.9771 8.87212 17.9067 8.8014C17.8354 8.73068 17.6554 8.73679 17.5336 8.76123C17.4518 8.77782 17.3866 8.88259 17.3179 8.95244C16.2821 9.99141 15.2472 11.0321 14.2105 12.0702C13.8174 12.4631 13.5409 12.4448 13.1913 12.0074C12.866 11.5996 12.5468 11.1867 12.2163 10.7824C12.1389 10.6881 12.0276 10.6209 11.9146 10.5266L11.9137 10.5257Z" fill="url(#paint8_linear_31_5462)"/>
</g>
<defs>
<linearGradient id="paint0_linear_31_5462" x1="15.0195" y1="4.67383" x2="15.0195" y2="33.127" gradientUnits="userSpaceOnUse">
<stop stop-color="#2F4C8F"/>
<stop offset="1" stop-color="#2581BF"/>
</linearGradient>
<linearGradient id="paint1_linear_31_5462" x1="10.3498" y1="1.27539" x2="10.3498" y2="4.67278" gradientUnits="userSpaceOnUse">
<stop stop-color="#2F4C8F"/>
<stop offset="1" stop-color="#2581BF"/>
</linearGradient>
<linearGradient id="paint2_linear_31_5462" x1="15.2323" y1="0.00195312" x2="15.2323" y2="3.39934" gradientUnits="userSpaceOnUse">
<stop stop-color="#2F4C8F"/>
<stop offset="1" stop-color="#2581BF"/>
</linearGradient>
<linearGradient id="paint3_linear_31_5462" x1="6.95218" y1="5.09766" x2="6.95218" y2="7.6457" gradientUnits="userSpaceOnUse">
<stop stop-color="#2F4C8F"/>
<stop offset="1" stop-color="#2581BF"/>
</linearGradient>
<linearGradient id="paint4_linear_31_5462" x1="19.6916" y1="1.69922" x2="19.6916" y2="4.67193" gradientUnits="userSpaceOnUse">
<stop stop-color="#2F4C8F"/>
<stop offset="1" stop-color="#2581BF"/>
</linearGradient>
<linearGradient id="paint5_linear_31_5462" x1="23.0879" y1="5.52148" x2="23.0879" y2="7.64485" gradientUnits="userSpaceOnUse">
<stop stop-color="#2F4C8F"/>
<stop offset="1" stop-color="#2581BF"/>
</linearGradient>
<linearGradient id="paint6_linear_31_5462" x1="24.1508" y1="10.6191" x2="24.1508" y2="11.8932" gradientUnits="userSpaceOnUse">
<stop stop-color="#2F4C8F"/>
<stop offset="1" stop-color="#2581BF"/>
</linearGradient>
<linearGradient id="paint7_linear_31_5462" x1="5.46334" y1="10.6191" x2="5.46334" y2="11.4685" gradientUnits="userSpaceOnUse">
<stop stop-color="#2F4C8F"/>
<stop offset="1" stop-color="#2581BF"/>
</linearGradient>
<linearGradient id="paint8_linear_31_5462" x1="14.8053" y1="7.64648" x2="14.8053" y2="14.4413" gradientUnits="userSpaceOnUse">
<stop stop-color="#2F4C8F"/>
<stop offset="1" stop-color="#2581BF"/>
</linearGradient>
</defs>
</svg>
