<svg width="28" height="30" viewBox="0 0 28 30" fill="none" xmlns="http://www.w3.org/2000/svg">
<g id="Layer_1" clip-path="url(#clip0_31_3855)">
<path id="Vector" d="M21.7182 23.4588C21.9828 23.5043 22.2048 23.527 22.4183 23.5782C23.8299 23.9225 24.7292 25.1941 24.5898 26.6393C24.4446 28.1413 23.3688 29.1768 21.8519 29.2764C21.7608 29.2821 21.6698 29.2821 21.5816 29.2821C16.5157 29.2821 11.4498 29.2821 6.38107 29.2821C4.92676 29.2821 3.77413 28.3917 3.46107 27.0176C3.39846 26.736 3.38138 26.4401 3.38138 26.15C3.37569 23.2994 3.37854 20.4518 3.37854 17.6013V17.2002C3.07401 17.2002 2.78657 17.2002 2.49912 17.2002C1.32942 17.1916 0.492693 16.3809 0.487001 15.2117C0.475617 12.8362 0.478463 10.4608 0.487001 8.08256C0.492693 6.89912 1.32657 6.08266 2.5162 6.08266C5.94278 6.08266 9.37221 6.08266 12.7988 6.08266C12.9183 6.08266 13.0379 6.08266 13.1545 6.08266C13.2741 5.70145 13.3708 5.33447 13.5046 4.97887C14.5804 2.09423 17.4292 0.176829 20.4602 0.287777C24.7008 0.438552 27.7972 3.91775 27.45 8.13661C27.1882 11.3143 25.176 13.7153 22.0682 14.5403C21.7978 14.6114 21.7068 14.7081 21.7068 14.9983C21.721 17.7066 21.7153 20.4148 21.7153 23.1231V23.4588H21.7182ZM4.22095 7.05843C4.26364 7.57903 4.33764 8.0854 4.33764 8.58893C4.34618 14.4293 4.34333 20.2697 4.34618 26.1073C4.34618 26.3263 4.35471 26.5511 4.39456 26.7673C4.55393 27.6634 5.40489 28.3405 6.3213 28.312C7.30602 28.2836 8.05167 27.6036 8.17974 26.625C8.30496 25.6692 7.73576 24.7816 6.83073 24.5341C6.64005 24.48 6.43514 24.4744 6.23592 24.4431C5.97409 24.4032 5.7891 24.1956 5.79479 23.9509C5.80333 23.7034 5.99401 23.5071 6.26153 23.4844C6.36114 23.4758 6.4636 23.4815 6.56321 23.4815C11.168 23.4815 15.7729 23.4815 20.3748 23.4815C20.4915 23.4815 20.6082 23.4815 20.7306 23.4815V14.7764C20.6224 14.7764 20.5342 14.7764 20.446 14.7764C18.8779 14.8105 17.4577 14.3611 16.1599 13.4905C16.0205 13.3967 15.8326 13.3369 15.6647 13.3369C13.5843 13.3255 11.5039 13.3312 9.42059 13.3312C9.32952 13.3312 9.23845 13.3369 9.15022 13.3284C8.88554 13.3028 8.69486 13.1036 8.68917 12.8561C8.68348 12.6001 8.88555 12.3896 9.16445 12.3668C9.24414 12.3612 9.32383 12.3668 9.40636 12.3668C11.1054 12.3668 12.8045 12.3668 14.5035 12.3668H14.8052C14.4523 11.8007 14.0937 11.2602 13.775 10.6969C13.6668 10.5063 13.5729 10.4267 13.3481 10.4267C11.9905 10.4381 10.633 10.4324 9.27545 10.4324C8.90831 10.4324 8.70625 10.2617 8.69771 9.96013C8.69202 9.6472 8.89978 9.47082 9.28399 9.46798C9.65681 9.46798 10.0268 9.46798 10.3996 9.46798C11.353 9.46798 12.3064 9.46798 13.2314 9.46798C13.146 8.65721 13.0635 7.86635 12.9809 7.06127H4.22095V7.05843ZM26.5251 7.02144C26.3401 5.22637 25.5773 3.75845 24.1885 2.63475C23.1981 1.83251 22.0654 1.37449 20.7704 1.28631C20.7278 1.68458 20.853 2.19095 20.2923 2.19949C19.6918 2.21087 19.8199 1.67604 19.7715 1.30622C16.712 1.43424 14.1165 4.21646 14.071 7.02429C14.8081 7.11532 14.9788 7.20351 14.9561 7.53351C14.9134 8.12523 14.4296 7.98583 14.0681 8.02566C14.1421 10.9558 16.8173 13.6527 19.7772 13.7551C19.8199 13.3995 19.6975 12.896 20.2411 12.8647C20.8701 12.8277 20.7164 13.3938 20.7761 13.758C23.8555 13.6242 26.434 10.842 26.4881 8.0342C25.7652 7.96308 25.5973 7.86635 25.5973 7.52782C25.5973 7.19782 25.7538 7.10963 26.5307 7.02144H26.5251ZM8.47572 24.4488C9.40067 25.7631 9.38929 27.0262 8.47572 28.3148C8.61233 28.3148 8.72048 28.3148 8.82863 28.3148C12.8301 28.3148 16.8316 28.3148 20.8331 28.3148C21.1546 28.3148 21.4762 28.3234 21.7978 28.312C23.033 28.2665 23.9067 27.0717 23.5794 25.874C23.3432 25.0035 22.5947 24.4488 21.647 24.4488C17.3439 24.4488 13.0407 24.4488 8.73755 24.4488H8.47572ZM3.35292 16.2272C3.36431 16.1675 3.37284 16.1504 3.37284 16.1305C3.37284 13.4223 3.37284 10.714 3.37284 8.00575C3.37284 7.97445 3.37284 7.94601 3.36715 7.91471C3.33015 7.51644 3.0854 7.21773 2.70403 7.10679C2.00961 6.90481 1.4461 7.35998 1.4461 8.13661C1.44041 9.89755 1.4461 11.6613 1.4461 13.4223C1.4461 14.0168 1.44041 14.6114 1.4461 15.2031C1.45464 15.7607 1.80754 16.1846 2.31698 16.2216C2.65565 16.2472 2.99717 16.2272 3.35008 16.2272H3.35292Z" fill="url(#paint0_linear_31_3855)"/>
<path id="Vector_2" d="M14.0142 15.2656C15.5823 15.2656 17.1505 15.2656 18.7186 15.2656C18.9577 15.2656 19.1598 15.314 19.2622 15.5558C19.3903 15.8602 19.2053 16.1845 18.8752 16.2272C18.7955 16.2386 18.7158 16.2329 18.6333 16.2329C15.5482 16.2329 12.4631 16.2329 9.37806 16.2329C9.28699 16.2329 9.19592 16.2386 9.10769 16.2243C8.86009 16.1845 8.69218 15.9854 8.70641 15.7379C8.72064 15.4875 8.85155 15.3225 9.102 15.277C9.19876 15.2599 9.30122 15.2685 9.40368 15.2685C10.9405 15.2685 12.4802 15.2685 14.017 15.2685L14.0142 15.2656Z" fill="url(#paint1_linear_31_3855)"/>
<path id="Vector_3" d="M13.9828 19.13C12.446 19.13 10.9063 19.13 9.36946 19.13C9.26985 19.13 9.16455 19.1386 9.07063 19.1158C8.83442 19.0617 8.70919 18.8967 8.70635 18.6606C8.7035 18.4103 8.82872 18.2368 9.07633 18.1799C9.17309 18.1571 9.27555 18.1656 9.37516 18.1656C12.4602 18.1656 15.5453 18.1656 18.6303 18.1656C18.71 18.1656 18.7926 18.1599 18.8723 18.1713C19.1369 18.2111 19.2849 18.3648 19.2935 18.635C19.302 18.9024 19.1341 19.0959 18.8666 19.1272C18.7783 19.1386 18.6873 19.1329 18.5962 19.1329C17.0594 19.1329 15.5197 19.1329 13.9828 19.1329V19.13Z" fill="url(#paint2_linear_31_3855)"/>
<path id="Vector_4" d="M14.0055 22.0332C12.4374 22.0332 10.8693 22.0332 9.30111 22.0332C8.93682 22.0332 8.76322 21.9166 8.71199 21.6463C8.65791 21.3618 8.82583 21.12 9.10758 21.0745C9.15596 21.066 9.20719 21.0688 9.25842 21.0688C12.4146 21.0688 15.5708 21.0688 18.7271 21.0688C19.0714 21.0688 19.2593 21.2139 19.2906 21.4842C19.3304 21.817 19.1198 22.0332 18.7384 22.0332C17.5118 22.0361 16.2852 22.0332 15.0586 22.0332C14.7057 22.0332 14.3556 22.0332 14.0027 22.0332H14.0055Z" fill="url(#paint3_linear_31_3855)"/>
<path id="Vector_5" d="M6.76257 10.4287C6.59181 10.4287 6.42105 10.4401 6.25029 10.4287C5.97992 10.4088 5.80631 10.2153 5.80347 9.95362C5.80347 9.6919 5.97423 9.48707 6.2446 9.47569C6.58612 9.45862 6.92764 9.45862 7.26916 9.47569C7.54237 9.48707 7.71029 9.68336 7.71029 9.95078C7.71029 10.2182 7.54522 10.4088 7.272 10.4315C7.10124 10.4458 6.93048 10.4315 6.75972 10.4315L6.76257 10.4287Z" fill="url(#paint4_linear_31_3855)"/>
<path id="Vector_6" d="M6.75384 13.3307C6.59446 13.3307 6.43224 13.3392 6.27287 13.3307C5.98542 13.3108 5.80328 13.1145 5.80897 12.8414C5.81466 12.5797 5.98827 12.3862 6.26148 12.372C6.59162 12.3578 6.9246 12.3578 7.25474 12.372C7.54787 12.3834 7.71863 12.5797 7.71579 12.8585C7.7101 13.1259 7.54218 13.3079 7.26612 13.3279C7.09536 13.3392 6.9246 13.3279 6.75384 13.3307Z" fill="url(#paint5_linear_31_3855)"/>
<path id="Vector_7" d="M6.7596 16.2265C6.58884 16.2265 6.41808 16.2379 6.24732 16.2265C5.97695 16.2037 5.80334 16.0074 5.80619 15.7457C5.80619 15.484 5.98264 15.2849 6.25301 15.2735C6.59453 15.2593 6.93605 15.2564 7.27757 15.2735C7.55078 15.2849 7.71585 15.4868 7.71301 15.7514C7.71301 16.016 7.54225 16.2066 7.26903 16.2265C7.09827 16.2407 6.92751 16.2265 6.75675 16.2265H6.7596Z" fill="url(#paint6_linear_31_3855)"/>
<path id="Vector_8" d="M6.75398 18.1666C6.91336 18.1666 7.07558 18.1609 7.23495 18.1666C7.53094 18.1837 7.70739 18.3629 7.71024 18.6388C7.71308 18.9176 7.53948 19.1139 7.24634 19.1253C6.9162 19.1367 6.58322 19.1395 6.25308 19.1253C5.97987 19.1139 5.80626 18.9176 5.80057 18.6559C5.79772 18.3828 5.97987 18.1865 6.26731 18.1694C6.42669 18.1581 6.58891 18.1694 6.74829 18.1694L6.75398 18.1666Z" fill="url(#paint7_linear_31_3855)"/>
<path id="Vector_9" d="M6.7539 22.0299C6.59453 22.0299 6.43231 22.0384 6.27293 22.0299C5.98548 22.01 5.80334 21.8137 5.80619 21.5406C5.81188 21.2789 5.98548 21.0854 6.2587 21.0712C6.58884 21.057 6.92182 21.057 7.25195 21.0712C7.54509 21.0826 7.71585 21.2789 7.71301 21.5577C7.70731 21.8251 7.5394 22.0072 7.26334 22.0271C7.09258 22.0385 6.92182 22.0271 6.75106 22.0299H6.7539Z" fill="url(#paint8_linear_31_3855)"/>
<path id="Vector_10" d="M20.7534 4.59974C20.7534 5.04353 20.742 5.48732 20.7619 5.92826C20.7676 6.03921 20.8559 6.18714 20.9498 6.24404C21.5731 6.61102 21.8491 7.28524 21.6584 7.97653C21.6328 8.07325 21.6698 8.22971 21.7381 8.30083C22.1309 8.71618 22.5435 9.11445 22.9477 9.5241C23.2095 9.78867 23.2351 10.0817 23.0245 10.2922C22.8054 10.5056 22.5379 10.4771 22.2618 10.2012C21.869 9.81143 21.4763 9.42169 21.0921 9.02626C20.9669 8.89824 20.8644 8.85557 20.6766 8.91247C19.9309 9.13152 19.2479 8.79299 18.9547 8.08463C18.6616 7.37627 18.9064 6.65084 19.5865 6.27817C19.7431 6.19283 19.7943 6.1018 19.7943 5.93111C19.7858 5.09473 19.7915 4.2612 19.7915 3.42483C19.7915 3.33379 19.7858 3.24276 19.7972 3.15457C19.8341 2.87294 20.0504 2.68518 20.3066 2.70225C20.557 2.71932 20.742 2.90707 20.7477 3.18302C20.7563 3.65526 20.7477 4.13034 20.7477 4.60258L20.7534 4.59974ZM20.244 8.01351C20.5058 8.02204 20.7392 7.81153 20.7477 7.55834C20.7563 7.28524 20.557 7.05481 20.3037 7.04912C20.0334 7.04058 19.8 7.24825 19.7943 7.4986C19.7886 7.76032 20.0021 8.00497 20.244 8.01351Z" fill="url(#paint9_linear_31_3855)"/>
</g>
<defs>
<linearGradient id="paint0_linear_31_3855" x1="13.978" y1="0.283203" x2="13.978" y2="29.2821" gradientUnits="userSpaceOnUse">
<stop stop-color="#2F4C8F"/>
<stop offset="1" stop-color="#2581BF"/>
</linearGradient>
<linearGradient id="paint1_linear_31_3855" x1="14.0043" y1="15.2656" x2="14.0043" y2="16.2343" gradientUnits="userSpaceOnUse">
<stop stop-color="#2F4C8F"/>
<stop offset="1" stop-color="#2581BF"/>
</linearGradient>
<linearGradient id="paint2_linear_31_3855" x1="14" y1="18.1641" x2="14" y2="19.1343" gradientUnits="userSpaceOnUse">
<stop stop-color="#2F4C8F"/>
<stop offset="1" stop-color="#2581BF"/>
</linearGradient>
<linearGradient id="paint3_linear_31_3855" x1="13.9986" y1="21.0684" x2="13.9986" y2="22.0345" gradientUnits="userSpaceOnUse">
<stop stop-color="#2F4C8F"/>
<stop offset="1" stop-color="#2581BF"/>
</linearGradient>
<linearGradient id="paint4_linear_31_3855" x1="6.75688" y1="9.46289" x2="6.75688" y2="10.4379" gradientUnits="userSpaceOnUse">
<stop stop-color="#2F4C8F"/>
<stop offset="1" stop-color="#2581BF"/>
</linearGradient>
<linearGradient id="paint5_linear_31_3855" x1="6.76233" y1="12.3613" x2="6.76233" y2="13.3345" gradientUnits="userSpaceOnUse">
<stop stop-color="#2F4C8F"/>
<stop offset="1" stop-color="#2581BF"/>
</linearGradient>
<linearGradient id="paint6_linear_31_3855" x1="6.7596" y1="15.2617" x2="6.7596" y2="16.2328" gradientUnits="userSpaceOnUse">
<stop stop-color="#2F4C8F"/>
<stop offset="1" stop-color="#2581BF"/>
</linearGradient>
<linearGradient id="paint7_linear_31_3855" x1="6.7554" y1="18.1641" x2="6.7554" y2="19.1349" gradientUnits="userSpaceOnUse">
<stop stop-color="#2F4C8F"/>
<stop offset="1" stop-color="#2581BF"/>
</linearGradient>
<linearGradient id="paint8_linear_31_3855" x1="6.7596" y1="21.0605" x2="6.7596" y2="22.0337" gradientUnits="userSpaceOnUse">
<stop stop-color="#2F4C8F"/>
<stop offset="1" stop-color="#2581BF"/>
</linearGradient>
<linearGradient id="paint9_linear_31_3855" x1="20.9991" y1="2.70117" x2="20.9991" y2="10.4329" gradientUnits="userSpaceOnUse">
<stop stop-color="#2F4C8F"/>
<stop offset="1" stop-color="#2581BF"/>
</linearGradient>
<clipPath id="clip0_31_3855">
<rect width="27" height="29" fill="white" transform="translate(0.478516 0.28125)"/>
</clipPath>
</defs>
</svg>
