<svg width="34" height="34" viewBox="0 0 34 34" fill="none" xmlns="http://www.w3.org/2000/svg">
<g id="Layer_1" clip-path="url(#clip0_237_9895)">
<path id="Vector" d="M24.4891 25.1121C23.4472 24.0396 22.4149 22.9794 21.3706 21.9045C18.5494 24.4396 15.2573 25.5833 11.4965 25.0802C8.22103 24.6409 5.5307 23.053 3.485 20.378C-0.516008 15.1408 0.128625 7.67769 4.94316 3.21111C9.68395 -1.18675 17.0033 -1.04932 21.6037 3.53015C26.2517 8.15625 26.7156 15.8844 22.1033 21.1437C22.1437 21.1952 22.1818 21.2517 22.2293 21.2983C23.157 22.253 24.0871 23.2052 25.0077 24.1672C25.1504 24.3145 25.2551 24.3488 25.4525 24.2482C26.4064 23.7672 27.3816 23.9316 28.1381 24.7047C29.8103 26.4128 31.4778 28.1258 33.1381 29.8486C34.0944 30.8401 34.1015 32.3298 33.181 33.2918C32.2723 34.2391 30.7999 34.2367 29.8365 33.2575C28.169 31.5592 26.5158 29.8511 24.8626 28.1381C24.0562 27.3012 23.9563 26.3514 24.4915 25.1096L24.4891 25.1121ZM1.84606 12.586C1.84606 18.9742 6.89133 24.182 13.0855 24.1869C19.3463 24.1918 24.3844 18.9988 24.3821 12.5369C24.3797 6.12666 19.3273 1.00727 12.9856 0.992544C6.9056 0.977819 1.84606 6.24446 1.84606 12.586ZM26.6561 24.9722C25.9068 25.0016 25.4739 25.2691 25.2313 25.7992C24.9767 26.349 25.0505 26.8963 25.462 27.3257C27.1533 29.0952 28.8564 30.8499 30.5715 32.5948C31.1043 33.1347 31.9797 33.0979 32.4911 32.5703C33.0121 32.0304 33.0263 31.1714 32.4816 30.6045C30.8022 28.8571 29.1157 27.1171 27.4102 25.3968C27.1794 25.1636 26.8203 25.063 26.6585 24.9746L26.6561 24.9722Z" fill="url(#paint0_linear_237_9895)"/>
<path id="Vector_2" d="M5.16443 12.5673C5.16443 11.2421 5.16918 9.91436 5.15967 8.58912C5.15967 8.27498 5.27147 8.08601 5.54978 7.94858C7.92374 6.78285 10.2929 5.60976 12.6598 4.42685C12.9571 4.27715 13.2093 4.26488 13.5114 4.41704C15.8972 5.60976 18.2878 6.79267 20.6784 7.97557C20.9282 8.09828 21.04 8.28234 21.04 8.56457C21.0353 11.2175 21.0305 13.868 21.04 16.521C21.04 16.8965 20.8973 17.1124 20.5762 17.2695C18.1737 18.4549 15.7783 19.6549 13.371 20.8329C13.2188 20.9066 12.9738 20.9041 12.8215 20.8305C10.4166 19.65 8.02127 18.445 5.61876 17.2621C5.28812 17.1002 5.15967 16.8793 5.16205 16.5112C5.17394 15.1982 5.1668 13.8827 5.1668 12.5698C5.1668 12.5698 5.1668 12.5698 5.16443 12.5698V12.5673ZM13.5899 19.6059C13.6755 19.5715 13.7183 19.5568 13.7587 19.5371C15.7926 18.5285 17.824 17.5125 19.8602 16.5136C20.0695 16.4105 20.0719 16.2707 20.0695 16.0866C20.0695 13.9269 20.0695 11.7648 20.0695 9.60514C20.0695 9.51434 20.06 9.42353 20.0552 9.33273C20.0124 9.33273 19.9886 9.32536 19.9696 9.33273C17.8977 10.3561 15.8235 11.3795 13.7564 12.4127C13.6779 12.452 13.597 12.5894 13.597 12.6802C13.5875 14.9724 13.5899 17.2646 13.5899 19.6059ZM12.5956 19.6132C12.6051 19.5347 12.6122 19.493 12.6122 19.4488C12.6122 17.2032 12.617 14.9601 12.6027 12.7146C12.6027 12.5943 12.4695 12.4201 12.3553 12.3612C10.3714 11.3623 8.38046 10.3782 6.39185 9.39163C6.31573 9.35481 6.23485 9.33027 6.13256 9.29101C6.13256 11.6225 6.13019 13.9147 6.14208 16.2068C6.14208 16.3148 6.27529 16.467 6.38233 16.5234C8.35905 17.5198 10.3405 18.5039 12.3196 19.4905C12.4005 19.5298 12.4838 19.5641 12.5932 19.6132H12.5956ZM15.7069 6.61597C14.8672 6.20121 14.106 5.83063 13.3544 5.44288C13.1664 5.34471 13.0213 5.36189 12.8406 5.45515C11.8011 5.98034 10.7568 6.4908 9.71492 7.00618C8.75629 7.47983 7.80005 7.95349 6.78671 8.45659C7.65733 8.88607 8.47323 9.30082 9.30102 9.68858C9.39855 9.73521 9.56744 9.65913 9.68637 9.60269C10.5023 9.20756 11.3134 8.80017 12.1269 8.39769C13.2925 7.81851 14.4581 7.23932 15.7069 6.61842V6.61597ZM19.4082 8.45168C18.6018 8.05165 17.8454 7.66144 17.0771 7.30559C16.9367 7.23932 16.7131 7.24423 16.5728 7.31295C14.7412 8.20136 12.9167 9.1094 11.0922 10.0101C10.9114 10.0984 10.7354 10.1966 10.5213 10.307C11.3039 10.6948 12.0484 11.0506 12.7787 11.431C13.0071 11.5488 13.1831 11.5562 13.421 11.4384C15.3002 10.4911 17.1865 9.56342 19.0704 8.62838C19.1703 8.5793 19.2702 8.52285 19.4082 8.44923V8.45168Z" fill="url(#paint1_linear_237_9895)"/>
<path id="Vector_3" d="M8.07853 12.2871C8.27121 12.3607 8.38301 12.3926 8.48529 12.4417C9.14182 12.7657 9.80073 13.0896 10.4549 13.4185C10.8236 13.6025 10.9449 13.8627 10.8069 14.1474C10.669 14.437 10.4049 14.4959 10.0338 14.3143C9.34401 13.9756 8.65656 13.6344 7.96911 13.2933C7.71459 13.1657 7.58376 12.9448 7.69318 12.6822C7.76216 12.5153 7.95722 12.4049 8.07853 12.2871Z" fill="url(#paint2_linear_237_9895)"/>
</g>
<defs>
<linearGradient id="paint0_linear_237_9895" x1="17.3624" y1="0.00195312" x2="17.3624" y2="33.9971" gradientUnits="userSpaceOnUse">
<stop stop-color="#2F4C8F"/>
<stop offset="1" stop-color="#2581BF"/>
</linearGradient>
<linearGradient id="paint1_linear_237_9895" x1="13.0998" y1="4.30859" x2="13.0998" y2="20.8869" gradientUnits="userSpaceOnUse">
<stop stop-color="#2F4C8F"/>
<stop offset="1" stop-color="#2581BF"/>
</linearGradient>
<linearGradient id="paint2_linear_237_9895" x1="9.25825" y1="12.2871" x2="9.25825" y2="14.4176" gradientUnits="userSpaceOnUse">
<stop stop-color="#2F4C8F"/>
<stop offset="1" stop-color="#2581BF"/>
</linearGradient>
<clipPath id="clip0_237_9895">
<rect width="33" height="34" fill="white" transform="translate(0.861328)"/>
</clipPath>
</defs>
</svg>
