<svg width="29" height="29" viewBox="0 0 29 29" fill="none" xmlns="http://www.w3.org/2000/svg">
<g id="Group 435">
<circle id="Ellipse 17" cx="14.5" cy="14.5" r="14.5" fill="black"/>
<path id="Vector" d="M21.0291 13.5726H16.1431V9.147C16.1431 8.51327 15.556 8 14.831 8C14.1061 8 13.5189 8.51327 13.5189 9.147V13.5726H8.30637C7.5874 13.5726 7.00024 14.0859 7.00024 14.7196C7.00024 15.3534 7.5874 15.8666 8.31236 15.8666H13.5249V20.2661C13.5249 20.8998 14.112 21.4131 14.837 21.4131C15.562 21.4131 16.1491 20.8998 16.1491 20.2661V15.8666H21.0351C21.7601 15.8666 22.3472 15.3534 22.3472 14.7196C22.3382 14.0859 21.7541 13.5726 21.0291 13.5726Z" fill="#FCFCFC"/>
</g>
</svg>
