<svg width="12" height="11" viewBox="0 0 12 11" fill="none" xmlns="http://www.w3.org/2000/svg">
<path d="M2.91263 1.99864C2.67845 1.77194 2.29878 1.77194 2.0646 1.99864C1.83043 2.22534 1.83043 2.59289 2.0646 2.81959L4.81867 5.48573L2.06455 8.15192C1.83037 8.37862 1.83037 8.74617 2.06455 8.97287C2.29872 9.19957 2.6784 9.19957 2.91257 8.97287L5.66669 6.30667L8.42082 8.97287C8.65499 9.19957 9.03467 9.19957 9.26884 8.97287C9.50302 8.74618 9.50302 8.37862 9.26884 8.15193L6.51471 5.48573L9.26878 2.81959C9.50296 2.59289 9.50296 2.22534 9.26878 1.99864C9.03461 1.77194 8.65493 1.77194 8.42076 1.99864L5.66669 4.66478L2.91263 1.99864Z" fill="#FCFCFC"/>
</svg>
