<svg width="24" height="24" viewBox="0 0 24 24" fill="none" xmlns="http://www.w3.org/2000/svg">
<rect width="24" height="24" fill="#F2F2F2"/>
<g id="Inventory - Product 7" clip-path="url(#clip0_0_1)">
<rect width="1920" height="1659" transform="translate(-932 -641)" fill="white"/>
<path id="Vector" d="M1354 -690H-957V1129H1354V-690Z" fill="url(#paint0_linear_0_1)"/>
<g id="background" filter="url(#filter0_d_0_1)">
<rect x="-633" y="-47" width="1516" height="983" rx="10" fill="#FCFCFC"/>
</g>
<g id="Column Options">
<rect id="Rectangle 222" x="-14.7848" y="-12.445" width="228.753" height="48.89" rx="4.99506" fill="#FCFCFC" stroke="url(#paint1_linear_0_1)" stroke-width="1.11001"/>
<g id="Group 18467">
<path id="Vector_2" d="M7.94359 10.772C10.1086 10.772 12.2742 10.7693 14.4392 10.7762C14.6294 10.7762 14.7207 10.7375 14.7871 10.5403C15.245 9.18186 16.4956 8.28613 17.9052 8.28613C19.3176 8.28613 20.5592 9.17771 21.0219 10.541C21.0828 10.7195 21.1568 10.7817 21.345 10.7762C21.8361 10.7624 22.3285 10.7693 22.8196 10.772C23.328 10.7755 23.6974 11.1207 23.7029 11.5903C23.7078 12.0703 23.3349 12.4245 22.8127 12.4279C22.3299 12.4307 21.8464 12.439 21.3636 12.4238C21.1672 12.4176 21.0835 12.475 21.0192 12.6659C20.5412 14.0721 19.2485 14.9581 17.7683 14.9118C16.4292 14.8703 15.2229 13.9662 14.7843 12.6534C14.7221 12.4674 14.6377 12.4252 14.4572 12.4252C10.1438 12.43 5.83049 12.4286 1.51715 12.4279C1.3968 12.4279 1.27299 12.4321 1.15679 12.4065C0.739009 12.3152 0.460953 11.9209 0.50937 11.5052C0.557788 11.0881 0.902247 10.7762 1.34354 10.7741C2.40458 10.7686 3.46563 10.772 4.52667 10.772C5.66518 10.772 6.80438 10.772 7.9429 10.772H7.94359ZM17.8955 13.2573C18.8099 13.2614 19.5597 12.5158 19.5611 11.6028C19.5618 10.698 18.8279 9.95309 17.9267 9.9441C17.0102 9.93442 16.2556 10.6731 16.2486 11.5855C16.2424 12.5006 16.9839 13.2538 17.8962 13.258L17.8955 13.2573Z" fill="url(#paint2_linear_0_1)"/>
<path id="Vector_3" d="M16.2985 4.14249C14.1163 4.14249 11.9333 4.14457 9.75106 4.13904C9.57191 4.13904 9.48545 4.17915 9.42251 4.36591C8.95977 5.73959 7.70644 6.63532 6.28503 6.62841C4.87815 6.62149 3.63519 5.71953 3.17799 4.35692C3.12058 4.18469 3.04588 4.13419 2.87019 4.13834C2.3791 4.15079 1.88662 4.14526 1.39552 4.1418C0.872608 4.13904 0.49979 3.78559 0.503941 3.30556C0.508091 2.83383 0.875375 2.49006 1.38515 2.4866C1.89422 2.48314 2.4033 2.48107 2.91169 2.48868C3.05556 2.49075 3.11574 2.44718 3.16416 2.30469C3.64488 0.899189 4.874 0.000692085 6.30025 4.01541e-07C7.72996 -0.000691282 8.96047 0.892272 9.43635 2.30054C9.50413 2.50113 9.61964 2.48591 9.76559 2.48591C14.0789 2.48591 18.3923 2.48591 22.7056 2.48591C22.8177 2.48591 22.9318 2.48176 23.0404 2.5039C23.4471 2.5869 23.7286 2.96456 23.6996 3.37265C23.6698 3.79043 23.3281 4.13074 22.8972 4.13834C22.2332 4.14941 21.5685 4.1418 20.9045 4.14249C19.3689 4.14249 17.8334 4.14249 16.2978 4.14249H16.2985ZM6.30578 4.97044C7.21881 4.96906 7.96375 4.21927 7.9596 3.30417C7.95545 2.40083 7.21604 1.66142 6.31339 1.65658C5.39829 1.65243 4.64851 2.3953 4.64713 3.30971C4.64574 4.22342 5.39276 4.97182 6.30578 4.97044Z" fill="url(#paint3_linear_0_1)"/>
<path id="Vector_4" d="M16.2729 20.7166C14.099 20.7166 11.925 20.7187 9.75106 20.7132C9.57191 20.7132 9.48545 20.7526 9.42251 20.9394C8.95977 22.313 7.70644 23.2088 6.28503 23.2019C4.87815 23.1949 3.63519 22.293 3.17799 20.9304C3.12058 20.7588 3.04657 20.7069 2.87019 20.7118C2.3791 20.7242 1.88662 20.7187 1.39552 20.7153C0.8733 20.7118 0.49979 20.359 0.50394 19.879C0.508091 19.4073 0.875375 19.0628 1.38445 19.0594C1.89353 19.0559 2.40261 19.0538 2.911 19.0614C3.05487 19.0635 3.11505 19.0206 3.16416 18.8781C3.64418 17.4726 4.87331 16.5741 6.29956 16.5728C7.72927 16.5714 8.96047 17.465 9.43565 18.8733C9.50344 19.0739 9.61895 19.0587 9.76489 19.0587C14.0782 19.0587 18.3916 19.0587 22.7049 19.0587C22.817 19.0587 22.9311 19.0545 23.0397 19.0767C23.4464 19.1597 23.7279 19.5373 23.6996 19.9454C23.6698 20.3632 23.3281 20.7035 22.8979 20.7111C22.2595 20.7222 21.621 20.7146 20.9826 20.7153C19.4125 20.7153 17.8424 20.7153 16.2723 20.7153L16.2729 20.7166ZM6.29541 18.2314C5.38239 18.2349 4.6409 18.986 4.64643 19.9018C4.65197 20.8031 5.39484 21.5425 6.29679 21.5453C7.2112 21.548 7.9596 20.801 7.95891 19.8873C7.95891 18.9729 7.21051 18.2286 6.29541 18.2314Z" fill="url(#paint4_linear_0_1)"/>
</g>
</g>
</g>
<defs>
<filter id="filter0_d_0_1" x="-683" y="-77" width="1616" height="1083" filterUnits="userSpaceOnUse" color-interpolation-filters="sRGB">
<feFlood flood-opacity="0" result="BackgroundImageFix"/>
<feColorMatrix in="SourceAlpha" type="matrix" values="0 0 0 0 0 0 0 0 0 0 0 0 0 0 0 0 0 0 127 0" result="hardAlpha"/>
<feOffset dy="20"/>
<feGaussianBlur stdDeviation="25"/>
<feColorMatrix type="matrix" values="0 0 0 0 0 0 0 0 0 0 0 0 0 0 0 0 0 0 0.1 0"/>
<feBlend mode="normal" in2="BackgroundImageFix" result="effect1_dropShadow_0_1"/>
<feBlend mode="normal" in="SourceGraphic" in2="effect1_dropShadow_0_1" result="shape"/>
</filter>
<linearGradient id="paint0_linear_0_1" x1="689.192" y1="1554.22" x2="-916.038" y2="-516.502" gradientUnits="userSpaceOnUse">
<stop stop-color="#E5FFFF"/>
<stop offset="0.1" stop-color="#E5FFFF"/>
<stop offset="0.62" stop-color="#F8FFFF"/>
<stop offset="0.98" stop-color="white"/>
</linearGradient>
<linearGradient id="paint1_linear_0_1" x1="-10.6345" y1="12" x2="214.605" y2="13.1964" gradientUnits="userSpaceOnUse">
<stop stop-color="#0172F7"/>
<stop offset="1" stop-color="#00CEFB"/>
</linearGradient>
<linearGradient id="paint2_linear_0_1" x1="0.503906" y1="11.5998" x2="26.185" y2="11.6418" gradientUnits="userSpaceOnUse">
<stop offset="0.0101638" stop-color="#094C89"/>
<stop offset="1" stop-color="#019EF7"/>
</linearGradient>
<linearGradient id="paint3_linear_0_1" x1="0.503906" y1="3.31424" x2="26.1835" y2="3.35623" gradientUnits="userSpaceOnUse">
<stop offset="0.0101638" stop-color="#094C89"/>
<stop offset="1" stop-color="#019EF7"/>
</linearGradient>
<linearGradient id="paint4_linear_0_1" x1="0.503906" y1="19.8873" x2="26.1834" y2="19.9293" gradientUnits="userSpaceOnUse">
<stop offset="0.0101638" stop-color="#094C89"/>
<stop offset="1" stop-color="#019EF7"/>
</linearGradient>
<clipPath id="clip0_0_1">
<rect width="1920" height="1659" fill="white" transform="translate(-932 -641)"/>
</clipPath>
</defs>
</svg>
