<svg width="1623" height="1501" viewBox="0 0 1623 1501" fill="none" xmlns="http://www.w3.org/2000/svg">
<mask id="mask0_193_1522" style="mask-type:alpha" maskUnits="userSpaceOnUse" x="0" y="0" width="1623" height="1501">
<rect width="1623" height="1501" fill="white"/>
</mask>
<g mask="url(#mask0_193_1522)">
<path d="M1623 2H0V1503H1623V2Z" fill="url(#paint0_linear_193_1522)"/>
<g style="mix-blend-mode:color-burn" clip-path="url(#clip0_193_1522)">
<g style="mix-blend-mode:multiply" opacity="0.5">
<path d="M1777.26 1366.18C1778.36 1447.64 1747.68 1524.65 1690.85 1583.04C1634.03 1641.42 1557.87 1674.17 1476.41 1675.27C1394.95 1676.36 1317.94 1645.68 1259.56 1588.85C1201.18 1532.03 1168.43 1455.88 1167.33 1374.41C1166.23 1292.95 1196.91 1215.94 1253.73 1157.56C1310.56 1099.18 1386.72 1066.43 1468.18 1065.33C1549.64 1064.23 1626.65 1094.91 1685.04 1151.74C1743.42 1208.57 1776.17 1284.72 1777.27 1366.18L1777.26 1366.18ZM1169.24 1374.39C1171.5 1541.5 1309.28 1675.61 1476.39 1673.35C1643.5 1671.09 1777.61 1533.31 1775.35 1366.2C1773.09 1199.09 1635.31 1064.98 1468.2 1067.24C1301.09 1069.5 1166.99 1207.28 1169.24 1374.39Z" fill="url(#paint1_linear_193_1522)"/>
<path d="M1750.91 1366.53C1751.91 1440.95 1723.88 1511.31 1671.97 1564.64C1620.06 1617.97 1550.49 1647.9 1476.07 1648.91C1401.66 1649.91 1331.29 1621.88 1277.96 1569.97C1224.63 1518.06 1194.7 1448.48 1193.7 1374.06C1192.68 1299.64 1220.71 1229.28 1272.63 1175.95C1324.54 1122.62 1394.11 1092.69 1468.53 1091.7C1542.95 1090.69 1613.31 1118.72 1666.64 1170.64C1719.97 1222.55 1749.9 1292.13 1750.9 1366.54L1750.91 1366.53ZM1195.44 1374.03C1197.5 1526.7 1323.37 1649.22 1476.03 1647.15C1628.7 1645.09 1751.22 1519.22 1749.16 1366.56C1747.09 1213.89 1621.22 1091.37 1468.56 1093.44C1315.89 1095.5 1193.38 1221.37 1195.44 1374.03Z" fill="url(#paint2_linear_193_1522)"/>
<path d="M1724.54 1366.89C1725.45 1434.27 1700.07 1497.97 1653.07 1546.26C1606.07 1594.55 1543.07 1621.64 1475.7 1622.56C1408.33 1623.47 1344.62 1598.08 1296.33 1551.08C1248.05 1504.08 1220.95 1441.09 1220.04 1373.71C1219.13 1306.33 1244.51 1242.62 1291.51 1194.34C1338.51 1146.05 1401.51 1118.96 1468.89 1118.05C1536.27 1117.14 1599.97 1142.53 1648.25 1189.53C1696.54 1236.53 1723.63 1299.52 1724.55 1366.9L1724.54 1366.89ZM1221.63 1373.68C1223.5 1511.9 1337.46 1622.83 1475.68 1620.96C1613.9 1619.09 1724.83 1505.12 1722.96 1366.91C1721.09 1228.69 1607.13 1117.76 1468.91 1119.63C1330.69 1121.5 1219.76 1235.46 1221.63 1373.68Z" fill="url(#paint3_linear_193_1522)"/>
<path d="M1698.19 1367.25C1699.87 1491.8 1599.9 1594.51 1475.35 1596.19C1350.79 1597.87 1248.08 1497.91 1246.4 1373.35C1244.72 1248.79 1344.69 1146.08 1469.25 1144.4C1593.8 1142.72 1696.51 1242.69 1698.18 1367.24L1698.19 1367.25ZM1247.83 1373.33C1249.5 1497.09 1351.56 1596.44 1475.33 1594.77C1599.09 1593.09 1698.44 1491.03 1696.77 1367.26C1695.09 1243.5 1593.03 1144.16 1469.26 1145.83C1345.5 1147.5 1246.16 1249.56 1247.83 1373.33Z" fill="url(#paint4_linear_193_1522)"/>
<path d="M1671.82 1367.6C1673.31 1477.62 1585.01 1568.34 1474.98 1569.83C1364.97 1571.31 1274.25 1483.01 1272.76 1372.99C1271.27 1262.97 1359.57 1172.25 1469.59 1170.76C1579.61 1169.28 1670.33 1257.58 1671.82 1367.6ZM1274.02 1372.97C1275.5 1482.3 1365.65 1570.05 1474.97 1568.57C1584.3 1567.09 1672.05 1476.94 1670.57 1367.62C1669.09 1258.29 1578.94 1170.54 1469.62 1172.02C1360.29 1173.5 1272.55 1263.65 1274.02 1372.97Z" fill="url(#paint5_linear_193_1522)"/>
<path d="M1645.47 1367.96C1646.76 1463.45 1570.12 1542.18 1474.63 1543.47C1379.15 1544.76 1300.41 1468.12 1299.12 1372.63C1297.83 1277.15 1374.47 1198.41 1469.96 1197.12C1565.44 1195.83 1644.18 1272.47 1645.47 1367.96ZM1300.22 1372.62C1301.5 1467.5 1379.74 1543.66 1474.62 1542.38C1569.5 1541.09 1645.66 1462.86 1644.38 1367.97C1643.09 1273.09 1564.86 1196.94 1469.97 1198.22C1375.09 1199.5 1298.94 1277.74 1300.22 1372.62Z" fill="url(#paint6_linear_193_1522)"/>
<path d="M1619.1 1368.31C1620.19 1449.27 1555.23 1516.02 1474.27 1517.11C1393.31 1518.2 1326.58 1453.23 1325.48 1372.28C1324.38 1291.32 1389.35 1224.58 1470.31 1223.48C1551.26 1222.39 1618.01 1287.36 1619.1 1368.31ZM1326.41 1372.27C1327.5 1452.71 1393.83 1517.27 1474.27 1516.19C1554.71 1515.1 1619.27 1448.77 1618.2 1368.33C1617.11 1287.89 1550.78 1223.33 1470.34 1224.41C1389.9 1225.5 1325.34 1291.83 1326.43 1372.27L1326.41 1372.27Z" fill="url(#paint7_linear_193_1522)"/>
<path d="M1592.75 1368.67C1593.64 1435.08 1540.34 1489.85 1473.92 1490.75C1407.51 1491.64 1352.74 1438.34 1351.84 1371.92C1350.95 1305.51 1404.25 1250.74 1470.67 1249.84C1537.08 1248.95 1591.85 1302.25 1592.75 1368.67ZM1352.61 1371.91C1353.5 1437.91 1407.91 1490.88 1473.92 1489.99C1539.92 1489.1 1592.88 1434.68 1592 1368.68C1591.11 1302.68 1536.69 1249.71 1470.69 1250.6C1404.7 1251.5 1351.73 1305.91 1352.62 1371.91L1352.61 1371.91Z" fill="url(#paint8_linear_193_1522)"/>
</g>
</g>
<g style="mix-blend-mode:color-burn" clip-path="url(#clip1_193_1522)">
<g style="mix-blend-mode:multiply" opacity="0.5">
<path d="M1609.26 1571.18C1610.36 1652.64 1579.68 1729.65 1522.85 1788.04C1466.03 1846.42 1389.87 1879.17 1308.41 1880.27C1226.95 1881.36 1149.94 1850.68 1091.56 1793.85C1033.18 1737.03 1000.43 1660.88 999.328 1579.41C998.228 1497.95 1028.91 1420.94 1085.73 1362.56C1142.56 1304.18 1218.72 1271.43 1300.18 1270.33C1381.64 1269.23 1458.65 1299.91 1517.04 1356.74C1575.42 1413.57 1608.17 1489.72 1609.27 1571.18L1609.26 1571.18ZM1001.24 1579.39C1003.5 1746.5 1141.28 1880.61 1308.39 1878.35C1475.5 1876.09 1609.61 1738.31 1607.35 1571.2C1605.09 1404.09 1467.31 1269.98 1300.2 1272.24C1133.09 1274.5 998.985 1412.28 1001.24 1579.39Z" fill="url(#paint9_linear_193_1522)"/>
<path d="M1582.91 1571.53C1583.91 1645.95 1555.88 1716.31 1503.97 1769.64C1452.06 1822.97 1382.49 1852.9 1308.07 1853.91C1233.66 1854.91 1163.29 1826.88 1109.96 1774.97C1056.63 1723.06 1026.7 1653.48 1025.7 1579.06C1024.68 1504.64 1052.71 1434.28 1104.63 1380.95C1156.54 1327.62 1226.11 1297.69 1300.53 1296.7C1374.95 1295.69 1445.31 1323.72 1498.64 1375.64C1551.97 1427.55 1581.9 1497.13 1582.9 1571.54L1582.91 1571.53ZM1027.44 1579.03C1029.5 1731.7 1155.37 1854.22 1308.03 1852.15C1460.7 1850.09 1583.22 1724.22 1581.16 1571.56C1579.09 1418.89 1453.22 1296.37 1300.56 1298.44C1147.89 1300.5 1025.38 1426.37 1027.44 1579.03Z" fill="url(#paint10_linear_193_1522)"/>
<path d="M1556.54 1571.89C1557.45 1639.27 1532.07 1702.97 1485.07 1751.26C1438.07 1799.55 1375.07 1826.64 1307.7 1827.56C1240.33 1828.47 1176.62 1803.08 1128.33 1756.08C1080.05 1709.08 1052.95 1646.09 1052.04 1578.71C1051.13 1511.33 1076.51 1447.62 1123.51 1399.34C1170.51 1351.05 1233.51 1323.96 1300.89 1323.05C1368.27 1322.14 1431.97 1347.53 1480.25 1394.53C1528.54 1441.53 1555.63 1504.52 1556.55 1571.9L1556.54 1571.89ZM1053.63 1578.68C1055.5 1716.9 1169.46 1827.83 1307.68 1825.96C1445.9 1824.09 1556.83 1710.12 1554.96 1571.91C1553.09 1433.69 1439.13 1322.76 1300.91 1324.63C1162.69 1326.5 1051.76 1440.46 1053.63 1578.68Z" fill="url(#paint11_linear_193_1522)"/>
<path d="M1530.19 1572.25C1531.87 1696.8 1431.9 1799.51 1307.35 1801.19C1182.79 1802.87 1080.08 1702.91 1078.4 1578.35C1076.72 1453.79 1176.69 1351.08 1301.25 1349.4C1425.8 1347.72 1528.51 1447.69 1530.18 1572.24L1530.19 1572.25ZM1079.83 1578.33C1081.5 1702.09 1183.56 1801.44 1307.33 1799.77C1431.09 1798.09 1530.44 1696.03 1528.77 1572.26C1527.09 1448.5 1425.03 1349.16 1301.26 1350.83C1177.5 1352.5 1078.16 1454.56 1079.83 1578.33Z" fill="url(#paint12_linear_193_1522)"/>
<path d="M1503.82 1572.6C1505.31 1682.62 1417.01 1773.34 1306.98 1774.83C1196.97 1776.31 1106.25 1688.01 1104.76 1577.99C1103.27 1467.97 1191.57 1377.25 1301.59 1375.76C1411.61 1374.28 1502.33 1462.58 1503.82 1572.6ZM1106.02 1577.97C1107.5 1687.3 1197.65 1775.05 1306.97 1773.57C1416.3 1772.09 1504.05 1681.94 1502.57 1572.62C1501.09 1463.29 1410.94 1375.54 1301.62 1377.02C1192.29 1378.5 1104.55 1468.65 1106.02 1577.97Z" fill="url(#paint13_linear_193_1522)"/>
<path d="M1477.47 1572.96C1478.76 1668.45 1402.12 1747.18 1306.63 1748.47C1211.15 1749.76 1132.41 1673.12 1131.12 1577.63C1129.83 1482.15 1206.47 1403.41 1301.96 1402.12C1397.44 1400.83 1476.18 1477.47 1477.47 1572.96ZM1132.22 1577.62C1133.5 1672.5 1211.74 1748.66 1306.62 1747.38C1401.5 1746.09 1477.66 1667.86 1476.38 1572.97C1475.09 1478.09 1396.86 1401.94 1301.97 1403.22C1207.09 1404.5 1130.94 1482.74 1132.22 1577.62Z" fill="url(#paint14_linear_193_1522)"/>
<path d="M1451.1 1573.31C1452.19 1654.27 1387.23 1721.02 1306.27 1722.11C1225.31 1723.2 1158.58 1658.23 1157.48 1577.28C1156.38 1496.32 1221.35 1429.58 1302.31 1428.48C1383.26 1427.39 1450.01 1492.36 1451.1 1573.31ZM1158.41 1577.27C1159.5 1657.71 1225.83 1722.27 1306.27 1721.19C1386.71 1720.1 1451.27 1653.77 1450.2 1573.33C1449.11 1492.89 1382.78 1428.33 1302.34 1429.41C1221.9 1430.5 1157.34 1496.83 1158.43 1577.27L1158.41 1577.27Z" fill="url(#paint15_linear_193_1522)"/>
<path d="M1424.75 1573.67C1425.64 1640.08 1372.34 1694.85 1305.92 1695.75C1239.51 1696.64 1184.74 1643.34 1183.84 1576.92C1182.95 1510.51 1236.25 1455.74 1302.67 1454.84C1369.08 1453.95 1423.85 1507.25 1424.75 1573.67ZM1184.61 1576.91C1185.5 1642.91 1239.91 1695.88 1305.92 1694.99C1371.92 1694.1 1424.88 1639.68 1424 1573.68C1423.11 1507.68 1368.69 1454.71 1302.69 1455.6C1236.7 1456.5 1183.73 1510.91 1184.62 1576.91L1184.61 1576.91Z" fill="url(#paint16_linear_193_1522)"/>
</g>
</g>
</g>
<defs>
<linearGradient id="paint0_linear_193_1522" x1="1156.11" y1="1853.88" x2="-205.724" y2="358.752" gradientUnits="userSpaceOnUse">
<stop stop-color="#E5FFFF"/>
<stop offset="0.1" stop-color="#E5FFFF"/>
<stop offset="0.62" stop-color="#F8FFFF"/>
<stop offset="0.98" stop-color="white"/>
</linearGradient>
<linearGradient id="paint1_linear_193_1522" x1="1684.1" y1="1150.84" x2="1260.48" y2="1589.75" gradientUnits="userSpaceOnUse">
<stop/>
<stop offset="0.67" stop-color="#AEAEAE"/>
<stop offset="1" stop-color="white"/>
</linearGradient>
<linearGradient id="paint2_linear_193_1522" x1="1665.8" y1="1169.82" x2="1278.79" y2="1570.78" gradientUnits="userSpaceOnUse">
<stop/>
<stop offset="0.67" stop-color="#AEAEAE"/>
<stop offset="1" stop-color="white"/>
</linearGradient>
<linearGradient id="paint3_linear_193_1522" x1="1647.49" y1="1188.78" x2="1297.1" y2="1551.81" gradientUnits="userSpaceOnUse">
<stop/>
<stop offset="0.67" stop-color="#AEAEAE"/>
<stop offset="1" stop-color="white"/>
</linearGradient>
<linearGradient id="paint4_linear_193_1522" x1="1629.11" y1="1207.82" x2="1315.48" y2="1532.77" gradientUnits="userSpaceOnUse">
<stop/>
<stop offset="0.67" stop-color="#AEAEAE"/>
<stop offset="1" stop-color="white"/>
</linearGradient>
<linearGradient id="paint5_linear_193_1522" x1="1610.81" y1="1226.79" x2="1333.78" y2="1513.81" gradientUnits="userSpaceOnUse">
<stop/>
<stop offset="0.67" stop-color="#AEAEAE"/>
<stop offset="1" stop-color="white"/>
</linearGradient>
<linearGradient id="paint6_linear_193_1522" x1="1592.51" y1="1245.74" x2="1352.07" y2="1494.86" gradientUnits="userSpaceOnUse">
<stop/>
<stop offset="0.67" stop-color="#AEAEAE"/>
<stop offset="1" stop-color="white"/>
</linearGradient>
<linearGradient id="paint7_linear_193_1522" x1="1574.21" y1="1264.7" x2="1370.37" y2="1475.89" gradientUnits="userSpaceOnUse">
<stop/>
<stop offset="0.67" stop-color="#AEAEAE"/>
<stop offset="1" stop-color="white"/>
</linearGradient>
<linearGradient id="paint8_linear_193_1522" x1="1555.91" y1="1283.67" x2="1388.67" y2="1456.93" gradientUnits="userSpaceOnUse">
<stop/>
<stop offset="0.67" stop-color="#AEAEAE"/>
<stop offset="1" stop-color="white"/>
</linearGradient>
<linearGradient id="paint9_linear_193_1522" x1="1516.1" y1="1355.84" x2="1092.48" y2="1794.75" gradientUnits="userSpaceOnUse">
<stop/>
<stop offset="0.67" stop-color="#AEAEAE"/>
<stop offset="1" stop-color="white"/>
</linearGradient>
<linearGradient id="paint10_linear_193_1522" x1="1497.8" y1="1374.82" x2="1110.79" y2="1775.78" gradientUnits="userSpaceOnUse">
<stop/>
<stop offset="0.67" stop-color="#AEAEAE"/>
<stop offset="1" stop-color="white"/>
</linearGradient>
<linearGradient id="paint11_linear_193_1522" x1="1479.49" y1="1393.78" x2="1129.1" y2="1756.81" gradientUnits="userSpaceOnUse">
<stop/>
<stop offset="0.67" stop-color="#AEAEAE"/>
<stop offset="1" stop-color="white"/>
</linearGradient>
<linearGradient id="paint12_linear_193_1522" x1="1461.11" y1="1412.82" x2="1147.48" y2="1737.77" gradientUnits="userSpaceOnUse">
<stop/>
<stop offset="0.67" stop-color="#AEAEAE"/>
<stop offset="1" stop-color="white"/>
</linearGradient>
<linearGradient id="paint13_linear_193_1522" x1="1442.81" y1="1431.79" x2="1165.78" y2="1718.81" gradientUnits="userSpaceOnUse">
<stop/>
<stop offset="0.67" stop-color="#AEAEAE"/>
<stop offset="1" stop-color="white"/>
</linearGradient>
<linearGradient id="paint14_linear_193_1522" x1="1424.51" y1="1450.74" x2="1184.07" y2="1699.86" gradientUnits="userSpaceOnUse">
<stop/>
<stop offset="0.67" stop-color="#AEAEAE"/>
<stop offset="1" stop-color="white"/>
</linearGradient>
<linearGradient id="paint15_linear_193_1522" x1="1406.21" y1="1469.7" x2="1202.37" y2="1680.89" gradientUnits="userSpaceOnUse">
<stop/>
<stop offset="0.67" stop-color="#AEAEAE"/>
<stop offset="1" stop-color="white"/>
</linearGradient>
<linearGradient id="paint16_linear_193_1522" x1="1387.91" y1="1488.67" x2="1220.67" y2="1661.93" gradientUnits="userSpaceOnUse">
<stop/>
<stop offset="0.67" stop-color="#AEAEAE"/>
<stop offset="1" stop-color="white"/>
</linearGradient>
<clipPath id="clip0_193_1522">
<rect width="610" height="610" fill="white" transform="translate(1041 1376.12) rotate(-45.7736)"/>
</clipPath>
<clipPath id="clip1_193_1522">
<rect width="610" height="610" fill="white" transform="translate(873 1581.12) rotate(-45.7736)"/>
</clipPath>
</defs>
</svg>
