<svg width="30" height="29" viewBox="0 0 30 29" fill="none" xmlns="http://www.w3.org/2000/svg">
<g id="Group">
<path id="Vector" d="M0.423621 26.0424C0.536676 25.6303 0.607432 25.2006 0.768941 24.8085C1.55649 22.9009 3.00083 21.8044 5.02661 21.4484C5.11659 21.4322 5.2058 21.4146 5.375 21.3824C3.19387 20.9864 2.18098 19.2162 2.33942 17.624C2.51554 15.8522 3.97988 14.5178 5.73647 14.4986C7.50922 14.4795 8.9751 15.7609 9.20737 17.5718C9.39964 19.0712 8.48519 20.9458 6.25945 21.3893C7.54921 21.5596 8.69285 22.0438 9.65959 22.9661C10.9294 21.3716 12.569 20.4692 14.5979 20.239C13.1959 19.9981 12.073 19.3252 11.3024 18.135C10.5233 16.9326 10.3456 15.6266 10.7771 14.26C11.4439 12.1514 13.5919 10.8055 15.6977 11.0779C17.9357 11.3672 19.7208 13.2425 19.7639 15.5675C19.8031 17.7345 18.2603 19.8377 15.7261 20.236C17.7404 20.4662 19.3862 21.3586 20.6591 22.9638C21.6189 22.0545 22.7571 21.5573 24.0577 21.3839C23.0732 21.1921 22.2749 20.7179 21.7089 19.8999C21.1413 19.0796 20.9544 18.168 21.1774 17.1943C21.5681 15.49 23.1555 14.339 24.8537 14.5079C26.5764 14.679 27.9269 16.0839 27.9939 17.7751C28.0646 19.56 26.8456 21.0394 25.0329 21.3931C25.1144 21.4108 25.1951 21.4338 25.2767 21.4445C27.9262 21.8021 29.892 24.0327 29.8981 26.6931C29.8981 26.9708 29.8989 27.2486 29.8981 27.5256C29.8958 28.085 29.6982 28.2784 29.1283 28.2799C29.109 28.2799 29.0898 28.2799 29.0706 28.2799C19.7931 28.2799 10.5156 28.2784 1.23808 28.2845C0.880458 28.2845 0.602049 28.1986 0.422852 27.8778C0.423621 27.2678 0.423621 26.6547 0.423621 26.0424ZM20.9306 27.122C20.8129 24.8737 19.8569 23.1403 17.8842 22.0914C15.83 20.9987 13.7681 21.1345 11.8507 22.4574C10.2402 23.5685 9.46732 25.1615 9.40194 27.1228H20.9306V27.122ZM15.1839 19.0919C17.0851 19.0804 18.6295 17.5158 18.6148 15.6166C18.5995 13.7313 17.0444 12.1967 15.1532 12.2013C13.2512 12.2059 11.7 13.7635 11.7084 15.6619C11.7161 17.5588 13.2812 19.1034 15.1847 19.0919H15.1839ZM1.60263 27.1205H8.22986C8.24062 27.0829 8.2537 27.0568 8.25447 27.0299C8.29061 26.0147 8.51134 25.0448 8.94357 24.1217C8.97895 24.0458 8.9328 23.8793 8.86666 23.8163C7.6515 22.6653 6.22254 22.2786 4.60207 22.7137C2.64705 23.2385 1.34576 25.1622 1.60263 27.1205ZM28.7837 27.1205C28.7391 26.6486 28.7499 26.1828 28.6437 25.7462C28.2653 24.1939 27.2617 23.1787 25.7489 22.7283C24.1769 22.2594 22.7625 22.6477 21.5304 23.7258C21.3428 23.8892 21.292 24.032 21.4212 24.2591C21.5335 24.4563 21.6258 24.6742 21.6773 24.8952C21.8481 25.6257 21.9957 26.3608 22.158 27.1212H28.7837V27.1205ZM5.7857 15.6481C4.54054 15.6412 3.49689 16.6687 3.4769 17.9217C3.4569 19.1694 4.50824 20.2321 5.76955 20.2398C7.0147 20.2467 8.05835 19.2193 8.07835 17.9662C8.09834 16.7185 7.047 15.6558 5.7857 15.6481ZM26.8464 17.9301C26.8341 16.6809 25.7943 15.6489 24.546 15.6481C23.2878 15.6481 22.2326 16.7063 22.2442 17.957C22.2565 19.2062 23.2963 20.2383 24.5445 20.239C25.8027 20.239 26.8579 19.1809 26.8464 17.9301Z" fill="#FCFCFC"/>
<path id="Vector_2" d="M12.0848 8.86664C12.2079 8.13767 12.3448 7.36574 12.4624 6.59073C12.4786 6.48331 12.4301 6.32754 12.354 6.25004C11.8426 5.73209 11.3188 5.22565 10.7928 4.72228C10.5959 4.53429 10.4867 4.32174 10.5705 4.05547C10.6597 3.77463 10.8904 3.67565 11.1673 3.63881C11.8602 3.54597 12.5517 3.43931 13.2454 3.34646C13.4307 3.32191 13.5461 3.25131 13.6315 3.06869C13.9337 2.41876 14.2629 1.78111 14.5736 1.13502C14.6913 0.891004 14.8558 0.719122 15.1381 0.71682C15.4211 0.714518 15.5888 0.8864 15.7057 1.12964C16.021 1.78418 16.3486 2.43257 16.6601 3.0894C16.7347 3.24671 16.8347 3.31884 17.0031 3.34186C17.7061 3.43701 18.4067 3.54366 19.1097 3.63881C19.3842 3.67565 19.6149 3.76542 19.7088 4.05087C19.8026 4.33555 19.6742 4.54733 19.4742 4.73916C18.9766 5.21721 18.4905 5.70754 17.986 6.17714C17.8268 6.32524 17.7761 6.46643 17.8161 6.67744C17.9468 7.37264 18.0568 8.07168 18.1844 8.76688C18.2321 9.02624 18.1844 9.24876 17.9745 9.40914C17.7607 9.57258 17.5253 9.54879 17.2969 9.42986C16.6432 9.08916 15.9887 8.74923 15.3396 8.39933C15.1981 8.3226 15.0896 8.32106 14.9466 8.39856C14.289 8.75307 13.6291 9.10297 12.9623 9.4383C12.5094 9.66543 12.0633 9.38842 12.0856 8.86664H12.0848ZM16.8616 7.9021C16.7793 7.40641 16.7293 6.979 16.6324 6.56311C16.5401 6.16717 16.6278 5.86944 16.9339 5.5909C17.2615 5.29241 17.5446 4.94404 17.8437 4.62023C17.4154 4.55884 16.9631 4.48134 16.5078 4.433C16.1456 4.39463 15.9164 4.22582 15.7703 3.88973C15.5857 3.46309 15.3634 3.05257 15.1396 2.59908C14.9135 3.06025 14.6943 3.47384 14.5067 3.90047C14.3644 4.22429 14.1429 4.3908 13.7907 4.42916C13.33 4.47981 12.8724 4.55808 12.3878 4.62867C12.6947 4.94097 12.9539 5.25021 13.2584 5.50343C13.6438 5.8234 13.7683 6.17791 13.6338 6.66593C13.5276 7.05113 13.4946 7.45628 13.4215 7.9021C13.9006 7.65042 14.3275 7.43633 14.7443 7.2046C15.0127 7.05574 15.2604 7.05267 15.5303 7.2023C15.9472 7.43403 16.374 7.64658 16.8608 7.90133L16.8616 7.9021Z" fill="#FCFCFC"/>
<path id="Vector_3" d="M2.99623 11.7852C3.06391 11.3954 3.13543 10.9219 3.23234 10.4546C3.28002 10.2237 3.23541 10.0625 3.05391 9.90293C2.74474 9.63129 2.46402 9.32743 2.16254 9.04735C1.94796 8.84785 1.83029 8.62072 1.93335 8.3322C2.02949 8.06363 2.2579 7.98 2.5217 7.94623C2.94931 7.89175 3.37462 7.82116 3.80223 7.76745C3.98912 7.74366 4.10448 7.66846 4.18601 7.48583C4.36828 7.07608 4.58286 6.68014 4.77897 6.27575C4.8928 6.04172 5.06353 5.88749 5.33272 5.88672C5.60266 5.88672 5.77263 6.04402 5.88646 6.27652C6.08796 6.68858 6.30023 7.09603 6.49096 7.51346C6.56402 7.67306 6.66631 7.74212 6.8332 7.76284C7.27005 7.81886 7.70535 7.89099 8.14219 7.94623C8.41906 7.98076 8.64671 8.08052 8.74131 8.36059C8.83745 8.6445 8.70209 8.85705 8.50212 9.04735C8.17603 9.35812 7.84686 9.66582 7.53769 9.9927C7.46232 10.0725 7.41387 10.2252 7.42848 10.3342C7.48847 10.7884 7.57384 11.2396 7.6569 11.6908C7.70535 11.9555 7.66766 12.1903 7.43925 12.3584C7.20852 12.528 6.97318 12.485 6.73707 12.3584C6.33176 12.142 5.92876 11.9202 5.51422 11.723C5.41501 11.6755 5.25504 11.6732 5.15659 11.72C4.71591 11.9294 4.29214 12.175 3.85376 12.3883C3.41 12.6039 2.98623 12.3392 2.99623 11.786V11.7852ZM4.28522 10.823C4.68822 10.6603 5.00508 10.4332 5.32041 10.4339C5.64573 10.4339 5.97106 10.6572 6.2933 10.7815C6.271 10.4523 6.15025 10.0748 6.25177 9.77094C6.3556 9.45787 6.67631 9.2154 6.94703 8.88851C6.06719 8.9898 5.56421 8.58926 5.33118 7.75824C5.10814 8.60384 4.58055 8.97599 3.7061 8.93839C4.43596 9.4149 4.64592 10.0257 4.28522 10.823Z" fill="#FCFCFC"/>
<path id="Vector_4" d="M22.5731 11.7607C22.6415 11.3701 22.7184 10.8989 22.8084 10.4293C22.8476 10.2268 22.8215 10.0741 22.6515 9.9252C22.3208 9.63438 22.0186 9.31287 21.6986 9.00901C21.4987 8.81948 21.4156 8.59772 21.5063 8.3353C21.5956 8.07824 21.8109 7.98462 22.0639 7.95009C22.5008 7.89101 22.9361 7.82349 23.3737 7.76747C23.559 7.74368 23.6775 7.67386 23.7598 7.48893C23.9413 7.07841 24.1566 6.68323 24.3527 6.27885C24.4666 6.04481 24.635 5.88905 24.9049 5.88674C25.1757 5.88444 25.3472 6.04174 25.461 6.27348C25.6586 6.67709 25.8671 7.07534 26.0517 7.48432C26.1316 7.66158 26.2439 7.74445 26.4339 7.76747C26.8715 7.82042 27.3068 7.89178 27.7436 7.94856C28.0105 7.98386 28.2251 8.08898 28.3166 8.35678C28.4089 8.62688 28.2943 8.83866 28.1013 9.02359C27.7698 9.34203 27.4329 9.65587 27.1161 9.98889C27.0399 10.0687 26.9892 10.2206 27.0038 10.3296C27.0653 10.7931 27.1553 11.2535 27.2368 11.7146C27.2822 11.9694 27.2345 12.195 27.0176 12.3553C26.8 12.5172 26.5716 12.4927 26.3416 12.3707C25.9524 12.1643 25.5556 11.9717 25.1749 11.7507C24.9757 11.6348 24.8196 11.6479 24.6258 11.7584C24.2274 11.9863 23.8205 12.2026 23.4052 12.3983C22.9668 12.6055 22.55 12.3177 22.5738 11.7591L22.5731 11.7607ZM23.8982 10.8483C24.5789 10.2997 25.2249 10.2943 25.9086 10.8429C25.5902 10.0227 25.8086 9.41416 26.5293 8.93765C25.6594 8.96834 25.1218 8.61307 24.9126 7.75212C24.6758 8.57931 24.1666 8.99059 23.2783 8.94149C24.029 9.418 24.2035 10.0388 23.8974 10.8483H23.8982Z" fill="#FCFCFC"/>
<path id="Vector_5" d="M17.4557 23.2117C17.5226 23.2432 17.6611 23.2854 17.7741 23.3637C18.4132 23.8072 18.9131 24.3758 19.2677 25.0679C19.443 25.4101 19.3769 25.724 19.0916 25.8936C18.8032 26.0654 18.4686 25.9879 18.2886 25.6534C17.9826 25.0871 17.5757 24.6221 17.0558 24.2453C16.8235 24.0773 16.7389 23.8379 16.8451 23.5624C16.9366 23.3245 17.1235 23.2087 17.455 23.211L17.4557 23.2117Z" fill="#FCFCFC"/>
<path id="Vector_6" d="M15.1536 23.6825C14.8506 23.6779 14.5853 23.4055 14.5899 23.1055C14.5945 22.8032 14.8668 22.5384 15.1683 22.543C15.4713 22.5476 15.7366 22.82 15.732 23.1201C15.7274 23.4224 15.4544 23.6871 15.1536 23.6825Z" fill="#FCFCFC"/>
</g>
</svg>
