<svg width="31" height="30" viewBox="0 0 31 30" fill="none" xmlns="http://www.w3.org/2000/svg">
<g id="Group">
<path id="Vector" d="M15.9724 0.130859C16.3882 0.207573 16.8084 0.267138 17.2196 0.362804C20.779 1.19311 23.4113 4.26164 23.699 7.91138C23.7252 8.23899 23.6458 8.6027 23.7648 8.88699C23.8767 9.15143 24.2031 9.31839 24.4087 9.55124C25.3619 10.6279 25.6144 11.8635 25.0697 13.1902C24.5196 14.5286 23.46 15.2244 22.0153 15.3201C21.7268 15.339 21.376 15.2397 21.1641 15.3715C20.9548 15.5015 20.8917 15.8598 20.7537 16.1116C20.2109 17.0998 19.4561 17.8886 18.4912 18.4689C18.3397 18.5601 18.2558 18.6557 18.2846 18.8335C18.2892 18.8615 18.2837 18.8913 18.2846 18.9202C18.3027 19.1945 18.3216 19.4689 18.3405 19.7433C18.7346 19.8859 19.0791 20.1431 19.5363 20.135C20.7528 20.1142 21.9703 20.0998 23.1687 20.394C26.922 21.3136 29.7491 24.5915 30.081 28.4317C30.1053 28.7106 30.1261 28.9922 30.1234 29.2719C30.1207 29.6194 29.8871 29.8432 29.5381 29.8631C29.4606 29.8676 29.383 29.8649 29.3063 29.8649C25.5837 29.8649 21.8611 29.8649 18.1385 29.8649C18.052 29.8649 17.9645 29.8685 17.8779 29.8622C17.5461 29.8387 17.3089 29.595 17.3089 29.2828C17.3089 28.9705 17.5479 28.7277 17.8806 28.7061C17.9672 28.7007 18.0547 28.7043 18.1413 28.7043C21.6222 28.7043 25.1031 28.7043 28.584 28.7043C28.6976 28.7043 28.8113 28.7043 28.9258 28.7043C28.7039 24.6854 25.2474 21.4219 21.4698 21.3317C21.3165 21.6232 21.1983 21.9021 21.0333 22.1493C20.2424 23.3307 19.4398 24.504 18.6399 25.6791C18.2765 26.2124 17.9528 26.2395 17.4911 25.7774C16.7597 25.0464 16.0293 24.3145 15.2799 23.5645C15.1933 23.6448 15.1157 23.7125 15.0436 23.7847C14.3727 24.4544 13.7035 25.1267 13.0326 25.7964C12.6007 26.2278 12.2562 26.2007 11.9189 25.7052C11.0649 24.4507 10.2091 23.1963 9.36411 21.9355C9.25138 21.7676 9.19819 21.56 9.10892 21.3497C5.73892 21.3091 1.86212 24.3659 1.62766 28.7043C1.74308 28.7043 1.85669 28.7043 1.97032 28.7043C5.4314 28.7043 8.89339 28.7043 12.3545 28.7043C12.4221 28.7043 12.4897 28.7043 12.5574 28.7043C12.9776 28.7088 13.2427 28.9353 13.2418 29.2864C13.2409 29.6375 12.9758 29.8649 12.5538 29.8649C8.74459 29.8658 4.93452 29.8631 1.12535 29.8703C0.79259 29.8703 0.580665 29.7277 0.422852 29.4597C0.422852 29.1691 0.422852 28.8794 0.422852 28.5887C0.479664 28.2368 0.532861 27.8839 0.594183 27.5328C1.22003 23.9553 4.31678 20.8542 7.9014 20.3028C8.94478 20.1422 10.0215 20.2108 11.0766 20.1133C11.4635 20.0781 11.8729 19.9247 12.1948 19.709C12.3247 19.6214 12.249 19.2252 12.2652 18.9698C12.2679 18.922 12.2607 18.8723 12.267 18.8245C12.2886 18.6612 12.2237 18.5655 12.0776 18.4779C10.9071 17.7731 10.0495 16.7912 9.51921 15.5285C9.45879 15.3832 9.38667 15.3138 9.22254 15.3237C9.01062 15.3363 8.79689 15.3336 8.58497 15.3219C7.12858 15.2434 6.05183 14.5556 5.48821 13.2109C4.93451 11.8905 5.178 10.6514 6.12488 9.56839C6.3359 9.32742 6.67137 9.15504 6.7859 8.88248C6.90854 8.59007 6.82919 8.21553 6.85353 7.87889C7.10874 4.44304 9.59047 1.4034 12.9127 0.479228C13.4573 0.327606 14.0219 0.245478 14.5774 0.131762C15.0418 0.131762 15.5053 0.131762 15.9697 0.131762L15.9724 0.130859ZM10.2109 10.2119C10.2028 10.2561 10.1884 10.3012 10.1884 10.3463C10.1884 11.3138 10.1496 12.284 10.1992 13.2488C10.3101 15.3977 11.3517 16.9726 13.3338 17.8011C15.2591 18.6061 17.0672 18.2595 18.6571 16.9022C18.9862 16.6215 19.2496 16.2632 19.5435 15.9401C19.5246 15.9166 19.5057 15.8923 19.4858 15.8688C18.8122 15.8688 18.1376 15.8634 17.464 15.8769C17.3919 15.8787 17.2972 15.9816 17.2557 16.061C16.9842 16.5728 16.573 16.9112 16.004 16.9969C15.6352 17.0529 15.2528 17.0339 14.8759 17.0285C14.0201 17.0168 13.277 16.3498 13.1868 15.5258C13.0867 14.6089 13.6206 13.7903 14.4935 13.608C14.875 13.5286 15.2808 13.5457 15.6748 13.5475C16.3855 13.5493 16.9139 13.8806 17.2404 14.5087C17.3197 14.6612 17.4009 14.7127 17.5668 14.7109C18.2919 14.7028 19.0178 14.6883 19.741 14.7163C20.0503 14.728 20.1541 14.6179 20.2136 14.3354C20.4904 13.0205 20.3001 11.6938 20.3741 10.3662C20.2713 10.34 20.1991 10.3139 20.1243 10.303C18.9682 10.1397 17.9023 9.73445 16.932 9.08554C16.785 8.98717 16.684 8.97273 16.5252 9.07471C14.9615 10.0819 13.2508 10.516 11.3958 10.359C11.0036 10.3256 10.6149 10.2633 10.2082 10.2119H10.2109ZM20.3696 9.16316C20.3362 8.70017 20.3353 8.28412 20.2722 7.87799C19.8655 5.28328 17.492 3.41328 14.893 3.62627C12.2156 3.84558 10.1667 6.09283 10.2064 8.75703C10.2091 8.93663 10.265 9.00432 10.4391 9.04403C11.4328 9.27146 12.4284 9.29583 13.4285 9.10179C14.4791 8.89782 15.4287 8.46823 16.2908 7.83557C16.6199 7.5937 16.8319 7.5955 17.1574 7.82745C17.244 7.88882 17.3278 7.9547 17.4153 8.01517C18.2864 8.61804 19.2414 9.00612 20.3696 9.16226V9.16316ZM22.5826 8.4583C22.4491 5.84735 21.3417 3.75082 19.0872 2.39074C16.4648 0.808643 13.7748 0.870013 11.2155 2.55048C9.11431 3.93042 8.08627 5.96738 7.96994 8.50433C8.35591 8.48177 8.69679 8.46191 9.03767 8.44206C9.06653 8.20199 9.08636 7.9917 9.11702 7.78232C9.78975 3.11726 15.2582 0.862793 19.0133 3.71111C20.5021 4.84015 21.3192 6.35636 21.4905 8.22094C21.4977 8.30307 21.5735 8.44386 21.6249 8.44747C21.9297 8.46913 22.2363 8.4583 22.5826 8.4583ZM9.00429 14.1549V9.63156C8.03306 9.56658 7.244 9.8608 6.72907 10.6884C6.23038 11.4898 6.23761 12.3255 6.74532 13.1207C7.26295 13.9311 8.04749 14.2145 9.00429 14.1549ZM21.5428 14.1261C22.3598 14.2957 23.2941 13.8905 23.7874 13.1631C24.2951 12.4131 24.3032 11.414 23.8054 10.6514C23.3193 9.90502 22.4112 9.5025 21.5419 9.65864V14.127L21.5428 14.1261ZM19.9232 21.7243C19.2928 21.4427 18.7049 21.1764 18.1124 20.921C18.0511 20.8949 17.9329 20.9021 17.8906 20.9436C17.2909 21.5311 16.6993 22.1268 16.1339 22.6927C16.7642 23.3253 17.3756 23.939 17.9961 24.5618C18.6237 23.6385 19.2622 22.6972 19.9241 21.7234L19.9232 21.7243ZM14.4268 22.7035C14.0552 22.3335 13.681 21.9589 13.305 21.5862C13.0651 21.3488 12.8477 20.9662 12.5736 20.9192C12.2859 20.8696 11.9414 21.1385 11.6249 21.2757C11.2939 21.4192 10.9666 21.5726 10.6221 21.7279C11.2858 22.7044 11.9252 23.6448 12.5592 24.5771C13.1805 23.9544 13.7865 23.3461 14.4277 22.7035H14.4268ZM13.4285 19.0926C13.4285 19.3877 13.4222 19.6286 13.4321 19.8687C13.4357 19.959 13.4474 20.0763 13.5042 20.134C14.0805 20.7288 14.6676 21.3136 15.2636 21.9138C15.8778 21.3001 16.4657 20.7144 17.0492 20.125C17.0916 20.0826 17.1186 20.0068 17.1204 19.9454C17.1276 19.6765 17.124 19.4066 17.124 19.0926C15.8895 19.4518 14.6802 19.4536 13.4285 19.0926ZM15.2997 15.8688C15.444 15.8688 15.5901 15.8787 15.7335 15.867C16.0464 15.8417 16.2664 15.598 16.2673 15.2903C16.2682 14.9825 16.05 14.7298 15.7371 14.7118C15.4485 14.6946 15.1581 14.6955 14.8696 14.7118C14.5548 14.7289 14.3375 14.9771 14.3366 15.2867C14.3366 15.5971 14.5521 15.8399 14.865 15.867C15.0084 15.8787 15.1545 15.8688 15.2988 15.8697L15.2997 15.8688Z" fill="#FCFCFC"/>
<path id="Vector_2" d="M15.2629 29.862C14.9518 29.8539 14.6956 29.5885 14.6993 29.2772C14.7029 28.9541 14.9842 28.6887 15.3053 28.7059C15.6164 28.7221 15.8671 28.9956 15.8544 29.3051C15.8427 29.6165 15.5731 29.8701 15.2629 29.8629V29.862Z" fill="#FCFCFC"/>
</g>
</svg>
