<svg width="33" height="32" viewBox="0 0 33 32" fill="none" xmlns="http://www.w3.org/2000/svg">
<g id="Dashboard">
<path id="03 dashboard, layout, grid" d="M15.4609 5.33398V10.6673C15.4609 11.7282 15.0357 12.7456 14.2789 13.4957C13.5221 14.2459 12.4956 14.6673 11.4253 14.6673H6.04443C4.97411 14.6673 3.94763 14.2459 3.1908 13.4957C2.43397 12.7456 2.00879 11.7282 2.00879 10.6673V5.33398C2.00879 4.27312 2.43397 3.2557 3.1908 2.50556C3.94763 1.75541 4.97411 1.33398 6.04443 1.33398H11.4253C12.4956 1.33398 13.5221 1.75541 14.2789 2.50556C15.0357 3.2557 15.4609 4.27312 15.4609 5.33398ZM27.5678 1.33398H22.187C21.1167 1.33398 20.0902 1.75541 19.3334 2.50556C18.5765 3.2557 18.1514 4.27312 18.1514 5.33398V10.6673C18.1514 11.7282 18.5765 12.7456 19.3334 13.4957C20.0902 14.2459 21.1167 14.6673 22.187 14.6673H27.5678C28.6382 14.6673 29.6646 14.2459 30.4215 13.4957C31.1783 12.7456 31.6035 11.7282 31.6035 10.6673V5.33398C31.6035 4.27312 31.1783 3.2557 30.4215 2.50556C29.6646 1.75541 28.6382 1.33398 27.5678 1.33398ZM11.4253 17.334H6.04443C4.97411 17.334 3.94763 17.7554 3.1908 18.5056C2.43397 19.2557 2.00879 20.2731 2.00879 21.334V26.6673C2.00879 27.7282 2.43397 28.7456 3.1908 29.4957C3.94763 30.2459 4.97411 30.6673 6.04443 30.6673H11.4253C12.4956 30.6673 13.5221 30.2459 14.2789 29.4957C15.0357 28.7456 15.4609 27.7282 15.4609 26.6673V21.334C15.4609 20.2731 15.0357 19.2557 14.2789 18.5056C13.5221 17.7554 12.4956 17.334 11.4253 17.334ZM27.5678 17.334H22.187C21.1167 17.334 20.0902 17.7554 19.3334 18.5056C18.5765 19.2557 18.1514 20.2731 18.1514 21.334V26.6673C18.1514 27.7282 18.5765 28.7456 19.3334 29.4957C20.0902 30.2459 21.1167 30.6673 22.187 30.6673H27.5678C28.6382 30.6673 29.6646 30.2459 30.4215 29.4957C31.1783 28.7456 31.6035 27.7282 31.6035 26.6673V21.334C31.6035 20.2731 31.1783 19.2557 30.4215 18.5056C29.6646 17.7554 28.6382 17.334 27.5678 17.334Z" fill="#5CCFFE"/>
</g>
</svg>
