<svg width="28" height="28" viewBox="0 0 28 28" fill="none" xmlns="http://www.w3.org/2000/svg">
<path id="Vector" d="M27.8872 18.363C27.8872 18.2462 27.8608 18.1294 27.8344 18.0126L22.6017 0.943294C22.4259 0.386296 21.9158 0 21.3442 0H7.18515C6.60469 0 6.09465 0.386296 5.92756 0.943294L0.694871 18.0126C0.65971 18.1474 0.642104 18.2821 0.633301 18.4169V26.5023C0.633301 27.2479 1.22251 27.8499 1.95246 27.8499H26.5768C27.3068 27.8499 27.896 27.2479 27.896 26.5023C27.8872 26.4484 27.9048 18.4079 27.8872 18.363ZM18.6619 17.0693C17.9319 17.0693 17.3427 17.6712 17.3427 18.4169C17.2372 22.5584 11.2921 22.5674 11.1866 18.4169C11.1866 17.6712 10.5974 17.0693 9.86744 17.0693H3.74651L8.15252 2.69515H20.3768L24.7828 17.0693H18.6619Z" fill="#FCFCFC"/>
</svg>
