<svg width="41" height="41" viewBox="0 0 41 41" fill="none" xmlns="http://www.w3.org/2000/svg">
<rect x="0.296875" width="40.3359" height="40.3359" rx="3.73481" fill="#FC0011"/>
<path d="M13.4811 21.5622C13.4811 19.9833 13.48 18.405 13.4817 16.8262C13.4822 16.3249 13.7582 15.9818 14.2133 15.9035C14.7165 15.8167 15.1892 16.1791 15.2263 16.6825C15.2318 16.7559 15.2291 16.8294 15.2291 16.9034C15.2291 19.9871 15.2291 23.0708 15.2291 26.1545C15.2291 27.18 15.941 27.8775 16.9885 27.8775C19.3063 27.8775 21.6236 27.8775 23.9415 27.8775C24.9884 27.8775 25.7009 27.179 25.7009 26.1539C25.7009 23.0434 25.7009 19.9329 25.7009 16.8224C25.7009 16.341 25.9637 15.9963 26.3932 15.9099C26.8866 15.8102 27.3456 16.1174 27.4297 16.6074C27.4456 16.6991 27.4489 16.7935 27.4489 16.8867C27.4499 19.9838 27.4505 23.081 27.4489 26.1781C27.4483 27.8754 26.2916 29.2398 24.5917 29.5427C24.3917 29.5786 24.1852 29.5909 23.9814 29.5915C21.6362 29.5947 19.2916 29.5952 16.9464 29.5931C14.9979 29.5915 13.4822 28.1064 13.4795 26.1979C13.4773 24.6528 13.4795 23.1072 13.4795 21.5622H13.4811Z" fill="#FCFCFC"/>
<path d="M23.952 13.3142C24.1804 13.3142 24.3771 13.3142 24.5743 13.3142C25.5147 13.3142 26.4551 13.3099 27.3954 13.3158C28.0331 13.3201 28.4527 13.8513 28.2795 14.4196C28.1768 14.7563 27.8752 14.9976 27.5184 15.027C27.4708 15.0308 27.4233 15.0303 27.3752 15.0303C22.7685 15.0303 18.1617 15.0303 13.5545 15.0303C13.0004 15.0297 12.607 14.6673 12.6114 14.1655C12.6157 13.6734 13.0053 13.3174 13.5528 13.3152C14.6025 13.312 15.6516 13.3142 16.7012 13.3142C16.7821 13.3142 16.8635 13.3142 16.9777 13.3142C16.9777 13.2289 16.9777 13.1587 16.9777 13.0885C16.9777 12.607 16.9744 12.1256 16.9788 11.6442C16.9837 11.1059 17.3389 10.7483 17.888 10.7473C19.6053 10.7424 21.3227 10.7424 23.04 10.7473C23.5903 10.7489 23.9465 11.1043 23.9509 11.6426C23.9558 12.1894 23.952 12.7368 23.952 13.3147V13.3142ZM18.7289 13.297H22.1969V12.4725H18.7289V13.297Z" fill="#FCFCFC"/>
<path d="M17.8469 21.4323C17.8469 20.4362 17.8431 19.4401 17.8491 18.444C17.8513 18.0259 18.1507 17.6903 18.5671 17.6115C18.9452 17.5402 19.3522 17.7407 19.5058 18.0972C19.5626 18.2285 19.591 18.3813 19.5916 18.525C19.597 20.477 19.597 22.4295 19.5943 24.3815C19.5938 24.9272 19.2195 25.3116 18.7086 25.3063C18.207 25.3009 17.848 24.9176 17.8469 24.3809C17.8458 23.3982 17.8469 22.4156 17.8469 21.4323Z" fill="#FCFCFC"/>
<path d="M23.0834 21.4575C23.0834 22.4536 23.0861 23.4497 23.0817 24.4458C23.0801 24.8506 22.8249 25.1685 22.4375 25.2736C22.0643 25.3749 21.6562 25.2274 21.472 24.8913C21.3917 24.7444 21.3414 24.5627 21.3409 24.3965C21.3321 22.4311 21.3327 20.4652 21.3371 18.4998C21.3382 17.9707 21.7217 17.5927 22.2261 17.6002C22.72 17.6072 23.0823 17.9884 23.0834 18.5095C23.0856 19.4921 23.0839 20.4748 23.0834 21.4581V21.4575Z" fill="#FCFCFC"/>
</svg>
