<svg width="31" height="21" viewBox="0 0 31 21" fill="none" xmlns="http://www.w3.org/2000/svg">
<g id="Group">
<path id="Vector" d="M30.973 16.7561C30.8289 17.0256 30.5983 17.1065 30.3034 17.0972C29.8584 17.0831 29.4127 17.0938 28.9435 17.0938C28.8953 18.0895 28.5266 18.9073 27.7498 19.5125C27.1714 19.9632 26.5079 20.1705 25.776 20.1458C24.5099 20.1023 22.9737 19.1594 22.8457 17.1165H12.0897C12.0422 18.1484 11.632 18.9963 10.7794 19.6001C10.199 20.0114 9.54485 20.1899 8.83641 20.1411C7.56498 20.0542 6.11727 19.0973 5.99663 17.0945C5.89542 17.0945 5.79019 17.0945 5.68563 17.0945C4.96915 17.0945 4.25266 17.0978 3.53618 17.0931C2.84181 17.0891 2.44303 16.6906 2.43699 16.0025C2.43431 15.6969 2.43699 15.3906 2.43699 15.0482C1.95375 15.0482 1.49866 15.0509 1.04357 15.0469C0.925608 15.0456 0.767438 15.067 0.697733 15.0028C0.571058 14.8857 0.418908 14.7105 0.42293 14.5634C0.426951 14.4177 0.590487 14.2525 0.722523 14.1421C0.79826 14.0793 0.951085 14.0973 1.06905 14.0967C2.47185 14.094 3.87532 14.0947 5.27812 14.0953C5.34783 14.0953 5.41821 14.0927 5.48657 14.1014C5.77008 14.1348 5.95707 14.3354 5.94836 14.5908C5.93964 14.849 5.74797 15.0389 5.45641 15.0442C4.88939 15.0536 4.32169 15.0482 3.75467 15.0482C3.64744 15.0482 3.54021 15.0482 3.41286 15.0482V16.1409C3.75133 16.1409 4.07707 16.1409 4.40213 16.1409C4.91956 16.1409 5.43697 16.1342 5.9544 16.1449C6.11927 16.1483 6.19301 16.0908 6.26204 15.9416C6.81365 14.7594 7.74996 14.104 9.05625 14.1094C10.3478 14.1141 11.2794 14.76 11.825 15.9343C11.892 16.078 11.9604 16.1456 12.13 16.1456C15.3042 16.1402 18.4791 16.1416 21.6534 16.1409C21.7016 16.1409 21.7499 16.1336 21.8256 16.1275C21.831 16.0125 21.839 15.9075 21.8397 15.8025C21.841 14.76 21.8289 13.7168 21.8511 12.675C21.8551 12.4924 21.9516 12.2531 22.0883 12.1441C22.3839 11.9073 22.7894 12.1675 22.7948 12.58C22.8035 13.3049 22.7974 14.0298 22.7974 14.7547C22.7974 15.1318 22.7921 15.5096 22.8015 15.8868C22.8035 15.9704 22.8584 16.0533 22.8893 16.1362C22.9616 16.072 23.0649 16.0225 23.1024 15.9423C23.522 15.0416 24.1969 14.4384 25.1654 14.1943C26.591 13.8345 28.0367 14.534 28.6479 15.8774C28.7398 16.0787 28.8396 16.1643 29.0655 16.1476C29.3698 16.1255 29.6774 16.1422 29.9991 16.1422V14.0271C29.7947 14.0271 29.599 14.0345 29.4033 14.0258C28.6118 13.9897 28.0032 13.3745 27.9804 12.5847C27.971 12.247 27.9724 11.9093 27.9791 11.5716C27.9858 11.2179 28.158 11.0467 28.5173 11.0414C28.973 11.0347 29.4288 11.0393 29.8879 11.0393C29.8021 10.5044 29.2317 9.98346 28.6265 9.97678C26.6976 9.95404 24.7686 9.96808 22.7968 9.96808C22.7968 10.146 22.8021 10.3111 22.7954 10.4756C22.7834 10.7799 22.591 10.9778 22.3182 10.9752C22.0595 10.9725 21.8685 10.7819 21.8437 10.4964C21.8363 10.4074 21.841 10.3178 21.841 10.2282C21.841 7.54737 21.841 4.86586 21.841 2.18502V1.81923H3.39208C3.39208 1.94227 3.39208 2.05796 3.39208 2.17298C3.39208 4.86385 3.39208 7.55539 3.39208 10.2463C3.39208 10.3452 3.39677 10.4455 3.38604 10.5438C3.3599 10.7959 3.20844 10.9444 2.96381 10.9698C2.71649 10.9952 2.53887 10.8708 2.46849 10.6321C2.43565 10.5211 2.43699 10.3974 2.43632 10.279C2.43498 7.52864 2.43498 4.77759 2.43498 2.0272C2.43498 1.21874 2.80965 0.849609 3.62599 0.849609C9.62662 0.849609 15.6273 0.849609 21.6279 0.849609C22.4295 0.849609 22.7954 1.21472 22.7968 2.01182C22.7968 2.288 22.7968 2.56417 22.7968 2.8691C22.9241 2.87512 23.03 2.88381 23.1353 2.88381C24.16 2.88515 25.1855 2.90454 26.2103 2.87913C27.5018 2.84703 28.6205 3.73909 28.3953 5.47839C28.3745 5.63687 28.2056 5.7753 28.0668 5.97992C28.2947 6.89003 28.5394 7.88038 28.7954 8.86806C28.8148 8.94429 28.904 9.03925 28.9784 9.05864C30.0467 9.33415 30.6949 10.0055 30.9301 11.0795C30.9361 11.1069 30.9576 11.131 30.9723 11.157V16.7588L30.973 16.7561ZM27.8222 8.99311C27.8008 8.8908 27.786 8.8052 27.7646 8.72095C27.5555 7.87436 27.3356 7.03046 27.1399 6.18053C27.0843 5.93846 26.975 5.87627 26.7358 5.87828C25.5327 5.89098 24.3289 5.8843 23.1259 5.8843C23.0287 5.8843 22.9315 5.8843 22.8229 5.8843V8.99244H27.8215L27.8222 8.99311ZM25.8872 19.1949C27.0199 19.2009 27.961 18.2768 27.9764 17.1426C27.9918 16.0052 27.0414 15.0509 25.896 15.0543C24.7599 15.0576 23.8243 15.9884 23.8216 17.1192C23.8189 18.2473 24.7559 19.1882 25.8872 19.1942V19.1949ZM9.06162 19.1949C10.195 19.1875 11.1253 18.2487 11.1213 17.1165C11.1172 15.9818 10.1849 15.0556 9.04688 15.0543C7.9001 15.0536 6.95975 16.0011 6.97114 17.146C6.98253 18.2754 7.92825 19.2022 9.06162 19.1949ZM22.8155 4.9033H27.4348C27.4576 4.28943 27.0065 3.84608 26.3531 3.84207C25.2398 3.83538 24.1265 3.83939 23.0133 3.84207C22.9476 3.84207 22.8812 3.86079 22.8155 3.87082V4.9033ZM29.9938 13.0575V12.0163H28.9529C28.8711 12.9632 29.0373 13.1291 29.9938 13.0575Z" fill="#FCFCFC"/>
<path id="Vector_2" d="M12.0904 9.84693C13.4081 8.53091 14.6735 7.26639 15.9396 6.00187C16.0729 5.86813 16.203 5.73104 16.3417 5.60265C16.5716 5.39067 16.837 5.38131 17.0347 5.56922C17.2365 5.7618 17.2365 6.05336 17.0093 6.28206C16.2539 7.04505 15.4912 7.80069 14.7318 8.55967C14.0073 9.28321 13.2827 10.0067 12.5569 10.729C12.2191 11.0646 12.0046 11.0653 11.6708 10.733C10.8813 9.9479 10.0958 9.15883 9.30488 8.37511C9.13934 8.2106 9.02741 8.0354 9.11186 7.79333C9.23318 7.44494 9.64202 7.3687 9.93425 7.65424C10.5663 8.27346 11.1896 8.90138 11.8142 9.52729C11.9047 9.61756 11.9825 9.72054 12.0904 9.84626V9.84693Z" fill="#FCFCFC"/>
<path id="Vector_3" d="M16.6894 15.048C15.5748 15.048 14.4608 15.048 13.3462 15.048C13.247 15.048 13.1458 15.0507 13.0487 15.036C12.808 14.9992 12.678 14.8387 12.6592 14.6114C12.6405 14.3813 12.7531 14.2021 12.9816 14.1346C13.1029 14.0992 13.237 14.0971 13.365 14.0971C15.5935 14.0951 17.8227 14.0958 20.0513 14.0958C20.0814 14.0958 20.1109 14.0958 20.1411 14.0958C20.5338 14.1025 20.7644 14.2857 20.7584 14.5853C20.7524 14.8782 20.5365 15.0474 20.1525 15.048C18.9983 15.0501 17.8442 15.0487 16.69 15.0487L16.6894 15.048Z" fill="#FCFCFC"/>
<path id="Vector_4" d="M4.96548 13.0083C3.9809 13.0083 2.99632 13.0096 2.01241 13.0083C1.63574 13.0083 1.41792 12.8297 1.41994 12.5335C1.42195 12.2426 1.64848 12.0574 2.01912 12.0567C3.98828 12.0547 5.95676 12.0567 7.92591 12.0547C8.15178 12.0547 8.36627 12.1082 8.44067 12.3282C8.48758 12.4686 8.48624 12.694 8.40179 12.7916C8.29723 12.9126 8.08611 12.9962 7.91922 12.9996C6.93531 13.0183 5.95073 13.0089 4.96615 13.0089L4.96548 13.0083Z" fill="#FCFCFC"/>
<path id="Vector_5" d="M25.8861 16.1432C26.4377 16.1379 26.8788 16.5659 26.8861 17.1122C26.8935 17.6498 26.4491 18.1046 25.9089 18.1133C25.3727 18.1219 24.9183 17.6766 24.9103 17.1349C24.9022 16.5899 25.3365 16.1479 25.8861 16.1426V16.1432Z" fill="#FCFCFC"/>
<path id="Vector_6" d="M9.04263 16.1432C9.59557 16.1412 10.0272 16.5699 10.0285 17.1209C10.0299 17.6679 9.59154 18.1119 9.04865 18.1133C8.5138 18.1146 8.05738 17.6612 8.0547 17.1262C8.05202 16.5853 8.49504 16.1446 9.04263 16.1426V16.1432Z" fill="#FCFCFC"/>
</g>
</svg>
