<svg width="25" height="25" viewBox="0 0 25 25" fill="none" xmlns="http://www.w3.org/2000/svg">
<path d="M24.123 10.7227C24.123 11.6504 24.0156 12.5635 23.8008 13.4619C23.5859 14.3506 23.2588 15.1562 22.8193 15.8789C22.3799 16.5918 21.8281 17.1631 21.1641 17.5928C20.5098 18.0225 19.7334 18.2373 18.835 18.2373C18.0146 18.2373 17.3311 18.0176 16.7842 17.5781C16.2373 17.1387 15.8809 16.5967 15.7148 15.9521H15.5244C15.1338 16.5869 14.5918 17.1289 13.8984 17.5781C13.2148 18.0176 12.375 18.2373 11.3789 18.2373C9.71875 18.2373 8.43945 17.7197 7.54102 16.6846C6.65234 15.6396 6.20801 14.2627 6.20801 12.5537C6.20801 11.2256 6.48145 10.0537 7.02832 9.03809C7.5752 8.0127 8.35156 7.20703 9.35742 6.62109C10.373 6.03516 11.5645 5.74219 12.9316 5.74219C13.8398 5.74219 14.748 5.8252 15.6562 5.99121C16.5742 6.14746 17.2969 6.31836 17.8242 6.50391L17.5312 12.5244C17.5117 12.8076 17.4971 13.0518 17.4873 13.2568C17.4873 13.4521 17.4873 13.5889 17.4873 13.667C17.4873 14.6143 17.6387 15.249 17.9414 15.5713C18.2441 15.8838 18.6006 16.04 19.0107 16.04C19.5576 16.04 20.0166 15.8008 20.3877 15.3223C20.7686 14.834 21.0566 14.1895 21.252 13.3887C21.4473 12.5781 21.5449 11.6846 21.5449 10.708C21.5449 8.94043 21.1836 7.43164 20.4609 6.18164C19.748 4.93164 18.7666 3.97949 17.5166 3.3252C16.2666 2.6709 14.8408 2.34375 13.2393 2.34375C11.5986 2.34375 10.1436 2.60254 8.87402 3.12012C7.61426 3.6377 6.5498 4.36523 5.68066 5.30273C4.82129 6.24023 4.17188 7.35352 3.73242 8.64258C3.29297 9.92188 3.07324 11.333 3.07324 12.876C3.07324 14.7705 3.41016 16.3818 4.08398 17.71C4.75781 19.0283 5.74902 20.0293 7.05762 20.7129C8.37598 21.3965 9.98242 21.7383 11.877 21.7383C13.0586 21.7383 14.2354 21.6113 15.4072 21.3574C16.5889 21.0938 17.6582 20.7812 18.6152 20.4199V22.7783C17.707 23.1592 16.6914 23.4668 15.5684 23.7012C14.4453 23.9355 13.2344 24.0527 11.9355 24.0527C9.52344 24.0527 7.45801 23.6133 5.73926 22.7344C4.03027 21.8555 2.7168 20.5859 1.79883 18.9258C0.890625 17.2656 0.436523 15.2783 0.436523 12.9639C0.436523 11.1084 0.729492 9.39941 1.31543 7.83691C1.91113 6.26465 2.76562 4.89746 3.87891 3.73535C4.99219 2.56348 6.33496 1.65527 7.90723 1.01074C9.48926 0.366211 11.2617 0.0439453 13.2246 0.0439453C15.3438 0.0439453 17.2236 0.478516 18.8643 1.34766C20.5049 2.20703 21.7891 3.43262 22.7168 5.02441C23.6543 6.61621 24.123 8.51562 24.123 10.7227ZM8.99121 12.6123C8.99121 13.8037 9.23535 14.6729 9.72363 15.2197C10.2119 15.7666 10.876 16.04 11.7158 16.04C12.79 16.04 13.5615 15.6445 14.0303 14.8535C14.499 14.0625 14.7725 13.0225 14.8506 11.7334L15.0264 8.20312C14.7725 8.13477 14.4746 8.08105 14.1328 8.04199C13.791 7.99316 13.4248 7.96875 13.0342 7.96875C12.0576 7.96875 11.2715 8.19336 10.6758 8.64258C10.0898 9.08203 9.66016 9.6582 9.38672 10.3711C9.12305 11.0742 8.99121 11.8213 8.99121 12.6123Z" fill="url(#paint0_linear_4_6402)"/>
<defs>
<linearGradient id="paint0_linear_4_6402" x1="12.1997" y1="-10.5547" x2="12.1997" y2="29.6717" gradientUnits="userSpaceOnUse">
<stop stop-color="#2F4C8F"/>
<stop offset="1" stop-color="#2581BF"/>
</linearGradient>
</defs>
</svg>
