<svg width="16" height="15" viewBox="0 0 16 15" fill="none" xmlns="http://www.w3.org/2000/svg">
<g id="Group 303">
<path id="Vector" d="M3.30417 14.8193C3.07601 14.7712 2.84391 14.7355 2.62032 14.6725C2.16609 14.5447 1.7692 14.32 1.45336 13.9777C1.15912 13.6587 0.995381 13.2888 0.995381 12.859C0.995381 10.892 0.987277 8.92503 0.999121 6.95824C1.00411 6.13257 1.52172 5.62474 2.24962 5.2807C2.62427 5.10362 3.02801 5.01051 3.44672 5.00713C4.27914 5.00058 5.11156 5.00515 5.95644 5.00515V6.32733C5.90865 6.32733 5.85525 6.32733 5.80164 6.32733C5.07623 6.32733 4.35083 6.32633 3.62542 6.32792C3.30355 6.32852 2.99705 6.39224 2.71716 6.55027C2.49544 6.67534 2.37824 6.8419 2.37949 7.10872C2.38884 8.98281 2.3876 10.8571 2.38053 12.7314C2.3797 12.9662 2.48048 13.1203 2.67248 13.2402C2.99331 13.4405 3.3528 13.4919 3.72599 13.4917C6.08112 13.4915 8.43604 13.4929 10.7912 13.4907C11.4347 13.4901 12.0782 13.4879 12.7214 13.4705C12.995 13.4631 13.25 13.3684 13.4761 13.2142C13.6446 13.0992 13.7298 12.9537 13.7292 12.7447C13.7235 10.8559 13.7231 8.96692 13.7296 7.07815C13.7304 6.8556 13.6359 6.70552 13.4561 6.58918C13.1675 6.40237 12.8421 6.32971 12.4988 6.32832C11.7734 6.32534 11.048 6.32733 10.3226 6.32733C10.2677 6.32733 10.2127 6.32733 10.1495 6.32733V5.01031C10.1942 5.00693 10.2335 5.00157 10.2727 5.00157C11.0237 5.00118 11.7747 4.9978 12.5256 5.00237C13.2309 5.00673 13.8784 5.1858 14.4265 5.62534C14.8816 5.99023 15.1191 6.45339 15.1174 7.0313C15.112 8.90062 15.1156 10.7699 15.1156 12.6392C15.1156 13.5934 14.6707 14.2366 13.7333 14.5856C13.4374 14.6958 13.1162 14.743 12.8066 14.8193H3.30417Z" fill="url(#paint0_linear_33_885)"/>
<path id="Vector_2" d="M7.31897 2.3238C7.0426 2.59023 6.76915 2.85962 6.48863 3.12227C6.28998 3.30829 6.04873 3.36686 5.78255 3.28447C5.51657 3.20228 5.35802 3.01964 5.3094 2.75798C5.27034 2.54794 5.3306 2.35616 5.48686 2.20568C6.18837 1.5301 6.8905 0.855112 7.60032 0.18747C7.88396 -0.07915 8.30329 -0.0571137 8.60251 0.226381C9.15752 0.752077 9.70838 1.28154 10.2611 1.80962C10.3912 1.9339 10.524 2.0556 10.6499 2.18345C10.924 2.46138 10.9202 2.87551 10.6453 3.13041C10.3717 3.38433 9.95046 3.38373 9.66662 3.11949C9.37051 2.84394 9.08272 2.56025 8.75274 2.28608V2.44768C8.75274 4.60963 8.75337 6.77157 8.75108 8.93332C8.75108 9.04429 8.74318 9.16003 8.70973 9.26505C8.61601 9.56006 8.2958 9.75362 7.98723 9.7171C7.63939 9.6758 7.39336 9.4342 7.3597 9.09789C7.35388 9.03973 7.35616 8.98096 7.35616 8.9224C7.35616 6.78487 7.35616 4.64735 7.35616 2.50982C7.35616 2.45265 7.35616 2.39567 7.35616 2.3385C7.3437 2.33353 7.33123 2.32857 7.31876 2.32361L7.31897 2.3238Z" fill="url(#paint1_linear_33_885)"/>
</g>
<defs>
<linearGradient id="paint0_linear_33_885" x1="8.05505" y1="5" x2="8.05505" y2="14.8193" gradientUnits="userSpaceOnUse">
<stop stop-color="#2F4C8F"/>
<stop offset="1" stop-color="#2581BF"/>
</linearGradient>
<linearGradient id="paint1_linear_33_885" x1="8.07567" y1="0" x2="8.07567" y2="9.72151" gradientUnits="userSpaceOnUse">
<stop stop-color="#2F4C8F"/>
<stop offset="1" stop-color="#2581BF"/>
</linearGradient>
</defs>
</svg>
