<svg width="27" height="25" viewBox="0 0 27 25" fill="none" xmlns="http://www.w3.org/2000/svg">
<path opacity="0.3" d="M13.3814 15.9798C14.2651 15.9798 15.1126 15.6225 15.7375 14.9865C16.3623 14.3504 16.7134 13.4878 16.7134 12.5883C16.7134 12.489 16.7089 12.3906 16.7006 12.2934L13.0917 15.9668C13.1871 15.9753 13.2835 15.9798 13.3814 15.9798ZM24.4102 2.09767L23.1393 0.805272C23.0947 0.759876 23.0342 0.734375 22.9711 0.734375C22.908 0.734375 22.8475 0.759876 22.8029 0.805272L19.5506 4.11652C17.7565 3.18326 15.7398 2.71662 13.5004 2.71662C7.78251 2.71662 3.51639 5.74777 0.702064 11.8101C0.588942 12.0539 0.530273 12.3202 0.530273 12.5898C0.530273 12.8595 0.588942 13.1257 0.702064 13.3696C1.82661 15.7805 3.18072 17.713 4.76439 19.1669L1.61717 22.3691C1.57257 22.4146 1.54751 22.4762 1.54751 22.5404C1.54751 22.6046 1.57257 22.6662 1.61717 22.7116L2.88718 24.0043C2.93181 24.0497 2.99233 24.0752 3.05542 24.0752C3.11851 24.0752 3.17903 24.0497 3.22365 24.0043L24.4102 2.44046C24.4324 2.41796 24.4499 2.39124 24.4619 2.36183C24.4739 2.33242 24.48 2.3009 24.48 2.26907C24.48 2.23723 24.4739 2.20571 24.4619 2.1763C24.4499 2.14689 24.4324 2.12017 24.4102 2.09767ZM8.14545 12.5883C8.14537 11.6678 8.37954 10.7629 8.82514 9.96187C9.27074 9.16084 9.91259 8.49094 10.6881 8.01744C11.4637 7.54394 12.3465 7.28298 13.2506 7.25998C14.1547 7.23699 15.0493 7.45275 15.8471 7.88623L14.4006 9.35851C13.8173 9.16839 13.1938 9.14549 12.5985 9.29233C12.0032 9.43917 11.4592 9.75006 11.0261 10.1909C10.593 10.6318 10.2875 11.1855 10.1433 11.7914C9.99903 12.3973 10.0215 13.032 10.2083 13.6257L8.76187 15.098C8.35596 14.3261 8.14419 13.4638 8.14545 12.5883Z" fill="black"/>
<path opacity="0.3" d="M26.7821 11.9577C25.7127 9.75543 24.4399 7.95962 22.9636 6.57031L18.5846 10.8526C18.9538 11.7962 19.0356 12.824 18.8202 13.8121C18.6048 14.8001 18.1015 15.706 17.371 16.4204C16.6405 17.1347 15.714 17.6269 14.7036 17.8375C13.6932 18.0481 12.6421 17.9681 11.6771 17.6072L7.96289 21.2392C9.68604 22.0189 11.6026 22.4087 13.7126 22.4087C19.5516 22.4087 23.9081 19.435 26.7821 13.4876C26.8976 13.2485 26.9575 12.9872 26.9575 12.7227C26.9575 12.4582 26.8976 12.1969 26.7821 11.9577Z" fill="black"/>
</svg>
