<svg width="25" height="25" viewBox="0 0 25 25" fill="none" xmlns="http://www.w3.org/2000/svg">
<path d="M23.9567 0C24.3035 0.130161 24.6052 0.320801 24.7488 0.67447C24.9442 1.15567 24.8511 1.5856 24.4896 1.96951C23.6842 2.8241 22.8868 3.68526 22.0867 4.54511C19.9469 6.84199 17.8084 9.13888 15.6646 11.4331C15.3257 11.796 15.1622 12.2075 15.1649 12.7045C15.1728 14.8423 15.1609 16.9801 15.1742 19.1179C15.1768 19.6398 15.024 20.0737 14.6771 20.4642C13.6006 21.6751 12.5346 22.8965 11.4634 24.1126C11.2322 24.3743 10.9504 24.4926 10.6035 24.3743C10.2686 24.2599 10.1131 24.0088 10.0865 23.6696C10.0799 23.5828 10.0812 23.4947 10.0812 23.4079C10.0812 19.8476 10.0772 16.2872 10.0852 12.7268C10.0852 12.222 9.93233 11.8026 9.58544 11.4305C6.69073 8.33161 3.81995 5.20907 0.896 2.13648C0.145076 1.34763 0.317855 0.319486 1.29339 0H23.958H23.9567Z" fill="url(#paint0_linear_115_599)"/>
<defs>
<linearGradient id="paint0_linear_115_599" x1="0.429687" y1="12.2102" x2="27.4615" y2="12.2228" gradientUnits="userSpaceOnUse">
<stop offset="0.0101638" stop-color="#094C89"/>
<stop offset="1" stop-color="#019EF7"/>
</linearGradient>
</defs>
</svg>
