<svg width="134" height="50" viewBox="0 0 134 50" fill="none" xmlns="http://www.w3.org/2000/svg">
<rect x="0.555007" y="0.555007" width="132.549" height="48.89" rx="4.99506" fill="#FCFCFC" stroke="url(#paint0_linear_90_1658)" stroke-width="1.11001"/>
<path d="M37.9567 13C38.3035 13.1302 38.6052 13.3208 38.7488 13.6745C38.9442 14.1557 38.8511 14.5856 38.4896 14.9695C37.6842 15.8241 36.8868 16.6853 36.0867 17.5451C33.9469 19.842 31.8084 22.1389 29.6646 24.4331C29.3257 24.796 29.1622 25.2075 29.1649 25.7045C29.1728 27.8423 29.1609 29.9801 29.1742 32.1179C29.1768 32.6398 29.024 33.0737 28.6771 33.4642C27.6006 34.6751 26.5346 35.8965 25.4634 37.1126C25.2322 37.3743 24.9504 37.4926 24.6035 37.3743C24.2686 37.2599 24.1131 37.0088 24.0865 36.6696C24.0799 36.5828 24.0812 36.4947 24.0812 36.4079C24.0812 32.8476 24.0772 29.2872 24.0852 25.7268C24.0852 25.222 23.9323 24.8026 23.5854 24.4305C20.6907 21.3316 17.8199 18.2091 14.896 15.1365C14.1451 14.3476 14.3179 13.3195 15.2934 13H37.958H37.9567Z" fill="url(#paint1_linear_90_1658)"/>
<path d="M54.2809 32V17.4689H63.5899V19.6755H56.9132V23.6205H62.9513V25.8271H56.9132V32H54.2809ZM65.8745 32V21.1017H68.443V32H65.8745ZM67.1659 19.5549C66.7591 19.5549 66.4091 19.4201 66.1158 19.1505C65.8225 18.8761 65.6759 18.5474 65.6759 18.1643C65.6759 17.7764 65.8225 17.4476 66.1158 17.178C66.4091 16.9037 66.7591 16.7665 67.1659 16.7665C67.5774 16.7665 67.9274 16.9037 68.216 17.178C68.5093 17.4476 68.6559 17.7764 68.6559 18.1643C68.6559 18.5474 68.5093 18.8761 68.216 19.1505C67.9274 19.4201 67.5774 19.5549 67.1659 19.5549ZM73.6527 17.4689V32H71.0842V17.4689H73.6527ZM81.736 21.1017V23.0884H75.4709V21.1017H81.736ZM77.0176 18.4906H79.5861V28.722C79.5861 29.0673 79.6382 29.3322 79.7422 29.5167C79.851 29.6964 79.9929 29.8194 80.1679 29.8856C80.343 29.9518 80.5369 29.9849 80.7497 29.9849C80.9106 29.9849 81.0572 29.9731 81.1897 29.9495C81.3268 29.9258 81.4309 29.9045 81.5018 29.8856L81.9347 31.8936C81.7975 31.9409 81.6012 31.9929 81.3458 32.0497C81.0951 32.1064 80.7876 32.1395 80.4234 32.149C79.7801 32.1679 79.2006 32.071 78.685 31.8581C78.1694 31.6405 77.7603 31.3047 77.4576 30.8506C77.1595 30.3965 77.0129 29.8289 77.0176 29.1477V18.4906ZM88.5918 32.2129C87.4991 32.2129 86.5554 31.9858 85.7608 31.5317C84.9708 31.0729 84.363 30.4249 83.9373 29.5876C83.5116 28.7456 83.2987 27.7547 83.2987 26.6147C83.2987 25.4937 83.5116 24.5098 83.9373 23.6631C84.3677 22.8116 84.9685 22.1494 85.7395 21.6764C86.5105 21.1987 87.4163 20.9598 88.457 20.9598C89.1287 20.9598 89.7625 21.0686 90.3585 21.2862C90.9592 21.499 91.489 21.8301 91.9478 22.2795C92.4114 22.7289 92.7756 23.3012 93.0405 23.9966C93.3054 24.6872 93.4378 25.5102 93.4378 26.4657V27.2533H84.5049V25.522H90.9758C90.9711 25.0301 90.8646 24.5926 90.6565 24.2094C90.4484 23.8215 90.1575 23.5164 89.7838 23.2941C89.4148 23.0718 88.9844 22.9606 88.4924 22.9606C87.9674 22.9606 87.5062 23.0884 87.1089 23.3438C86.7115 23.5945 86.4017 23.9256 86.1794 24.3371C85.9618 24.7439 85.8506 25.1909 85.8459 25.6781V27.1894C85.8459 27.8233 85.9618 28.3672 86.1936 28.8213C86.4254 29.2707 86.7494 29.616 87.1656 29.8572C87.5819 30.0937 88.0691 30.212 88.6273 30.212C89.0009 30.212 89.3391 30.16 89.6419 30.0559C89.9446 29.9471 90.2071 29.7886 90.4295 29.5805C90.6518 29.3724 90.8197 29.1146 90.9332 28.8071L93.3314 29.0768C93.18 29.7106 92.8915 30.264 92.4658 30.737C92.0448 31.2053 91.5056 31.5696 90.8481 31.8297C90.1906 32.0851 89.4385 32.2129 88.5918 32.2129ZM95.6108 32V21.1017H98.1012V22.9181H98.2147C98.4134 22.289 98.754 21.8041 99.2364 21.4635C99.7236 21.1182 100.279 20.9456 100.904 20.9456C101.046 20.9456 101.204 20.9527 101.379 20.9669C101.559 20.9763 101.708 20.9929 101.826 21.0165V23.3793C101.717 23.3414 101.545 23.3083 101.308 23.2799C101.076 23.2468 100.852 23.2303 100.634 23.2303C100.166 23.2303 99.7449 23.332 99.3712 23.5354C99.0023 23.734 98.7114 24.0107 98.4985 24.3655C98.2857 24.7203 98.1792 25.1294 98.1792 25.593V32H95.6108Z" fill="url(#paint2_linear_90_1658)"/>
<defs>
<linearGradient id="paint0_linear_90_1658" x1="2.73601" y1="25" x2="133.709" y2="25.4046" gradientUnits="userSpaceOnUse">
<stop stop-color="#0172F7"/>
<stop offset="1" stop-color="#00CEFB"/>
</linearGradient>
<linearGradient id="paint1_linear_90_1658" x1="14.4297" y1="25.2102" x2="41.4615" y2="25.2228" gradientUnits="userSpaceOnUse">
<stop offset="0.0101638" stop-color="#094C89"/>
<stop offset="1" stop-color="#019EF7"/>
</linearGradient>
<linearGradient id="paint2_linear_90_1658" x1="80.843" y1="13" x2="80.843" y2="37" gradientUnits="userSpaceOnUse">
<stop stop-color="#2F4C8F"/>
<stop offset="1" stop-color="#2581BF"/>
</linearGradient>
</defs>
</svg>
