<svg width="30" height="26" viewBox="0 0 30 26" fill="none" xmlns="http://www.w3.org/2000/svg">
<path id="Vector" d="M0 7.64908V8.82929C0.09827 9.39793 0.16211 9.97501 0.300548 10.5345C0.663502 12.0047 1.41236 13.2933 2.33624 14.4875C3.72852 16.2878 5.39481 17.829 7.12422 19.3062C9.3916 21.2423 11.6733 23.1628 13.95 25.0883C14.4572 25.5169 14.8675 25.5204 15.3724 25.089C18.2359 22.6413 21.1137 20.2091 23.9485 17.7305C25.3178 16.5334 26.548 15.1962 27.5629 13.6853C29.3605 11.0103 29.8196 8.15438 28.7572 5.09582C27.6454 1.8944 24.5029 -0.190849 21.0685 0.0245027C18.913 0.159625 17.2094 1.16671 15.853 2.76918C15.4176 3.28363 15.0518 3.85509 14.6516 4.40473C14.3567 3.97965 14.072 3.52924 13.747 3.10839C12.7005 1.75295 11.4008 0.720525 9.70147 0.275746C7.36308 -0.335824 5.18607 0.0702474 3.25367 1.49044C1.28397 2.93808 0.322067 4.95437 0.0545147 7.32042C0.0416034 7.43091 0.0186498 7.53929 0 7.64908Z" fill="#0AC078"/>
</svg>
