<svg width="29" height="30" viewBox="0 0 29 30" fill="none" xmlns="http://www.w3.org/2000/svg">
<g id="Group">
<path id="Vector" d="M0.422852 26.8674C0.422852 23.132 0.422852 19.3974 0.422852 15.6621C0.437464 15.6391 0.459766 15.6183 0.464381 15.5938C0.600509 14.8479 1.0089 14.2863 1.61494 13.8427C2.54322 13.1629 3.45767 12.4631 4.38519 11.7802C4.5567 11.6543 4.62976 11.5246 4.62899 11.3044C4.62053 8.74766 4.62207 6.19015 4.6236 3.63341C4.62437 1.9752 5.7357 0.869482 7.40001 0.869482C12.186 0.868714 16.9713 0.869482 21.7573 0.869482C23.4555 0.869482 24.553 1.9683 24.5537 3.66947C24.5545 6.22622 24.556 8.78373 24.5499 11.3405C24.5499 11.5269 24.6091 11.642 24.7568 11.751C25.742 12.4792 26.7241 13.2112 27.7001 13.9509C28.363 14.4535 28.7437 15.1303 28.7476 15.959C28.7622 19.5003 28.7676 23.0415 28.7445 26.5827C28.7376 27.6132 28.2107 28.3821 27.2871 28.8517C27.0379 28.9783 26.7541 29.0397 26.4864 29.131H2.69166C2.63167 29.1118 2.57245 29.0896 2.51169 29.075C1.56341 28.8456 0.909683 28.2824 0.571285 27.3654C0.511296 27.2035 0.472073 27.0339 0.422852 26.8682V26.8674ZM14.5887 1.91459C12.1822 1.91459 9.77572 1.91305 7.36848 1.91459C6.32406 1.91535 5.67418 2.55991 5.67418 3.59734C5.67264 7.76395 5.67572 11.9305 5.66803 16.0972C5.66803 16.3066 5.7334 16.3979 5.92413 16.4754C8.54903 17.5428 11.1732 18.6117 13.7904 19.6982C14.3379 19.9254 14.8432 19.9254 15.3893 19.6982C17.998 18.6171 20.6137 17.5497 23.2309 16.4885C23.447 16.401 23.5101 16.2944 23.5093 16.0688C23.5024 11.9298 23.5047 7.7908 23.5039 3.65105C23.5039 2.53919 22.8725 1.91305 21.7527 1.91305C19.3647 1.91228 16.9759 1.91305 14.5879 1.91305L14.5887 1.91459ZM1.47342 15.7795C1.47342 15.9521 1.47342 16.068 1.47342 16.1839C1.47342 19.587 1.47342 22.9901 1.47342 26.3932C1.47342 27.4283 2.12638 28.0821 3.16465 28.0829C10.7809 28.0844 18.3964 28.0844 26.0127 28.0829C27.051 28.0829 27.7039 27.4283 27.7039 26.394C27.7047 22.9909 27.7039 19.5877 27.7039 16.1846C27.7039 16.0695 27.7039 15.9537 27.7039 15.7833C24.939 16.9159 22.2288 18.0262 19.4324 19.1718C19.5654 19.2685 19.657 19.3184 19.7285 19.389C21.2367 20.8891 22.7425 22.3923 24.2484 23.8948C24.3199 23.9661 24.3953 24.036 24.4537 24.1173C24.6091 24.3337 24.5791 24.6168 24.3915 24.7956C24.2107 24.9675 23.9408 24.9913 23.7316 24.8432C23.65 24.7849 23.5801 24.7097 23.5078 24.6383C21.8773 23.0131 20.2453 21.3887 18.621 19.7573C18.4833 19.6192 18.378 19.5969 18.198 19.6737C17.3597 20.029 16.5129 20.365 15.6708 20.7134C14.944 21.0134 14.2249 21.015 13.4973 20.7088C12.6667 20.3589 11.8253 20.032 10.9963 19.6783C10.8048 19.5962 10.6963 19.6154 10.5494 19.7635C8.92511 21.3956 7.29311 23.0192 5.66264 24.6444C5.59112 24.7158 5.52036 24.791 5.43807 24.8478C5.22734 24.9936 4.95739 24.9667 4.77973 24.7918C4.59361 24.6091 4.56746 24.3291 4.72589 24.1135C4.78511 24.0329 4.86125 23.9631 4.93278 23.8917C6.43865 22.3893 7.94453 20.8861 9.45271 19.3859C9.52269 19.3161 9.61883 19.2708 9.75957 19.1757C6.94548 18.0232 4.23522 16.9128 1.47189 15.781L1.47342 15.7795ZM24.5691 12.912V15.9337C25.442 15.5761 26.2896 15.2293 27.1779 14.8656C26.3019 14.2095 25.4574 13.5765 24.5691 12.912ZM2.00486 14.8648C2.89085 15.2278 3.73838 15.5738 4.59899 15.926V12.9227C3.72147 13.5795 2.87701 14.2118 2.00486 14.8648Z" fill="#FCFCFC"/>
<path id="Vector_2" d="M20.3686 5.06059C20.5531 5.06059 20.7093 5.05598 20.8646 5.06136C21.1846 5.0721 21.3968 5.27544 21.4014 5.5701C21.4053 5.86552 21.2015 6.08574 20.8838 6.10109C20.5808 6.11567 20.2755 6.10416 19.9717 6.10953C19.5479 6.11643 19.3226 6.28985 19.3118 6.60983C19.3011 6.92367 19.5379 7.13008 19.9402 7.1577C20.6001 7.20374 21.1538 7.64265 21.3407 8.26803C21.5553 8.98702 21.2484 9.74361 20.5739 10.0943C20.3962 10.1864 20.337 10.2907 20.3532 10.4756C20.3647 10.603 20.3601 10.7335 20.3486 10.8608C20.3239 11.1302 20.1217 11.3205 19.8594 11.3335C19.6141 11.3458 19.3926 11.1831 19.3341 10.9337C19.3111 10.8371 19.3118 10.7335 19.3072 10.6329C19.3034 10.5332 19.3064 10.4334 19.3064 10.293C19.1342 10.293 18.9811 10.2992 18.8288 10.2915C18.4797 10.2738 18.2497 10.0467 18.2643 9.74284C18.2789 9.44281 18.4989 9.25635 18.8473 9.24944C19.1788 9.24331 19.511 9.25175 19.8417 9.22949C20.1801 9.20724 20.3609 9.00467 20.3524 8.7008C20.3439 8.41689 20.1547 8.21738 19.834 8.20357C18.6758 8.15523 18.0205 7.0733 18.3489 6.12027C18.4835 5.72893 18.7312 5.42354 19.1026 5.24551C19.2788 5.16111 19.3203 5.05675 19.3095 4.88487C19.3003 4.73908 19.3011 4.58868 19.3257 4.44596C19.3734 4.16511 19.6048 3.994 19.8779 4.01548C20.1371 4.03543 20.3286 4.23034 20.3509 4.50274C20.3586 4.59405 20.3532 4.68613 20.3563 4.77821C20.3586 4.85955 20.3639 4.94088 20.3693 5.06059H20.3686Z" fill="#FCFCFC"/>
<path id="Vector_3" d="M11.4465 7.15303C12.4602 7.15303 13.4739 7.15226 14.4867 7.15303C14.8782 7.15303 15.1013 7.34102 15.1059 7.66253C15.1097 7.99325 14.8767 8.1966 14.476 8.1966C12.4487 8.1989 10.4221 8.1989 8.39481 8.1966C8.00796 8.1966 7.78108 7.99939 7.77646 7.67865C7.77108 7.34486 7.99719 7.15303 8.40634 7.15303C9.42 7.15149 10.4337 7.15303 11.4465 7.15303Z" fill="#FCFCFC"/>
<path id="Vector_4" d="M11.4412 14.4774C10.4276 14.4774 9.41468 14.4805 8.40103 14.4759C8.00418 14.4744 7.78422 14.2856 7.77653 13.9656C7.77038 13.6971 7.94034 13.486 8.20799 13.4454C8.31643 13.4285 8.42795 13.43 8.5387 13.43C10.4737 13.4293 12.408 13.43 14.343 13.43C14.4261 13.43 14.5091 13.4285 14.5914 13.4354C14.906 13.4615 15.099 13.6526 15.1059 13.9388C15.1129 14.2357 14.9167 14.4467 14.5914 14.4713C14.3991 14.4859 14.2046 14.4782 14.0115 14.4782C13.1548 14.4782 12.298 14.4782 11.4412 14.4782V14.4774Z" fill="#FCFCFC"/>
<path id="Vector_5" d="M10.9237 10.2945C11.7804 10.2945 12.6372 10.2899 13.4947 10.2968C13.8923 10.2998 14.1269 10.5884 14.0408 10.9429C13.9793 11.1961 13.7816 11.335 13.4517 11.3365C12.6687 11.3403 11.885 11.338 11.1021 11.338C10.1992 11.338 9.29629 11.3403 8.39338 11.3365C8.02883 11.335 7.80887 11.1631 7.77888 10.8738C7.74427 10.5331 7.96961 10.2983 8.35338 10.296C9.21015 10.2914 10.0669 10.2945 10.9244 10.2945H10.9237Z" fill="#FCFCFC"/>
<path id="Vector_6" d="M10.9372 4.01122C11.7662 4.01122 12.5961 4.00968 13.4252 4.01122C13.8251 4.01198 14.0635 4.21379 14.0581 4.53914C14.0535 4.85374 13.8174 5.05709 13.4375 5.05785C11.7601 5.06016 10.0827 5.06016 8.40532 5.05785C8.00155 5.05785 7.77159 4.85758 7.77544 4.52379C7.77928 4.19461 8.00617 4.01122 8.4207 4.01045C9.25901 4.00891 10.0981 4.01045 10.9364 4.01045L10.9372 4.01122Z" fill="#FCFCFC"/>
</g>
</svg>
