<svg width="26" height="26" viewBox="0 0 26 26" fill="none" xmlns="http://www.w3.org/2000/svg">
<path d="M22.8242 4.17773H3.17584C1.42476 4.17773 0 5.6025 0 7.35358V18.6529C0 20.404 1.42476 21.8288 3.17584 21.8288H22.8242C24.5752 21.8288 26 20.404 26 18.6529V7.35392C26.0003 5.6025 24.5756 4.17773 22.8242 4.17773ZM21.2723 6.24961L13 11.5792L4.72768 6.24961H21.2723ZM22.8242 19.7572H3.17584C2.56706 19.7572 2.07188 19.2617 2.07188 18.6533V7.41263L12.3608 14.0288C12.3746 14.0375 12.3895 14.0433 12.4036 14.0513C12.4185 14.0596 12.4337 14.0675 12.4489 14.0751C12.5286 14.1162 12.6108 14.1493 12.6947 14.1711C12.7034 14.1735 12.712 14.1745 12.7206 14.1766C12.8128 14.1984 12.9061 14.2118 12.9993 14.2118H13C13.0007 14.2118 13.0014 14.2118 13.0014 14.2118C13.0946 14.2118 13.1878 14.1987 13.28 14.1766C13.2887 14.1745 13.2973 14.1735 13.3059 14.1711C13.3899 14.1493 13.4717 14.1162 13.5518 14.0751C13.567 14.0675 13.5822 14.0596 13.597 14.0513C13.6112 14.0433 13.6261 14.0375 13.6399 14.0288L23.9288 7.41263V18.6529C23.9285 19.2617 23.4329 19.7572 22.8242 19.7572Z" fill="#979797"/>
</svg>
