<svg width="31" height="32" viewBox="0 0 31 32" fill="none" xmlns="http://www.w3.org/2000/svg">
<g id="Group">
<path id="Vector" d="M2.97808 17.2692V27.4145H16.1724C16.1724 27.2936 16.1724 27.1807 16.1724 27.0678C16.1724 25.5653 16.1744 24.0618 16.1704 22.5592C16.1704 22.276 16.2556 22.0541 16.5465 21.9729C16.9048 21.8728 17.1849 22.1224 17.1858 22.5434C17.1898 23.824 17.1868 25.1047 17.1868 26.3854C17.1868 26.7221 17.1868 27.0589 17.1868 27.4343C17.5114 27.4343 17.8143 27.4303 18.1171 27.4343C18.5149 27.4402 18.706 27.6235 18.7079 28.0147C18.7099 28.4376 18.7386 28.8665 18.6812 29.2825C18.4981 30.6117 17.452 31.4962 16.0883 31.4971C11.7406 31.5001 7.394 31.4991 3.04636 31.4971C2.86822 31.4971 2.68709 31.4823 2.51093 31.4496C1.30847 31.2277 0.452425 30.2195 0.427683 28.9992C0.420756 28.6714 0.421745 28.3425 0.427683 28.0147C0.434611 27.6225 0.620668 27.4422 1.01951 27.4343C1.30453 27.4293 1.59054 27.4293 1.87556 27.4264C1.88546 27.4264 1.89437 27.4204 1.94979 27.4016V27.051C1.94979 23.6953 1.94979 20.3406 1.94979 16.9849C1.94979 16.3996 2.09528 16.252 2.67721 16.252C4.14787 16.252 5.61751 16.254 7.08817 16.25C7.35736 16.25 7.57114 16.3292 7.66516 16.5986C7.79085 16.9582 7.53156 17.2652 7.10006 17.2672C5.85208 17.2712 4.60409 17.2682 3.35611 17.2682C3.24131 17.2682 3.12554 17.2682 2.97808 17.2682V17.2692ZM1.44307 28.4614C1.44307 28.6516 1.4401 28.809 1.44307 28.9665C1.45989 29.6975 1.93 30.3165 2.64851 30.4334C3.07605 30.5027 3.52437 30.4463 3.98258 30.4463C3.98258 30.2848 3.97368 30.1263 3.98457 29.9699C4.00436 29.6688 4.21713 29.4657 4.49424 29.4697C4.77036 29.4726 4.97624 29.6777 4.99405 29.9808C5.00395 30.1442 4.99603 30.3086 4.99603 30.4671H14.1317C14.1683 30.059 14.01 29.4925 14.6404 29.4865C15.2946 29.4796 15.1105 30.0758 15.1748 30.4611C16.9918 30.6424 17.9321 29.8817 17.654 28.4624H1.44307V28.4614Z" fill="#FCFCFC"/>
<path id="Vector_2" d="M9.29243 18.2204C9.68335 18.8979 10.0634 19.5546 10.4435 20.2122C10.4959 20.3034 10.5523 20.3945 10.5968 20.4896C10.7265 20.7679 10.6483 21.0452 10.4078 21.1789C10.1683 21.3117 9.87635 21.2433 9.71899 20.9858C9.43792 20.5252 9.17665 20.0538 8.90647 19.5873C8.75901 19.3327 8.60955 19.0782 8.44328 18.7919C7.81088 19.1643 7.17852 19.5041 6.58175 19.8993C6.17796 20.1667 6.08096 20.7174 6.31848 21.1522C6.64804 21.7554 6.99046 22.3516 7.34971 22.937C7.64068 23.4104 8.18403 23.5422 8.68283 23.2965C8.69272 23.2916 8.70161 23.2876 8.71052 23.2817C10.7869 21.8782 13.1908 21.2265 15.4858 20.3261C16.6744 19.8596 17.8769 19.4258 19.109 18.9643C19.0467 18.8504 18.9942 18.7523 18.9398 18.6572C18.2905 17.5311 17.6404 16.4039 16.9901 15.2778C16.9585 15.2233 16.9219 15.1708 16.8932 15.1143C16.7427 14.8202 16.808 14.5438 17.0604 14.3953C17.3058 14.2507 17.6037 14.3259 17.768 14.6013C18.1253 15.2005 18.4697 15.8077 18.818 16.4128C19.2773 17.2102 19.7365 18.0065 20.1937 18.8048C20.4767 19.299 20.3857 19.5546 19.8572 19.7537C17.5047 20.6391 15.1523 21.5226 12.7998 22.4081C12.6821 22.4527 12.5643 22.4982 12.4129 22.5567C12.7276 23.1103 13.0443 23.6412 13.3372 24.186C13.7786 25.0071 13.4313 25.9916 12.593 26.3363C11.8884 26.6265 11.1065 26.365 10.6968 25.6845C10.3534 25.115 10.0288 24.5336 9.67646 23.9255C8.70262 24.5861 7.73768 24.697 6.79452 23.8651C6.60846 23.9671 6.42732 24.075 6.23928 24.1681C5.48416 24.5445 4.6093 24.286 4.20354 23.5719C3.79579 22.8548 4.0264 21.9762 4.74293 21.5206C4.80528 21.481 4.86663 21.4364 4.93492 21.4097C5.19916 21.3077 5.25754 21.1542 5.22191 20.8521C5.13383 20.1043 5.43471 19.4902 6.03347 19.0286C6.07503 18.996 6.11755 18.9623 6.16505 18.9395C8.36213 17.8718 10.1198 16.2019 11.9853 14.6805C13.1165 13.7574 14.2378 12.8224 15.3641 11.8934C15.7689 11.5596 16.0579 11.6081 16.3201 12.0508C16.4607 12.2876 16.6022 12.5233 16.7328 12.765C16.8961 13.069 16.8229 13.3652 16.5606 13.5078C16.3053 13.6475 16.041 13.5623 15.8569 13.282C15.7946 13.1869 15.7372 13.0898 15.659 12.965C13.5282 14.7241 11.4193 16.4643 9.29543 18.2175L9.29243 18.2204ZM10.5523 23.4302C10.9016 24.0374 11.2263 24.6158 11.5677 25.1843C11.7241 25.4448 12.0111 25.5102 12.2545 25.3745C12.503 25.2359 12.5811 24.9447 12.4267 24.6584C12.2456 24.3246 12.0487 23.9998 11.8567 23.6709C11.7162 23.4293 11.5737 23.1876 11.4232 22.932C11.1194 23.1064 10.8551 23.2569 10.5523 23.4302ZM5.69597 22.1308C5.39016 22.3318 4.98438 22.4021 5.01407 22.832C5.02496 22.9875 5.16551 23.1995 5.30407 23.2688C5.65144 23.4401 5.90579 23.1737 6.19279 22.9935C6.02554 22.7042 5.86914 22.4338 5.69496 22.1308H5.69597Z" fill="#FCFCFC"/>
<path id="Vector_3" d="M30.9011 5.57961C30.9011 6.55323 30.9031 7.52686 30.9011 8.50147C30.8992 9.51966 30.2737 10.1536 29.2652 10.1545C27.3086 10.1565 25.351 10.1565 23.3944 10.1545C22.3998 10.1536 21.7625 9.52065 21.7605 8.53217C21.7575 7.59025 21.7585 6.64832 21.7605 5.70639C21.7605 5.30624 21.9525 5.07448 22.2692 5.07547C22.5859 5.07646 22.7739 5.30922 22.7749 5.71035C22.7769 6.64139 22.7739 7.57341 22.7759 8.50444C22.7769 8.95906 22.955 9.13735 23.4113 9.13834C25.3579 9.14032 27.3036 9.14032 29.2503 9.13834C29.7056 9.13834 29.8847 8.95906 29.8847 8.50345C29.8867 6.55621 29.8867 4.60797 29.8847 2.66073C29.8847 2.20313 29.7066 2.02485 29.2523 2.02386C27.3056 2.02188 25.3599 2.02188 23.4132 2.02386C22.954 2.02386 22.7789 2.20016 22.7749 2.65379C22.772 2.94004 22.7808 3.22529 22.7719 3.51153C22.762 3.8364 22.5572 4.05133 22.2702 4.05331C21.9822 4.05529 21.7704 3.84234 21.7615 3.51945C21.7526 3.15992 21.7467 2.79939 21.7645 2.43985C21.8011 1.67225 22.4335 1.02052 23.2025 1.01458C25.2857 0.997744 27.37 0.997744 29.4542 1.01458C30.2628 1.02151 30.8903 1.70295 30.8982 2.53098C30.9081 3.54719 30.9001 4.5634 30.9011 5.57961Z" fill="#FCFCFC"/>
<path id="Vector_4" d="M21.7594 21.3381C21.7594 20.3645 21.7585 19.3909 21.7594 18.4163C21.7614 17.4001 22.3889 16.7642 23.3944 16.7632C25.351 16.7612 27.3085 16.7612 29.2651 16.7632C30.2597 16.7632 30.8971 17.3961 30.9001 18.3846C30.903 19.3265 30.902 20.2684 30.9001 21.2104C30.9001 21.6095 30.7071 21.8433 30.3914 21.8423C30.0756 21.8413 29.8867 21.6085 29.8867 21.2074C29.8847 20.2764 29.8876 19.3443 29.8856 18.4133C29.8847 17.9587 29.7065 17.7804 29.2503 17.7804C27.3036 17.7784 25.3579 17.7784 23.4112 17.7804C22.955 17.7804 22.7768 17.9577 22.7768 18.4143C22.7748 20.3615 22.7748 22.3098 22.7768 24.257C22.7768 24.7146 22.955 24.8939 23.4083 24.8939C25.3549 24.8959 27.3006 24.8959 29.2473 24.8939C29.7056 24.8939 29.8817 24.7166 29.8867 24.263C29.8896 23.9767 29.8807 23.6915 29.8896 23.4052C29.8995 23.0794 30.1024 22.8664 30.3904 22.8634C30.6784 22.8605 30.8912 23.0734 30.9001 23.3973C30.909 23.7568 30.9149 24.1174 30.8971 24.4769C30.8595 25.2465 30.2301 25.8962 29.4601 25.9022C27.3768 25.919 25.2926 25.92 23.2083 25.9022C22.3998 25.8952 21.7713 25.2128 21.7634 24.3858C21.7545 23.3696 21.7614 22.3534 21.7604 21.3372L21.7594 21.3381Z" fill="#FCFCFC"/>
<path id="Vector_5" d="M0.427734 10.124C0.427734 8.83247 0.427734 7.54091 0.427734 6.24935C0.427734 5.75016 0.594987 5.58277 1.09378 5.58277C3.01969 5.58178 4.94462 5.58178 6.87052 5.58277C7.36833 5.58277 7.53655 5.75115 7.53754 6.24935C7.53754 8.85426 7.53754 11.4582 7.53754 14.0631C7.53754 14.5613 7.36831 14.7297 6.87149 14.7307C4.94558 14.7317 3.02066 14.7317 1.09475 14.7307C0.596943 14.7307 0.428701 14.5613 0.428701 14.0641C0.427711 12.7517 0.428701 11.4384 0.428701 10.126L0.427734 10.124ZM1.45699 13.6907H6.49741V6.61483H1.45699V13.6907Z" fill="#FCFCFC"/>
<path id="Vector_6" d="M17.6943 5.068C17.6983 7.59467 15.6477 9.64393 13.1131 9.6469C10.6212 9.64987 8.56163 7.59962 8.55471 5.11059C8.54778 2.56907 10.5904 0.49901 13.1042 0.5C15.6437 0.5 17.6913 2.53837 17.6943 5.06899V5.068ZM16.6789 5.06701C16.6769 3.10986 15.0776 1.51027 13.127 1.51522C11.1516 1.52116 9.56712 3.11482 9.57009 5.09376C9.57306 7.02911 11.1724 8.62772 13.1062 8.6297C15.0836 8.63168 16.6799 7.04001 16.6789 5.06701Z" fill="#FCFCFC"/>
<path id="Vector_7" d="M28.3615 21.3589C28.3516 22.4791 27.4262 23.3824 26.301 23.3695C25.1965 23.3577 24.2959 22.4395 24.3008 21.3312C24.3057 20.207 25.2212 19.3007 26.3455 19.3047C27.4648 19.3097 28.3714 20.2338 28.3615 21.3589ZM27.3451 21.3381C27.347 20.7874 26.8888 20.3249 26.3395 20.3219C25.7833 20.3189 25.3251 20.7666 25.3162 21.3203C25.3073 21.8868 25.7705 22.3553 26.3376 22.3514C26.8908 22.3474 27.3431 21.8928 27.3451 21.3381Z" fill="#FCFCFC"/>
<path id="Vector_8" d="M25.3152 6.11625C24.4819 6.02612 24.3027 5.92806 24.3018 5.5814C24.3018 5.23375 24.4848 5.13371 25.3162 5.04655C25.3162 4.8752 25.3112 4.6989 25.3162 4.5226C25.3429 3.72032 25.9743 3.07355 26.771 3.04384C27.1194 3.03096 27.4697 3.03393 27.818 3.04285C28.1427 3.05077 28.3564 3.25778 28.3584 3.54501C28.3604 3.83225 28.1466 4.04222 27.824 4.05411C27.5597 4.06302 27.2955 4.05609 27.0303 4.05708C26.4889 4.05807 26.3296 4.21654 26.3296 4.75337C26.3296 4.84747 26.3296 4.94057 26.3296 5.05249C26.7373 5.11885 27.3331 4.93463 27.3262 5.59031C27.3203 6.22124 26.7512 6.0588 26.3296 6.10238C26.3296 6.57087 26.3316 7.02351 26.3296 7.47516C26.3276 7.88026 26.1475 8.11302 25.8338 8.11995C25.5072 8.12787 25.3161 7.89016 25.3152 7.46624C25.3132 7.02252 25.3152 6.57879 25.3152 6.11625Z" fill="#FCFCFC"/>
<path id="Vector_9" d="M21.2882 15.7455C20.9478 15.7435 20.7281 15.5663 20.6934 15.2939C20.6598 15.0304 20.8429 14.7937 21.1398 14.7323C21.9573 14.5649 22.7757 14.3995 23.5942 14.2371C23.9603 14.1648 24.2246 14.3103 24.2929 14.6085C24.3651 14.9254 24.186 15.1691 23.804 15.2493C23.0182 15.4137 22.2304 15.5712 21.4436 15.7297C21.3822 15.7426 21.3179 15.7426 21.2892 15.7445L21.2882 15.7455Z" fill="#FCFCFC"/>
<path id="Vector_10" d="M20.2953 9.07039C20.2072 9.25956 20.1726 9.38436 20.1003 9.48242C19.6194 10.1361 19.1335 10.7869 18.6416 11.4316C18.4308 11.708 18.1349 11.7555 17.8974 11.5723C17.6578 11.3871 17.6291 11.1008 17.8399 10.8166C18.3219 10.1639 18.8098 9.5151 19.2987 8.86734C19.4452 8.67321 19.652 8.55535 19.8757 8.67024C20.041 8.75542 20.1587 8.93469 20.2963 9.07138L20.2953 9.07039Z" fill="#FCFCFC"/>
<path id="Vector_11" d="M19.662 13.7629C19.5324 13.6411 19.3245 13.5351 19.278 13.3796C19.2305 13.2231 19.2781 12.9399 19.3938 12.8468C20.0817 12.2901 20.7942 11.7642 21.5127 11.2472C21.7354 11.0867 22.0313 11.1778 22.1788 11.4007C22.3331 11.6335 22.2916 11.9078 22.0422 12.1C21.3811 12.6061 20.7131 13.1033 20.0431 13.5975C19.954 13.6629 19.8362 13.6887 19.662 13.762V13.7629Z" fill="#FCFCFC"/>
<path id="Vector_12" d="M3.97911 10.6627C3.65152 10.6627 3.32296 10.6706 2.99538 10.6607C2.67175 10.6508 2.45995 10.4399 2.46193 10.1516C2.46391 9.86243 2.67569 9.65345 3.00229 9.65047C3.65844 9.64255 4.31359 9.64255 4.96975 9.65047C5.29337 9.65444 5.50614 9.87036 5.50416 10.1586C5.50218 10.4458 5.28842 10.6528 4.9638 10.6607C4.63622 10.6697 4.30765 10.6627 3.98007 10.6627H3.97911Z" fill="#FCFCFC"/>
<path id="Vector_13" d="M3.99413 11.6799C4.31182 11.6799 4.62853 11.6739 4.94621 11.6819C5.28864 11.6898 5.51031 11.9017 5.50339 12.1999C5.49646 12.4861 5.28068 12.6901 4.95409 12.6941C4.30882 12.701 3.6636 12.701 3.01833 12.6941C2.67491 12.6901 2.4542 12.4752 2.46212 12.1761C2.46905 11.8889 2.6828 11.6898 3.01137 11.6828C3.33895 11.6749 3.66752 11.6809 3.9951 11.6809L3.99413 11.6799Z" fill="#FCFCFC"/>
<path id="Vector_14" d="M4.51965 8.62599C4.32963 8.62599 4.13763 8.63886 3.9486 8.62302C3.66853 8.59925 3.47655 8.38234 3.47754 8.11788C3.47952 7.85244 3.67251 7.63256 3.95358 7.61968C4.31283 7.60383 4.67304 7.60284 5.0313 7.61968C5.31138 7.63355 5.50439 7.85838 5.50241 8.12284C5.50043 8.38729 5.30647 8.59925 5.02541 8.62302C4.85716 8.63688 4.6869 8.62599 4.51767 8.625L4.51965 8.62599Z" fill="#FCFCFC"/>
<path id="Vector_15" d="M11.6025 5.07022C11.6025 4.59381 11.5976 4.11839 11.6035 3.64198C11.6094 3.13387 11.9578 2.91201 12.4131 3.13585C13.38 3.61029 14.3469 4.08472 15.298 4.58787C15.4573 4.67206 15.6037 4.88501 15.6453 5.06428C15.7007 5.30199 15.5107 5.46542 15.2969 5.57239C14.333 6.05276 13.372 6.53908 12.4061 7.01351C11.9509 7.23735 11.6094 7.01351 11.6035 6.49847C11.5986 6.02206 11.6025 5.54663 11.6025 5.07022ZM14.0153 5.07221C13.5225 4.82558 13.088 4.60768 12.6417 4.38383V5.76355C13.1019 5.53178 13.5294 5.31685 14.0153 5.07121V5.07221Z" fill="#FCFCFC"/>
</g>
</svg>
