<svg width="29" height="29" viewBox="0 0 29 29" fill="none" xmlns="http://www.w3.org/2000/svg">
<g id="Group">
<path id="Vector" d="M6.49886 15.6517C5.89683 15.8427 5.32183 16.0255 4.73536 16.2116C4.79024 16.892 4.60758 17.4896 4.13578 17.9839C3.39451 18.7594 2.2011 18.8692 1.33041 18.2462C0.458079 17.6224 0.173039 16.4608 0.657939 15.505C1.13711 14.5607 2.25598 14.0959 3.23889 14.4336C3.68939 14.5885 4.04569 14.8697 4.2996 15.2689C4.40445 15.4337 4.49864 15.4591 4.67966 15.396C5.17603 15.2222 5.68059 15.0689 6.18351 14.9156C6.31456 14.8755 6.36698 14.8295 6.35552 14.673C6.17777 12.172 6.68725 10.6579 8.3844 8.63478C8.33689 8.58313 8.29184 8.52411 8.23778 8.47493C7.46292 7.77405 6.68233 7.07891 5.91403 6.36984C5.7625 6.22966 5.66584 6.22966 5.49383 6.33951C4.34547 7.07072 2.926 7.02481 1.83661 6.23786C0.775889 5.47141 0.292623 4.15573 0.598962 2.86792C0.906121 1.57683 1.97176 0.603797 3.31916 0.416077C4.65509 0.229176 5.73219 0.709543 6.48083 1.81455C7.22866 2.91792 7.21802 4.08441 6.56602 5.24434C6.5136 5.33697 6.45463 5.4255 6.38255 5.54108C7.2729 6.34525 8.1616 7.14695 9.03148 7.93144C9.53358 7.62076 10.0111 7.32156 10.4944 7.03055C10.5836 6.97727 10.6918 6.94038 10.795 6.92808C11.0169 6.90267 11.1816 7.00514 11.2406 7.22155C11.3012 7.4437 11.2217 7.62076 11.0161 7.74044C10.6623 7.9462 10.2953 8.13392 9.9636 8.37082C7.76517 9.9398 6.72411 12.7236 7.34743 15.3247C7.97813 17.9536 10.1577 19.9619 12.8304 20.3743C16.6015 20.9563 20.0613 18.3077 20.5036 14.5C20.9263 10.8571 18.1365 7.45845 14.4743 7.15843C14.2802 7.14285 14.0844 7.13302 13.8903 7.1199C13.6036 7.10023 13.4382 6.9453 13.4341 6.69118C13.43 6.42558 13.6102 6.21819 13.9026 6.24688C14.5317 6.30918 15.1599 6.39525 15.7816 6.50592C16.1043 6.5633 16.4139 6.69528 16.7547 6.80184C17.3034 6.12228 17.8604 5.4337 18.4125 4.75004C17.3764 3.19991 17.9292 1.74651 18.8507 0.992353C19.8631 0.164417 21.2916 0.162778 22.2401 0.994813C23.2517 1.88177 23.4777 3.4073 22.7651 4.53854C21.9788 5.78619 20.6535 6.08621 18.9801 5.37714C18.4805 5.97637 17.9759 6.58215 17.4525 7.21007C18.5616 7.84373 19.4593 8.6815 20.1359 9.74716C20.8124 10.8128 21.1859 11.9826 21.29 13.2606C21.9796 13.3343 22.6554 13.4057 23.3442 13.4794C23.4016 13.322 23.4483 13.1753 23.5064 13.0327C23.9888 11.8605 25.2453 11.1678 26.4445 11.4104C27.6584 11.6563 28.5479 12.7228 28.561 13.9483C28.5741 15.1976 27.7067 16.2633 26.4658 16.5239C25.1315 16.8035 23.7718 15.9649 23.4237 14.6254C23.3672 14.409 23.2746 14.3459 23.0756 14.3287C22.5047 14.2779 21.9354 14.2115 21.3424 14.1492C21.1532 16.428 20.2276 18.3175 18.4362 19.7316C16.6424 21.1481 14.5841 21.5793 12.3332 21.2219C12.2464 21.8252 12.1571 22.3933 12.0924 22.9638C12.0842 23.04 12.1858 23.1614 12.2677 23.2114C13.2981 23.8401 13.8289 24.7386 13.7756 25.96C13.7134 27.3699 12.5061 28.5577 11.0669 28.6266C9.60648 28.6962 8.28611 27.6298 8.09198 26.2247C7.84134 24.4098 9.1183 22.922 10.9531 22.8884C11.0391 22.8868 11.1242 22.8794 11.2291 22.8728C11.3167 22.2342 11.4027 21.6088 11.4912 20.9587C8.95285 20.0324 7.28518 18.2774 6.4964 15.6517H6.49886ZM1.39839 3.62454C1.39184 4.90497 2.40751 5.92472 3.69757 5.93456C5.02532 5.9444 6.09504 4.91644 6.10651 3.62208C6.11716 2.32771 5.07119 1.25959 3.7844 1.25139C2.46648 1.24319 1.40495 2.29902 1.39839 3.62454ZM12.9525 25.7673C12.9565 24.6918 12.0736 23.7745 11.0284 23.7696C9.87841 23.7639 8.97578 24.6402 8.97824 25.7624C8.97988 26.8502 9.86203 27.7388 10.9481 27.7478C12.0457 27.7576 12.9484 26.8658 12.9525 25.7673ZM22.3916 3.05974C22.3916 2.07277 21.5709 1.25139 20.5839 1.25057C19.5838 1.25057 18.7377 2.07933 18.7369 3.06055C18.7352 4.04014 19.5838 4.87546 20.5806 4.87546C21.5504 4.87546 22.3924 4.03195 22.3916 3.05974ZM26.0652 15.6845C26.9924 15.6788 27.782 14.8836 27.7779 13.959C27.7739 13.0179 27.0015 12.2531 26.0554 12.2531C25.084 12.2531 24.2739 13.0507 24.2903 13.9893C24.3067 14.9279 25.1061 15.6911 26.0661 15.6854L26.0652 15.6845ZM1.30174 16.4764C1.29601 17.1773 1.88084 17.7675 2.58116 17.7691C3.27902 17.7708 3.86958 17.1781 3.86549 16.4805C3.86139 15.7903 3.28885 15.2132 2.59918 15.2058C1.89558 15.1976 1.30748 15.7739 1.30174 16.4772V16.4764Z" fill="#FCFCFC"/>
<path id="Vector_2" d="M9.46107 13.9727C9.46107 12.9374 9.46926 11.9013 9.45615 10.8659C9.45206 10.538 9.57738 10.347 9.87552 10.2093C11.1058 9.64289 12.3262 9.05268 13.559 8.49116C13.6958 8.42886 13.9128 8.43869 14.0537 8.50263C15.3143 9.07317 16.565 9.66666 17.8231 10.2446C18.0721 10.3593 18.1639 10.5348 18.1631 10.7971C18.1598 12.8973 18.159 14.9982 18.1631 17.0984C18.1631 17.3993 18.059 17.5796 17.7601 17.6903C16.5265 18.146 15.3028 18.6297 14.0693 19.0863C13.921 19.1412 13.7171 19.1453 13.5696 19.0912C12.3361 18.6346 11.1124 18.1518 9.8788 17.6944C9.57165 17.5804 9.45615 17.3919 9.45861 17.0787C9.46598 16.0434 9.46107 15.0081 9.46107 13.9719V13.9727ZM17.3006 11.3693C17.1867 11.4184 17.0999 11.4545 17.0147 11.493C16.1899 11.8668 15.3683 12.2488 14.5386 12.6112C14.3404 12.6981 14.2658 12.7989 14.2675 13.0202C14.2773 14.6015 14.2724 16.1828 14.274 17.7649C14.274 17.8575 14.2855 17.9493 14.2937 18.0698C15.2422 17.7116 16.1506 17.3615 17.0655 17.0312C17.2703 16.9574 17.3219 16.8517 17.3202 16.6492C17.3128 14.99 17.3161 13.3301 17.3153 11.6701C17.3153 11.584 17.3071 11.4971 17.3014 11.3693H17.3006ZM13.3616 18.06C13.373 17.9821 13.3861 17.9354 13.3861 17.8886C13.387 16.2377 13.3902 14.5859 13.3788 12.935C13.3788 12.8415 13.2805 12.7038 13.192 12.662C12.3369 12.2595 11.4736 11.8726 10.6119 11.4824C10.5365 11.4488 10.4563 11.4266 10.3719 11.3971C10.3596 11.4488 10.3465 11.4758 10.3465 11.5037C10.3449 13.253 10.3416 15.0015 10.3531 16.7508C10.3531 16.8377 10.4694 16.9656 10.5603 17.0025C11.0927 17.2189 11.6341 17.414 12.1723 17.6157C12.5621 17.7616 12.9528 17.9075 13.3607 18.0591L13.3616 18.06ZM10.9715 10.7036C11.7398 11.0619 12.4679 11.3652 13.1601 11.7365C13.6253 11.9865 14.0136 11.9964 14.4829 11.7414C15.1799 11.3635 15.9171 11.0594 16.6494 10.7176C16.6109 10.6815 16.5937 10.6544 16.5691 10.643C15.7025 10.2413 14.8359 9.83799 13.9652 9.44697C13.8833 9.41008 13.7555 9.42402 13.6687 9.46091C13.2567 9.63797 12.8521 9.83143 12.445 10.0191C11.9699 10.2388 11.4957 10.4593 10.9706 10.7028L10.9715 10.7036Z" fill="#FCFCFC"/>
</g>
</svg>
