<svg width="26" height="27" viewBox="0 0 26 27" fill="none" xmlns="http://www.w3.org/2000/svg">
<g id="Notification">
<path id="Vector" d="M20.6342 17.6414H20.6184V13.0567C20.6184 9.53294 18.2666 6.55559 15.0438 5.59744C15.2814 5.20945 15.4318 4.75809 15.4318 4.26715C15.4318 2.83391 14.2678 1.66992 12.8346 1.66992C11.4013 1.66992 10.2373 2.83391 10.2373 4.26715C10.2373 4.7581 10.3877 5.20945 10.6253 5.59744C7.4025 6.55559 5.0507 9.53294 5.0507 13.0567V17.6414H5.03489C3.59372 17.6414 2.42969 18.8133 2.42969 20.2466C2.42969 21.6798 3.59373 22.8518 5.03489 22.8518H9.50879C9.86513 24.3246 11.1875 25.4253 12.7712 25.4253H12.8979C14.4816 25.4253 15.804 24.3246 16.1603 22.8518H20.6342C22.0754 22.8518 23.2394 21.6798 23.2394 20.2466C23.2394 18.8133 22.0754 17.6414 20.6342 17.6414ZM12.8346 3.25361C13.3889 3.25361 13.8481 3.70497 13.8481 4.26715C13.8481 4.82145 13.3889 5.27281 12.8346 5.27281C12.2803 5.27281 11.821 4.82145 11.821 4.26715C11.821 3.70497 12.2803 3.25361 12.8346 3.25361ZM20.6342 21.2681H5.03489C4.47266 21.2681 4.01338 20.8088 4.01338 20.2466C4.01338 19.6844 4.47266 19.2251 5.03489 19.2251H20.6342C21.1964 19.2251 21.6557 19.6844 21.6557 20.2466C21.6557 20.8088 21.1964 21.2681 20.6342 21.2681Z" fill="#979797"/>
</g>
</svg>
