<svg width="28" height="29" viewBox="0 0 28 29" fill="none" xmlns="http://www.w3.org/2000/svg">
<g id="Group">
<path id="Vector" d="M13.9442 0.306641C14.5364 0.603597 15.1247 0.90746 15.7208 1.19521C19.387 2.96391 23.054 4.73107 26.7241 6.49056C27.0133 6.62944 27.1302 6.81283 27.1294 7.13511C27.1217 12.0552 27.1217 16.9754 27.1294 21.8955C27.1294 22.2201 27.0063 22.4004 26.7195 22.5377C22.5164 24.555 18.3157 26.5785 14.1172 28.6073C13.8773 28.7232 13.6765 28.7216 13.4366 28.6058C9.24659 26.5816 5.05429 24.562 0.858152 22.5508C0.548979 22.4027 0.422086 22.2147 0.422855 21.8686C0.431315 16.9669 0.431315 12.0652 0.422855 7.1635C0.422855 6.81897 0.542841 6.62791 0.854321 6.47905C5.02585 4.48092 9.19275 2.47205 13.3597 0.463943C13.4481 0.42174 13.5266 0.360354 13.6096 0.307408C13.7211 0.307408 13.8319 0.307408 13.9434 0.307408L13.9442 0.306641ZM13.3597 27.6359V26.6353C13.3597 22.362 13.3558 18.0895 13.3674 13.8163C13.3674 13.5201 13.2828 13.3605 13.009 13.2622C12.7836 13.1817 12.5729 13.0604 12.3568 12.9545C12.0645 12.8111 11.9584 12.5931 12.0638 12.3599C12.1691 12.1258 12.4122 12.0637 12.7052 12.198C12.7559 12.221 12.8098 12.2402 12.8536 12.2724C13.4781 12.7282 14.0688 12.6829 14.7248 12.2762C15.327 11.9033 15.9992 11.6432 16.6437 11.3385C16.9221 11.2066 17.1559 11.268 17.2666 11.4866C17.382 11.7153 17.2797 11.9424 16.9959 12.0882C16.9467 12.1136 16.8975 12.1389 16.8475 12.1627C16.0553 12.544 15.267 12.9323 14.4695 13.3021C14.2672 13.3958 14.1887 13.5055 14.1895 13.7357C14.1972 18.2583 14.1949 22.781 14.1957 27.3036C14.1957 27.4003 14.2041 27.4962 14.2103 27.6221C14.321 27.573 14.3964 27.5415 14.4695 27.5062C18.3372 25.6439 22.2042 23.78 26.075 21.9246C26.2603 21.8356 26.2957 21.7259 26.295 21.5425C26.2903 17.0014 26.2919 12.4604 26.2919 7.91932V7.6216C26.1804 7.67224 26.1057 7.70447 26.0327 7.73977C24.9152 8.2769 23.8008 8.8194 22.6795 9.34809C22.5018 9.43173 22.4418 9.52918 22.4434 9.72332C22.4518 11.2495 22.4418 12.7758 22.4526 14.3012C22.4549 14.6227 22.3357 14.813 22.0457 14.9481C21.1067 15.3862 20.1761 15.842 19.2424 16.2901C18.7517 16.5257 18.4941 16.3684 18.4933 15.8297C18.4918 14.3035 18.4887 12.7773 18.4979 11.2518C18.4995 11.0546 18.4326 10.9587 18.2595 10.8751C14.2233 8.9368 10.1903 6.99085 6.15178 5.05642C6.04181 5.00347 5.86261 5.00807 5.75032 5.06102C4.74436 5.53063 3.74685 6.01788 2.74626 6.499C2.45017 6.64172 2.15406 6.78368 1.82028 6.94482C1.94103 7.0062 2.02179 7.04917 2.10332 7.08831C4.7036 8.34136 7.30388 9.59441 9.90339 10.8475C10.2118 10.9963 10.5233 11.139 10.8263 11.2979C11.0539 11.4176 11.1278 11.6539 11.024 11.8603C10.9263 12.0545 10.7048 12.1304 10.4741 12.0437C10.3879 12.0115 10.3064 11.9655 10.2233 11.9248C7.33925 10.5359 4.45517 9.14629 1.5711 7.75742C1.47804 7.71215 1.3819 7.67301 1.26269 7.62007V7.94465C1.26269 12.4673 1.26501 16.9899 1.25655 21.5126C1.25655 21.7412 1.33116 21.8487 1.53035 21.9446C4.82589 23.5245 8.11681 25.1121 11.4093 26.6982C12.0407 27.0021 12.6729 27.3052 13.3581 27.6336L13.3597 27.6359ZM10.3402 2.8419C10.4517 2.90329 10.521 2.94549 10.5933 2.98079C14.4341 4.83082 18.2741 6.68162 22.1188 8.52475C22.2149 8.57079 22.3718 8.56772 22.4695 8.52245C23.507 8.03442 24.5391 7.53336 25.5712 7.03536C25.6166 7.01388 25.6551 6.97858 25.7128 6.93791C25.6335 6.89878 25.5766 6.86962 25.5189 6.84199C24.0192 6.11917 22.5203 5.39558 21.0206 4.67352C18.6794 3.54554 16.3383 2.41757 13.9942 1.29573C13.8926 1.24739 13.7358 1.21669 13.6427 1.26043C12.5544 1.77071 11.4739 2.2971 10.341 2.84267L10.3402 2.8419ZM6.95242 4.49703C7.03855 4.54461 7.09238 4.5776 7.14929 4.60523C10.9993 6.46063 14.8494 8.3168 18.7033 10.1638C18.8063 10.2129 18.9756 10.2052 19.0825 10.1561C19.7631 9.84302 20.4353 9.51153 21.1098 9.18542C21.1644 9.15933 21.2151 9.12634 21.2982 9.07876C21.1967 9.02428 21.1275 8.98284 21.0559 8.94831C19.3978 8.14876 17.7396 7.3492 16.0815 6.55041C13.9234 5.50991 11.7654 4.46864 9.605 3.43351C9.50578 3.38594 9.35811 3.34297 9.27198 3.3821C8.50289 3.73891 7.74227 4.11413 6.95242 4.4978V4.49703ZM21.5974 9.88983C21.4897 9.93664 21.4066 9.96886 21.3259 10.0072C20.7421 10.2873 20.1622 10.5758 19.5739 10.8444C19.3893 10.9288 19.3186 11.0278 19.3209 11.2373C19.3316 12.4941 19.3263 13.7518 19.327 15.0087C19.327 15.0977 19.3347 15.1867 19.3393 15.2934C19.397 15.278 19.4332 15.2734 19.4639 15.2588C20.1307 14.9389 20.7944 14.6127 21.4666 14.302C21.6274 14.2275 21.6135 14.1132 21.6135 13.9851C21.6135 12.7098 21.6135 11.4337 21.6135 10.1584C21.6135 10.0794 21.6051 9.99956 21.5989 9.88983H21.5974Z" fill="#FCFCFC"/>
<path id="Vector_2" d="M2.57138 17.2402C2.72904 17.2955 2.82826 17.32 2.91824 17.363C4.05956 17.9101 5.20089 18.4595 6.34068 19.0105C6.64985 19.1601 6.75754 19.3872 6.64371 19.6236C6.53065 19.8591 6.2907 19.9082 5.97076 19.7548C4.83789 19.2107 3.70579 18.6652 2.57369 18.1188C2.49909 18.0828 2.39142 18.0536 2.3645 17.993C2.30297 17.8526 2.223 17.6776 2.26068 17.5487C2.2976 17.4221 2.46986 17.3346 2.57138 17.2402Z" fill="#FCFCFC"/>
<path id="Vector_3" d="M2.56427 19.2039C2.72424 19.2645 2.81269 19.2914 2.89498 19.3305C3.46949 19.6044 4.04399 19.8791 4.61542 20.1585C4.91536 20.305 5.01072 20.5168 4.89767 20.7524C4.78692 20.981 4.54775 21.0432 4.2578 20.9051C3.6656 20.6242 3.07571 20.3403 2.48659 20.0533C2.28278 19.9543 2.14665 19.7825 2.23587 19.5645C2.29586 19.418 2.45967 19.3129 2.56427 19.2031V19.2039Z" fill="#FCFCFC"/>
</g>
</svg>
