<svg width="28" height="28" viewBox="0 0 28 28" fill="none" xmlns="http://www.w3.org/2000/svg">
<circle cx="14" cy="14" r="14" fill="url(#paint0_linear_101_4348)"/>
<g clip-path="url(#clip0_101_4348)">
<path d="M19.2611 12.9471H15.2615V8.83949C15.2615 8.25129 14.7809 7.7749 14.1874 7.7749C13.594 7.7749 13.1134 8.25129 13.1134 8.83949V12.9471H8.84651C8.25798 12.9471 7.77734 13.4235 7.77734 14.0117C7.77734 14.5999 8.25798 15.0763 8.85141 15.0763H13.1183V19.1596C13.1183 19.7478 13.5989 20.2242 14.1923 20.2242C14.7858 20.2242 15.2664 19.7478 15.2664 19.1596V15.0763H19.266C19.8594 15.0763 20.34 14.5999 20.34 14.0117C20.3327 13.4235 19.8545 12.9471 19.2611 12.9471Z" fill="#FCFCFC"/>
<path d="M19.2611 12.9471H15.2615V8.83949C15.2615 8.25129 14.7809 7.7749 14.1874 7.7749C13.594 7.7749 13.1134 8.25129 13.1134 8.83949V12.9471H8.84651C8.25798 12.9471 7.77734 13.4235 7.77734 14.0117C7.77734 14.5999 8.25798 15.0763 8.85141 15.0763H13.1183V19.1596C13.1183 19.7478 13.5989 20.2242 14.1923 20.2242C14.7858 20.2242 15.2664 19.7478 15.2664 19.1596V15.0763H19.266C19.8594 15.0763 20.34 14.5999 20.34 14.0117C20.3327 13.4235 19.8545 12.9471 19.2611 12.9471Z" fill="#FCFCFC"/>
</g>
<defs>
<linearGradient id="paint0_linear_101_4348" x1="14" y1="0" x2="14" y2="28" gradientUnits="userSpaceOnUse">
<stop stop-color="#2F4C8F"/>
<stop offset="1" stop-color="#2581BF"/>
</linearGradient>
<clipPath id="clip0_101_4348">
<rect width="12.5553" height="12.4444" fill="white" transform="translate(7.77734 7.77783)"/>
</clipPath>
</defs>
</svg>
