<svg width="17" height="16" viewBox="0 0 17 16" fill="none" xmlns="http://www.w3.org/2000/svg">
<g clip-path="url(#clip0_33_872)">
<path d="M15.4147 6.64609H10.2724V1.36484C10.2724 0.608594 9.65443 -0.00390625 8.89144 -0.00390625C8.12845 -0.00390625 7.51049 0.608594 7.51049 1.36484V6.64609H2.02454C1.26786 6.64609 0.649902 7.25859 0.649902 8.01484C0.649902 8.77109 1.26786 9.38359 2.03085 9.38359H7.5168V14.6336C7.5168 15.3898 8.13476 16.0023 8.89774 16.0023C9.66073 16.0023 10.2787 15.3898 10.2787 14.6336V9.38359H15.421C16.184 9.38359 16.8019 8.77109 16.8019 8.01484C16.7925 7.25859 16.1777 6.64609 15.4147 6.64609Z" fill="#FCFCFC"/>
<path d="M15.4147 6.64609H10.2724V1.36484C10.2724 0.608594 9.65443 -0.00390625 8.89144 -0.00390625C8.12845 -0.00390625 7.51049 0.608594 7.51049 1.36484V6.64609H2.02454C1.26786 6.64609 0.649902 7.25859 0.649902 8.01484C0.649902 8.77109 1.26786 9.38359 2.03085 9.38359H7.5168V14.6336C7.5168 15.3898 8.13476 16.0023 8.89774 16.0023C9.66073 16.0023 10.2787 15.3898 10.2787 14.6336V9.38359H15.421C16.184 9.38359 16.8019 8.77109 16.8019 8.01484C16.7925 7.25859 16.1777 6.64609 15.4147 6.64609Z" fill="#FCFCFC"/>
</g>
<defs>
<clipPath id="clip0_33_872">
<rect width="16.1426" height="16" fill="white" transform="translate(0.649902)"/>
</clipPath>
</defs>
</svg>
