<svg width="33" height="38" viewBox="0 0 33 38" fill="none" xmlns="http://www.w3.org/2000/svg">
<g id="Group 291">
<path id="Vector" d="M9.77121 14.676C9.06369 11.3441 9.91331 8.58285 12.7444 6.68591C15.2893 4.98115 18.02 4.97418 20.5728 6.66699C23.4258 8.55995 24.2873 11.3292 23.5738 14.677C23.7408 14.7467 23.9306 14.8303 24.1224 14.905C25.8981 15.598 27.6779 16.2801 29.4457 16.9931C29.6872 17.0907 29.9326 17.3008 30.0648 17.5249C30.976 19.0603 31.8584 20.6137 32.7488 22.1612C33.0916 22.7576 32.9873 23.0524 32.3433 23.3043C31.6865 23.5612 31.0336 23.8291 30.3678 24.0631C30.1105 24.1537 30.0419 24.2851 30.0429 24.546C30.0528 27.0673 30.0489 29.5896 30.0489 32.1109C30.0489 32.7223 29.9743 32.8368 29.4169 33.0539C25.3238 34.6501 21.2287 36.2443 17.1366 37.8445C16.8325 37.964 16.5533 37.978 16.2413 37.8555C12.1382 36.2483 8.03222 34.6491 3.9272 33.0479C3.37867 32.8338 3.29818 32.7223 3.29718 32.1438C3.29718 29.6225 3.29122 27.1002 3.30414 24.5789C3.30613 24.2831 3.22564 24.1427 2.94144 24.0432C2.2528 23.8022 1.57707 23.5234 0.898368 23.2545C0.393563 23.0544 0.27233 22.7258 0.542619 22.2538C1.46677 20.6396 2.39191 19.0255 3.33793 17.4233C3.44624 17.2401 3.66486 17.0817 3.86757 17.0011C5.76457 16.2453 7.66951 15.5084 9.57147 14.7656C9.63905 14.7387 9.70364 14.7048 9.77121 14.673V14.676ZM17.2817 36.4843C17.4059 36.4435 17.5112 36.4146 17.6126 36.3758C21.2575 34.9568 24.9005 33.5348 28.5484 32.1248C28.8087 32.0243 28.8664 31.8849 28.8654 31.6309C28.8564 29.4323 28.8604 27.2336 28.8594 25.035C28.8594 24.9284 28.8485 24.8219 28.8415 24.6805C28.6507 24.7502 28.4887 24.8059 28.3297 24.8677C25.5384 25.9541 22.7481 27.0414 19.9567 28.1258C19.4519 28.322 19.2482 28.2503 18.9769 27.7823C18.4791 26.9239 17.9862 26.0636 17.4884 25.2042C17.4387 25.1176 17.3741 25.0389 17.2817 24.9065V36.4833V36.4843ZM4.48765 24.6685C4.48765 24.8378 4.48765 24.9603 4.48765 25.0818C4.48765 27.2555 4.49461 29.4293 4.4797 31.604C4.47771 31.9028 4.56913 32.0302 4.84638 32.1378C8.27568 33.4622 11.699 34.8025 15.1243 36.1368C15.4294 36.2553 15.7365 36.3668 16.0455 36.4823V24.8846C15.485 25.8545 14.9703 26.7447 14.4566 27.6359C14.075 28.2981 13.9428 28.3449 13.2363 28.0691C10.5612 27.0255 7.88515 25.9819 5.21008 24.9394C4.98252 24.8507 4.75396 24.7681 4.48864 24.6695L4.48765 24.6685ZM16.6884 6.66599C13.4052 6.65305 10.7232 9.3247 10.7142 12.6187C10.7053 15.9167 13.3625 18.6112 16.6387 18.6252C19.924 18.6401 22.6179 15.9715 22.6318 12.6874C22.6467 9.36652 19.9935 6.67894 16.6884 6.66599ZM19.8375 26.897C23.7348 25.3775 27.6014 23.8699 31.4888 22.3553C30.7147 21.012 29.9604 19.7046 29.1883 18.3643C25.3029 19.8779 21.4364 21.3845 17.5371 22.904C18.3052 24.2373 19.0574 25.5438 19.8375 26.897ZM1.86028 22.3543C5.75761 23.8719 9.62712 25.3795 13.5125 26.8931C14.2856 25.5508 15.0399 24.2413 15.808 22.909C15.647 22.8433 15.5119 22.7855 15.3747 22.7317C13.761 22.1024 12.1462 21.4731 10.5324 20.8438C8.51417 20.0571 6.49793 19.2685 4.47573 18.4927C4.36046 18.4489 4.12097 18.4619 4.07924 18.5316C3.33296 19.7872 2.60954 21.0559 1.86127 22.3533L1.86028 22.3543ZM23.1346 15.7574C23.0651 15.8779 23.0164 15.9615 22.9677 16.0461C21.6361 18.3623 19.6437 19.6917 16.9776 19.7892C14.0799 19.8958 11.8789 18.5983 10.4131 16.086C10.2661 15.834 10.1607 15.7544 9.87853 15.8799C9.3141 16.1308 8.73079 16.3419 8.15643 16.5709C7.3078 16.9095 6.46017 17.248 5.55688 17.6095C5.70296 17.6732 5.78742 17.7141 5.87487 17.7479C9.39062 19.1171 12.9064 20.4893 16.4271 21.8465C16.5891 21.9092 16.8186 21.8943 16.9846 21.8306C19.0872 21.024 21.183 20.2025 23.2817 19.385C24.7673 18.8054 26.2539 18.2269 27.82 17.6165C26.2141 16.9792 24.6798 16.3698 23.1356 15.7564L23.1346 15.7574Z" fill="#FCFCFC"/>
<path id="Vector_2" d="M11.8747 5.40172C11.7884 5.32138 11.5847 5.21104 11.4862 5.02785C11.0403 4.19764 10.6189 3.35028 10.2012 2.50078C10.0285 2.15049 10.1261 1.77662 10.403 1.60201C10.6715 1.43275 10.9831 1.51845 11.1586 1.85482C11.6072 2.71503 12.0512 3.57846 12.4726 4.45581C12.6838 4.89502 12.4051 5.40172 11.8738 5.40279L11.8747 5.40172Z" fill="#FCFCFC"/>
<path id="Vector_3" d="M17.3978 2.01825C17.3978 2.44291 17.4027 2.86756 17.3962 3.29222C17.3905 3.68863 17.1958 3.94576 16.9139 3.94576C16.6319 3.94576 16.4348 3.6896 16.4323 3.29222C16.4275 2.43122 16.4275 1.56924 16.4323 0.708245C16.4348 0.30599 16.6262 0.0605469 16.9147 0.0605469C17.2039 0.0605469 17.3913 0.30599 17.397 0.708245C17.4027 1.14459 17.3986 1.58191 17.3986 2.01825H17.3978Z" fill="#FCFCFC"/>
<path id="Vector_4" d="M6.23861 5.88977C6.44378 5.99101 6.56744 6.03502 6.67706 6.10764C7.37689 6.5764 8.07485 7.04735 8.76906 7.52491C9.13162 7.77359 9.23467 8.1312 9.06229 8.48222C8.89272 8.82773 8.57138 8.90366 8.21069 8.66158C7.49025 8.18072 6.77449 7.69106 6.05873 7.2025C5.79079 7.01984 5.66712 6.72164 5.79454 6.40254C5.88073 6.18797 6.09714 6.04602 6.23954 5.88867L6.23861 5.88977Z" fill="#FCFCFC"/>
<path id="Vector_5" d="M21.4455 5.40347C20.9355 5.3866 20.665 4.96116 20.8671 4.5882C21.2949 3.79917 21.7507 3.02514 22.2121 2.25579C22.3721 1.98966 22.696 1.93718 22.9505 2.08524C23.2004 2.23143 23.3109 2.54067 23.1583 2.81523C22.7231 3.60051 22.2757 4.37923 21.8087 5.14577C21.7245 5.28446 21.5223 5.35099 21.4446 5.40347H21.4455Z" fill="#FCFCFC"/>
<path id="Vector_6" d="M27.5988 7.04848C27.5358 7.12679 27.44 7.32965 27.2812 7.42684C26.5633 7.86841 25.8304 8.2864 25.0975 8.70155C24.763 8.8912 24.4369 8.80723 24.2763 8.51945C24.1137 8.22601 24.2096 7.92219 24.5525 7.71933C25.2685 7.29663 25.9864 6.8777 26.7108 6.47009C27.144 6.22572 27.595 6.46443 27.5978 7.04753L27.5988 7.04848Z" fill="#FCFCFC"/>
<path id="Vector_7" d="M27.0945 13.6539C26.6696 13.6539 26.2448 13.6636 25.8199 13.6515C25.4126 13.6394 25.1729 13.3594 25.1709 12.9254C25.169 12.4866 25.4067 12.2115 25.816 12.2066C26.6774 12.1994 27.5389 12.1994 28.4013 12.2066C28.8047 12.2103 29.0551 12.4951 29.0561 12.9206C29.0561 13.3424 28.8037 13.6394 28.4052 13.6515C27.9686 13.6648 27.5311 13.6539 27.0945 13.6539Z" fill="#FCFCFC"/>
<path id="Vector_8" d="M5.73963 13.1697C5.3143 13.1697 4.88995 13.1769 4.46462 13.1681C4.03051 13.1592 3.78955 12.9694 3.80223 12.6672C3.81394 12.3797 4.04807 12.2092 4.47242 12.206C5.32211 12.1996 6.17277 12.1996 7.02245 12.206C7.44095 12.2092 7.67898 12.3861 7.68679 12.6729C7.69459 12.9726 7.45071 13.1592 7.01465 13.1681C6.59029 13.1761 6.16496 13.1697 5.73963 13.1697Z" fill="#FCFCFC"/>
<path id="Vector_9" d="M15.2334 12.6875C16.3801 11.5353 17.4871 10.428 18.5871 9.31574C19.0386 8.85945 19.5727 8.6947 20.1833 8.87343C21.2933 9.19592 21.6523 10.5588 20.8537 11.4274C20.4081 11.9117 19.9287 12.365 19.4643 12.8323C18.412 13.8886 17.3618 14.947 16.3065 16.0013C15.4979 16.8091 14.5133 16.7571 13.8042 15.8705C13.1906 15.1037 12.5809 14.3339 11.9752 13.5621C11.3805 12.8043 11.4521 11.8518 12.1373 11.2996C12.8454 10.7295 13.7843 10.8683 14.398 11.6351C14.6685 11.9726 14.936 12.3131 15.2334 12.6885V12.6875ZM13.1219 12.0954C12.9926 12.1913 12.8275 12.2532 12.8186 12.334C12.8007 12.4878 12.8226 12.6875 12.9121 12.8053C13.4909 13.5681 14.0916 14.313 14.6854 15.0638C15.0017 15.4642 15.1479 15.4721 15.5149 15.1047C16.954 13.661 18.3921 12.2172 19.8303 10.7725C19.8999 10.7026 20.0093 10.6337 20.0222 10.5518C20.0441 10.409 20.056 10.2044 19.9755 10.1235C19.8939 10.0426 19.688 10.0496 19.5488 10.0775C19.4553 10.0965 19.3807 10.2163 19.3021 10.2962C18.1176 11.4844 16.9341 12.6745 15.7486 13.8617C15.299 14.311 14.9828 14.29 14.5829 13.7898C14.211 13.3235 13.846 12.8512 13.468 12.3889C13.3795 12.2811 13.2522 12.2042 13.1229 12.0964L13.1219 12.0954Z" fill="#FCFCFC"/>
</g>
</svg>
