<svg width="29" height="30" viewBox="0 0 29 30" fill="none" xmlns="http://www.w3.org/2000/svg">
<g id="Group">
<path id="Vector" d="M16.3947 0.985838C16.5278 1.09413 16.6718 1.19145 16.7924 1.31219C18.3249 2.84881 19.8515 4.39128 21.3884 5.92352C21.5997 6.13425 21.6838 6.36109 21.6823 6.65305C21.675 8.10332 21.6794 9.5536 21.6794 11.0039C21.6794 11.1019 21.6794 11.2 21.6794 11.3624C21.7942 11.2571 21.8658 11.1963 21.9324 11.1297C22.8704 10.1983 23.807 9.2653 24.7451 8.33309C25.148 7.93283 25.357 7.9321 25.7562 8.33162C26.51 9.08603 27.2632 9.8419 28.017 10.597C28.4476 11.0288 28.4454 11.2014 28.006 11.6412C25.9632 13.6864 23.9218 15.7323 21.8746 17.7731C21.7342 17.9136 21.675 18.0519 21.6758 18.2509C21.6816 21.5714 21.6801 24.8913 21.6786 28.2118C21.6786 28.3479 21.6728 28.4862 21.6494 28.6194C21.6085 28.855 21.4535 28.9824 21.2195 29.0087C21.1296 29.0189 21.0375 29.0131 20.9461 29.0131C14.3468 29.0131 7.74819 29.0131 1.14889 29.0131C0.571287 29.0131 0.426493 28.8682 0.426493 28.2836C0.426493 19.426 0.426507 10.5692 0.422852 1.71171C0.422852 1.40951 0.482804 1.1556 0.750403 0.984375C5.96492 0.985838 11.1795 0.985838 16.3947 0.985838ZM1.42232 1.9744V28.0187H20.6829V19.0272C20.2259 19.4714 19.7901 19.9119 19.3339 20.3297C19.1716 20.4782 18.9727 20.6122 18.7665 20.6839C17.7093 21.0497 16.644 21.3929 15.5817 21.7456C15.4932 21.7749 15.4084 21.8144 15.3214 21.8488C15.5882 21.8912 15.8427 21.8905 16.0964 21.8912C16.5702 21.8912 17.0447 21.8854 17.5184 21.8971C17.7948 21.9037 17.9718 22.0815 17.99 22.3324C18.0105 22.6046 17.8592 22.7942 17.5726 22.8454C17.4834 22.8615 17.3912 22.8644 17.3013 22.8644C13.1265 22.8651 8.95092 22.8651 4.77608 22.8644C4.65837 22.8644 4.537 22.8593 4.4244 22.8293C4.18093 22.7642 4.06466 22.5907 4.07928 22.3405C4.09318 22.1005 4.23063 21.9527 4.46167 21.9066C4.57646 21.8839 4.69784 21.8919 4.81628 21.8919C7.97994 21.8919 11.1429 21.8919 14.3066 21.8919H14.6209C14.1837 21.3439 14.7233 20.9129 14.6977 20.4234H14.5295C11.284 20.4234 8.03916 20.4234 4.79361 20.4234C4.69345 20.4234 4.59111 20.4307 4.49387 20.4131C4.25333 20.3692 4.10122 20.2295 4.08075 19.9748C4.06101 19.7253 4.19773 19.5351 4.44925 19.4773C4.56331 19.4509 4.68395 19.4473 4.80093 19.4473C8.13714 19.4458 11.4741 19.4443 14.8103 19.4502C15.0026 19.4502 15.0962 19.4048 15.1554 19.208C15.317 18.6672 15.4947 18.1301 15.6913 17.6018C15.7652 17.4043 15.88 17.2031 16.0269 17.0545C17.5214 15.5435 19.0283 14.0457 20.5227 12.5346C20.6236 12.4329 20.7004 12.2566 20.7018 12.1146C20.7143 10.4726 20.7099 8.82993 20.7092 7.18794C20.7092 7.0994 20.7011 7.01086 20.696 6.90037C20.5775 6.90037 20.4789 6.90037 20.3801 6.90037C19.0765 6.90037 17.7729 6.90037 16.4692 6.90037C15.9728 6.90037 15.8405 6.76719 15.8397 6.26743C15.839 4.93569 15.8397 3.60322 15.8397 2.27148C15.8397 2.17562 15.8397 2.0805 15.8397 1.97806H1.42525L1.42232 1.9744ZM23.0986 11.4144C21.0506 13.4778 19.0107 15.5325 17.0074 17.5506C17.6099 18.1587 18.2357 18.7902 18.8221 19.3821C20.8598 17.356 22.9136 15.3137 24.9622 13.2773C24.3437 12.659 23.7186 12.0349 23.0986 11.4144ZM25.2598 9.28579C24.7919 9.75702 24.3122 10.24 23.8553 10.7002C24.4577 11.3039 25.0814 11.9281 25.6883 12.5361C26.1555 12.0707 26.6373 11.5907 27.0994 11.1305C26.4918 10.5209 25.8696 9.89751 25.2598 9.28579ZM16.8246 5.89205H19.9173C18.893 4.8691 17.8541 3.83078 16.8246 2.80271V5.89205ZM17.8489 19.9807C17.3649 19.4941 16.8882 19.0148 16.4086 18.5326C16.1783 19.2219 15.9392 19.9382 15.684 20.7036C16.4524 20.4468 17.1719 20.2068 17.8497 19.9807H17.8489Z" fill="#FCFCFC"/>
<path id="Vector_2" d="M11.0202 25.2948C8.94232 25.2948 6.86514 25.2948 4.78723 25.2948C4.67829 25.2948 4.56568 25.3022 4.4604 25.2795C4.23228 25.2297 4.09119 25.0863 4.0773 24.8448C4.0634 24.5946 4.17819 24.4226 4.42166 24.356C4.52548 24.3275 4.63734 24.3195 4.74482 24.3195C8.93647 24.318 13.1281 24.318 17.3198 24.3195C17.428 24.3195 17.5398 24.3275 17.6429 24.356C17.8864 24.4226 18.0019 24.5939 17.988 24.8441C17.9749 25.0856 17.833 25.2283 17.6056 25.2795C17.5099 25.3014 17.406 25.2948 17.3066 25.2948C15.2111 25.2948 13.115 25.2948 11.0195 25.2948H11.0202Z" fill="#FCFCFC"/>
<path id="Vector_3" d="M8.00828 17.0151C9.07355 17.0151 10.1389 17.0151 11.2041 17.0151C11.3131 17.0151 11.4257 17.0078 11.5302 17.0327C11.7715 17.0898 11.9082 17.2537 11.906 17.5017C11.9038 17.7344 11.7817 17.9013 11.5478 17.9554C11.4344 17.9817 11.3131 17.9847 11.1954 17.9854C9.0553 17.9869 6.91595 17.9869 4.77589 17.9861C4.70278 17.9861 4.62967 17.9876 4.55801 17.9795C4.23777 17.9444 4.06012 17.7542 4.0762 17.4659C4.09082 17.1966 4.28018 17.0188 4.59311 17.0173C5.7315 17.0115 6.86917 17.0151 8.00756 17.0151V17.0137L8.00828 17.0151Z" fill="#FCFCFC"/>
</g>
</svg>
