<svg width="29" height="28" viewBox="0 0 29 28" fill="none" xmlns="http://www.w3.org/2000/svg">
<g id="Group">
<path id="Vector" d="M23.111 11.5561C23.6316 11.0881 24.1654 10.7366 24.8283 10.5962C25.9981 10.3484 27.201 10.8371 27.8578 11.8393C28.5092 12.833 28.4876 14.1512 27.7947 15.1073C27.6609 15.2923 27.5024 15.4626 27.3402 15.6245C25.9912 16.9735 24.6361 18.3163 23.294 19.6722C23.1886 19.7788 23.1125 19.9661 23.111 20.1165C23.0979 21.7156 23.111 23.3155 23.1002 24.9146C23.091 26.4416 22.1596 27.5995 20.7283 27.878C20.5137 27.9195 20.2892 27.9256 20.07 27.9256C14.5326 27.9279 8.99512 27.9287 3.45847 27.9271C1.93183 27.9271 0.762047 27.0048 0.478254 25.5768C0.432108 25.3443 0.425191 25.101 0.425191 24.8624C0.422884 17.6226 0.422113 10.3821 0.423651 3.14235C0.423651 1.58544 1.33041 0.422936 2.77091 0.132885C3.00394 0.0860775 3.24774 0.0799388 3.48615 0.0799388C7.80458 0.0768695 12.123 0.0799389 16.4414 0.0722656C16.7944 0.0722656 17.0552 0.179692 17.3051 0.429841C19.124 2.25762 20.9521 4.0762 22.7849 5.89093C23.0133 6.11729 23.1148 6.36361 23.1133 6.68128C23.1063 8.20367 23.1102 9.72682 23.1102 11.2492C23.1102 11.3513 23.1102 11.4533 23.1102 11.5546L23.111 11.5561ZM21.9373 21.0158C20.7929 22.1583 19.7216 23.2418 18.6303 24.3046C18.4411 24.4887 18.1842 24.6445 17.9312 24.7174C16.5506 25.1133 15.1609 25.4801 13.7742 25.8546C13.1659 26.0188 12.8075 25.6643 12.9721 25.0604C13.3512 23.6669 13.725 22.2727 14.1219 20.8846C14.1865 20.6574 14.3234 20.4249 14.4895 20.2577C16.9037 17.8321 19.3301 15.4181 21.7451 12.9933C21.8512 12.8875 21.9281 12.7002 21.9289 12.5506C21.9412 10.8172 21.9373 9.08379 21.9366 7.35039C21.9366 7.25755 21.9281 7.1647 21.9219 7.0427C21.802 7.0427 21.6989 7.0427 21.5966 7.0427C20.7614 7.0427 19.9269 7.0473 19.0917 7.04193C17.4066 7.03119 16.1446 5.78734 16.1192 4.10535C16.1069 3.25285 16.1169 2.40111 16.1169 1.54861C16.1169 1.44886 16.1169 1.34834 16.1169 1.23631C15.9907 1.23631 15.9146 1.23631 15.8377 1.23631C11.7115 1.23631 7.58462 1.23477 3.45847 1.23707C2.29099 1.23707 1.58651 1.94992 1.58651 3.12471C1.58574 10.3744 1.58574 17.6234 1.58651 24.8731C1.58651 26.0633 2.28945 26.77 3.47846 26.77C8.99666 26.7715 14.5141 26.7585 20.0323 26.7815C21.1075 26.7861 21.9865 26.0042 21.9458 24.8555C21.9058 23.7367 21.9373 22.6149 21.9373 21.4946C21.9373 21.3641 21.9373 21.2337 21.9373 21.0166V21.0158ZM17.995 23.2142C20.4538 20.761 22.9071 18.3125 25.3267 15.8985C24.5376 15.1142 23.7262 14.3093 22.941 13.5297C20.5168 15.9491 18.0642 18.3961 15.6162 20.8401C16.403 21.6258 17.2082 22.43 17.995 23.215V23.2142ZM23.8339 12.5767C24.6553 13.3947 25.4667 14.2034 26.2827 15.016C26.9033 14.5196 27.3271 13.9019 27.1187 13.0294C26.9487 12.3189 26.4865 11.8846 25.7681 11.7434C24.9191 11.5761 24.3138 11.9751 23.8339 12.5767ZM17.3005 2.15096C17.3005 2.86918 17.2713 3.58664 17.3082 4.30102C17.3505 5.10979 17.9727 5.77123 18.7879 5.84643C19.4632 5.90858 20.1469 5.87712 20.8275 5.88556C20.8991 5.88633 20.9706 5.87252 21.0236 5.86715C19.7847 4.63021 18.5487 3.39634 17.3013 2.15096H17.3005ZM15.0286 21.955C14.7987 22.8014 14.5764 23.6216 14.3372 24.5018C15.2255 24.2578 16.043 24.0329 16.8844 23.802C16.253 23.1735 15.6593 22.5819 15.0294 21.9542L15.0286 21.955Z" fill="#FCFCFC"/>
<path id="Vector_2" d="M5.05309 14.5808C4.50627 14.5808 3.95945 14.5831 3.41263 14.5808C2.97117 14.5785 2.75121 14.3668 2.74967 13.9348C2.74583 12.8244 2.7466 11.7133 2.74967 10.603C2.75121 10.1825 2.96194 9.95077 3.38032 9.94693C4.51242 9.93696 5.64452 9.93696 6.77661 9.94693C7.17962 9.95077 7.39803 10.181 7.40034 10.5831C7.40649 11.7034 7.40726 12.8237 7.40034 13.944C7.39803 14.3614 7.16808 14.5778 6.75201 14.5808C6.18596 14.5847 5.6199 14.5816 5.05386 14.5816L5.05309 14.5808ZM3.92561 13.4084H6.22518V11.1256H3.92561V13.4084Z" fill="#FCFCFC"/>
<path id="Vector_3" d="M2.74823 5.8726C2.74823 5.31705 2.74516 4.7615 2.749 4.20672C2.75208 3.79083 2.97204 3.55603 3.38427 3.55372C4.50714 3.54682 5.63001 3.54759 6.75211 3.55372C7.16664 3.55603 7.39736 3.78469 7.39967 4.19675C7.40582 5.31705 7.40659 6.43735 7.39967 7.55765C7.3966 7.96894 7.16203 8.19454 6.74749 8.19607C5.63462 8.20068 4.52099 8.20068 3.40812 8.19607C2.97435 8.19454 2.75285 7.96971 2.749 7.53847C2.74516 6.98292 2.74823 6.42738 2.74823 5.8726ZM6.22835 4.72774H3.93186V7.02283H6.22835V4.72774Z" fill="#FCFCFC"/>
<path id="Vector_4" d="M2.74873 18.6288C2.74873 18.0924 2.74719 17.5568 2.74873 17.0204C2.75104 16.5554 2.95177 16.3429 3.40707 16.3413C4.51994 16.3367 5.6328 16.3367 6.74567 16.3413C7.18252 16.3429 7.3994 16.5593 7.40094 16.9982C7.40555 18.0993 7.40632 19.2004 7.40094 20.3008C7.39863 20.7543 7.18175 20.966 6.72415 20.9676C5.62128 20.9714 4.51763 20.9714 3.41476 20.9676C2.95639 20.966 2.75181 20.7535 2.7495 20.2946C2.74642 19.7391 2.7495 19.1843 2.7495 18.6288H2.74873ZM3.92467 19.7913H6.22654V17.523H3.92467V19.7913Z" fill="#FCFCFC"/>
<path id="Vector_5" d="M11.7596 11.6903C10.9536 11.6903 10.1484 11.6926 9.3424 11.688C9.20934 11.688 9.07091 11.6788 8.94555 11.6412C8.70021 11.5667 8.54024 11.3143 8.5687 11.0611C8.59792 10.7979 8.73867 10.6145 9.00323 10.5539C9.12321 10.5262 9.25088 10.5247 9.3747 10.5247C10.9667 10.5232 12.5595 10.5232 14.1515 10.5239C14.1992 10.5239 14.2476 10.5232 14.2953 10.5247C14.7145 10.5424 14.9652 10.7695 14.9552 11.1225C14.946 11.4601 14.6929 11.6857 14.2922 11.6887C13.4478 11.6949 12.6041 11.6903 11.7596 11.6911V11.6903Z" fill="#FCFCFC"/>
<path id="Vector_6" d="M11.7608 16.9241C12.5952 16.9241 13.4297 16.9225 14.2649 16.9241C14.6987 16.9256 14.9479 17.1297 14.9563 17.4819C14.9655 17.8433 14.7002 18.0789 14.2672 18.0797C12.5883 18.082 10.9094 18.0797 9.23046 18.0812C8.95897 18.0812 8.74131 17.9907 8.6198 17.7351C8.51982 17.5241 8.52982 17.2955 8.69902 17.1504C8.83822 17.0315 9.04664 16.9386 9.22738 16.9333C10.0711 16.911 10.9155 16.9233 11.76 16.9233L11.7608 16.9241Z" fill="#FCFCFC"/>
<path id="Vector_7" d="M11.7634 5.29217C10.9574 5.29217 10.1522 5.29217 9.34619 5.29217C9.24082 5.29217 9.13392 5.29217 9.03086 5.27529C8.77322 5.23155 8.58787 5.02053 8.56633 4.76194C8.54557 4.50796 8.69862 4.25627 8.94473 4.18184C9.07009 4.14424 9.20852 4.1358 9.34157 4.13503C10.9528 4.13196 12.564 4.13273 14.176 4.1335C14.2714 4.1335 14.3691 4.13273 14.4629 4.14885C14.7759 4.20409 14.9751 4.45501 14.9551 4.75657C14.9351 5.04739 14.7213 5.25994 14.4114 5.28526C14.2683 5.29677 14.1237 5.2914 13.9799 5.29217C13.2416 5.29217 12.5025 5.29217 11.7642 5.29217H11.7634Z" fill="#FCFCFC"/>
<path id="Vector_8" d="M10.8954 6.46031C11.4515 6.46031 12.0067 6.45648 12.5628 6.46185C12.9566 6.46568 13.215 6.69818 13.2142 7.03504C13.2142 7.37037 12.9504 7.61361 12.5636 7.61514C11.4422 7.61975 10.3209 7.61975 9.20033 7.61514C8.8181 7.61361 8.55815 7.35962 8.56661 7.02123C8.5743 6.68974 8.81964 6.46722 9.20033 6.46261C9.76561 6.45648 10.3309 6.46108 10.8962 6.46108L10.8954 6.46031Z" fill="#FCFCFC"/>
<path id="Vector_9" d="M10.8952 12.847C11.4512 12.847 12.0073 12.8432 12.5626 12.8486C12.9525 12.8516 13.2132 13.088 13.214 13.4233C13.214 13.7586 12.9502 14.0003 12.5633 14.0019C11.442 14.0057 10.3207 14.0057 9.19936 14.0019C8.81558 14.0003 8.55717 13.7502 8.56563 13.4103C8.57332 13.0772 8.81789 12.8532 9.19859 12.8493C9.76387 12.8432 10.3292 12.8478 10.8952 12.8478V12.847Z" fill="#FCFCFC"/>
<path id="Vector_10" d="M10.866 20.3906C10.32 20.3906 9.77314 20.3945 9.22708 20.3899C8.81331 20.386 8.55644 20.152 8.56567 19.7998C8.5749 19.4652 8.83562 19.2358 9.22862 19.235C10.34 19.232 11.4521 19.2312 12.5634 19.235C12.951 19.2366 13.214 19.4798 13.214 19.8151C13.214 20.1504 12.9533 20.386 12.5626 20.3891C11.9973 20.3945 11.4321 20.3906 10.866 20.3906Z" fill="#FCFCFC"/>
</g>
</svg>
