<svg width="30" height="29" viewBox="0 0 30 29" fill="none" xmlns="http://www.w3.org/2000/svg">
<g id="Setting">
<g id="06 Setting">
<path id="Vector" d="M14.6958 17.4412C16.8076 17.4412 18.5195 15.7444 18.5195 13.6513C18.5195 11.5581 16.8076 9.86133 14.6958 9.86133C12.584 9.86133 10.8721 11.5581 10.8721 13.6513C10.8721 15.7444 12.584 17.4412 14.6958 17.4412Z" fill="#3CCF95"/>
<path id="Vector_2" d="M25.6675 10.9688H24.3819C24.1706 10.2191 23.8704 9.49697 23.4877 8.81731L24.392 7.92012C24.7302 7.57766 24.9197 7.11749 24.9197 6.63823C24.9197 6.15898 24.7302 5.69881 24.392 5.35634L23.1 4.07581C22.7518 3.74609 22.2888 3.5621 21.8072 3.5621C21.3256 3.5621 20.8626 3.74609 20.5143 4.07581L19.6201 4.96122C18.9317 4.57569 18.1993 4.27297 17.4385 4.0595V2.8125C17.4385 2.3318 17.2459 1.87078 16.9029 1.53087C16.56 1.19096 16.0949 1 15.6099 1H13.7812C13.2963 1 12.8311 1.19096 12.4882 1.53087C12.1453 1.87078 11.9526 2.3318 11.9526 2.8125V4.0595C11.1915 4.2729 10.4588 4.57562 9.7701 4.96122L8.8768 4.07581C8.70699 3.90743 8.50537 3.77386 8.28346 3.68272C8.06155 3.59159 7.8237 3.54468 7.58349 3.54468C7.34329 3.54468 7.10544 3.59159 6.88353 3.68272C6.66162 3.77386 6.45999 3.90743 6.29018 4.07581L4.99824 5.35725C4.66026 5.69967 4.47101 6.15966 4.47101 6.63869C4.47101 7.11772 4.66026 7.5777 4.99824 7.92012L5.90342 8.81731C5.52074 9.49697 5.22058 10.2191 5.00921 10.9688H3.72367C3.23868 10.9688 2.77356 11.1597 2.43062 11.4996C2.08768 11.8395 1.89502 12.3005 1.89502 12.7812V14.5938C1.89502 15.0745 2.08768 15.5355 2.43062 15.8754C2.77356 16.2153 3.23868 16.4062 3.72367 16.4062H5.02841C5.24277 17.148 5.54444 17.8622 5.92719 18.5341L4.99824 19.4549C4.65999 19.7973 4.47056 20.2575 4.47056 20.7368C4.47056 21.216 4.65999 21.6762 4.99824 22.0187L6.29109 23.3001C6.46091 23.4685 6.66253 23.6021 6.88444 23.6932C7.10635 23.7843 7.3442 23.8312 7.58441 23.8312C7.82461 23.8312 8.06246 23.7843 8.28437 23.6932C8.50628 23.6021 8.7079 23.4685 8.87772 23.3001L9.81856 22.3676C10.4931 22.7409 11.2093 23.035 11.9526 23.2439V24.5625C11.9526 25.0432 12.1453 25.5042 12.4882 25.8441C12.8311 26.184 13.2963 26.375 13.7812 26.375H15.6099C16.0949 26.375 16.56 26.184 16.9029 25.8441C17.2459 25.5042 17.4385 25.0432 17.4385 24.5625V23.2439C18.1822 23.0347 18.8986 22.7403 19.5735 22.3667L20.5143 23.2983C20.8626 23.6283 21.3258 23.8124 21.8076 23.8124C22.2894 23.8124 22.7527 23.6283 23.101 23.2983L24.3938 22.0168C24.7318 21.6744 24.921 21.2144 24.921 20.7354C24.921 20.2564 24.7318 19.7964 24.3938 19.454L23.4639 18.5341C23.8467 17.8622 24.1484 17.148 24.3627 16.4062H25.6675C26.1525 16.4062 26.6176 16.2153 26.9605 15.8754C27.3035 15.5355 27.4961 15.0745 27.4961 14.5938V12.7812C27.4961 12.3005 27.3035 11.8395 26.9605 11.4996C26.6176 11.1597 26.1525 10.9688 25.6675 10.9688ZM14.6956 19.2537C13.5779 19.2535 12.4854 18.9249 11.5561 18.3093C10.6269 17.6937 9.90269 16.8189 9.47506 15.7954C9.04742 14.7718 8.93558 13.6456 9.15368 12.5591C9.37177 11.4726 9.91 10.4746 10.7003 9.69128C11.4906 8.90794 12.4975 8.37447 13.5937 8.1583C14.6899 7.94214 15.8261 8.05299 16.8588 8.47684C17.8914 8.9007 18.774 9.61852 19.3951 10.5395C20.0162 11.4606 20.3477 12.5434 20.3479 13.6512C20.3465 15.1367 19.7505 16.5608 18.6908 17.6112C17.6311 18.6615 16.1942 19.2522 14.6956 19.2537Z" fill="#3CCF95"/>
</g>
</g>
</svg>
