<svg width="26" height="27" viewBox="0 0 26 27" fill="none" xmlns="http://www.w3.org/2000/svg">
<g id="Setting">
<g id="06 Setting">
<path id="Vector" d="M13.0156 16.83C14.8445 16.83 16.3271 15.3474 16.3271 13.5185C16.3271 11.6896 14.8445 10.207 13.0156 10.207C11.1867 10.207 9.7041 11.6896 9.7041 13.5185C9.7041 15.3474 11.1867 16.83 13.0156 16.83Z" fill="url(#paint0_linear_400_4047)"/>
<path id="Vector_2" d="M22.5177 11.1732H21.4043C21.2213 10.5182 20.9613 9.88721 20.6299 9.29335L21.413 8.50942C21.706 8.21019 21.87 7.80811 21.87 7.38936C21.87 6.97061 21.706 6.56852 21.413 6.26929L20.2942 5.15041C19.9926 4.86231 19.5916 4.70155 19.1745 4.70155C18.7574 4.70155 18.3564 4.86231 18.0548 5.15041L17.2804 5.92405C16.6842 5.58718 16.0499 5.32269 15.3911 5.13616V4.04658C15.3911 3.62656 15.2242 3.22374 14.9272 2.92674C14.6302 2.62974 14.2274 2.46289 13.8074 2.46289H12.2237C11.8037 2.46289 11.4008 2.62974 11.1038 2.92674C10.8068 3.22374 10.64 3.62656 10.64 4.04658V5.13616C9.98083 5.32263 9.34629 5.58713 8.74985 5.92405L7.97622 5.15041C7.82915 5.00329 7.65454 4.88658 7.46235 4.80695C7.27017 4.72732 7.06418 4.68634 6.85615 4.68634C6.64813 4.68634 6.44214 4.72732 6.24995 4.80695C6.05777 4.88658 5.88316 5.00329 5.73609 5.15041L4.61721 6.27008C4.32451 6.56928 4.16061 6.9712 4.16061 7.38975C4.16061 7.80831 4.32451 8.21023 4.61721 8.50942L5.40114 9.29335C5.06972 9.88721 4.80977 10.5182 4.62671 11.1732H3.51338C3.09336 11.1732 2.69054 11.34 2.39354 11.637C2.09654 11.934 1.92969 12.3369 1.92969 12.7569V14.3406C1.92969 14.7606 2.09654 15.1634 2.39354 15.4604C2.69054 15.7574 3.09336 15.9243 3.51338 15.9243H4.64334C4.82899 16.5724 5.09025 17.1964 5.42173 17.7835L4.61721 18.588C4.32427 18.8873 4.16022 19.2893 4.16022 19.7081C4.16022 20.1268 4.32427 20.5289 4.61721 20.8282L5.73688 21.9478C5.88395 22.095 6.05856 22.2117 6.25075 22.2913C6.44293 22.3709 6.64892 22.4119 6.85695 22.4119C7.06497 22.4119 7.27096 22.3709 7.46315 22.2913C7.65533 22.2117 7.82994 22.095 7.97701 21.9478L8.79182 21.133C9.37601 21.4593 9.99625 21.7162 10.64 21.8987V23.0509C10.64 23.4709 10.8068 23.8737 11.1038 24.1707C11.4008 24.4677 11.8037 24.6346 12.2237 24.6346H13.8074C14.2274 24.6346 14.6302 24.4677 14.9272 24.1707C15.2242 23.8737 15.3911 23.4709 15.3911 23.0509V21.8987C16.0351 21.7159 16.6556 21.4587 17.24 21.1322L18.0548 21.9462C18.3564 22.2346 18.7576 22.3955 19.1749 22.3955C19.5922 22.3955 19.9933 22.2346 20.295 21.9462L21.4146 20.8266C21.7073 20.5274 21.8712 20.1255 21.8712 19.7069C21.8712 19.2884 21.7073 18.8864 21.4146 18.5872L20.6093 17.7835C20.9408 17.1964 21.2021 16.5724 21.3877 15.9243H22.5177C22.9377 15.9243 23.3405 15.7574 23.6375 15.4604C23.9345 15.1634 24.1014 14.7606 24.1014 14.3406V12.7569C24.1014 12.3369 23.9345 11.934 23.6375 11.637C23.3405 11.34 22.9377 11.1732 22.5177 11.1732ZM13.0155 18.4122C12.0476 18.4121 11.1014 18.1249 10.2966 17.5871C9.49188 17.0492 8.86468 16.2848 8.49433 15.3905C8.12398 14.4962 8.02713 13.5121 8.216 12.5628C8.40488 11.6135 8.87101 10.7414 9.55546 10.057C10.2399 9.37254 11.1119 8.90641 12.0613 8.71753C13.0106 8.52866 13.9947 8.62551 14.889 8.99586C15.7833 9.36621 16.5477 9.99341 17.0855 10.7982C17.6234 11.6029 17.9106 12.5491 17.9107 13.5171C17.9095 14.815 17.3933 16.0593 16.4756 16.9771C15.5578 17.8948 14.3134 18.411 13.0155 18.4122Z" fill="url(#paint1_linear_400_4047)"/>
</g>
</g>
<defs>
<linearGradient id="paint0_linear_400_4047" x1="13.0156" y1="10.207" x2="13.0156" y2="16.83" gradientUnits="userSpaceOnUse">
<stop stop-color="#2F4C8F"/>
<stop offset="1" stop-color="#2581BF"/>
</linearGradient>
<linearGradient id="paint1_linear_400_4047" x1="13.0155" y1="2.46289" x2="13.0155" y2="24.6346" gradientUnits="userSpaceOnUse">
<stop stop-color="#2F4C8F"/>
<stop offset="1" stop-color="#2581BF"/>
</linearGradient>
</defs>
</svg>
