<svg width="32" height="23" viewBox="0 0 32 23" fill="none" xmlns="http://www.w3.org/2000/svg">
<g id="Group">
<path id="Vector" d="M0.423558 1.02268C0.613378 0.949944 0.802488 0.813645 0.992309 0.813645C7.80749 0.803052 14.6227 0.804464 21.4379 0.805171C21.9163 0.805171 22.0059 0.897685 22.0059 1.38426C22.0073 2.90615 22.0059 4.42733 22.0059 5.94922C22.0059 6.07139 22.0059 6.19286 22.0059 6.36165C22.1329 6.36165 22.2409 6.36165 22.3489 6.36165C23.2874 6.36165 24.2266 6.36942 25.1651 6.3567C25.4446 6.35317 25.616 6.45557 25.755 6.69639C26.6907 8.32351 27.6384 9.94285 28.5734 11.57C28.6701 11.738 28.7788 11.8178 28.9693 11.8426C30.4928 12.0396 31.8455 13.4344 31.7743 15.2055C31.7404 16.0417 31.7686 16.88 31.7686 17.7175C31.7686 18.2133 31.7503 18.2387 31.2704 18.3913C31.2704 18.6293 31.2761 18.8736 31.269 19.1173C31.2542 19.6448 30.9472 19.9979 30.4307 19.9591C29.8274 19.9132 29.4901 20.0685 29.1753 20.6596C28.5784 21.7804 27.5283 22.274 26.2561 22.1695C25.0092 22.0671 24.1313 21.3983 23.6289 20.2585C23.5294 20.0325 23.4207 19.9654 23.1822 19.9668C21.5804 19.9781 19.9786 19.9767 18.3767 19.9675C18.1728 19.9661 18.0747 20.024 17.9964 20.2189C17.5067 21.4294 16.372 22.1921 15.0898 22.1935C13.8133 22.1949 12.6701 21.428 12.1811 20.2204C12.1014 20.024 12.0054 19.9647 11.8015 19.9675C10.9956 19.9788 10.1891 19.9781 9.38322 19.9675C9.18846 19.9647 9.10731 20.0318 9.03322 20.2133C8.54279 21.4244 7.41304 22.185 6.12804 22.1907C4.85081 22.1963 3.70342 21.4336 3.21652 20.2246C3.12973 20.0085 3.01612 19.9619 2.81148 19.9675C2.42408 19.9788 2.03597 19.9788 1.64857 19.9661C1.15743 19.9506 0.86035 19.6476 0.832124 19.1561C0.830007 19.1257 0.827191 19.0947 0.830014 19.0643C0.868825 18.6737 0.866001 18.3009 0.422852 18.118C0.422852 12.4188 0.422852 6.7197 0.422852 1.02057L0.423558 1.02268ZM21.2466 1.56717H7.5464C7.5464 1.71618 7.5464 1.83836 7.5464 1.95983C7.5464 3.55304 7.55275 5.14626 7.53582 6.73877C7.5344 6.89131 7.4215 7.12506 7.30225 7.17167C7.1837 7.21828 6.9466 7.12012 6.83863 7.00924C6.3108 6.4697 5.80838 5.90473 5.29608 5.35035C5.24457 5.29456 5.18317 5.24724 5.11896 5.19004C4.56643 5.79738 4.03014 6.38566 3.49596 6.97535C3.35342 7.13283 3.20735 7.28184 2.97237 7.19003C2.73527 7.09682 2.74092 6.88425 2.74092 6.67379C2.74303 5.08058 2.74233 3.48736 2.74233 1.89486C2.74233 1.78681 2.74233 1.67876 2.74233 1.55729H1.17508V11.6137H21.2466V1.56717ZM21.2382 14.094H1.1779V17.5848C1.85956 17.5848 2.52217 17.5925 3.18336 17.5756C3.27298 17.5735 3.38658 17.464 3.44445 17.375C4.72379 15.3962 7.52735 15.3941 8.79188 17.3807C8.8949 17.5431 9.00358 17.5904 9.18352 17.589C10.1326 17.5812 11.081 17.5812 12.0301 17.589C12.2136 17.5904 12.3194 17.5353 12.4218 17.3764C13.7025 15.3892 16.4835 15.3934 17.7607 17.3856C17.8651 17.5488 17.9781 17.5904 18.1573 17.589C19.0859 17.5819 20.0146 17.5862 20.9425 17.5848C21.0392 17.5848 21.1366 17.5763 21.2375 17.5714V14.094H21.2382ZM22.044 12.5431V17.5841C22.5803 17.5841 23.0983 17.5911 23.6162 17.5756C23.6896 17.5735 23.7665 17.4668 23.8286 17.3969C24.0657 17.1328 24.2647 16.8228 24.5371 16.6031C26.0359 15.3962 28.143 15.7585 29.1986 17.3779C29.2565 17.4668 29.3715 17.5721 29.4632 17.5756C29.9791 17.5947 30.4956 17.5848 31.0143 17.5848V15.5883C30.823 15.5883 30.6501 15.5975 30.4794 15.5869C29.7039 15.5368 29.2 15.0163 29.1753 14.243C29.169 14.0495 29.1732 13.8553 29.1732 13.6611C29.1732 13.2491 29.3689 12.9902 29.7603 12.8842C29.3645 12.6462 28.9594 12.5431 28.524 12.5431C26.841 12.5431 25.1581 12.5431 23.4751 12.5431C23.0072 12.5431 22.5394 12.5431 22.044 12.5431ZM27.8198 11.7952C27.8064 11.7395 27.8057 11.7077 27.7916 11.6844C26.9342 10.2034 26.0782 8.72251 25.2103 7.24794C25.163 7.16814 25.0198 7.10741 24.9188 7.10388C24.4609 7.08834 24.0022 7.09681 23.5435 7.09681C23.0475 7.09681 22.5514 7.09681 22.0511 7.09681V11.7952H27.8191H27.8198ZM21.2368 12.3892H1.18001V13.2783H21.2368V12.3892ZM3.49385 5.88213C3.84174 5.50007 4.14869 5.16532 4.45283 4.82987C4.9068 4.32893 5.35841 4.32517 5.80768 4.81857C6.11957 5.16038 6.43501 5.49936 6.78501 5.87789V1.58271H3.49385V5.88213ZM15.0934 21.4576C16.4277 21.4534 17.5123 20.3581 17.4947 19.0325C17.477 17.714 16.3988 16.6469 15.0856 16.6476C13.771 16.6483 12.6955 17.7225 12.6892 19.0403C12.6828 20.3793 13.7597 21.4619 15.0934 21.4576ZM28.9058 19.0784C28.9206 17.7578 27.8791 16.6646 26.5905 16.6483C25.2293 16.6314 24.1257 17.6914 24.1151 19.0247C24.1045 20.3651 25.1665 21.4449 26.5059 21.4562C27.8318 21.4668 28.8903 20.4181 28.9051 19.0784H28.9058ZM8.51032 19.0699C8.52232 17.7507 7.47655 16.6618 6.18521 16.6483C4.84447 16.6342 3.74153 17.6766 3.72742 18.9725C3.7126 20.3687 4.75626 21.4541 6.11746 21.4569C7.44549 21.4598 8.49833 20.4103 8.50962 19.0706L8.51032 19.0699ZM18.2596 19.2154H23.3622C23.3791 18.923 23.3953 18.6533 23.4116 18.3771H18.1905C18.2145 18.6667 18.237 18.9379 18.2596 19.2154ZM11.9878 18.38H9.2181C9.24773 18.6723 9.27454 18.9428 9.30136 19.2112H11.9158C11.9412 18.9216 11.9638 18.6596 11.9878 18.38ZM3.01824 18.3786H1.5653C1.5653 18.6194 1.55684 18.8418 1.57095 19.0629C1.57518 19.1222 1.64786 19.226 1.69091 19.2274C2.11147 19.2401 2.53275 19.2352 2.95685 19.2352C2.97872 18.9273 2.99778 18.6653 3.01824 18.3793V18.3786ZM30.9733 14.8249C30.9762 13.9188 30.6565 13.577 29.9466 13.707C29.761 14.5982 30.0856 14.9584 30.9733 14.8249ZM29.6989 19.2006C30.5034 19.3482 30.5549 19.3065 30.5351 18.5304C30.5337 18.4824 30.5231 18.4343 30.5154 18.3778H29.6206C29.6481 18.6667 29.6735 18.935 29.6989 19.2013V19.2006Z" fill="#FCFCFC"/>
<path id="Vector_2" d="M16.0359 10.6451C14.9753 10.6451 13.9154 10.6465 12.8548 10.6451C12.4533 10.6451 12.3397 10.5356 12.3362 10.1429C12.3319 9.5815 12.3319 9.02006 12.3362 8.45932C12.339 8.08221 12.4583 7.95933 12.828 7.95862C14.9591 7.9565 17.0902 7.9565 19.2205 7.95862C19.6002 7.95862 19.7173 8.07656 19.7201 8.44803C19.7237 9.00946 19.7229 9.5709 19.7201 10.1316C19.718 10.5448 19.6136 10.6443 19.1859 10.6451C18.1359 10.6465 17.0859 10.6451 16.0352 10.6451H16.0359ZM13.0842 9.89223H18.97V8.71286H13.0842V9.89223Z" fill="#FCFCFC"/>
<path id="Vector_3" d="M14.5948 6.35497C15.1862 6.35497 15.7775 6.35285 16.3688 6.35567C16.6751 6.35708 16.8317 6.48491 16.8317 6.72008C16.8317 6.95595 16.6751 7.08731 16.3688 7.08802C15.1756 7.09084 13.9823 7.09084 12.7898 7.08802C12.4948 7.08731 12.3262 6.94042 12.3452 6.70525C12.3671 6.43689 12.5421 6.35144 12.7898 6.35355C13.3917 6.35708 13.9929 6.35497 14.5948 6.35497Z" fill="#FCFCFC"/>
<path id="Vector_4" d="M14.5966 3.43292C15.1774 3.43292 15.7588 3.4308 16.3396 3.43362C16.6663 3.43574 16.8342 3.56569 16.8328 3.80368C16.8314 4.04308 16.6705 4.16526 16.3354 4.16597C15.1633 4.16808 13.9912 4.16596 12.8191 4.16738C12.5693 4.16738 12.3654 4.10876 12.3449 3.81427C12.328 3.57204 12.5001 3.43574 12.824 3.43362C13.4154 3.43009 14.0067 3.43221 14.5973 3.43292H14.5966Z" fill="#FCFCFC"/>
<path id="Vector_5" d="M17.4741 5.62597C16.8933 5.62597 16.3119 5.62738 15.7311 5.62597C15.391 5.62456 15.2358 5.51156 15.2315 5.26863C15.2273 5.02357 15.3896 4.89292 15.7156 4.89221C16.8877 4.8901 18.0605 4.8901 19.2326 4.89221C19.5586 4.89221 19.7209 5.02357 19.7166 5.26863C19.7124 5.51086 19.5572 5.62456 19.217 5.62597C18.6363 5.62809 18.0548 5.62597 17.4741 5.62597Z" fill="#FCFCFC"/>
<path id="Vector_6" d="M18.5897 7.08888C18.3456 7.08888 18.1014 7.09453 17.8573 7.08746C17.6174 7.0804 17.4642 6.94905 17.4699 6.70894C17.4755 6.48648 17.6209 6.35795 17.8502 6.35654C18.3491 6.35371 18.8473 6.35089 19.3462 6.35795C19.572 6.36148 19.7117 6.48436 19.7146 6.71741C19.7174 6.95258 19.5748 7.07405 19.3526 7.08535C19.0985 7.09806 18.8438 7.08817 18.5897 7.08817V7.08888Z" fill="#FCFCFC"/>
<path id="Vector_7" d="M18.5714 4.16426C18.3273 4.16426 18.0831 4.1685 17.8397 4.16285C17.6089 4.1579 17.4692 4.02655 17.4678 3.80338C17.4664 3.57881 17.6125 3.44251 17.8376 3.43757C18.3357 3.42768 18.8339 3.42697 19.3321 3.43615C19.5657 3.44039 19.7231 3.56186 19.7153 3.81468C19.7082 4.05056 19.5572 4.1572 19.3349 4.16214C19.0809 4.16779 18.8269 4.16355 18.5721 4.16214L18.5714 4.16426Z" fill="#FCFCFC"/>
<path id="Vector_8" d="M13.4715 5.62464C13.2273 5.62464 12.9832 5.62676 12.7397 5.62464C12.4998 5.62181 12.346 5.5067 12.3467 5.25811C12.3474 5.00811 12.5104 4.89583 12.7454 4.893C13.233 4.88806 13.7213 4.88594 14.2089 4.89441C14.4474 4.89865 14.597 5.03354 14.5878 5.27859C14.5794 5.50741 14.4312 5.62181 14.2033 5.62393C13.9591 5.62605 13.7149 5.62393 13.4715 5.62464Z" fill="#FCFCFC"/>
<path id="Vector_9" d="M16.7822 19.0461C16.7836 19.984 16.0321 20.746 15.1006 20.7523C14.1593 20.7587 13.393 19.9875 13.3965 19.0383C13.4 18.104 14.1628 17.3441 15.0936 17.3477C16.0265 17.3505 16.7808 18.1097 16.7822 19.0468V19.0461ZM16.0476 19.0348C16.042 18.5108 15.6115 18.0821 15.0908 18.0814C14.5594 18.0814 14.1254 18.5249 14.1311 19.0638C14.1367 19.5828 14.5728 20.0164 15.0894 20.0164C15.6207 20.0164 16.0533 19.5729 16.0476 19.0348Z" fill="#FCFCFC"/>
<path id="Vector_10" d="M28.2184 19.0722C28.2085 20.0016 27.4351 20.7601 26.5065 20.7523C25.5764 20.7445 24.8214 19.9776 24.8242 19.044C24.827 18.1118 25.5913 17.347 26.5192 17.3477C27.4612 17.3484 28.2283 18.1273 28.2184 19.0722ZM27.4838 19.0574C27.4881 18.527 27.0407 18.0786 26.5121 18.0835C25.9942 18.0885 25.5623 18.5235 25.5595 19.044C25.5567 19.5652 25.9808 20.0044 26.4994 20.0171C27.028 20.0299 27.4803 19.5885 27.4845 19.0574H27.4838Z" fill="#FCFCFC"/>
<path id="Vector_11" d="M6.11137 20.7523C5.18626 20.7467 4.41781 19.9727 4.41993 19.0468C4.42204 18.1196 5.1912 17.3498 6.11843 17.3477C7.05694 17.3455 7.83669 18.1323 7.8247 19.0694C7.81199 19.9988 7.04001 20.758 6.11208 20.7523H6.11137ZM7.0894 19.0518C7.09081 18.5376 6.65613 18.0955 6.13819 18.0835C5.616 18.0715 5.1531 18.5256 5.15381 19.0503C5.15381 19.5645 5.59131 20.0087 6.10573 20.0171C6.63426 20.0263 7.08729 19.5814 7.0887 19.0518H7.0894Z" fill="#FCFCFC"/>
</g>
</svg>
