<svg width="12" height="12" viewBox="0 0 12 12" fill="none" xmlns="http://www.w3.org/2000/svg">
<path d="M5.65728 0.713525C5.80696 0.252869 6.45866 0.25287 6.60834 0.713525L7.59215 3.74139C7.65909 3.9474 7.85107 4.08688 8.06768 4.08688H11.2514C11.7357 4.08688 11.9371 4.70669 11.5453 4.99139L8.9696 6.86271C8.79436 6.99003 8.72103 7.21572 8.78797 7.42173L9.77178 10.4496C9.92146 10.9102 9.39422 11.2933 9.00236 11.0086L6.4267 9.13729C6.25146 9.00997 6.01416 9.00997 5.83892 9.13729L3.26326 11.0086C2.87141 11.2933 2.34417 10.9102 2.49384 10.4496L3.47766 7.42173C3.54459 7.21572 3.47126 6.99003 3.29602 6.86271L0.720365 4.99139C0.328508 4.70669 0.529897 4.08688 1.01426 4.08688H4.19794C4.41456 4.08688 4.60653 3.9474 4.67347 3.74139L5.65728 0.713525Z" fill="#979797"/>
</svg>
