<svg width="27" height="26" viewBox="0 0 27 26" fill="none" xmlns="http://www.w3.org/2000/svg">
<path id="Star 7" d="M12.4081 0.898724C12.7091 -0.0192708 14.0077 -0.0192701 14.3086 0.898724L16.7569 8.36723C16.8916 8.77799 17.2749 9.05573 17.7072 9.05573H25.611C26.5819 9.05573 26.9832 10.2999 26.1954 10.8672L19.8163 15.4609C19.4627 15.7156 19.3147 16.1698 19.4505 16.5839L21.8906 24.0276C22.1921 24.9474 21.1415 25.7163 20.356 25.1506L13.9428 20.5323C13.5937 20.2809 13.1231 20.2809 12.774 20.5323L6.36076 25.1506C5.57531 25.7162 4.52463 24.9474 4.82614 24.0276L7.2663 16.5839C7.40204 16.1698 7.25403 15.7156 6.90043 15.4609L0.521408 10.8672C-0.26644 10.2999 0.134907 9.05573 1.10578 9.05573H9.00961C9.44187 9.05573 9.8252 8.77799 9.95985 8.36723L12.4081 0.898724Z" fill="#3CCF95"/>
</svg>
