<svg width="10" height="6" viewBox="0 0 10 6" fill="none" xmlns="http://www.w3.org/2000/svg">
<path d="M9.75785 4.03071C9.7515 4.04866 9.74414 4.06634 9.73906 4.08455C9.65021 4.39377 9.38009 4.5883 9.09018 4.55137C8.77259 4.51106 8.54792 4.25515 8.54614 3.91966C8.5431 3.36494 8.54513 2.81021 8.54513 2.25523C8.54513 2.2209 8.54513 2.18657 8.54513 2.13118C8.50299 2.17149 8.47557 2.19619 8.44993 2.22246C7.52255 3.17197 6.59569 4.122 5.66831 5.0715C5.44948 5.29568 5.17074 5.35004 4.92449 5.2109C4.85366 5.17085 4.79019 5.11337 4.73231 5.05434C4.2426 4.55579 3.75518 4.0549 3.26674 3.55505C3.24262 3.53034 3.21749 3.50668 3.17255 3.46246C3.14768 3.49887 3.1299 3.53502 3.10325 3.56207C2.43203 4.25099 1.75953 4.93835 1.08857 5.62753C0.913145 5.80776 0.70929 5.88266 0.46634 5.81036C0.0256284 5.67954 -0.118822 5.13288 0.19775 4.78803C0.356162 4.6156 0.52346 4.45176 0.68695 4.28428C1.36096 3.59354 2.03473 2.90306 2.70874 2.21258C3.01922 1.89451 3.35991 1.89555 3.67216 2.21544C4.15832 2.71321 4.64422 3.21072 5.12936 3.70953C5.15347 3.73449 5.1687 3.76882 5.18368 3.79223C6.02195 2.93349 6.84092 2.09451 7.66878 1.24642C7.63603 1.24642 7.60379 1.24642 7.57155 1.24642C7.02675 1.24642 6.48221 1.24773 5.93741 1.2459C5.63277 1.24486 5.38144 1.03629 5.32966 0.747875C5.25883 0.352832 5.5363 0.00772166 5.93437 0.00486091C6.43778 0.00121996 6.94145 0.00382064 7.44512 0.00382064C7.96758 0.00382064 8.49055 0.0131831 9.01275 0.000439761C9.34811 -0.00788241 9.64589 0.0995257 9.7581 0.527077V4.03123L9.75785 4.03071Z" fill="white"/>
</svg>
