<svg width="29" height="29" viewBox="0 0 29 29" fill="none" xmlns="http://www.w3.org/2000/svg">
<g id="Group">
<path id="Vector" d="M6.47835 15.6517C5.87632 15.8427 5.30132 16.0255 4.71485 16.2116C4.76973 16.892 4.58707 17.4896 4.11528 17.9839C3.374 18.7594 2.18059 18.8692 1.3099 18.2462C0.437571 17.6224 0.152531 16.4608 0.637432 15.505C1.1166 14.5607 2.23547 14.0959 3.21838 14.4336C3.66888 14.5885 4.02518 14.8697 4.27909 15.2689C4.38394 15.4337 4.47813 15.4591 4.65915 15.396C5.15552 15.2222 5.66008 15.0689 6.163 14.9156C6.29405 14.8755 6.34648 14.8295 6.33501 14.673C6.15727 12.172 6.66674 10.6579 8.36389 8.63478C8.31639 8.58313 8.27133 8.52411 8.21727 8.47493C7.44241 7.77405 6.66182 7.07891 5.89352 6.36984C5.74199 6.22966 5.64534 6.22966 5.47333 6.33951C4.32497 7.07072 2.90549 7.02481 1.8161 6.23786C0.755381 5.47141 0.272116 4.15573 0.578455 2.86792C0.885613 1.57683 1.95125 0.603797 3.29865 0.416077C4.63458 0.229176 5.71168 0.709543 6.46033 1.81455C7.20815 2.91792 7.19751 4.08441 6.54552 5.24434C6.49309 5.33697 6.43412 5.4255 6.36204 5.54108C7.25239 6.34525 8.1411 7.14695 9.01097 7.93144C9.51307 7.62076 9.9906 7.32156 10.4739 7.03055C10.5631 6.97727 10.6713 6.94038 10.7745 6.92808C10.9964 6.90267 11.1611 7.00514 11.2201 7.22155C11.2807 7.4437 11.2012 7.62076 10.9956 7.74044C10.6418 7.9462 10.2748 8.13392 9.94309 8.37082C7.74466 9.9398 6.7036 12.7236 7.32692 15.3247C7.95762 17.9536 10.1372 19.9619 12.8099 20.3743C16.581 20.9563 20.0408 18.3077 20.4831 14.5C20.9058 10.8571 18.116 7.45845 14.4538 7.15843C14.2597 7.14285 14.0639 7.13302 13.8698 7.1199C13.5831 7.10023 13.4177 6.9453 13.4136 6.69118C13.4095 6.42558 13.5897 6.21819 13.8821 6.24688C14.5111 6.30918 15.1394 6.39525 15.7611 6.50592C16.0838 6.5633 16.3934 6.69528 16.7341 6.80184C17.2829 6.12228 17.8399 5.4337 18.392 4.75004C17.3558 3.19991 17.9087 1.74651 18.8302 0.992353C19.8426 0.164417 21.2711 0.162778 22.2196 0.994813C23.2312 1.88177 23.4572 3.4073 22.7446 4.53854C21.9583 5.78619 20.633 6.08621 18.9596 5.37714C18.46 5.97637 17.9554 6.58215 17.432 7.21007C18.5411 7.84373 19.4388 8.6815 20.1153 9.74716C20.7919 10.8128 21.1654 11.9826 21.2694 13.2606C21.9591 13.3343 22.6349 13.4057 23.3237 13.4794C23.3811 13.322 23.4277 13.1753 23.4859 13.0327C23.9683 11.8605 25.2248 11.1678 26.424 11.4104C27.6379 11.6563 28.5274 12.7228 28.5405 13.9483C28.5536 15.1976 27.6862 16.2633 26.4453 16.5239C25.111 16.8035 23.7513 15.9649 23.4032 14.6254C23.3467 14.409 23.2541 14.3459 23.0551 14.3287C22.4842 14.2779 21.9149 14.2115 21.3219 14.1492C21.1327 16.428 20.2071 18.3175 18.4157 19.7316C16.6219 21.1481 14.5636 21.5793 12.3127 21.2219C12.2259 21.8252 12.1366 22.3933 12.0719 22.9638C12.0637 23.04 12.1653 23.1614 12.2472 23.2114C13.2776 23.8401 13.8084 24.7386 13.7551 25.96C13.6929 27.3699 12.4855 28.5577 11.0464 28.6266C9.58597 28.6962 8.2656 27.6298 8.07148 26.2247C7.82084 24.4098 9.09779 22.922 10.9326 22.8884C11.0186 22.8868 11.1037 22.8794 11.2086 22.8728C11.2962 22.2342 11.3822 21.6088 11.4707 20.9587C8.93234 20.0324 7.26467 18.2774 6.47589 15.6517H6.47835ZM1.37789 3.62454C1.37133 4.90497 2.387 5.92472 3.67707 5.93456C5.00481 5.9444 6.07454 4.91644 6.086 3.62208C6.09665 2.32771 5.05068 1.25959 3.76389 1.25139C2.44598 1.24319 1.38444 2.29902 1.37789 3.62454ZM12.9319 25.7673C12.936 24.6918 12.0531 23.7745 11.0079 23.7696C9.85791 23.7639 8.95527 24.6402 8.95773 25.7624C8.95937 26.8502 9.84153 27.7388 10.9276 27.7478C12.0252 27.7576 12.9278 26.8658 12.9319 25.7673ZM22.3711 3.05974C22.3711 2.07277 21.5504 1.25139 20.5634 1.25057C19.5633 1.25057 18.7172 2.07933 18.7163 3.06055C18.7147 4.04014 19.5633 4.87546 20.5601 4.87546C21.5299 4.87546 22.3719 4.03195 22.3711 3.05974ZM26.0447 15.6845C26.9719 15.6788 27.7615 14.8836 27.7574 13.959C27.7533 13.0179 26.9809 12.2531 26.0349 12.2531C25.0635 12.2531 24.2534 13.0507 24.2698 13.9893C24.2861 14.9279 25.0856 15.6911 26.0455 15.6854L26.0447 15.6845ZM1.28123 16.4764C1.2755 17.1773 1.86033 17.7675 2.56065 17.7691C3.25851 17.7708 3.84907 17.1781 3.84498 16.4805C3.84088 15.7903 3.26834 15.2132 2.57867 15.2058C1.87507 15.1976 1.28697 15.7739 1.28123 16.4772V16.4764Z" fill="#FCFCFC"/>
<path id="Vector_2" d="M9.44056 13.9727C9.44056 12.9374 9.44875 11.9013 9.43564 10.8659C9.43155 10.538 9.55687 10.347 9.85502 10.2093C11.0853 9.64289 12.3057 9.05268 13.5385 8.49116C13.6752 8.42886 13.8923 8.43869 14.0332 8.50263C15.2938 9.07317 16.5445 9.66666 17.8026 10.2446C18.0516 10.3593 18.1434 10.5348 18.1426 10.7971C18.1393 12.8973 18.1385 14.9982 18.1426 17.0984C18.1426 17.3993 18.0385 17.5796 17.7396 17.6903C16.506 18.146 15.2823 18.6297 14.0487 19.0863C13.9005 19.1412 13.6965 19.1453 13.5491 19.0912C12.3156 18.6346 11.0918 18.1518 9.8583 17.6944C9.55114 17.5804 9.43565 17.3919 9.4381 17.0787C9.44548 16.0434 9.44056 15.0081 9.44056 13.9719V13.9727ZM17.2801 11.3693C17.1662 11.4184 17.0794 11.4545 16.9942 11.493C16.1694 11.8668 15.3478 12.2488 14.5181 12.6112C14.3199 12.6981 14.2453 12.7989 14.247 13.0202C14.2568 14.6015 14.2519 16.1828 14.2535 17.7649C14.2535 17.8575 14.265 17.9493 14.2732 18.0698C15.2217 17.7116 16.1301 17.3615 17.045 17.0312C17.2497 16.9574 17.3013 16.8517 17.2997 16.6492C17.2923 14.99 17.2956 13.3301 17.2948 11.6701C17.2948 11.584 17.2866 11.4971 17.2809 11.3693H17.2801ZM13.3411 18.06C13.3525 17.9821 13.3656 17.9354 13.3656 17.8886C13.3664 16.2377 13.3697 14.5859 13.3583 12.935C13.3583 12.8415 13.26 12.7038 13.1715 12.662C12.3164 12.2595 11.4531 11.8726 10.5914 11.4824C10.516 11.4488 10.4358 11.4266 10.3514 11.3971C10.3391 11.4488 10.326 11.4758 10.326 11.5037C10.3244 13.253 10.3211 15.0015 10.3325 16.7508C10.3325 16.8377 10.4489 16.9656 10.5398 17.0025C11.0722 17.2189 11.6136 17.414 12.1517 17.6157C12.5416 17.7616 12.9323 17.9075 13.3402 18.0591L13.3411 18.06ZM10.951 10.7036C11.7193 11.0619 12.4474 11.3652 13.1396 11.7365C13.6048 11.9865 13.9931 11.9964 14.4624 11.7414C15.1594 11.3635 15.8966 11.0594 16.6289 10.7176C16.5904 10.6815 16.5732 10.6544 16.5486 10.643C15.682 10.2413 14.8154 9.83799 13.9447 9.44697C13.8628 9.41008 13.735 9.42402 13.6482 9.46091C13.2362 9.63797 12.8316 9.83143 12.4245 10.0191C11.9494 10.2388 11.4752 10.4593 10.9501 10.7028L10.951 10.7036Z" fill="#FCFCFC"/>
</g>
</svg>
