<svg width="163" height="40" viewBox="0 0 163 40" fill="none" xmlns="http://www.w3.org/2000/svg">
<path d="M9.0767 31L0.752841 1.90909H7.47159L12.2869 22.1222H12.5284L17.8409 1.90909H23.5938L28.892 22.1648H29.1477L33.9631 1.90909H40.6818L32.358 31H26.3636L20.8239 11.9801H20.5966L15.071 31H9.0767ZM47.7379 31.4119C46.3459 31.4119 45.1054 31.1705 44.0163 30.6875C42.9273 30.1951 42.0656 29.4706 41.4311 28.5142C40.8061 27.5483 40.4936 26.3456 40.4936 24.9062C40.4936 23.6941 40.7161 22.6761 41.1612 21.8523C41.6063 21.0284 42.2124 20.3655 42.9794 19.8636C43.7464 19.3617 44.6177 18.983 45.593 18.7273C46.5779 18.4716 47.6101 18.2917 48.6896 18.1875C49.9586 18.0549 50.9813 17.9318 51.7578 17.8182C52.5343 17.6951 53.0978 17.5152 53.4482 17.2784C53.7985 17.0417 53.9737 16.6913 53.9737 16.2273V16.142C53.9737 15.2424 53.6896 14.5464 53.1214 14.054C52.5627 13.5616 51.7673 13.3153 50.7351 13.3153C49.6461 13.3153 48.7796 13.5568 48.1357 14.0398C47.4917 14.5133 47.0656 15.1098 46.8572 15.8295L41.2607 15.375C41.5447 14.0492 42.1035 12.9034 42.9368 11.9375C43.7701 10.9621 44.8449 10.214 46.1612 9.69318C47.487 9.16288 49.0211 8.89773 50.7635 8.89773C51.9756 8.89773 53.1357 9.03977 54.2436 9.32386C55.361 9.60795 56.3506 10.0483 57.2124 10.6449C58.0836 11.2415 58.7701 12.0085 59.272 12.946C59.7739 13.8741 60.0249 14.9867 60.0249 16.2841V31H54.2862V27.9744H54.1158C53.7654 28.6562 53.2966 29.2576 52.7095 29.7784C52.1224 30.2898 51.4169 30.6922 50.593 30.9858C49.7692 31.2699 48.8175 31.4119 47.7379 31.4119ZM49.4709 27.2358C50.361 27.2358 51.147 27.0606 51.8288 26.7102C52.5107 26.3504 53.0457 25.8674 53.4339 25.2614C53.8222 24.6553 54.0163 23.9687 54.0163 23.2017V20.8864C53.8269 21.0095 53.5665 21.1231 53.2351 21.2273C52.9131 21.322 52.5485 21.4119 52.1413 21.4972C51.7341 21.5729 51.3269 21.6439 50.9197 21.7102C50.5125 21.767 50.1432 21.8191 49.8118 21.8665C49.1016 21.9706 48.4813 22.1364 47.951 22.3636C47.4207 22.5909 47.0088 22.8987 46.7152 23.2869C46.4216 23.6657 46.2749 24.1392 46.2749 24.7074C46.2749 25.5312 46.5732 26.161 47.1697 26.5966C47.7758 27.0227 48.5429 27.2358 49.4709 27.2358ZM64.7195 31V9.18182H70.5859V12.9886H70.8132C71.2109 11.6345 71.8786 10.6117 72.8161 9.92045C73.7536 9.2197 74.8331 8.86932 76.0547 8.86932C76.3577 8.86932 76.6844 8.88826 77.0348 8.92614C77.3852 8.96402 77.6929 9.0161 77.9581 9.08239V14.4517C77.674 14.3665 77.281 14.2907 76.7791 14.2244C76.2772 14.1581 75.8179 14.125 75.4013 14.125C74.5111 14.125 73.7157 14.3191 73.0149 14.7074C72.3236 15.0862 71.7744 15.6165 71.3672 16.2983C70.9695 16.9801 70.7706 17.7661 70.7706 18.6562V31H64.7195ZM87.1378 18.3864V31H81.0866V9.18182H86.8537V13.0312H87.1094C87.5923 11.7623 88.402 10.7585 89.5384 10.0199C90.6747 9.27178 92.0526 8.89773 93.6719 8.89773C95.187 8.89773 96.508 9.22917 97.6349 9.89205C98.7618 10.5549 99.6378 11.5019 100.263 12.733C100.888 13.9545 101.2 15.4129 101.2 17.108V31H95.1491V18.1875C95.1586 16.8523 94.8177 15.8106 94.1264 15.0625C93.4351 14.3049 92.4834 13.9261 91.2713 13.9261C90.4569 13.9261 89.7372 14.1013 89.1122 14.4517C88.4967 14.8021 88.0137 15.3134 87.6634 15.9858C87.3224 16.6487 87.1473 17.4489 87.1378 18.3864ZM105.969 31V9.18182H112.021V31H105.969ZM109.009 6.36932C108.11 6.36932 107.338 6.07102 106.694 5.47443C106.059 4.86837 105.742 4.14394 105.742 3.30114C105.742 2.4678 106.059 1.75284 106.694 1.15625C107.338 0.550188 108.11 0.247158 109.009 0.247158C109.909 0.247158 110.676 0.550188 111.31 1.15625C111.954 1.75284 112.276 2.4678 112.276 3.30114C112.276 4.14394 111.954 4.86837 111.31 5.47443C110.676 6.07102 109.909 6.36932 109.009 6.36932ZM122.919 18.3864V31H116.868V9.18182H122.635V13.0312H122.891C123.374 11.7623 124.183 10.7585 125.32 10.0199C126.456 9.27178 127.834 8.89773 129.453 8.89773C130.968 8.89773 132.289 9.22917 133.416 9.89205C134.543 10.5549 135.419 11.5019 136.044 12.733C136.669 13.9545 136.982 15.4129 136.982 17.108V31H130.93V18.1875C130.94 16.8523 130.599 15.8106 129.908 15.0625C129.216 14.3049 128.265 13.9261 127.053 13.9261C126.238 13.9261 125.518 14.1013 124.893 14.4517C124.278 14.8021 123.795 15.3134 123.445 15.9858C123.104 16.6487 122.929 17.4489 122.919 18.3864ZM151.58 39.6364C149.62 39.6364 147.939 39.3665 146.538 38.8267C145.146 38.2964 144.038 37.572 143.214 36.6534C142.39 35.7348 141.855 34.7027 141.609 33.5568L147.205 32.804C147.376 33.2396 147.646 33.6468 148.015 34.0256C148.384 34.4044 148.872 34.7074 149.478 34.9347C150.094 35.1714 150.842 35.2898 151.722 35.2898C153.039 35.2898 154.123 34.9678 154.975 34.3239C155.837 33.6894 156.268 32.6241 156.268 31.1278V27.1364H156.012C155.747 27.7424 155.349 28.3153 154.819 28.8551C154.289 29.3949 153.607 29.8352 152.773 30.1761C151.94 30.517 150.946 30.6875 149.79 30.6875C148.152 30.6875 146.661 30.3087 145.316 29.5511C143.981 28.7841 142.915 27.6146 142.12 26.0426C141.334 24.4612 140.941 22.4631 140.941 20.0483C140.941 17.5767 141.344 15.5123 142.148 13.8551C142.953 12.1979 144.023 10.9574 145.359 10.1335C146.703 9.30966 148.176 8.89773 149.776 8.89773C150.998 8.89773 152.021 9.10606 152.844 9.52273C153.668 9.92992 154.331 10.4413 154.833 11.0568C155.344 11.6629 155.737 12.2595 156.012 12.8466H156.239V9.18182H162.248V31.2131C162.248 33.0691 161.793 34.6222 160.884 35.8722C159.975 37.1222 158.716 38.0597 157.106 38.6847C155.505 39.3191 153.664 39.6364 151.58 39.6364ZM151.708 26.142C152.683 26.142 153.507 25.9006 154.18 25.4176C154.862 24.9252 155.382 24.2244 155.742 23.3153C156.112 22.3968 156.296 21.2983 156.296 20.0199C156.296 18.7415 156.116 17.6335 155.756 16.696C155.397 15.7491 154.876 15.0152 154.194 14.4943C153.512 13.9735 152.683 13.7131 151.708 13.7131C150.714 13.7131 149.876 13.983 149.194 14.5227C148.512 15.053 147.996 15.7917 147.646 16.7386C147.295 17.6856 147.12 18.7794 147.12 20.0199C147.12 21.2794 147.295 22.3684 147.646 23.2869C148.005 24.196 148.522 24.9015 149.194 25.4034C149.876 25.8958 150.714 26.142 151.708 26.142Z" fill="#EE4652"/>
</svg>
