<svg width="73" height="73" viewBox="0 0 73 73" fill="none" xmlns="http://www.w3.org/2000/svg">
<g clip-path="url(#clip0_392_348)">
<path d="M35.5885 3.84961C33.6352 4.20605 32.2521 4.9332 30.8691 6.34473C29.9139 7.3 29.1725 8.55469 15.7131 31.8805C7.92832 45.3826 1.4125 56.7318 1.22715 57.1168C0.671094 58.3002 0.5 59.1557 0.5 60.7383C0.5 61.8076 0.585547 62.4635 0.770898 63.0195C1.7832 66.0137 3.85059 68.0668 6.77344 68.965C7.58613 69.2074 8.88359 69.2217 36.9287 69.2217C64.9738 69.2217 66.2713 69.2074 67.084 68.965C70.0068 68.0668 72.0742 66.0137 73.0865 63.0195C73.2719 62.4635 73.3574 61.8076 73.3574 60.7383C73.3574 59.1557 73.1863 58.3002 72.6303 57.1168C72.4449 56.7461 65.9291 45.3826 58.1443 31.8947C44.243 7.78476 43.9721 7.32851 42.917 6.27344C41.3201 4.6623 39.6662 3.93516 37.3564 3.79258C36.7719 3.7498 35.9734 3.77832 35.5885 3.84961ZM37.9838 8.19824C38.9818 8.45488 39.8801 9.05371 40.3791 9.79512C40.593 10.0945 47.0518 21.2441 54.751 34.5752C63.6479 50.0021 68.8234 59.0986 68.966 59.5834C69.5363 61.5795 68.3529 63.9035 66.3711 64.6734C65.6725 64.9301 64.9025 64.9443 36.9287 64.9443C8.95488 64.9443 8.18496 64.9301 7.48633 64.6734C6.55957 64.317 5.53301 63.3332 5.11953 62.4064C4.64902 61.3656 4.66328 59.7973 5.11953 58.8848C6.40273 56.4182 33.5211 9.69531 33.8918 9.31035C34.4336 8.76855 35.2605 8.32656 36.0305 8.14121C36.8289 7.95586 37.0713 7.95586 37.9838 8.19824Z" fill="#EE4652"/>
<path d="M34.79 35.7871V46.4805H36.9287H39.0674V35.7871V25.0938H36.9287H34.79V35.7871Z" fill="#EE4652"/>
<path d="M35.9592 50.9148C35.2748 51.1144 34.4051 52.0554 34.2055 52.7826C33.8775 54.0515 34.3766 55.3775 35.4602 56.0476C36.2728 56.5609 37.6559 56.5324 38.4543 56.0048C39.3383 55.4203 39.709 54.7216 39.709 53.6095C39.709 52.5117 39.3383 51.7988 38.4971 51.2427C37.884 50.8293 36.7148 50.6867 35.9592 50.9148Z" fill="#EE4652"/>
</g>
<defs>
<clipPath id="clip0_392_348">
<rect width="73" height="73" fill="white"/>
</clipPath>
</defs>
</svg>
