<svg width="1920" height="1220" viewBox="0 0 1920 1220" fill="none" xmlns="http://www.w3.org/2000/svg">
<g clip-path="url(#clip0_174_2662)">
<rect width="1920" height="1220" fill="white"/>
<path d="M2286 -48.5078H-25V1967H2286V-48.5078Z" fill="url(#paint0_linear_174_2662)"/>
<g style="mix-blend-mode:color-burn" clip-path="url(#clip1_174_2662)">
<g style="mix-blend-mode:multiply" opacity="0.5">
<path d="M2088.26 1348.67C2089.36 1430.13 2058.68 1507.15 2001.85 1565.53C1945.03 1623.91 1868.87 1656.66 1787.41 1657.76C1705.95 1658.86 1628.94 1628.17 1570.56 1571.35C1512.18 1514.53 1479.43 1438.37 1478.33 1356.91C1477.23 1275.45 1507.91 1198.43 1564.73 1140.06C1621.56 1081.67 1697.72 1048.92 1779.18 1047.82C1860.64 1046.72 1937.65 1077.41 1996.04 1134.23C2054.42 1191.06 2087.17 1267.22 2088.27 1348.68L2088.26 1348.67ZM1480.24 1356.88C1482.5 1523.99 1620.28 1658.1 1787.39 1655.84C1954.5 1653.59 2088.61 1515.81 2086.35 1348.7C2084.09 1181.59 1946.31 1047.48 1779.2 1049.74C1612.09 1051.99 1477.99 1189.77 1480.24 1356.88Z" fill="url(#paint1_linear_174_2662)"/>
<path d="M2061.91 1349.03C2062.91 1423.44 2034.88 1493.81 1982.97 1547.14C1931.06 1600.47 1861.48 1630.4 1787.07 1631.4C1712.66 1632.41 1642.29 1604.37 1588.96 1552.46C1535.63 1500.56 1505.7 1430.98 1504.7 1356.56C1503.68 1282.13 1531.71 1211.77 1583.63 1158.45C1635.54 1105.12 1705.11 1075.19 1779.53 1074.19C1853.95 1073.18 1924.31 1101.22 1977.64 1153.13C2030.97 1205.04 2060.9 1274.62 2061.9 1349.03L2061.91 1349.03ZM1506.44 1356.53C1508.5 1509.19 1634.37 1631.72 1787.03 1629.65C1939.7 1627.59 2062.22 1501.72 2060.15 1349.05C2058.09 1196.38 1932.22 1073.87 1779.56 1075.93C1626.89 1077.99 1504.37 1203.86 1506.44 1356.53Z" fill="url(#paint2_linear_174_2662)"/>
<path d="M2035.54 1349.38C2036.45 1416.76 2011.07 1480.47 1964.07 1528.75C1917.07 1577.04 1854.07 1604.13 1786.7 1605.05C1719.33 1605.97 1655.63 1580.57 1607.33 1533.58C1559.05 1486.58 1531.95 1423.58 1531.04 1356.2C1530.13 1288.82 1555.52 1225.12 1602.52 1176.83C1649.51 1128.55 1712.51 1101.45 1779.89 1100.54C1847.27 1099.63 1910.97 1125.02 1959.25 1172.02C2007.54 1219.02 2034.63 1282.02 2035.55 1349.39L2035.54 1349.38ZM1532.63 1356.17C1534.5 1494.4 1648.46 1605.33 1786.68 1603.45C1924.91 1601.59 2035.83 1487.61 2033.96 1349.4C2032.09 1211.18 1918.13 1100.25 1779.91 1102.12C1641.69 1103.99 1530.76 1217.96 1532.63 1356.17Z" fill="url(#paint3_linear_174_2662)"/>
<path d="M2009.19 1349.74C2010.87 1474.3 1910.91 1577 1786.35 1578.68C1661.79 1580.37 1559.09 1480.4 1557.4 1355.84C1555.72 1231.28 1655.69 1128.58 1780.25 1126.9C1904.81 1125.21 2007.51 1225.18 2009.18 1349.73L2009.19 1349.74ZM1558.83 1355.82C1560.5 1479.59 1662.56 1578.93 1786.33 1577.26C1910.1 1575.59 2009.44 1473.53 2007.77 1349.76C2006.1 1225.99 1904.03 1126.65 1780.27 1128.32C1656.5 1129.99 1557.16 1232.05 1558.83 1355.82Z" fill="url(#paint4_linear_174_2662)"/>
<path d="M1982.82 1350.1C1984.31 1460.11 1896 1550.83 1785.98 1552.32C1675.97 1553.81 1585.25 1465.51 1583.75 1355.48C1582.27 1245.47 1670.57 1154.75 1780.59 1153.26C1890.61 1151.77 1981.33 1240.07 1982.82 1350.1ZM1585.02 1355.47C1586.5 1464.79 1676.65 1552.54 1785.97 1551.06C1895.3 1549.59 1983.05 1459.44 1981.57 1350.11C1980.09 1240.79 1889.94 1153.04 1780.62 1154.51C1671.29 1155.99 1583.54 1246.14 1585.02 1355.47Z" fill="url(#paint5_linear_174_2662)"/>
<path d="M1956.47 1350.45C1957.76 1445.94 1881.12 1524.67 1785.63 1525.96C1690.15 1527.25 1611.41 1450.61 1610.12 1355.13C1608.83 1259.64 1685.47 1180.9 1780.96 1179.62C1876.44 1178.33 1955.18 1254.96 1956.47 1350.45ZM1611.22 1355.11C1612.5 1449.99 1690.74 1526.15 1785.62 1524.87C1880.5 1523.59 1956.66 1445.35 1955.38 1350.46C1954.09 1255.58 1875.86 1179.43 1780.97 1180.71C1686.09 1181.99 1609.94 1260.23 1611.22 1355.11Z" fill="url(#paint6_linear_174_2662)"/>
<path d="M1930.1 1350.81C1931.2 1431.77 1866.23 1498.51 1785.27 1499.6C1704.31 1500.7 1637.58 1435.72 1636.48 1354.77C1635.38 1273.81 1700.35 1207.07 1781.31 1205.98C1862.27 1204.88 1929.01 1269.85 1930.1 1350.81ZM1637.41 1354.76C1638.5 1435.2 1704.83 1499.76 1785.27 1498.68C1865.72 1497.6 1930.28 1431.27 1929.2 1350.82C1928.11 1270.38 1861.78 1205.82 1781.34 1206.91C1700.9 1207.99 1636.34 1274.32 1637.43 1354.76L1637.41 1354.76Z" fill="url(#paint7_linear_174_2662)"/>
<path d="M1903.75 1351.16C1904.64 1417.58 1851.34 1472.35 1784.92 1473.24C1718.51 1474.14 1663.74 1420.83 1662.84 1354.42C1661.95 1288 1715.25 1233.24 1781.67 1232.34C1848.08 1231.44 1902.85 1284.75 1903.75 1351.16ZM1663.61 1354.41C1664.5 1420.4 1718.91 1473.37 1784.92 1472.49C1850.92 1471.6 1903.88 1417.18 1903 1351.17C1902.11 1285.18 1847.69 1232.21 1781.69 1233.1C1715.69 1233.99 1662.73 1288.41 1663.62 1354.41L1663.61 1354.41Z" fill="url(#paint8_linear_174_2662)"/>
</g>
</g>
<g style="mix-blend-mode:color-burn" clip-path="url(#clip2_174_2662)">
<g style="mix-blend-mode:multiply" opacity="0.5">
<path d="M1923.26 1553.67C1924.36 1635.13 1893.68 1712.15 1836.85 1770.53C1780.03 1828.91 1703.87 1861.66 1622.41 1862.76C1540.95 1863.86 1463.94 1833.17 1405.56 1776.35C1347.18 1719.53 1314.43 1643.37 1313.33 1561.91C1312.23 1480.45 1342.91 1403.43 1399.73 1345.06C1456.56 1286.67 1532.72 1253.92 1614.18 1252.82C1695.64 1251.72 1772.65 1282.41 1831.04 1339.23C1889.42 1396.06 1922.17 1472.22 1923.27 1553.68L1923.26 1553.67ZM1315.24 1561.88C1317.5 1728.99 1455.28 1863.1 1622.39 1860.84C1789.5 1858.59 1923.61 1720.81 1921.35 1553.7C1919.09 1386.59 1781.31 1252.48 1614.2 1254.74C1447.09 1256.99 1312.99 1394.77 1315.24 1561.88Z" fill="url(#paint9_linear_174_2662)"/>
<path d="M1896.91 1554.03C1897.91 1628.44 1869.88 1698.81 1817.97 1752.14C1766.06 1805.47 1696.48 1835.4 1622.07 1836.4C1547.66 1837.41 1477.29 1809.37 1423.96 1757.46C1370.63 1705.56 1340.7 1635.98 1339.7 1561.56C1338.68 1487.13 1366.71 1416.77 1418.63 1363.45C1470.54 1310.12 1540.11 1280.19 1614.53 1279.19C1688.95 1278.18 1759.31 1306.22 1812.64 1358.13C1865.97 1410.04 1895.9 1479.62 1896.9 1554.03L1896.91 1554.03ZM1341.44 1561.53C1343.5 1714.19 1469.37 1836.72 1622.03 1834.65C1774.7 1832.59 1897.22 1706.72 1895.15 1554.05C1893.09 1401.38 1767.22 1278.87 1614.56 1280.93C1461.89 1282.99 1339.37 1408.86 1341.44 1561.53Z" fill="url(#paint10_linear_174_2662)"/>
<path d="M1870.54 1554.38C1871.45 1621.76 1846.07 1685.47 1799.07 1733.75C1752.07 1782.04 1689.07 1809.13 1621.7 1810.05C1554.33 1810.97 1490.63 1785.57 1442.33 1738.58C1394.05 1691.58 1366.95 1628.58 1366.04 1561.2C1365.13 1493.82 1390.52 1430.12 1437.52 1381.83C1484.51 1333.55 1547.51 1306.45 1614.89 1305.54C1682.27 1304.63 1745.97 1330.02 1794.25 1377.02C1842.54 1424.02 1869.63 1487.02 1870.55 1554.39L1870.54 1554.38ZM1367.63 1561.17C1369.5 1699.4 1483.46 1810.33 1621.68 1808.45C1759.91 1806.59 1870.83 1692.61 1868.96 1554.4C1867.09 1416.18 1753.13 1305.25 1614.91 1307.12C1476.69 1308.99 1365.76 1422.96 1367.63 1561.17Z" fill="url(#paint11_linear_174_2662)"/>
<path d="M1844.19 1554.74C1845.87 1679.3 1745.91 1782 1621.35 1783.68C1496.79 1785.37 1394.09 1685.4 1392.4 1560.84C1390.72 1436.28 1490.69 1333.58 1615.25 1331.9C1739.81 1330.21 1842.51 1430.18 1844.18 1554.73L1844.19 1554.74ZM1393.83 1560.82C1395.5 1684.59 1497.56 1783.93 1621.33 1782.26C1745.1 1780.59 1844.44 1678.53 1842.77 1554.76C1841.1 1430.99 1739.03 1331.65 1615.27 1333.32C1491.5 1334.99 1392.16 1437.05 1393.83 1560.82Z" fill="url(#paint12_linear_174_2662)"/>
</g>
</g>
<g clip-path="url(#clip3_174_2662)">
<g style="mix-blend-mode:multiply" opacity="0.5">
<path d="M225.318 1548.81C184.899 1589.23 131.161 1611.49 73.9964 1611.49C16.8322 1611.49 -36.906 1589.23 -77.3256 1548.81C-117.738 1508.39 -140 1454.65 -140 1397.49C-140 1340.33 -117.738 1286.59 -77.3185 1246.17C-36.8989 1205.75 16.8394 1183.49 73.9964 1183.49C131.161 1183.49 184.899 1205.75 225.318 1246.17C265.738 1286.59 288 1340.33 288 1397.5C288 1454.66 265.738 1508.4 225.318 1548.82V1548.81ZM-76.3692 1247.12C-159.286 1330.04 -159.286 1464.95 -76.3692 1547.86C6.54707 1630.78 141.453 1630.78 224.369 1547.86C307.285 1464.95 307.285 1330.04 224.369 1247.12C141.453 1164.21 6.54707 1164.21 -76.3692 1247.12Z" fill="url(#paint13_linear_174_2662)"/>
<path d="M212.242 1535.73C175.32 1572.66 126.221 1593 74.0031 1593C21.7852 1593 -27.3136 1572.66 -64.2359 1535.74C-101.158 1498.82 -121.5 1449.72 -121.5 1397.5C-121.5 1345.28 -101.165 1296.19 -64.2359 1259.26C-27.3136 1222.33 21.7781 1201.99 73.996 1201.99C126.214 1201.99 175.313 1222.33 212.235 1259.26C249.157 1296.18 269.499 1345.28 269.492 1397.5C269.492 1449.71 249.157 1498.81 212.235 1535.73H212.242ZM-63.3722 1260.12C-139.122 1335.87 -139.122 1459.12 -63.3722 1534.86C12.378 1610.61 135.621 1610.61 211.371 1534.86C287.122 1459.11 287.122 1335.87 211.371 1260.12C135.621 1184.37 12.378 1184.37 -63.3722 1260.12Z" fill="url(#paint14_linear_174_2662)"/>
<path d="M199.161 1522.65C165.729 1556.08 121.277 1574.5 73.9982 1574.5C26.7194 1574.5 -17.7329 1556.08 -51.1649 1522.66C-84.597 1489.23 -103.005 1444.77 -103.012 1397.49C-103.012 1350.22 -84.597 1305.76 -51.1649 1272.33C-17.7329 1238.9 26.7194 1220.48 73.9982 1220.48C121.277 1220.48 165.729 1238.9 199.161 1272.33C232.593 1305.76 251.001 1350.22 251.001 1397.49C251.001 1444.77 232.586 1489.23 199.161 1522.66V1522.65ZM-50.3727 1273.12C-118.957 1341.7 -118.957 1453.29 -50.3727 1521.87C18.2115 1590.45 129.799 1590.44 198.376 1521.87C266.96 1453.28 266.96 1341.69 198.376 1273.12C129.792 1204.53 18.2044 1204.53 -50.3727 1273.12Z" fill="url(#paint15_linear_174_2662)"/>
</g>
</g>
</g>
<defs>
<linearGradient id="paint0_linear_174_2662" x1="1621.19" y1="2438.16" x2="-194.398" y2="324.422" gradientUnits="userSpaceOnUse">
<stop stop-color="#E5FFFF"/>
<stop offset="0.1" stop-color="#E5FFFF"/>
<stop offset="0.62" stop-color="#F8FFFF"/>
<stop offset="0.98" stop-color="white"/>
</linearGradient>
<linearGradient id="paint1_linear_174_2662" x1="1995.1" y1="1133.33" x2="1571.48" y2="1572.24" gradientUnits="userSpaceOnUse">
<stop/>
<stop offset="0.67" stop-color="#AEAEAE"/>
<stop offset="1" stop-color="white"/>
</linearGradient>
<linearGradient id="paint2_linear_174_2662" x1="1976.8" y1="1152.31" x2="1589.79" y2="1553.28" gradientUnits="userSpaceOnUse">
<stop/>
<stop offset="0.67" stop-color="#AEAEAE"/>
<stop offset="1" stop-color="white"/>
</linearGradient>
<linearGradient id="paint3_linear_174_2662" x1="1958.49" y1="1171.28" x2="1608.1" y2="1534.31" gradientUnits="userSpaceOnUse">
<stop/>
<stop offset="0.67" stop-color="#AEAEAE"/>
<stop offset="1" stop-color="white"/>
</linearGradient>
<linearGradient id="paint4_linear_174_2662" x1="1940.11" y1="1190.32" x2="1626.48" y2="1515.26" gradientUnits="userSpaceOnUse">
<stop/>
<stop offset="0.67" stop-color="#AEAEAE"/>
<stop offset="1" stop-color="white"/>
</linearGradient>
<linearGradient id="paint5_linear_174_2662" x1="1921.81" y1="1209.28" x2="1644.78" y2="1496.3" gradientUnits="userSpaceOnUse">
<stop/>
<stop offset="0.67" stop-color="#AEAEAE"/>
<stop offset="1" stop-color="white"/>
</linearGradient>
<linearGradient id="paint6_linear_174_2662" x1="1903.51" y1="1228.24" x2="1663.07" y2="1477.35" gradientUnits="userSpaceOnUse">
<stop/>
<stop offset="0.67" stop-color="#AEAEAE"/>
<stop offset="1" stop-color="white"/>
</linearGradient>
<linearGradient id="paint7_linear_174_2662" x1="1885.21" y1="1247.2" x2="1681.38" y2="1458.38" gradientUnits="userSpaceOnUse">
<stop/>
<stop offset="0.67" stop-color="#AEAEAE"/>
<stop offset="1" stop-color="white"/>
</linearGradient>
<linearGradient id="paint8_linear_174_2662" x1="1866.91" y1="1266.16" x2="1699.67" y2="1439.43" gradientUnits="userSpaceOnUse">
<stop/>
<stop offset="0.67" stop-color="#AEAEAE"/>
<stop offset="1" stop-color="white"/>
</linearGradient>
<linearGradient id="paint9_linear_174_2662" x1="1830.1" y1="1338.33" x2="1406.48" y2="1777.24" gradientUnits="userSpaceOnUse">
<stop/>
<stop offset="0.67" stop-color="#AEAEAE"/>
<stop offset="1" stop-color="white"/>
</linearGradient>
<linearGradient id="paint10_linear_174_2662" x1="1811.8" y1="1357.31" x2="1424.79" y2="1758.28" gradientUnits="userSpaceOnUse">
<stop/>
<stop offset="0.67" stop-color="#AEAEAE"/>
<stop offset="1" stop-color="white"/>
</linearGradient>
<linearGradient id="paint11_linear_174_2662" x1="1793.49" y1="1376.28" x2="1443.1" y2="1739.31" gradientUnits="userSpaceOnUse">
<stop/>
<stop offset="0.67" stop-color="#AEAEAE"/>
<stop offset="1" stop-color="white"/>
</linearGradient>
<linearGradient id="paint12_linear_174_2662" x1="1775.11" y1="1395.32" x2="1461.48" y2="1720.26" gradientUnits="userSpaceOnUse">
<stop/>
<stop offset="0.67" stop-color="#AEAEAE"/>
<stop offset="1" stop-color="white"/>
</linearGradient>
<linearGradient id="paint13_linear_174_2662" x1="287.995" y1="1396.59" x2="-139.998" y2="1398.39" gradientUnits="userSpaceOnUse">
<stop/>
<stop offset="0.67" stop-color="#AEAEAE"/>
<stop offset="1" stop-color="white"/>
</linearGradient>
<linearGradient id="paint14_linear_174_2662" x1="269.497" y1="1396.67" x2="-121.502" y2="1398.32" gradientUnits="userSpaceOnUse">
<stop/>
<stop offset="0.67" stop-color="#AEAEAE"/>
<stop offset="1" stop-color="white"/>
</linearGradient>
<linearGradient id="paint15_linear_174_2662" x1="251.002" y1="1396.75" x2="-103.002" y2="1398.24" gradientUnits="userSpaceOnUse">
<stop/>
<stop offset="0.67" stop-color="#AEAEAE"/>
<stop offset="1" stop-color="white"/>
</linearGradient>
<clipPath id="clip0_174_2662">
<rect width="1920" height="1220" fill="white"/>
</clipPath>
<clipPath id="clip1_174_2662">
<rect width="610" height="610" fill="white" transform="translate(1352 1358.61) rotate(-45.7736)"/>
</clipPath>
<clipPath id="clip2_174_2662">
<rect width="610" height="610" fill="white" transform="translate(1187 1563.61) rotate(-45.7736)"/>
</clipPath>
<clipPath id="clip3_174_2662">
<rect width="428" height="428" fill="white" transform="translate(-140 1183.49)"/>
</clipPath>
</defs>
</svg>
