<svg width="26" height="26" viewBox="0 0 26 26" fill="none" xmlns="http://www.w3.org/2000/svg">
<g id="arrows">
<g id="Group">
<path id="Vector" d="M12.529 0.0300579C12.1583 0.111309 11.7571 0.334745 11.4474 0.644512C10.8075 1.28436 10.64 2.19842 11.0107 3.08201C11.1122 3.32576 11.6353 3.86912 15.9263 8.16521L20.7302 12.9793L15.9263 17.7933C11.6353 22.0894 11.1122 22.6328 11.0107 22.8765C10.64 23.7601 10.8075 24.6742 11.4474 25.314C11.9653 25.8269 12.6357 26.0504 13.3212 25.9387C14.0525 25.8168 13.7021 26.1367 19.9279 19.916C25.0111 14.8379 25.6407 14.1929 25.7575 13.934C26.0318 13.3297 26.0419 12.6847 25.7779 12.0601C25.6763 11.8164 25.0771 11.1969 20.0243 6.13396C16.9216 3.02615 14.281 0.415997 14.154 0.334745C14.0271 0.253496 13.8189 0.151934 13.697 0.10623C13.4126 0.00466728 12.8286 -0.0308781 12.529 0.0300579Z" fill="black"/>
<path id="Vector_2" d="M1.76406 1.0957C1.39335 1.17695 0.997258 1.40039 0.682415 1.71016C-0.0183665 2.41094 -0.201179 3.49766 0.23554 4.42188C0.403118 4.7875 0.225384 4.58945 4.37421 8.95664L7.66991 12.4301L7.28905 12.816C6.89296 13.2223 1.61679 18.793 0.834758 19.6258C0.31679 20.1844 0.113665 20.55 0.0273366 21.1137C-0.180866 22.5 0.860149 23.7949 2.1957 23.7949C2.67304 23.7949 3.21132 23.5918 3.57695 23.2719C3.76484 23.1094 11.9609 14.4816 12.3723 14.0195C13.007 13.2934 13.1543 12.2422 12.7328 11.3688C12.5551 10.998 12.7226 11.1758 7.76132 5.95039C5.16132 3.21328 3.51093 1.51211 3.35351 1.41055C3.2164 1.32422 3.0082 1.21758 2.89648 1.17695C2.61718 1.08047 2.04843 1.03984 1.76406 1.0957Z" fill="black"/>
</g>
</g>
</svg>
