<svg width="29" height="28" viewBox="0 0 29 28" fill="none" xmlns="http://www.w3.org/2000/svg">
<g id="Group 424">
<g id="Vector">
<mask id="path-1-outside-1_33_1380" maskUnits="userSpaceOnUse" x="0.0292969" y="-0.695312" width="29" height="29" fill="black">
<rect fill="white" x="0.0292969" y="-0.695312" width="29" height="29"/>
<path d="M19.0238 0.392988C18.9362 0.403946 18.6184 0.464212 18.3171 0.524477C16.7502 0.847721 15.3641 1.62022 14.2135 2.81457C13.3589 3.69664 12.8219 4.55132 12.4275 5.6361L12.2303 6.17849L11.8522 6.3045C10.2634 6.84141 8.69102 8.10699 7.69937 9.6465C7.46927 10.0026 7.13507 10.7039 6.97071 11.1586L6.82278 11.575L6.4064 11.7284C5.32162 12.1174 4.34641 12.72 3.52461 13.5035C2.30834 14.6705 1.59611 15.9196 1.20712 17.5577C1.04276 18.27 0.977015 19.6013 1.07563 20.3026C1.58515 23.924 4.26971 26.6688 7.85825 27.2331C8.69102 27.3591 9.97851 27.3153 10.7784 27.129C12.4165 26.74 13.6657 26.0223 14.8381 24.8006C15.6599 23.9514 16.2023 23.0693 16.6132 21.9516L16.7776 21.4914L17.1556 21.3599C18.1582 21.0093 19.1553 20.3957 19.9662 19.6177C20.9469 18.6809 21.6262 17.6618 22.0316 16.5113L22.1796 16.1004L22.574 15.9689C24.4423 15.3717 26.1571 13.8925 27.1049 12.0681C27.4117 11.4819 27.7076 10.6436 27.8555 9.94235C27.9322 9.57528 27.9541 9.2356 27.9541 8.35353C27.9486 7.33997 27.9377 7.17013 27.8062 6.62226C27.0337 3.36244 24.4697 0.962774 21.1879 0.436819C20.7167 0.360117 19.4676 0.338202 19.0238 0.392988ZM21.0729 0.990166C23.4561 1.33532 25.6202 2.92414 26.6666 5.09371C27.2364 6.27163 27.4665 7.35093 27.4172 8.65486C27.3186 11.2682 25.9708 13.5309 23.7465 14.8348C23.2369 15.1307 22.2563 15.5306 22.0371 15.5306C21.9549 15.5306 21.6372 15.5854 21.3358 15.6511C20.2182 15.8867 18.717 15.7881 17.5829 15.3991C15.6544 14.7362 13.967 13.1529 13.1616 11.2518C13.0247 10.923 12.8932 10.5669 12.8767 10.4683C12.8493 10.2985 12.8603 10.282 13.0794 10.1944C13.7369 9.93139 14.8052 9.86565 15.4901 10.041L15.8407 10.1341L16.0653 10.5231C16.542 11.3723 17.1501 11.9476 18.0267 12.3913C18.7609 12.7584 19.2101 12.8625 20.0648 12.8625C20.64 12.868 20.8592 12.8461 21.2098 12.7474C22.0426 12.5119 22.7274 12.079 23.3575 11.4052C24.2231 10.4738 24.5628 9.54241 24.5135 8.24396C24.4861 7.43859 24.3984 7.07699 24.0697 6.40859C23.5109 5.2745 22.4864 4.43626 21.2098 4.06919C20.5962 3.89387 19.484 3.89387 18.8759 4.06919C17.8569 4.35956 17.0351 4.90195 16.3119 5.75663L16.1201 5.98673L15.6544 5.91003C15.0682 5.82237 13.956 5.81689 13.3643 5.91003L12.9096 5.97578L12.9425 5.83881C12.9644 5.75663 13.074 5.48817 13.1945 5.23615C14.1916 3.10494 16.3119 1.4449 18.5581 1.04495C19.4731 0.880594 20.2237 0.864157 21.0729 0.990166ZM20.6948 4.54036C22.6124 4.891 23.982 6.49625 23.982 8.40832C23.982 9.54241 23.4671 10.6546 22.6069 11.3668L22.2617 11.6517L22.1083 11.2244C21.6646 10.0191 21.1057 9.14246 20.1798 8.21108C19.243 7.27423 18.2787 6.66061 17.1227 6.27163C16.9145 6.20588 16.7502 6.12918 16.7502 6.10727C16.7502 6.047 17.4076 5.43887 17.7199 5.21424C18.5581 4.6061 19.6648 4.35408 20.6948 4.54036ZM15.7914 6.52365C18.4486 6.94551 20.7606 8.93427 21.6262 11.5476C21.692 11.7558 21.7358 11.9311 21.7303 11.9366C21.7193 11.9476 21.5714 12.0023 21.4071 12.0681C20.7113 12.3201 19.7251 12.3585 19.0129 12.1612C18.7335 12.0845 18.6622 12.0407 18.6075 11.9037C18.4869 11.6079 18.1144 11.071 17.8295 10.7696C17.4514 10.3861 17.0899 10.1177 16.5584 9.83825C15.9722 9.53145 15.4682 9.39448 14.7943 9.35613C13.3534 9.27395 12.1974 9.76703 11.1016 10.9176L10.6195 11.4271L10.3018 11.3723C9.52378 11.2353 8.23081 11.2518 7.60623 11.4052C7.49118 11.4326 7.4857 11.4216 7.51858 11.3065C7.5898 11.0436 8.05001 10.1341 8.28559 9.78347C8.6691 9.20273 9.21697 8.60007 9.75936 8.14534C11.4742 6.72636 13.5397 6.17301 15.7914 6.52365ZM12.4987 11.0984C12.5809 11.3285 12.7398 11.7065 12.8548 11.9366C12.9699 12.1667 13.0575 12.353 13.0466 12.353C13.0301 12.353 12.8932 12.2763 12.7288 12.1886C12.5699 12.0955 12.1864 11.9311 11.8796 11.8161C11.5783 11.6955 11.3153 11.5914 11.2989 11.575C11.255 11.5312 11.6605 11.0874 11.9782 10.8409C12.1481 10.7094 12.296 10.6217 12.3179 10.6436C12.3343 10.6655 12.4165 10.8682 12.4987 11.0984ZM17.172 10.9066C17.4131 11.1038 17.7637 11.5202 17.7254 11.5586C17.687 11.5969 17.046 11.0052 16.9036 10.808C16.7666 10.6162 16.8324 10.6381 17.172 10.9066ZM10.6414 12.0243C12.4987 12.4242 14.1807 13.5912 15.2709 15.2402C15.638 15.7991 16.1256 16.84 16.1859 17.1961L16.2133 17.3769L15.7585 17.5303C15.1449 17.7385 14.1861 17.7824 13.5999 17.629L13.2164 17.5303L13.0137 17.1578C11.7591 14.8567 8.59788 14.0459 6.55432 15.5087C5.54625 16.2319 4.89428 17.1578 4.60939 18.2426C4.45051 18.8562 4.4779 19.8588 4.66418 20.4888C4.85045 21.1024 5.12986 21.6284 5.51885 22.0941C6.1489 22.8501 6.88853 23.3432 7.79251 23.6172C8.21437 23.7432 8.38421 23.7651 8.99782 23.7706C9.80867 23.7706 10.2196 23.6884 10.877 23.3871C11.5619 23.0748 12.0988 22.6365 12.7233 21.8749L12.8877 21.6777L13.3534 21.7489C13.9341 21.8421 15.0463 21.8475 15.6435 21.7544L16.0982 21.6887L16.0653 21.8256C15.9996 22.0941 15.6051 22.8721 15.3093 23.3268C12.685 27.3591 7.10767 27.9344 3.7328 24.5212C1.48653 22.253 0.938664 18.8069 2.37408 15.9634C3.23424 14.2541 4.86141 12.8187 6.5598 12.2763C6.93783 12.1557 7.83634 11.9476 8.23081 11.8928C8.65814 11.8325 10.11 11.9092 10.6414 12.0243ZM16.531 15.5635C16.7885 15.6895 17.1556 15.8484 17.3528 15.9196C17.5501 15.9853 17.7199 16.0511 17.7309 16.0566C17.8021 16.1114 16.8817 17.0099 16.7557 17.0099C16.7392 17.0099 16.657 16.8181 16.5749 16.5825C16.4927 16.3524 16.3283 15.9689 16.2078 15.7333C16.0873 15.4977 16.0105 15.3115 16.027 15.3224C16.0489 15.3334 16.2735 15.443 16.531 15.5635ZM10.0443 15.4977C10.2689 15.569 10.3401 15.6183 10.3949 15.7552C10.614 16.2757 11.1948 16.9879 11.7536 17.3989C12.1426 17.6947 12.811 18.0234 13.3041 18.1604C13.83 18.3138 14.7011 18.3631 15.2545 18.27C15.7969 18.1823 16.5475 17.9138 16.7721 17.7276C16.8652 17.6454 17.0679 17.492 17.2159 17.3824C17.5062 17.1742 18.0158 16.6592 18.2185 16.3743C18.3335 16.2045 18.3445 16.2045 18.5965 16.2538C19.1553 16.3579 20.0483 16.4017 20.6784 16.3469C21.0345 16.3195 21.3687 16.2812 21.4235 16.2648C21.5659 16.2209 21.5276 16.3469 21.1605 17.0975C20.2894 18.8836 18.6184 20.319 16.7228 20.9162C15.3312 21.3545 13.5451 21.3435 12.1755 20.8943C9.9292 20.1492 8.16506 18.4015 7.40352 16.1661C7.3323 15.9525 7.28847 15.7662 7.31038 15.7443C7.38161 15.684 7.85825 15.5197 8.19245 15.443C8.59788 15.3498 9.66622 15.3827 10.0443 15.4977ZM11.8906 16.577C12.1207 16.8126 12.3124 17.0318 12.3124 17.0647C12.3124 17.2235 11.4358 16.4182 11.2441 16.0894C11.1455 15.9086 11.4851 16.1716 11.8906 16.577ZM6.96523 16.6099C7.409 17.7659 8.05001 18.7192 8.95947 19.5903C9.80319 20.4067 10.8661 21.0586 11.8906 21.3928C12.296 21.5243 12.296 21.5079 11.9728 21.8969C11.2989 22.7132 10.1648 23.2172 9.02522 23.2172C8.34038 23.2172 7.924 23.1186 7.27203 22.8063C6.87757 22.6146 6.71869 22.494 6.253 22.0283C5.78731 21.5627 5.6613 21.3983 5.47502 21.0093C5.34901 20.7518 5.20657 20.3683 5.15726 20.1601C5.04768 19.6725 5.04768 18.7904 5.16274 18.3521C5.28327 17.8865 5.5846 17.2783 5.86949 16.9058C6.09411 16.6154 6.64746 16.084 6.72964 16.0785C6.74608 16.0785 6.85017 16.3195 6.96523 16.6099Z"/>
</mask>
<path d="M19.0238 0.392988C18.9362 0.403946 18.6184 0.464212 18.3171 0.524477C16.7502 0.847721 15.3641 1.62022 14.2135 2.81457C13.3589 3.69664 12.8219 4.55132 12.4275 5.6361L12.2303 6.17849L11.8522 6.3045C10.2634 6.84141 8.69102 8.10699 7.69937 9.6465C7.46927 10.0026 7.13507 10.7039 6.97071 11.1586L6.82278 11.575L6.4064 11.7284C5.32162 12.1174 4.34641 12.72 3.52461 13.5035C2.30834 14.6705 1.59611 15.9196 1.20712 17.5577C1.04276 18.27 0.977015 19.6013 1.07563 20.3026C1.58515 23.924 4.26971 26.6688 7.85825 27.2331C8.69102 27.3591 9.97851 27.3153 10.7784 27.129C12.4165 26.74 13.6657 26.0223 14.8381 24.8006C15.6599 23.9514 16.2023 23.0693 16.6132 21.9516L16.7776 21.4914L17.1556 21.3599C18.1582 21.0093 19.1553 20.3957 19.9662 19.6177C20.9469 18.6809 21.6262 17.6618 22.0316 16.5113L22.1796 16.1004L22.574 15.9689C24.4423 15.3717 26.1571 13.8925 27.1049 12.0681C27.4117 11.4819 27.7076 10.6436 27.8555 9.94235C27.9322 9.57528 27.9541 9.2356 27.9541 8.35353C27.9486 7.33997 27.9377 7.17013 27.8062 6.62226C27.0337 3.36244 24.4697 0.962774 21.1879 0.436819C20.7167 0.360117 19.4676 0.338202 19.0238 0.392988ZM21.0729 0.990166C23.4561 1.33532 25.6202 2.92414 26.6666 5.09371C27.2364 6.27163 27.4665 7.35093 27.4172 8.65486C27.3186 11.2682 25.9708 13.5309 23.7465 14.8348C23.2369 15.1307 22.2563 15.5306 22.0371 15.5306C21.9549 15.5306 21.6372 15.5854 21.3358 15.6511C20.2182 15.8867 18.717 15.7881 17.5829 15.3991C15.6544 14.7362 13.967 13.1529 13.1616 11.2518C13.0247 10.923 12.8932 10.5669 12.8767 10.4683C12.8493 10.2985 12.8603 10.282 13.0794 10.1944C13.7369 9.93139 14.8052 9.86565 15.4901 10.041L15.8407 10.1341L16.0653 10.5231C16.542 11.3723 17.1501 11.9476 18.0267 12.3913C18.7609 12.7584 19.2101 12.8625 20.0648 12.8625C20.64 12.868 20.8592 12.8461 21.2098 12.7474C22.0426 12.5119 22.7274 12.079 23.3575 11.4052C24.2231 10.4738 24.5628 9.54241 24.5135 8.24396C24.4861 7.43859 24.3984 7.07699 24.0697 6.40859C23.5109 5.2745 22.4864 4.43626 21.2098 4.06919C20.5962 3.89387 19.484 3.89387 18.8759 4.06919C17.8569 4.35956 17.0351 4.90195 16.3119 5.75663L16.1201 5.98673L15.6544 5.91003C15.0682 5.82237 13.956 5.81689 13.3643 5.91003L12.9096 5.97578L12.9425 5.83881C12.9644 5.75663 13.074 5.48817 13.1945 5.23615C14.1916 3.10494 16.3119 1.4449 18.5581 1.04495C19.4731 0.880594 20.2237 0.864157 21.0729 0.990166ZM20.6948 4.54036C22.6124 4.891 23.982 6.49625 23.982 8.40832C23.982 9.54241 23.4671 10.6546 22.6069 11.3668L22.2617 11.6517L22.1083 11.2244C21.6646 10.0191 21.1057 9.14246 20.1798 8.21108C19.243 7.27423 18.2787 6.66061 17.1227 6.27163C16.9145 6.20588 16.7502 6.12918 16.7502 6.10727C16.7502 6.047 17.4076 5.43887 17.7199 5.21424C18.5581 4.6061 19.6648 4.35408 20.6948 4.54036ZM15.7914 6.52365C18.4486 6.94551 20.7606 8.93427 21.6262 11.5476C21.692 11.7558 21.7358 11.9311 21.7303 11.9366C21.7193 11.9476 21.5714 12.0023 21.4071 12.0681C20.7113 12.3201 19.7251 12.3585 19.0129 12.1612C18.7335 12.0845 18.6622 12.0407 18.6075 11.9037C18.4869 11.6079 18.1144 11.071 17.8295 10.7696C17.4514 10.3861 17.0899 10.1177 16.5584 9.83825C15.9722 9.53145 15.4682 9.39448 14.7943 9.35613C13.3534 9.27395 12.1974 9.76703 11.1016 10.9176L10.6195 11.4271L10.3018 11.3723C9.52378 11.2353 8.23081 11.2518 7.60623 11.4052C7.49118 11.4326 7.4857 11.4216 7.51858 11.3065C7.5898 11.0436 8.05001 10.1341 8.28559 9.78347C8.6691 9.20273 9.21697 8.60007 9.75936 8.14534C11.4742 6.72636 13.5397 6.17301 15.7914 6.52365ZM12.4987 11.0984C12.5809 11.3285 12.7398 11.7065 12.8548 11.9366C12.9699 12.1667 13.0575 12.353 13.0466 12.353C13.0301 12.353 12.8932 12.2763 12.7288 12.1886C12.5699 12.0955 12.1864 11.9311 11.8796 11.8161C11.5783 11.6955 11.3153 11.5914 11.2989 11.575C11.255 11.5312 11.6605 11.0874 11.9782 10.8409C12.1481 10.7094 12.296 10.6217 12.3179 10.6436C12.3343 10.6655 12.4165 10.8682 12.4987 11.0984ZM17.172 10.9066C17.4131 11.1038 17.7637 11.5202 17.7254 11.5586C17.687 11.5969 17.046 11.0052 16.9036 10.808C16.7666 10.6162 16.8324 10.6381 17.172 10.9066ZM10.6414 12.0243C12.4987 12.4242 14.1807 13.5912 15.2709 15.2402C15.638 15.7991 16.1256 16.84 16.1859 17.1961L16.2133 17.3769L15.7585 17.5303C15.1449 17.7385 14.1861 17.7824 13.5999 17.629L13.2164 17.5303L13.0137 17.1578C11.7591 14.8567 8.59788 14.0459 6.55432 15.5087C5.54625 16.2319 4.89428 17.1578 4.60939 18.2426C4.45051 18.8562 4.4779 19.8588 4.66418 20.4888C4.85045 21.1024 5.12986 21.6284 5.51885 22.0941C6.1489 22.8501 6.88853 23.3432 7.79251 23.6172C8.21437 23.7432 8.38421 23.7651 8.99782 23.7706C9.80867 23.7706 10.2196 23.6884 10.877 23.3871C11.5619 23.0748 12.0988 22.6365 12.7233 21.8749L12.8877 21.6777L13.3534 21.7489C13.9341 21.8421 15.0463 21.8475 15.6435 21.7544L16.0982 21.6887L16.0653 21.8256C15.9996 22.0941 15.6051 22.8721 15.3093 23.3268C12.685 27.3591 7.10767 27.9344 3.7328 24.5212C1.48653 22.253 0.938664 18.8069 2.37408 15.9634C3.23424 14.2541 4.86141 12.8187 6.5598 12.2763C6.93783 12.1557 7.83634 11.9476 8.23081 11.8928C8.65814 11.8325 10.11 11.9092 10.6414 12.0243ZM16.531 15.5635C16.7885 15.6895 17.1556 15.8484 17.3528 15.9196C17.5501 15.9853 17.7199 16.0511 17.7309 16.0566C17.8021 16.1114 16.8817 17.0099 16.7557 17.0099C16.7392 17.0099 16.657 16.8181 16.5749 16.5825C16.4927 16.3524 16.3283 15.9689 16.2078 15.7333C16.0873 15.4977 16.0105 15.3115 16.027 15.3224C16.0489 15.3334 16.2735 15.443 16.531 15.5635ZM10.0443 15.4977C10.2689 15.569 10.3401 15.6183 10.3949 15.7552C10.614 16.2757 11.1948 16.9879 11.7536 17.3989C12.1426 17.6947 12.811 18.0234 13.3041 18.1604C13.83 18.3138 14.7011 18.3631 15.2545 18.27C15.7969 18.1823 16.5475 17.9138 16.7721 17.7276C16.8652 17.6454 17.0679 17.492 17.2159 17.3824C17.5062 17.1742 18.0158 16.6592 18.2185 16.3743C18.3335 16.2045 18.3445 16.2045 18.5965 16.2538C19.1553 16.3579 20.0483 16.4017 20.6784 16.3469C21.0345 16.3195 21.3687 16.2812 21.4235 16.2648C21.5659 16.2209 21.5276 16.3469 21.1605 17.0975C20.2894 18.8836 18.6184 20.319 16.7228 20.9162C15.3312 21.3545 13.5451 21.3435 12.1755 20.8943C9.9292 20.1492 8.16506 18.4015 7.40352 16.1661C7.3323 15.9525 7.28847 15.7662 7.31038 15.7443C7.38161 15.684 7.85825 15.5197 8.19245 15.443C8.59788 15.3498 9.66622 15.3827 10.0443 15.4977ZM11.8906 16.577C12.1207 16.8126 12.3124 17.0318 12.3124 17.0647C12.3124 17.2235 11.4358 16.4182 11.2441 16.0894C11.1455 15.9086 11.4851 16.1716 11.8906 16.577ZM6.96523 16.6099C7.409 17.7659 8.05001 18.7192 8.95947 19.5903C9.80319 20.4067 10.8661 21.0586 11.8906 21.3928C12.296 21.5243 12.296 21.5079 11.9728 21.8969C11.2989 22.7132 10.1648 23.2172 9.02522 23.2172C8.34038 23.2172 7.924 23.1186 7.27203 22.8063C6.87757 22.6146 6.71869 22.494 6.253 22.0283C5.78731 21.5627 5.6613 21.3983 5.47502 21.0093C5.34901 20.7518 5.20657 20.3683 5.15726 20.1601C5.04768 19.6725 5.04768 18.7904 5.16274 18.3521C5.28327 17.8865 5.5846 17.2783 5.86949 16.9058C6.09411 16.6154 6.64746 16.084 6.72964 16.0785C6.74608 16.0785 6.85017 16.3195 6.96523 16.6099Z" fill="white"/>
<path d="M19.0238 0.392988C18.9362 0.403946 18.6184 0.464212 18.3171 0.524477C16.7502 0.847721 15.3641 1.62022 14.2135 2.81457C13.3589 3.69664 12.8219 4.55132 12.4275 5.6361L12.2303 6.17849L11.8522 6.3045C10.2634 6.84141 8.69102 8.10699 7.69937 9.6465C7.46927 10.0026 7.13507 10.7039 6.97071 11.1586L6.82278 11.575L6.4064 11.7284C5.32162 12.1174 4.34641 12.72 3.52461 13.5035C2.30834 14.6705 1.59611 15.9196 1.20712 17.5577C1.04276 18.27 0.977015 19.6013 1.07563 20.3026C1.58515 23.924 4.26971 26.6688 7.85825 27.2331C8.69102 27.3591 9.97851 27.3153 10.7784 27.129C12.4165 26.74 13.6657 26.0223 14.8381 24.8006C15.6599 23.9514 16.2023 23.0693 16.6132 21.9516L16.7776 21.4914L17.1556 21.3599C18.1582 21.0093 19.1553 20.3957 19.9662 19.6177C20.9469 18.6809 21.6262 17.6618 22.0316 16.5113L22.1796 16.1004L22.574 15.9689C24.4423 15.3717 26.1571 13.8925 27.1049 12.0681C27.4117 11.4819 27.7076 10.6436 27.8555 9.94235C27.9322 9.57528 27.9541 9.2356 27.9541 8.35353C27.9486 7.33997 27.9377 7.17013 27.8062 6.62226C27.0337 3.36244 24.4697 0.962774 21.1879 0.436819C20.7167 0.360117 19.4676 0.338202 19.0238 0.392988ZM21.0729 0.990166C23.4561 1.33532 25.6202 2.92414 26.6666 5.09371C27.2364 6.27163 27.4665 7.35093 27.4172 8.65486C27.3186 11.2682 25.9708 13.5309 23.7465 14.8348C23.2369 15.1307 22.2563 15.5306 22.0371 15.5306C21.9549 15.5306 21.6372 15.5854 21.3358 15.6511C20.2182 15.8867 18.717 15.7881 17.5829 15.3991C15.6544 14.7362 13.967 13.1529 13.1616 11.2518C13.0247 10.923 12.8932 10.5669 12.8767 10.4683C12.8493 10.2985 12.8603 10.282 13.0794 10.1944C13.7369 9.93139 14.8052 9.86565 15.4901 10.041L15.8407 10.1341L16.0653 10.5231C16.542 11.3723 17.1501 11.9476 18.0267 12.3913C18.7609 12.7584 19.2101 12.8625 20.0648 12.8625C20.64 12.868 20.8592 12.8461 21.2098 12.7474C22.0426 12.5119 22.7274 12.079 23.3575 11.4052C24.2231 10.4738 24.5628 9.54241 24.5135 8.24396C24.4861 7.43859 24.3984 7.07699 24.0697 6.40859C23.5109 5.2745 22.4864 4.43626 21.2098 4.06919C20.5962 3.89387 19.484 3.89387 18.8759 4.06919C17.8569 4.35956 17.0351 4.90195 16.3119 5.75663L16.1201 5.98673L15.6544 5.91003C15.0682 5.82237 13.956 5.81689 13.3643 5.91003L12.9096 5.97578L12.9425 5.83881C12.9644 5.75663 13.074 5.48817 13.1945 5.23615C14.1916 3.10494 16.3119 1.4449 18.5581 1.04495C19.4731 0.880594 20.2237 0.864157 21.0729 0.990166ZM20.6948 4.54036C22.6124 4.891 23.982 6.49625 23.982 8.40832C23.982 9.54241 23.4671 10.6546 22.6069 11.3668L22.2617 11.6517L22.1083 11.2244C21.6646 10.0191 21.1057 9.14246 20.1798 8.21108C19.243 7.27423 18.2787 6.66061 17.1227 6.27163C16.9145 6.20588 16.7502 6.12918 16.7502 6.10727C16.7502 6.047 17.4076 5.43887 17.7199 5.21424C18.5581 4.6061 19.6648 4.35408 20.6948 4.54036ZM15.7914 6.52365C18.4486 6.94551 20.7606 8.93427 21.6262 11.5476C21.692 11.7558 21.7358 11.9311 21.7303 11.9366C21.7193 11.9476 21.5714 12.0023 21.4071 12.0681C20.7113 12.3201 19.7251 12.3585 19.0129 12.1612C18.7335 12.0845 18.6622 12.0407 18.6075 11.9037C18.4869 11.6079 18.1144 11.071 17.8295 10.7696C17.4514 10.3861 17.0899 10.1177 16.5584 9.83825C15.9722 9.53145 15.4682 9.39448 14.7943 9.35613C13.3534 9.27395 12.1974 9.76703 11.1016 10.9176L10.6195 11.4271L10.3018 11.3723C9.52378 11.2353 8.23081 11.2518 7.60623 11.4052C7.49118 11.4326 7.4857 11.4216 7.51858 11.3065C7.5898 11.0436 8.05001 10.1341 8.28559 9.78347C8.6691 9.20273 9.21697 8.60007 9.75936 8.14534C11.4742 6.72636 13.5397 6.17301 15.7914 6.52365ZM12.4987 11.0984C12.5809 11.3285 12.7398 11.7065 12.8548 11.9366C12.9699 12.1667 13.0575 12.353 13.0466 12.353C13.0301 12.353 12.8932 12.2763 12.7288 12.1886C12.5699 12.0955 12.1864 11.9311 11.8796 11.8161C11.5783 11.6955 11.3153 11.5914 11.2989 11.575C11.255 11.5312 11.6605 11.0874 11.9782 10.8409C12.1481 10.7094 12.296 10.6217 12.3179 10.6436C12.3343 10.6655 12.4165 10.8682 12.4987 11.0984ZM17.172 10.9066C17.4131 11.1038 17.7637 11.5202 17.7254 11.5586C17.687 11.5969 17.046 11.0052 16.9036 10.808C16.7666 10.6162 16.8324 10.6381 17.172 10.9066ZM10.6414 12.0243C12.4987 12.4242 14.1807 13.5912 15.2709 15.2402C15.638 15.7991 16.1256 16.84 16.1859 17.1961L16.2133 17.3769L15.7585 17.5303C15.1449 17.7385 14.1861 17.7824 13.5999 17.629L13.2164 17.5303L13.0137 17.1578C11.7591 14.8567 8.59788 14.0459 6.55432 15.5087C5.54625 16.2319 4.89428 17.1578 4.60939 18.2426C4.45051 18.8562 4.4779 19.8588 4.66418 20.4888C4.85045 21.1024 5.12986 21.6284 5.51885 22.0941C6.1489 22.8501 6.88853 23.3432 7.79251 23.6172C8.21437 23.7432 8.38421 23.7651 8.99782 23.7706C9.80867 23.7706 10.2196 23.6884 10.877 23.3871C11.5619 23.0748 12.0988 22.6365 12.7233 21.8749L12.8877 21.6777L13.3534 21.7489C13.9341 21.8421 15.0463 21.8475 15.6435 21.7544L16.0982 21.6887L16.0653 21.8256C15.9996 22.0941 15.6051 22.8721 15.3093 23.3268C12.685 27.3591 7.10767 27.9344 3.7328 24.5212C1.48653 22.253 0.938664 18.8069 2.37408 15.9634C3.23424 14.2541 4.86141 12.8187 6.5598 12.2763C6.93783 12.1557 7.83634 11.9476 8.23081 11.8928C8.65814 11.8325 10.11 11.9092 10.6414 12.0243ZM16.531 15.5635C16.7885 15.6895 17.1556 15.8484 17.3528 15.9196C17.5501 15.9853 17.7199 16.0511 17.7309 16.0566C17.8021 16.1114 16.8817 17.0099 16.7557 17.0099C16.7392 17.0099 16.657 16.8181 16.5749 16.5825C16.4927 16.3524 16.3283 15.9689 16.2078 15.7333C16.0873 15.4977 16.0105 15.3115 16.027 15.3224C16.0489 15.3334 16.2735 15.443 16.531 15.5635ZM10.0443 15.4977C10.2689 15.569 10.3401 15.6183 10.3949 15.7552C10.614 16.2757 11.1948 16.9879 11.7536 17.3989C12.1426 17.6947 12.811 18.0234 13.3041 18.1604C13.83 18.3138 14.7011 18.3631 15.2545 18.27C15.7969 18.1823 16.5475 17.9138 16.7721 17.7276C16.8652 17.6454 17.0679 17.492 17.2159 17.3824C17.5062 17.1742 18.0158 16.6592 18.2185 16.3743C18.3335 16.2045 18.3445 16.2045 18.5965 16.2538C19.1553 16.3579 20.0483 16.4017 20.6784 16.3469C21.0345 16.3195 21.3687 16.2812 21.4235 16.2648C21.5659 16.2209 21.5276 16.3469 21.1605 17.0975C20.2894 18.8836 18.6184 20.319 16.7228 20.9162C15.3312 21.3545 13.5451 21.3435 12.1755 20.8943C9.9292 20.1492 8.16506 18.4015 7.40352 16.1661C7.3323 15.9525 7.28847 15.7662 7.31038 15.7443C7.38161 15.684 7.85825 15.5197 8.19245 15.443C8.59788 15.3498 9.66622 15.3827 10.0443 15.4977ZM11.8906 16.577C12.1207 16.8126 12.3124 17.0318 12.3124 17.0647C12.3124 17.2235 11.4358 16.4182 11.2441 16.0894C11.1455 15.9086 11.4851 16.1716 11.8906 16.577ZM6.96523 16.6099C7.409 17.7659 8.05001 18.7192 8.95947 19.5903C9.80319 20.4067 10.8661 21.0586 11.8906 21.3928C12.296 21.5243 12.296 21.5079 11.9728 21.8969C11.2989 22.7132 10.1648 23.2172 9.02522 23.2172C8.34038 23.2172 7.924 23.1186 7.27203 22.8063C6.87757 22.6146 6.71869 22.494 6.253 22.0283C5.78731 21.5627 5.6613 21.3983 5.47502 21.0093C5.34901 20.7518 5.20657 20.3683 5.15726 20.1601C5.04768 19.6725 5.04768 18.7904 5.16274 18.3521C5.28327 17.8865 5.5846 17.2783 5.86949 16.9058C6.09411 16.6154 6.64746 16.084 6.72964 16.0785C6.74608 16.0785 6.85017 16.3195 6.96523 16.6099Z" stroke="white" stroke-width="0.4" mask="url(#path-1-outside-1_33_1380)"/>
</g>
<path id="Vector_2" d="M8.58432 5.32048C8.59326 5.33597 8.59724 5.34142 8.59715 5.34149L8.5984 5.343C8.68886 5.45085 8.84702 5.41709 8.88883 5.29453C8.88858 5.29211 8.88814 5.28861 8.88734 5.28384C8.88461 5.26744 8.87912 5.24405 8.87039 5.2134C8.85304 5.15245 8.82522 5.07088 8.78925 4.97446C8.7175 4.78211 8.61578 4.53717 8.50773 4.29311C8.39968 4.04907 8.28599 3.80747 8.1905 3.62173C8.14266 3.52868 8.10009 3.45101 8.06554 3.3945C8.04821 3.36614 8.0338 3.3446 8.02249 3.32964C8.01444 3.319 8.01024 3.31481 8.00968 3.31413C7.96863 3.28591 7.92152 3.28123 7.87207 3.29847C7.82038 3.3191 7.80465 3.33469 7.79801 3.34612C7.79138 3.35754 7.78194 3.38572 7.79504 3.46003C7.82193 3.61266 7.92656 3.8751 8.13684 4.35931C8.24611 4.61063 8.35389 4.84936 8.43964 5.03107C8.48255 5.12201 8.51966 5.19804 8.54851 5.25399C8.56297 5.28204 8.57497 5.30427 8.58432 5.32048Z" fill="white" stroke="white" stroke-width="0.2"/>
<path id="Vector_3" d="M4.66887 3.99722C4.63052 4.03556 4.62534 4.05398 4.62539 4.06932C4.62546 4.0923 4.63799 4.13833 4.70188 4.22922C4.82852 4.4094 5.10703 4.69938 5.63312 5.22547C5.91461 5.50696 6.18065 5.76343 6.38271 5.94917C6.48391 6.04218 6.56813 6.11661 6.62983 6.16737C6.66089 6.19293 6.68471 6.21122 6.70134 6.22265C6.70146 6.22274 6.70158 6.22282 6.7017 6.2229C6.7102 6.2202 6.72158 6.21546 6.73575 6.2074C6.76163 6.19268 6.78989 6.1708 6.81617 6.14452C6.84245 6.11824 6.86433 6.08998 6.87905 6.0641C6.88711 6.04993 6.89185 6.03854 6.89455 6.03005C6.89447 6.02993 6.89439 6.02981 6.8943 6.02969C6.88287 6.01306 6.86458 5.98923 6.83902 5.95818C6.78826 5.89648 6.71383 5.81226 6.62082 5.71106C6.43508 5.509 6.17861 5.24296 5.89712 4.96146C5.37103 4.43538 5.08105 4.15687 4.90087 4.03023C4.80998 3.96634 4.76395 3.95381 4.74098 3.95374C4.72563 3.95369 4.70721 3.95887 4.66887 3.99722Z" fill="white" stroke="white" stroke-width="0.2"/>
<path id="Vector_4" d="M6.08377 7.8509L6.01936 7.92739C6.01986 7.92782 6.01972 7.92773 6.01868 7.92706C6.01641 7.92559 6.00983 7.92135 5.99653 7.91386C5.97963 7.90434 5.95672 7.89222 5.92812 7.87769C5.87107 7.84871 5.79429 7.81163 5.7039 7.76918C5.52328 7.68436 5.29069 7.57924 5.05797 7.47673C4.82524 7.3742 4.59305 7.27457 4.41321 7.2007C4.32317 7.16371 4.247 7.13349 4.19073 7.11264C4.16248 7.10217 4.1403 7.09446 4.12438 7.0895C4.12172 7.08867 4.11935 7.08796 4.11726 7.08735C4.11187 7.08937 4.10496 7.09228 4.09672 7.09619C4.07691 7.10557 4.05432 7.11831 4.03446 7.13124C3.9847 7.17389 3.96445 7.21395 3.95965 7.24548C3.95504 7.27579 3.96247 7.31223 3.99665 7.35424C3.99662 7.35419 3.99673 7.35429 3.997 7.35454C3.99851 7.35592 4.00509 7.36197 4.02076 7.37296C4.03823 7.38521 4.06202 7.4002 4.09206 7.41771C4.15204 7.45266 4.23235 7.49501 4.32715 7.54211C4.51645 7.63617 4.75886 7.74686 5.0016 7.85153C5.24437 7.9562 5.48602 8.05423 5.67377 8.12316C5.76789 8.15771 5.84687 8.18436 5.90503 8.2009C5.93433 8.20923 5.95618 8.21436 5.97097 8.21686C5.97251 8.21711 5.97388 8.21733 5.9751 8.21751C6.09314 8.16669 6.11723 8.01177 6.01847 7.92664L6.08377 7.8509ZM6.08377 7.8509C6.24265 7.98787 6.19882 8.24537 5.99611 8.31659L3.91969 7.41808C3.82107 7.29755 3.84298 7.16059 3.97447 7.05101C4.02378 7.01814 4.08952 6.98527 4.11692 6.98527C4.21553 6.98527 5.97967 7.76324 6.08377 7.8509ZM5.98281 8.21836C5.98358 8.21838 5.9834 8.21833 5.98243 8.21834C5.98259 8.21835 5.98272 8.21836 5.98281 8.21836Z" fill="white" stroke="white" stroke-width="0.2"/>
<path id="Vector_5" d="M22.9943 19.7378L22.9943 19.7378L22.9968 19.7399C22.9964 19.7396 22.9962 19.7394 22.9962 19.7394C22.9963 19.7393 23.0018 19.7433 23.0173 19.7522C23.0337 19.7615 23.0561 19.7736 23.0844 19.7881C23.141 19.8171 23.2178 19.8544 23.3095 19.8977C23.4926 19.9841 23.7327 20.0933 23.9842 20.2054C24.374 20.3728 24.6049 20.468 24.751 20.5155C24.9013 20.5645 24.9341 20.5527 24.9477 20.5463L24.9482 20.546C25.0055 20.5193 25.0356 20.478 25.0455 20.438C25.0548 20.4002 25.0484 20.3553 25.0164 20.3117C25.0134 20.3096 25.0091 20.3068 25.0032 20.3031C24.9878 20.2937 24.9659 20.2812 24.9375 20.2658C24.8811 20.2352 24.8033 20.1953 24.7107 20.1493C24.5256 20.0575 24.2844 19.9427 24.0431 19.8309C23.8019 19.7192 23.5614 19.6109 23.3778 19.532C23.2859 19.4925 23.2092 19.4608 23.1541 19.4398C23.1288 19.4302 23.1094 19.4233 23.0958 19.419L23.0911 19.4206C23.0748 19.4265 23.0537 19.4344 23.0317 19.4427C22.9224 19.4847 22.8901 19.6516 22.9943 19.7378ZM24.9905 20.6367C25.1549 20.5599 25.1987 20.3792 25.0891 20.2422L23.9441 20.297C24.7221 20.6312 24.8864 20.686 24.9905 20.6367Z" fill="white" stroke="white" stroke-width="0.2"/>
<path id="Vector_6" d="M24.141 23.7877C24.3163 23.8315 24.4423 23.7439 24.4642 23.5576C24.4807 23.4261 24.3601 23.2782 23.4507 22.3742C22.8809 21.8044 22.3768 21.3387 22.3221 21.3387C22.2727 21.3387 22.1796 21.388 22.1193 21.4483C22.0591 21.5086 22.0098 21.6017 22.0098 21.651C22.0098 21.777 23.9766 23.7439 24.141 23.7877ZM24.141 23.7877L24.1652 23.6907C24.1674 23.6912 24.1696 23.6918 24.1717 23.6923M24.141 23.7877L24.1667 23.6911C24.1718 23.6924 24.1747 23.6938 24.1747 23.6939C24.1747 23.6939 24.1738 23.6934 24.1717 23.6923M24.1717 23.6923C24.1715 23.6921 24.1713 23.692 24.171 23.6918C24.1661 23.6889 24.1586 23.6841 24.1483 23.6767C24.1278 23.6619 24.1003 23.6402 24.0664 23.6118C23.9988 23.5552 23.9099 23.4756 23.8067 23.3798C23.6004 23.1884 23.3401 22.9354 23.0845 22.6795C22.8289 22.4236 22.5789 22.1656 22.3932 21.9641C22.3001 21.8632 22.2242 21.7775 22.1719 21.7138C22.1456 21.6817 22.1266 21.6568 22.1147 21.6392C22.1143 21.6387 22.114 21.6382 22.1136 21.6376C22.1171 21.6276 22.1225 21.6151 22.1301 21.6011C22.1459 21.5716 22.1677 21.5414 22.1901 21.519C22.2124 21.4967 22.2426 21.4749 22.2721 21.459C22.2855 21.4518 22.2976 21.4465 22.3074 21.443C22.324 21.4545 22.3474 21.4726 22.3778 21.4976C22.4396 21.5485 22.524 21.6231 22.6255 21.7164C22.8283 21.9028 23.0957 22.1607 23.38 22.4449L23.3802 22.4451C23.8358 22.8981 24.09 23.1579 24.2285 23.3204C24.3715 23.4882 24.3672 23.5272 24.365 23.5452L24.3649 23.5459L24.3649 23.5459C24.3563 23.6193 24.3293 23.6583 24.3024 23.6773C24.2767 23.6955 24.2351 23.7067 24.1717 23.6923Z" fill="white" stroke="white" stroke-width="0.2"/>
<path id="Vector_7" d="M20.1703 22.2874L20.17 22.2876C20.1445 22.3049 20.1375 22.3165 20.1339 22.3302C20.1285 22.3499 20.1268 22.3885 20.1454 22.4666C20.1826 22.6233 20.2865 22.8825 20.4848 23.3426C20.5994 23.5989 20.7137 23.8425 20.8066 24.0283C20.8532 24.1215 20.8939 24.1992 20.9263 24.2565C20.9426 24.2852 20.9562 24.3077 20.967 24.3241C20.9747 24.3358 20.9793 24.3417 20.981 24.3439C21.0253 24.3772 21.0711 24.3841 21.1095 24.3746C21.1495 24.3647 21.1908 24.3346 21.2176 24.2773L21.2176 24.2773L21.2178 24.2768C21.2243 24.2631 21.2361 24.2304 21.1871 24.0801C21.1395 23.934 21.0444 23.7031 20.8769 23.3133C20.7648 23.0618 20.6557 22.8217 20.5692 22.6378C20.5258 22.5456 20.4885 22.4682 20.4594 22.4107C20.4448 22.3819 20.4327 22.3588 20.4231 22.3416C20.416 22.3289 20.4117 22.3219 20.4096 22.3187C20.3842 22.2941 20.3419 22.2737 20.2925 22.2669C20.2403 22.2597 20.1962 22.2697 20.1703 22.2874Z" fill="white" stroke="white" stroke-width="0.2"/>
</g>
</svg>
