<svg width="26" height="26" viewBox="0 0 26 26" fill="none" xmlns="http://www.w3.org/2000/svg">
<path d="M19.0946 2.56173L12.3672 9.2923L4.6036 1.55211C3.4919 0.443755 1.78306 0.354901 0.784888 1.35355C-0.213289 2.3522 -0.121339 4.0587 0.990368 5.16706L8.75394 12.9073L1.57696 20.0876C0.587037 21.078 0.678987 22.7845 1.79069 23.8929C2.9024 25.0012 4.61123 25.0901 5.60941 24.0914L12.7864 16.9111L20.504 24.6055C21.6157 25.7138 23.3245 25.8027 24.3227 24.804C25.3209 23.8054 25.229 22.0989 24.1172 20.9905L16.3996 13.2961L23.127 6.56555C24.1252 5.5669 24.0332 3.8604 22.9215 2.75204C21.7974 1.65606 20.0927 1.56308 19.0946 2.56173Z" fill="#094C89"/>
</svg>
