<svg width="22" height="26" viewBox="0 0 22 26" fill="none" xmlns="http://www.w3.org/2000/svg">
<g id="Group 300">
<path id="Vector" d="M1.30916 14.8643C1.30916 12.7506 1.3077 10.6376 1.30989 8.52393C1.31062 7.85286 1.68003 7.39352 2.28937 7.28873C2.96309 7.17246 3.59583 7.65764 3.64558 8.33158C3.65289 8.42991 3.64923 8.52824 3.64923 8.62728C3.64923 12.7556 3.64923 16.8839 3.64923 21.0123C3.64923 22.3853 4.60238 23.319 6.00467 23.319C9.1077 23.319 12.21 23.319 15.313 23.319C16.7146 23.319 17.6685 22.3838 17.6685 21.0116C17.6685 16.8473 17.6685 12.6831 17.6685 8.51891C17.6685 7.8744 18.0203 7.4129 18.5953 7.29735C19.2558 7.16385 19.8703 7.57511 19.9829 8.2311C20.0042 8.35383 20.0085 8.48015 20.0085 8.60503C20.01 12.7513 20.0107 16.8976 20.0085 21.0439C20.0078 23.3162 18.4592 25.1428 16.1835 25.5483C15.9158 25.5964 15.6393 25.6129 15.3664 25.6136C12.2268 25.6179 9.08795 25.6186 5.94835 25.6157C3.33981 25.6136 1.31062 23.6255 1.30696 21.0704C1.30404 19.0019 1.30696 16.9328 1.30696 14.8643H1.30916Z" fill="#FCFCFC"/>
<path id="Vector_2" d="M15.3289 3.8241C15.6346 3.8241 15.898 3.8241 16.162 3.8241C17.421 3.8241 18.6799 3.81836 19.9388 3.82626C20.7924 3.832 21.3542 4.54326 21.1224 5.30404C20.9848 5.75477 20.581 6.07775 20.1034 6.11722C20.0397 6.12225 19.9761 6.12153 19.9117 6.12153C13.7444 6.12153 7.57713 6.12153 1.40911 6.12153C0.667362 6.12081 0.140681 5.63563 0.146533 4.96384C0.152385 4.30498 0.673946 3.82841 1.40691 3.82554C2.81213 3.82123 4.21661 3.8241 5.62183 3.8241C5.73009 3.8241 5.83908 3.8241 5.99197 3.8241C5.99197 3.70999 5.99197 3.61597 5.99197 3.52194C5.99197 2.87743 5.98758 2.23292 5.99343 1.5884C6.00001 0.867812 6.47549 0.389093 7.21065 0.387657C9.50976 0.381198 11.8089 0.381198 14.108 0.387657C14.8446 0.38981 15.3215 0.865659 15.3274 1.58625C15.334 2.31833 15.3289 3.05112 15.3289 3.82482V3.8241ZM8.33643 3.80114H12.9793V2.69728H8.33643V3.80114Z" fill="#FCFCFC"/>
<path id="Vector_3" d="M7.15688 14.6929C7.15688 13.3594 7.15176 12.0259 7.15981 10.6924C7.16273 10.1325 7.56359 9.68324 8.121 9.57774C8.6272 9.48228 9.17217 9.75071 9.37772 10.228C9.4538 10.4038 9.49183 10.6084 9.49257 10.8007C9.49988 13.414 9.49988 16.0279 9.49622 18.6411C9.49549 19.3718 8.99441 19.8864 8.31046 19.8792C7.63894 19.872 7.15834 19.3588 7.15688 18.6404C7.15542 17.3248 7.15688 16.0092 7.15688 14.6929Z" fill="#FCFCFC"/>
<path id="Vector_4" d="M14.1653 14.7266C14.1653 16.0602 14.1689 17.3937 14.1631 18.7272C14.1609 19.2691 13.8193 19.6947 13.3006 19.8354C12.801 19.971 12.2546 19.7737 12.0081 19.3237C11.9005 19.127 11.8332 18.8837 11.8325 18.6612C11.8208 16.03 11.8215 13.3981 11.8274 10.767C11.8288 10.0586 12.3423 9.5526 13.0175 9.56265C13.6788 9.57198 14.1638 10.0823 14.1653 10.7799C14.1682 12.0955 14.166 13.4111 14.1653 14.7274V14.7266Z" fill="#FCFCFC"/>
</g>
</svg>
