<svg width="80" height="63" viewBox="0 0 80 63" fill="none" xmlns="http://www.w3.org/2000/svg">
<g filter="url(#filter0_d_461_3043)">
<rect x="10" y="6" width="60" height="43" rx="4" fill="white"/>
<path d="M40.5146 33.1591V32.2195C40.5146 31.5466 40.6538 30.9318 40.9322 30.375C41.2164 29.8124 41.6282 29.3629 42.1676 29.0265C42.7128 28.6842 43.3712 28.5131 44.1426 28.5131C44.9314 28.5131 45.5926 28.6813 46.1262 29.0178C46.6599 29.3542 47.063 29.8037 47.3356 30.3663C47.614 30.9289 47.7532 31.5466 47.7532 32.2195V33.1591C47.7532 33.8319 47.614 34.4496 47.3356 35.0123C47.0572 35.5691 46.6483 36.0186 46.1088 36.3608C45.5752 36.6972 44.9198 36.8654 44.1426 36.8654C43.3596 36.8654 42.6983 36.6972 42.1589 36.3608C41.6195 36.0186 41.2106 35.5691 40.9322 35.0123C40.6538 34.4496 40.5146 33.8319 40.5146 33.1591ZM42.5417 32.2195V33.1591C42.5417 33.6579 42.6606 34.1103 42.8984 34.5163C43.1362 34.9223 43.551 35.1254 44.1426 35.1254C44.7284 35.1254 45.1373 34.9223 45.3693 34.5163C45.6013 34.1103 45.7173 33.6579 45.7173 33.1591V32.2195C45.7173 31.7206 45.6042 31.2682 45.378 30.8622C45.1576 30.4562 44.7458 30.2532 44.1426 30.2532C43.5626 30.2532 43.1507 30.4562 42.9071 30.8622C42.6635 31.2682 42.5417 31.7206 42.5417 32.2195ZM31.5533 22.9624V22.0227C31.5533 21.3499 31.6925 20.7322 31.9709 20.1696C32.2551 19.6069 32.6669 19.1574 33.2063 18.821C33.7515 18.4846 34.4099 18.3164 35.1813 18.3164C35.9701 18.3164 36.6313 18.4846 37.165 18.821C37.6986 19.1574 38.1017 19.6069 38.3743 20.1696C38.6469 20.7322 38.7832 21.3499 38.7832 22.0227V22.9624C38.7832 23.6352 38.644 24.2529 38.3656 24.8155C38.093 25.3723 37.687 25.8219 37.1476 26.1641C36.6139 26.5005 35.9585 26.6687 35.1813 26.6687C34.3925 26.6687 33.7283 26.5005 33.1889 26.1641C32.6553 25.8219 32.2493 25.3723 31.9709 24.8155C31.6925 24.2529 31.5533 23.6352 31.5533 22.9624ZM33.5891 22.0227V22.9624C33.5891 23.4612 33.7051 23.9136 33.9371 24.3196C34.175 24.7256 34.5897 24.9286 35.1813 24.9286C35.7613 24.9286 36.1673 24.7256 36.3993 24.3196C36.6371 23.9136 36.756 23.4612 36.756 22.9624V22.0227C36.756 21.5239 36.6429 21.0715 36.4167 20.6655C36.1905 20.2595 35.7787 20.0565 35.1813 20.0565C34.6013 20.0565 34.1895 20.2595 33.9458 20.6655C33.708 21.0715 33.5891 21.5239 33.5891 22.0227ZM32.3798 36.5L44.6298 18.6818H46.7092L34.4592 36.5H32.3798Z" fill="url(#paint0_linear_461_3043)"/>
</g>
<defs>
<filter id="filter0_d_461_3043" x="0" y="0" width="80" height="63" filterUnits="userSpaceOnUse" color-interpolation-filters="sRGB">
<feFlood flood-opacity="0" result="BackgroundImageFix"/>
<feColorMatrix in="SourceAlpha" type="matrix" values="0 0 0 0 0 0 0 0 0 0 0 0 0 0 0 0 0 0 127 0" result="hardAlpha"/>
<feOffset dy="4"/>
<feGaussianBlur stdDeviation="5"/>
<feComposite in2="hardAlpha" operator="out"/>
<feColorMatrix type="matrix" values="0 0 0 0 0 0 0 0 0 0.507 0 0 0 0 0.975 0 0 0 0.15 0"/>
<feBlend mode="normal" in2="BackgroundImageFix" result="effect1_dropShadow_461_3043"/>
<feBlend mode="normal" in="SourceGraphic" in2="effect1_dropShadow_461_3043" result="shape"/>
</filter>
<linearGradient id="paint0_linear_461_3043" x1="40" y1="12.5" x2="40" y2="42.5" gradientUnits="userSpaceOnUse">
<stop stop-color="#2F4C8F"/>
<stop offset="1" stop-color="#2581BF"/>
</linearGradient>
</defs>
</svg>
