<svg width="80" height="63" viewBox="0 0 80 63" fill="none" xmlns="http://www.w3.org/2000/svg">
<g filter="url(#filter0_d_461_3041)">
<rect x="10" y="6" width="60" height="43" rx="4" fill="url(#paint0_linear_461_3041)"/>
<path d="M39.2125 38.7273V16.4545H40.6394V38.7273H39.2125ZM43.6758 23.3626C43.583 22.5389 43.2002 21.9009 42.5273 21.4485C41.8545 20.9903 41.0077 20.7612 39.9869 20.7612C39.256 20.7612 38.6238 20.8772 38.0902 21.1092C37.5566 21.3354 37.1419 21.6486 36.8461 22.0488C36.556 22.4432 36.411 22.8928 36.411 23.3974C36.411 23.8208 36.5096 24.1862 36.7069 24.4936C36.9099 24.801 37.1738 25.0591 37.4986 25.2679C37.8292 25.4709 38.183 25.642 38.56 25.7812C38.937 25.9147 39.2995 26.0249 39.6476 26.1119L41.3876 26.5643C41.956 26.7035 42.5389 26.892 43.1364 27.1298C43.7338 27.3676 44.2877 27.6808 44.7981 28.0694C45.3085 28.458 45.7203 28.9395 46.0336 29.5137C46.3526 30.0879 46.5121 30.7752 46.5121 31.5756C46.5121 32.5849 46.2511 33.481 45.729 34.264C45.2128 35.0471 44.4617 35.6648 43.4757 36.1172C42.4954 36.5696 41.3093 36.7958 39.9173 36.7958C38.5832 36.7958 37.429 36.5841 36.4545 36.1607C35.4801 35.7373 34.7174 35.137 34.1664 34.3597C33.6154 33.5767 33.3108 32.6487 33.2528 31.5756H35.9499C36.0021 32.2195 36.2109 32.756 36.5763 33.1852C36.9476 33.6086 37.4203 33.9247 37.9945 34.1335C38.5745 34.3365 39.2096 34.438 39.8999 34.438C40.6597 34.438 41.3354 34.3191 41.927 34.0813C42.5244 33.8377 42.9943 33.5013 43.3365 33.0721C43.6787 32.6371 43.8498 32.1296 43.8498 31.5495C43.8498 31.0217 43.699 30.5896 43.3974 30.2532C43.1016 29.9168 42.6984 29.6384 42.188 29.418C41.6834 29.1976 41.1121 29.0033 40.4741 28.835L38.3686 28.2608C36.9418 27.8722 35.8107 27.3009 34.9755 26.5469C34.1461 25.7929 33.7314 24.7952 33.7314 23.554C33.7314 22.5273 34.0098 21.6312 34.5666 20.8656C35.1234 20.1 35.8774 19.5054 36.8287 19.082C37.7799 18.6528 38.8529 18.4382 40.0478 18.4382C41.2542 18.4382 42.3185 18.6499 43.2408 19.0733C44.1688 19.4967 44.8996 20.0797 45.4332 20.8221C45.9669 21.5587 46.2453 22.4055 46.2685 23.3626H43.6758Z" fill="white"/>
</g>
<defs>
<filter id="filter0_d_461_3041" x="0" y="0" width="80" height="63" filterUnits="userSpaceOnUse" color-interpolation-filters="sRGB">
<feFlood flood-opacity="0" result="BackgroundImageFix"/>
<feColorMatrix in="SourceAlpha" type="matrix" values="0 0 0 0 0 0 0 0 0 0 0 0 0 0 0 0 0 0 127 0" result="hardAlpha"/>
<feOffset dy="4"/>
<feGaussianBlur stdDeviation="5"/>
<feComposite in2="hardAlpha" operator="out"/>
<feColorMatrix type="matrix" values="0 0 0 0 0 0 0 0 0 0.507 0 0 0 0 0.975 0 0 0 0.15 0"/>
<feBlend mode="normal" in2="BackgroundImageFix" result="effect1_dropShadow_461_3041"/>
<feBlend mode="normal" in="SourceGraphic" in2="effect1_dropShadow_461_3041" result="shape"/>
</filter>
<linearGradient id="paint0_linear_461_3041" x1="40" y1="6" x2="40" y2="49" gradientUnits="userSpaceOnUse">
<stop stop-color="#2F4C8F"/>
<stop offset="1" stop-color="#2581BF"/>
</linearGradient>
</defs>
</svg>
