<svg width="49" height="47" viewBox="0 0 49 47" fill="none" xmlns="http://www.w3.org/2000/svg">
<rect x="0.249512" y="0.449219" width="48.061" height="46" rx="5" fill="#FFCF23"/>
<path d="M37.8132 13.462C37.7449 14.9258 37.3138 15.8651 36.5171 16.6599C31.6378 21.525 26.705 26.3393 21.9208 31.2954C20.0141 33.2717 17.9481 34.8104 15.3263 35.632C14.3301 35.9438 13.3848 36.4188 12.4154 36.8175C11.9307 37.0169 11.4607 37.0664 11.0536 36.6489C10.6533 36.2381 10.6881 35.7711 10.8889 35.2841C11.7579 33.1834 12.6202 31.08 13.5 28.9833C13.6004 28.7451 13.7678 28.519 13.9525 28.3357C19.6579 22.6236 25.3567 16.9075 31.0835 11.2181C33.0411 9.2726 35.9587 9.57232 37.2562 11.8336C37.5883 12.413 37.7008 13.1168 37.8146 13.462H37.8132ZM29.5249 15.8277C29.304 16.0364 29.0576 16.2558 28.8246 16.4886C27.167 18.1425 25.512 19.7976 23.8557 21.4528C21.4107 23.896 18.9737 26.346 16.5127 28.7732C16.1311 29.1505 16.1204 29.3793 16.5247 29.7299C17.0282 30.1674 17.5089 30.6411 17.9427 31.1469C18.3337 31.6018 18.5854 31.563 19.0005 31.1442C22.897 27.2197 26.8108 23.314 30.734 19.4163C31.1411 19.0122 31.6298 18.6924 32.0462 18.3619C31.0996 17.4106 30.3511 16.6572 29.5263 15.8263L29.5249 15.8277ZM31.2964 14.1029C32.0931 14.9231 32.8456 15.6979 33.6276 16.5034C34.1404 15.9842 34.7202 15.4584 35.2277 14.8723C35.8195 14.1886 35.7753 13.2292 35.1942 12.6137C34.6064 11.9928 33.6249 11.8711 32.946 12.4424C32.3207 12.9683 31.7878 13.6025 31.2964 14.1043V14.1029ZM14.8858 31.2218C14.5404 32.0808 14.2177 32.8837 13.895 33.6865L14.0369 33.823C14.8416 33.4965 15.6464 33.17 16.4698 32.8368C15.9249 32.2802 15.4375 31.7851 14.8845 31.2218H14.8858Z" fill="white"/>
</svg>
