<svg width="27" height="26" viewBox="0 0 27 26" fill="none" xmlns="http://www.w3.org/2000/svg">
<g id="Group">
<path id="Vector" d="M22.5121 0.151234C22.4025 0.19109 22.2232 0.265821 22.1136 0.325607C21.989 0.390375 19.6873 2.66222 16.1052 6.24934L10.296 12.0684L9.9074 14.0115C9.5736 15.7054 9.53374 15.9744 9.57858 16.1339C9.64335 16.3481 9.91238 16.6022 10.1216 16.652C10.2213 16.6719 10.8789 16.5623 12.0597 16.3282C13.0412 16.1339 13.923 15.9545 14.0176 15.9296C14.1571 15.8897 15.3429 14.7289 20.0261 10.0407C26.5875 3.46932 26.0993 4.01735 26.0993 3.2252C26.0943 2.54265 25.9996 2.38322 24.9135 1.29712C24.1812 0.564749 23.952 0.365463 23.7178 0.260839C23.3741 0.101412 22.8161 0.05159 22.5121 0.151234ZM23.8523 2.37326C24.5299 3.05082 24.6395 3.18036 24.6146 3.28C24.5947 3.34477 24.3804 3.59886 24.1313 3.84796L23.6829 4.29635L22.7961 3.40954L21.9143 2.5277L22.3926 2.0544C22.6616 1.79035 22.9107 1.5811 22.9655 1.5811C23.0203 1.5811 23.384 1.89995 23.8523 2.37326ZM21.7399 4.49564L22.6118 5.36751L18.0332 9.94607L13.4547 14.5246L12.3885 14.7339C11.8056 14.8535 11.3124 14.9332 11.2924 14.9182C11.2775 14.8983 11.3572 14.41 11.4718 13.8271L11.681 12.7659L16.2496 8.19236C18.7606 5.68138 20.8282 3.62377 20.8431 3.62377C20.8581 3.62377 21.2616 4.01735 21.7399 4.49564Z" fill="white"/>
<path id="Vector_2" d="M2.83276 4.22195C1.86623 4.42124 1.07905 5.11375 0.755214 6.05537L0.640625 6.38917V14.8837V23.3782L0.755214 23.707C1.03919 24.534 1.6769 25.1717 2.49895 25.4557L2.83276 25.5703H11.3273H19.8218L20.1556 25.4557C20.9677 25.1717 21.5805 24.5689 21.8993 23.7219L22.0139 23.428L22.0288 17.589C22.0388 11.7948 22.0388 11.7449 21.9392 11.5457C21.8246 11.3215 21.5406 11.1471 21.2915 11.1471C21.0424 11.1471 20.7584 11.3215 20.6438 11.5457C20.5442 11.74 20.5442 11.8247 20.5442 17.3897C20.5442 23.7369 20.5691 23.3333 20.1705 23.7269C19.767 24.1305 20.4844 24.1006 11.3273 24.1006C2.17013 24.1006 2.88756 24.1305 2.48401 23.7269C2.08046 23.3234 2.11035 24.0408 2.11035 14.8837C2.11035 5.72655 2.08046 6.44398 2.48401 6.04043C2.87759 5.64186 2.47404 5.66677 8.82126 5.66677C14.3863 5.66677 14.471 5.66677 14.6653 5.56713C14.8895 5.45254 15.0638 5.16856 15.0638 4.91945C15.0638 4.67035 14.8895 4.38636 14.6653 4.27178C14.471 4.17213 14.3913 4.17213 8.75151 4.17712C5.60779 4.1821 2.94236 4.20203 2.83276 4.22195Z" fill="white"/>
</g>
</svg>
