<svg width="49" height="47" viewBox="0 0 49 47" fill="none" xmlns="http://www.w3.org/2000/svg">
<rect x="0.461914" y="0.449219" width="48.061" height="46" rx="5" fill="#5CCFFE"/>
<g clip-path="url(#clip0_101_5220)">
<path d="M33.9508 14.9634H15.0341C13.3483 14.9634 11.9766 16.3333 11.9766 18.0171V28.8818C11.9766 30.5656 13.3483 31.9355 15.0341 31.9355H33.9508C35.6367 31.9355 37.0084 30.5656 37.0084 28.8818V18.0174C37.0087 16.3333 35.637 14.9634 33.9508 14.9634ZM32.4567 16.9556L24.4925 22.0801L16.5282 16.9556H32.4567ZM33.9508 29.9437H15.0341C14.448 29.9437 13.9713 29.4672 13.9713 28.8822V18.0739L23.8771 24.4356C23.8904 24.4439 23.9047 24.4495 23.9183 24.4572C23.9326 24.4651 23.9472 24.4728 23.9619 24.4801C24.0387 24.5196 24.1178 24.5515 24.1986 24.5724C24.2069 24.5747 24.2152 24.5757 24.2235 24.5777C24.3123 24.5986 24.402 24.6116 24.4918 24.6116H24.4925C24.4931 24.6116 24.4938 24.6116 24.4938 24.6116C24.5836 24.6116 24.6733 24.5989 24.7621 24.5777C24.7704 24.5757 24.7787 24.5747 24.787 24.5724C24.8678 24.5515 24.9466 24.5196 25.0237 24.4801C25.0383 24.4728 25.053 24.4651 25.0673 24.4572C25.0809 24.4495 25.0952 24.4439 25.1085 24.4356L35.0143 18.0739V28.8818C35.014 29.4672 34.5369 29.9437 33.9508 29.9437Z" fill="white"/>
</g>
<defs>
<clipPath id="clip0_101_5220">
<rect width="25.0318" height="25" fill="white" transform="translate(11.9766 10.9492)"/>
</clipPath>
</defs>
</svg>
