<svg width="26" height="18" viewBox="0 0 26 18" fill="none" xmlns="http://www.w3.org/2000/svg">
<g id="Group">
<path id="Vector" d="M22.8242 0.177734H3.17584C1.42476 0.177734 0 1.6025 0 3.35358V14.6529C0 16.404 1.42476 17.8288 3.17584 17.8288H22.8242C24.5752 17.8288 26 16.404 26 14.6529V3.35392C26.0003 1.6025 24.5756 0.177734 22.8242 0.177734ZM21.2723 2.24961L13 7.57917L4.72768 2.24961H21.2723ZM22.8242 15.7572H3.17584C2.56706 15.7572 2.07188 15.2617 2.07188 14.6533V3.41263L12.3608 10.0288C12.3746 10.0375 12.3895 10.0433 12.4036 10.0513C12.4185 10.0596 12.4337 10.0675 12.4489 10.0751C12.5286 10.1162 12.6108 10.1493 12.6947 10.1711C12.7034 10.1735 12.712 10.1745 12.7206 10.1766C12.8128 10.1984 12.9061 10.2118 12.9993 10.2118H13C13.0007 10.2118 13.0014 10.2118 13.0014 10.2118C13.0946 10.2118 13.1878 10.1987 13.28 10.1766C13.2887 10.1745 13.2973 10.1735 13.3059 10.1711C13.3899 10.1493 13.4717 10.1162 13.5518 10.0751C13.567 10.0675 13.5822 10.0596 13.597 10.0513C13.6112 10.0433 13.6261 10.0375 13.6399 10.0288L23.9288 3.41263V14.6529C23.9285 15.2617 23.4329 15.7572 22.8242 15.7572Z" fill="#979797"/>
</g>
</svg>
