<svg width="32" height="19" viewBox="0 0 32 19" fill="none" xmlns="http://www.w3.org/2000/svg">
<g id="Group 297">
<path id="Vector" d="M15.9202 18.0314C12.3042 18.0287 9.07306 16.8476 6.11649 14.848C4.02992 13.4373 2.25261 11.7018 0.736558 9.69963C0.598816 9.51777 0.490399 9.37388 0.679684 9.1267C3.3421 5.65381 6.61237 2.96661 10.8237 1.5718C15.7975 -0.0763619 20.4879 0.709319 24.9027 3.39829C27.3154 4.86813 29.3327 6.77407 31.0496 9.00399C31.2451 9.25823 31.2966 9.43744 31.0753 9.72346C28.2654 13.3447 24.8041 16.0636 20.343 17.4019C18.9025 17.8336 17.4256 18.0323 15.9211 18.0323L15.9202 18.0314ZM10.2941 9.35004C10.2807 12.4513 12.7761 14.9752 15.8677 14.9866C19.0029 14.9981 21.5169 12.5113 21.5258 9.39065C21.5338 6.31502 19.042 3.7929 15.9753 3.77524C12.8365 3.7567 10.3083 6.23733 10.295 9.35093L10.2941 9.35004ZM11.284 3.52894C7.89559 4.63684 5.14164 6.64871 2.872 9.34739C4.27253 11.5491 9.52361 15.1756 11.2965 15.1817C7.68764 12.2915 7.4637 6.60193 11.284 3.52894ZM20.5216 15.2232C23.9314 14.125 26.6783 12.1061 28.9799 9.38094C26.6774 6.65842 23.9323 4.63772 20.5243 3.5413C22.2998 5.09148 23.2996 7.00183 23.3058 9.36329C23.312 11.7406 22.307 13.6625 20.5216 15.2223V15.2232Z" fill="url(#paint0_linear_1_1868)"/>
<path id="Vector_2" d="M15.8636 6.75347C17.0813 6.51686 18.4135 7.24662 18.9464 8.40798C19.5262 9.67249 19.1955 11.1493 18.1384 12.0134C17.0483 12.9052 15.5338 12.9364 14.4098 12.0897C13.3579 11.2967 12.9448 9.86489 13.4473 8.65239C14.1 9.12127 14.7917 9.27208 15.4661 8.73993C16.1404 8.20778 16.1769 7.50142 15.8627 6.75347H15.8636Z" fill="url(#paint1_linear_1_1868)"/>
</g>
<defs>
<linearGradient id="paint0_linear_1_1868" x1="15.8991" y1="0.712891" x2="15.8991" y2="18.0323" gradientUnits="userSpaceOnUse">
<stop stop-color="#2F4C8F"/>
<stop offset="1" stop-color="#2581BF"/>
</linearGradient>
<linearGradient id="paint1_linear_1_1868" x1="16.232" y1="6.70898" x2="16.232" y2="12.7041" gradientUnits="userSpaceOnUse">
<stop stop-color="#2F4C8F"/>
<stop offset="1" stop-color="#2581BF"/>
</linearGradient>
</defs>
</svg>
