<svg width="29" height="20" viewBox="0 0 29 20" fill="none" xmlns="http://www.w3.org/2000/svg">
<g id="Group 296">
<path id="Vector" d="M3.06506 13.3088C1.35271 13.1182 0.942247 12.6605 0.941355 11.0386C0.941355 9.83364 0.930647 8.62775 0.944924 7.42274C0.958309 6.30146 1.56776 5.61034 2.6662 5.68515C4.41692 5.80449 6.0088 5.33692 7.61586 4.73308C11.5644 3.2502 15.5396 1.83323 19.5033 0.388653C20.3617 0.0760467 21.1353 0.233686 21.5966 1.15547C22.1758 2.31328 22.6763 3.56014 22.9208 4.82481C23.6258 8.471 23.5553 12.1261 22.5389 15.7233C22.3551 16.3734 22.0687 17.0138 21.7189 17.5927C21.0791 18.6516 20.3742 18.8075 19.2213 18.3818C15.3139 16.9399 11.3966 15.5256 7.48202 14.1033C7.40974 14.0765 7.32408 14.0854 7.13669 14.0676C6.88595 15.4552 6.61915 16.8383 6.38982 18.2277C6.10518 19.9466 5.8464 20.1416 4.10639 19.8451C3.80925 19.7943 3.50943 19.7516 3.21586 19.6848C2.39226 19.4977 2.07549 19.0462 2.21558 18.1965C2.48327 16.5801 2.77506 14.9663 3.06417 13.307L3.06506 13.3088ZM17.865 16.483C16.556 11.72 16.5658 7.09589 17.8686 2.39165C13.8398 3.84603 9.88412 5.27458 5.89459 6.7147C5.89459 8.39084 5.87407 10.0323 5.91868 11.6719C5.92493 11.8972 6.21404 12.2223 6.44782 12.3176C7.66226 12.8128 8.89812 13.2581 10.1322 13.7043C12.6771 14.6252 15.2255 15.5354 17.8659 16.4839L17.865 16.483ZM20.0583 17.4057C20.1841 17.395 20.309 17.3852 20.4348 17.3745C20.7516 16.6335 21.1478 15.9166 21.3718 15.1488C22.0945 12.6711 22.1606 10.1195 22.0035 7.5688C21.8929 5.76442 21.6653 3.96181 20.8292 2.31506C20.6811 2.02383 20.3706 1.81542 20.135 1.56783C19.9021 1.82166 19.5479 2.03808 19.4569 2.33465C19.0696 3.60823 18.7368 4.89963 18.4486 6.19904C18.4066 6.38874 18.6556 6.72005 18.8554 6.87412C20.4884 8.13078 20.467 10.7804 18.8224 12.0308C18.6136 12.1893 18.4057 12.575 18.4512 12.8056C18.6797 13.9527 18.9527 15.0954 19.298 16.2131C19.4328 16.6478 19.7986 17.0102 20.0592 17.4066L20.0583 17.4057ZM4.54541 6.95072C3.93953 6.95072 3.39611 6.96675 2.85269 6.94537C2.3869 6.92667 2.22093 7.12617 2.23432 7.58038C2.25663 8.3472 2.24056 9.11492 2.24056 9.88263C2.24056 11.3189 2.95412 11.9958 4.38123 11.9132C4.42763 11.9106 4.47046 11.8625 4.54452 11.8179V6.95072H4.54541ZM4.40621 13.169C4.08052 15.025 3.78248 16.7279 3.4791 18.4575C4.08855 18.543 4.53292 18.6053 5.00585 18.6721C5.31637 16.914 5.60905 15.2557 5.91511 13.5244C5.39935 13.4023 4.96034 13.299 4.4071 13.1681L4.40621 13.169ZM18.3129 8.13078V10.5871C18.8483 9.83097 18.9063 9.07573 18.3129 8.13078Z" fill="#FCFCFC"/>
<path id="Vector_2" d="M27.3104 1.70312C27.4327 1.81445 27.6915 1.94448 27.7486 2.13418C27.8066 2.32567 27.7405 2.66944 27.5969 2.78611C26.7956 3.44161 25.9711 4.07395 25.11 4.64661C24.9538 4.75082 24.5139 4.61544 24.3426 4.44979C24.223 4.33401 24.2373 3.85396 24.3667 3.74709C25.2037 3.05152 26.0871 2.41206 26.9607 1.76191C27.0187 1.71916 27.1186 1.73341 27.3104 1.70312Z" fill="#FCFCFC"/>
<path id="Vector_3" d="M27.8087 16.3505C27.8221 16.933 27.2742 17.2438 26.8129 16.9303C26.0009 16.3782 25.2076 15.7921 24.4643 15.1527C24.2966 15.0084 24.2555 14.5355 24.3635 14.3146C24.4393 14.1587 24.9622 14.0305 25.1202 14.1365C25.9804 14.7118 26.7942 15.3575 27.6097 15.9961C27.7248 16.086 27.765 16.2704 27.8078 16.3505H27.8087Z" fill="#FCFCFC"/>
<path id="Vector_4" d="M26.9104 10.0182C26.4161 10.0182 25.9093 10.0859 25.4345 9.9906C25.1909 9.94162 25.0053 9.60318 24.793 9.39478C25.0027 9.18816 25.2008 8.81766 25.4229 8.80341C26.4063 8.73929 27.3994 8.73929 28.3827 8.80786C28.5942 8.82211 28.8923 9.19528 28.9351 9.4402C28.9619 9.59517 28.6094 9.94518 28.3872 9.98437C27.9089 10.069 27.4048 10.0102 26.9104 10.0102C26.9104 10.0129 26.9104 10.0155 26.9104 10.0182Z" fill="#FCFCFC"/>
</g>
</svg>
