<svg width="30" height="30" viewBox="0 0 30 30" fill="none" xmlns="http://www.w3.org/2000/svg">
<g id="Group">
<path id="Vector" d="M6.58117 4.467L0.541992 7.96659V14.9714V21.9761L6.58117 25.459C9.90216 27.3735 12.6427 28.9419 12.6762 28.9419C12.7264 28.9419 14.9143 27.6916 17.0688 26.4413L17.3869 26.2572L17.6828 26.7093C18.079 27.3344 18.866 28.1046 19.5191 28.5288C20.133 28.9251 20.6633 29.1595 21.4112 29.3605C21.8856 29.4833 22.0531 29.5 22.8959 29.5C23.7387 29.5 23.9061 29.4833 24.3861 29.3549C25.5303 29.0479 26.4736 28.5121 27.2774 27.7028C29.7723 25.1967 29.7165 21.2226 27.1546 18.7891C26.5462 18.2142 25.9099 17.8179 24.9778 17.4384L24.8215 17.3714V12.683V7.9945L24.615 7.86055C24.2745 7.64287 12.7822 1.01763 12.6985 0.995308C12.6594 0.984144 9.90774 2.54696 6.58117 4.467ZM17.5042 5.67818C20.1163 7.1796 22.2484 8.42428 22.254 8.44102C22.254 8.48009 12.838 13.9165 12.7152 13.95C12.6315 13.9723 3.15413 8.54149 3.12622 8.45218C3.10948 8.39637 12.6092 2.91534 12.6929 2.93209C12.732 2.93767 14.8976 4.17118 17.5042 5.67818ZM8.14957 13.3248L11.8166 15.4402V20.9882V26.5362L11.5264 26.3744C11.3645 26.2851 10.2147 25.6264 8.97005 24.9064C7.72538 24.1864 5.70487 23.0199 4.47695 22.311L2.24435 21.0217L2.2276 15.457L2.21644 9.89779L3.34948 10.5508C3.96903 10.908 6.12907 12.1583 8.14957 13.3248ZM23.147 13.5146V17.0756L22.5219 17.1091C21.0484 17.1872 19.7033 17.7677 18.6149 18.817C18.0177 19.3808 17.6716 19.8496 17.3144 20.5808C16.8567 21.5017 16.7172 22.1045 16.706 23.1762C16.706 23.6506 16.7227 24.1808 16.7451 24.3539L16.7897 24.6664L15.1767 25.593C14.2892 26.1065 13.5469 26.5251 13.5301 26.5251C13.5078 26.5251 13.4966 24.0357 13.5022 20.9882L13.519 15.4514L18.2632 12.7053C20.8754 11.1927 23.041 9.95361 23.0801 9.95361C23.1303 9.94802 23.147 10.6959 23.147 13.5146ZM23.8057 18.8561C26.3118 19.364 27.9415 21.9538 27.3053 24.4097C26.6969 26.7427 24.3917 28.233 22.0754 27.7865C19.9042 27.3679 18.347 25.5036 18.347 23.3157C18.347 20.4412 20.9926 18.2812 23.8057 18.8561Z" fill="white"/>
<path id="Vector_2" d="M22.0312 21.5574V22.4505H21.1382H20.2451V23.2877V24.1249H21.1382H22.0312V25.0459V25.9668H22.8684H23.7056L23.7168 25.057L23.7336 24.1528L24.6433 24.1361L25.5475 24.1249V23.2877V22.4505H24.6266H23.7056V21.5574V20.6644H22.8684H22.0312V21.5574Z" fill="white"/>
</g>
</svg>
