<svg width="17" height="17" viewBox="0 0 17 17" fill="none" xmlns="http://www.w3.org/2000/svg">
<g id="info 1" clip-path="url(#clip0_101_5241)">
<g id="Group">
<path id="Vector" d="M7.53535 0.0349541C5.59207 0.233513 3.8213 1.07007 2.44766 2.44046C-0.813933 5.69554 -0.813933 10.9688 2.44766 14.2239C3.76922 15.5422 5.38049 16.3331 7.30749 16.6066C7.69485 16.6619 8.9741 16.6587 9.37447 16.6033C11.2624 16.3429 12.9193 15.5291 14.2213 14.2206C15.7316 12.7005 16.5747 10.767 16.6561 8.62511C16.7407 6.31075 15.8684 4.09079 14.218 2.44046C12.9388 1.15796 11.3178 0.347441 9.4884 0.0772705C9.09128 0.0186787 7.93572 -0.00736237 7.53535 0.0349541ZM9.53722 1.26537C11.0476 1.5388 12.3333 2.20935 13.3945 3.2705C14.7584 4.63438 15.494 6.4084 15.494 8.33216C15.494 11.0697 13.9674 13.524 11.4968 14.7577C10.5137 15.2492 9.46236 15.4933 8.33284 15.4933C6.41235 15.4933 4.63182 14.7544 3.27119 13.3938C2.19376 12.3164 1.52647 11.0176 1.24653 9.45516C1.16516 8.98968 1.16516 7.67463 1.24653 7.20915C1.52647 5.64672 2.19376 4.34794 3.27119 3.2705C4.43326 2.10844 5.83945 1.42813 7.53535 1.20353C7.93572 1.15145 9.11081 1.18725 9.53722 1.26537Z" fill="black"/>
<path id="Vector_2" d="M8.06329 4.40738C7.69872 4.50829 7.44482 4.80776 7.44482 5.13652C7.44482 5.56294 7.7801 5.88519 8.25534 5.91774C8.78917 5.95029 9.21233 5.61502 9.21233 5.15605C9.20908 4.63198 8.62316 4.24788 8.06329 4.40738Z" fill="black"/>
<path id="Vector_3" d="M8.07599 6.96912C7.84813 7.00818 7.65608 7.11559 7.56168 7.25556L7.48682 7.36949L7.49333 9.57318L7.50309 11.7801L7.61376 11.8941C7.78954 12.0731 8.00763 12.1545 8.33314 12.1577C8.58378 12.1577 8.6326 12.1479 8.82791 12.0503C9.20875 11.8615 9.17946 12.0796 9.17946 9.52761V7.32717L9.07855 7.21325C8.90278 7.01143 8.46009 6.90401 8.07599 6.96912Z" fill="black"/>
</g>
</g>
<defs>
<clipPath id="clip0_101_5241">
<rect width="16.666" height="16.666" fill="white"/>
</clipPath>
</defs>
</svg>
