<svg width="53" height="28" viewBox="0 0 53 28" fill="none" xmlns="http://www.w3.org/2000/svg">
<g id="Isolation_Mode" clip-path="url(#clip0_1_1878)">
<g id="blue">
<path id="frame" d="M39.0653 0.371094H13.9347C6.2388 0.371094 0 6.41525 0 13.8711C0 21.3269 6.2388 27.3711 13.9347 27.3711H39.0653C46.7612 27.3711 53 21.3269 53 13.8711C53 6.41525 46.7612 0.371094 39.0653 0.371094Z" fill="#3CCF95"/>
<path id="circle" d="M39.0659 24.7189C45.2497 24.7189 50.2627 19.8622 50.2627 13.8712C50.2627 7.88014 45.2497 3.02344 39.0659 3.02344C32.8821 3.02344 27.8691 7.88014 27.8691 13.8712C27.8691 19.8622 32.8821 24.7189 39.0659 24.7189Z" fill="white"/>
</g>
</g>
<defs>
<clipPath id="clip0_1_1878">
<rect width="53" height="27" fill="white" transform="translate(0 0.371094)"/>
</clipPath>
</defs>
</svg>
