<svg width="33" height="33" viewBox="0 0 33 33" fill="none" xmlns="http://www.w3.org/2000/svg">
<g id="Layer_1" clip-path="url(#clip0_101_5228)">
<path id="Vector" d="M13.0748 3.83436C14.4283 2.59345 16.2565 2.05045 18.3109 2.8121C20.3845 3.58152 21.559 5.13176 21.819 7.34261C21.8516 7.62292 21.8381 7.90892 21.8381 8.19182C21.8402 10.3514 21.8387 12.5104 21.8418 14.67C21.8454 17.5378 19.5145 19.9196 16.655 19.9683C16.0879 19.9782 15.6895 19.6342 15.6739 19.1222C15.6584 18.6114 16.0381 18.2404 16.601 18.215C18.6056 18.1248 20.0494 16.657 20.0649 14.6539C20.0831 12.3115 20.108 9.96848 20.0618 7.62706C20.0338 6.20221 19.2722 5.16699 17.9955 4.56959C16.7431 3.9841 15.5256 4.15249 14.4309 4.99912C13.5137 5.70791 13.0447 6.65505 13.0463 7.82447C13.0478 9.06849 13.0385 10.313 13.0406 11.5576C13.0411 11.9643 12.8787 12.2705 12.5083 12.4405C11.9169 12.712 11.2855 12.2793 11.2819 11.599C11.2762 10.4369 11.2705 9.27471 11.2881 8.11306C11.2948 7.64001 11.3192 7.15971 11.4074 6.6965C11.6046 5.67268 12.1125 4.80171 13.0748 3.83436Z" fill="white"/>
<path id="Vector_2" d="M20.2606 28.8513C18.7234 30.3968 16.4724 30.8502 14.5104 30.0088C12.4975 29.1456 11.2296 27.1373 11.2607 24.9705C11.2923 22.7565 11.3001 20.5415 11.2617 18.3281C11.2114 15.4509 13.5968 12.9598 16.4781 12.9442C17.0249 12.9411 17.4166 13.2877 17.4332 13.7903C17.4503 14.3007 17.0706 14.6737 16.5092 14.6996C14.6805 14.7831 13.2622 16.0628 13.0593 17.8198C13.0313 18.0644 13.0344 18.3131 13.0344 18.5597C13.0323 20.7835 13.009 23.0068 13.0412 25.2296C13.0624 26.6715 13.8048 27.7197 15.0831 28.3311C16.3609 28.9419 17.6034 28.7622 18.7156 27.8813C19.5986 27.1819 20.0572 26.2555 20.0593 25.1187C20.0619 23.8653 20.0697 22.612 20.0666 21.3581C20.0655 20.9612 20.2206 20.6612 20.5713 20.484C21.1389 20.197 21.8019 20.6063 21.8232 21.2576C21.8393 21.7607 21.8278 22.2643 21.8268 22.7669C21.8247 23.6446 21.8502 24.5249 21.8112 25.4011C21.7526 26.7321 21.2058 27.9 20.2611 28.8497L20.2606 28.8513Z" fill="white"/>
</g>
<defs>
<clipPath id="clip0_101_5228">
<rect width="22.8475" height="22.7786" fill="white" transform="matrix(0.707556 -0.706657 0.707556 0.706657 0.42041 16.4727)"/>
</clipPath>
</defs>
</svg>
