<svg width="49" height="47" viewBox="0 0 49 47" fill="none" xmlns="http://www.w3.org/2000/svg">
<rect x="0.532715" y="0.449219" width="48.061" height="46" rx="5" fill="#0AC078"/>
<g clip-path="url(#clip0_101_5225)">
<path d="M21.0748 10.8344C22.4283 9.59345 24.2565 9.05045 26.3109 9.8121C28.3845 10.5815 29.559 12.1318 29.819 14.3426C29.8516 14.6229 29.8381 14.9089 29.8381 15.1918C29.8402 17.3514 29.8387 19.5104 29.8418 21.67C29.8454 24.5378 27.5145 26.9196 24.655 26.9683C24.0879 26.9782 23.6895 26.6342 23.6739 26.1222C23.6584 25.6114 24.0381 25.2404 24.601 25.215C26.6056 25.1248 28.0494 23.657 28.0649 21.6539C28.0831 19.3115 28.108 16.9685 28.0618 14.6271C28.0338 13.2022 27.2722 12.167 25.9955 11.5696C24.7431 10.9841 23.5256 11.1525 22.4309 11.9991C21.5137 12.7079 21.0447 13.6551 21.0463 14.8245C21.0478 16.0685 21.0385 17.313 21.0406 18.5576C21.0411 18.9643 20.8787 19.2705 20.5083 19.4405C19.9169 19.712 19.2855 19.2793 19.2819 18.599C19.2762 17.4369 19.2705 16.2747 19.2881 15.1131C19.2948 14.64 19.3192 14.1597 19.4074 13.6965C19.6046 12.6727 20.1125 11.8017 21.0748 10.8344Z" fill="white"/>
<path d="M28.2606 35.8513C26.7234 37.3968 24.4724 37.8502 22.5104 37.0088C20.4975 36.1456 19.2296 34.1373 19.2607 31.9705C19.2923 29.7565 19.3001 27.5415 19.2617 25.3281C19.2114 22.4509 21.5968 19.9598 24.4781 19.9442C25.0249 19.9411 25.4166 20.2877 25.4332 20.7903C25.4503 21.3007 25.0706 21.6737 24.5092 21.6996C22.6805 21.7831 21.2622 23.0628 21.0593 24.8198C21.0313 25.0644 21.0344 25.3131 21.0344 25.5597C21.0323 27.7835 21.009 30.0068 21.0412 32.2296C21.0624 33.6715 21.8048 34.7197 23.0831 35.3311C24.3609 35.9419 25.6034 35.7622 26.7156 34.8813C27.5986 34.1819 28.0572 33.2555 28.0593 32.1187C28.0619 30.8653 28.0697 29.612 28.0666 28.3581C28.0655 27.9612 28.2206 27.6612 28.5713 27.484C29.1389 27.197 29.8019 27.6063 29.8232 28.2576C29.8393 28.7607 29.8278 29.2643 29.8268 29.7669C29.8247 30.6446 29.8502 31.5249 29.8112 32.4011C29.7526 33.7321 29.2058 34.9 28.2611 35.8497L28.2606 35.8513Z" fill="white"/>
</g>
<defs>
<clipPath id="clip0_101_5225">
<rect width="22.8475" height="22.7786" fill="white" transform="matrix(0.707556 -0.706657 0.707556 0.706657 8.42041 23.4727)"/>
</clipPath>
</defs>
</svg>
