<svg width="248" height="49" viewBox="0 0 248 49" fill="none" xmlns="http://www.w3.org/2000/svg">
<path d="M27.9901 0.705332C28.1982 0.68568 28.3216 0.664062 28.445 0.664062C30.687 0.664062 32.9289 0.664062 35.1709 0.675854C37.7541 0.689611 40.3353 0.719089 42.9185 0.73088C46.9302 0.750533 50.9437 0.764289 54.9554 0.776081C55.4103 0.776081 55.8633 0.746602 56.3183 0.732846C57.8644 0.683715 59.4008 0.785907 60.9353 0.976535C61.8394 1.08855 62.7281 1.27918 63.6206 1.44623C64.1295 1.54056 64.6307 1.69385 65.1281 1.8432C66.4505 2.24215 67.7479 2.70987 69.0048 3.29748C70.2887 3.89884 71.5128 4.60043 72.6791 5.41011C74.0362 6.35145 75.2642 7.44412 76.3649 8.67633C77.6642 10.1326 78.7611 11.7342 79.6036 13.5029C79.9409 14.2104 80.2686 14.9258 80.5539 15.6568C80.9106 16.5707 81.2036 17.5081 81.4446 18.4632C81.7453 19.6561 81.9882 20.8608 82.1424 22.0812C82.312 23.4156 82.4663 24.7539 82.3737 26.1021C82.2966 27.1987 82.1771 28.2913 81.9535 29.3683C81.78 30.2015 81.5949 31.0348 81.3732 31.8563C81.113 32.8212 80.7776 33.7606 80.3997 34.6882C79.9371 35.828 79.4011 36.9305 78.7746 37.9858C77.2498 40.5524 75.297 42.7201 72.8545 44.422C71.4338 45.4125 69.9108 46.2045 68.2915 46.8176C67.025 47.2971 65.7257 47.6607 64.4071 47.928C63.4394 48.1245 62.4659 48.321 61.4712 48.3741C60.6769 48.4173 59.8866 48.5156 59.0923 48.5726C58.5256 48.6119 57.9569 48.6433 57.3901 48.6433C49.9182 48.6551 42.4443 48.661 34.9724 48.6689C28.2966 48.6767 21.6188 48.6846 14.9431 48.6924C14.4399 48.6924 13.9368 48.6964 13.4317 48.6964C13.3199 48.6964 13.21 48.6767 13.0654 48.663C13.0905 48.5647 13.0963 48.4861 13.129 48.4193C13.8057 47.0751 14.4843 45.7308 15.1609 44.3866C15.7122 43.292 16.2597 42.1934 16.811 41.0988C16.9576 40.8079 17.1156 40.523 17.2795 40.2105C17.4915 40.2026 17.6997 40.1889 17.9079 40.1889C20.0188 40.1889 22.1316 40.1928 24.2425 40.1967C27.5891 40.2026 30.9356 40.2066 34.2822 40.2125C40.9908 40.2223 47.7013 40.2341 54.4098 40.24C55.3679 40.24 56.3279 40.2596 57.2841 40.2066C58.5795 40.1338 59.8731 40.0159 61.1569 39.786C62.0206 39.6307 62.8746 39.4303 63.7247 39.2161C64.7252 38.9645 65.6467 38.5145 66.5199 37.9662C67.6284 37.2685 68.6173 36.4254 69.4694 35.4232C70.4275 34.2951 71.2063 33.059 71.7653 31.6774C72.1972 30.6103 72.5441 29.5157 72.7408 28.3857C72.9625 27.1102 73.0974 25.823 73.0608 24.5201C73.0319 23.4863 72.9393 22.4585 72.8391 21.4307C72.7601 20.6289 72.6309 19.8389 72.4285 19.0587C72.3996 18.9486 72.3803 18.8327 72.3398 18.7265C72.1027 18.0819 71.8868 17.4275 71.613 16.7986C71.0868 15.592 70.3986 14.4856 69.5195 13.501C68.5055 12.3651 67.3007 11.5004 65.9339 10.844C64.6153 10.2092 63.2216 9.85743 61.797 9.58819C60.7695 9.39364 59.7381 9.32682 58.6971 9.32289C53.3534 9.3052 48.0078 9.28751 42.6641 9.27179C42.4559 9.27179 42.2438 9.23838 42.0086 9.33271C42.0318 9.44277 42.0337 9.55872 42.078 9.65501C42.213 9.95176 42.3595 10.2446 42.5098 10.5354C43.3465 12.1469 44.1889 13.7545 45.0256 15.366C45.4535 16.1933 45.868 17.0286 46.294 17.8579C46.6834 18.6145 47.0825 19.3633 47.4738 20.1179C47.9557 21.0475 48.4319 21.979 48.9138 22.9086C49.3726 23.7949 49.8391 24.6773 50.296 25.5636C50.8358 26.6091 51.3698 27.6605 51.9095 28.706C52.5014 29.8537 53.1009 30.9994 53.6946 32.1491C54.1303 32.9922 54.5602 33.8372 54.9939 34.6784C55.2792 35.2306 55.5703 35.7789 55.8537 36.3311C55.9327 36.4864 56.0407 36.6338 56.0696 36.8362C55.9944 36.8617 55.9366 36.8932 55.8768 36.8971C55.7631 36.9069 55.6494 36.905 55.5356 36.905C52.7732 36.905 50.0126 36.905 47.2502 36.905C47.0902 36.905 46.9302 36.8932 46.774 36.8873C46.454 36.4431 46.2497 35.9597 46.0068 35.4979C45.3841 34.3109 44.7672 33.118 44.1523 31.9251C43.4622 30.5887 42.7797 29.2484 42.0877 27.912C41.1469 26.0962 40.1985 24.2862 39.2558 22.4703C38.3208 20.6702 37.3936 18.868 36.4586 17.0698C35.728 15.6608 34.9878 14.2576 34.2572 12.8505C33.7232 11.8207 33.2008 10.7831 32.6668 9.75327C31.7993 8.08282 30.926 6.41827 30.0566 4.74782C29.6498 3.96369 29.2508 3.17563 28.8479 2.3915C28.6686 2.04366 28.4797 1.69778 28.3004 1.34993C28.204 1.16323 28.1173 0.968674 27.9881 0.699437L27.9901 0.705332Z" fill="#1027C3"/>
<path d="M0.157561 48.7106C0.157561 48.6635 0.140211 48.6065 0.159488 48.5691C8.26181 32.694 16.3641 16.8188 24.4722 0.947568C24.4838 0.925951 24.5281 0.923986 24.5918 0.898438C30.6121 12.8156 36.6286 24.7387 42.6201 36.6284C42.5526 36.7856 42.4639 36.7777 42.3868 36.7817C42.2576 36.7895 42.1266 36.7876 41.9974 36.7876C39.3005 36.7876 36.6036 36.7876 33.9086 36.7876C33.7312 36.7876 33.5539 36.7876 33.3592 36.7876C33.2686 36.6539 33.1741 36.5419 33.1086 36.4142C32.0907 34.4352 31.0767 32.4562 30.0627 30.4752C29.3996 29.1801 28.7461 27.8792 28.0829 26.586C27.4853 25.4226 26.8781 24.2631 26.2805 23.0997C25.7426 22.0522 25.2125 21.0028 24.6785 19.9534C24.6496 19.8964 24.611 19.8453 24.5879 19.8079C24.4337 19.7686 24.3913 19.8649 24.3489 19.9514C23.6761 21.2799 23.0072 22.6084 22.3344 23.9369C21.891 24.8114 21.436 25.6801 20.9907 26.5546C20.5628 27.3996 20.1444 28.2506 19.7165 29.0956C19.0418 30.4222 18.3613 31.7467 17.6866 33.0733C16.9752 34.4725 16.2677 35.8737 15.5564 37.273C14.7024 38.9474 13.8426 40.6198 12.9886 42.2942C12.5877 43.0802 12.1983 43.8722 11.7973 44.6603C11.4118 45.4189 11.0243 46.1775 10.6368 46.936C10.3939 47.4116 10.1337 48.3392 9.6922 48.6674C9.31051 48.9622 7.8859 48.7421 7.40975 48.7441C6.38226 48.7519 5.3567 48.7539 4.32921 48.7519C4.07282 48.7519 0.165272 48.7578 0.163344 48.7067L0.157561 48.7106Z" fill="#EF1C23"/>
<path d="M121.127 13.5601C121.055 13.6701 121.011 13.7075 121.005 13.7507C120.992 13.8706 120.99 13.9924 120.988 14.1143C120.98 15.8162 120.969 17.5181 120.965 19.218C120.961 21.024 120.87 22.8262 120.789 24.6302C120.774 24.9761 120.757 25.322 120.739 25.6895C120.626 25.7131 120.531 25.7485 120.435 25.7485C119.025 25.7524 117.614 25.7504 116.205 25.7485C116.138 25.7485 116.072 25.7308 116.018 25.7249C115.885 25.5991 115.933 25.4517 115.941 25.32C116.02 23.8461 116.105 22.3742 116.19 20.9002C116.242 20.0002 116.298 19.0981 116.352 18.198C116.471 16.1719 116.593 14.1438 116.71 12.1176C116.803 10.5061 116.888 8.89461 116.98 7.28115C117.044 6.19044 117.117 5.09777 117.19 4.00707C117.196 3.90684 117.235 3.80858 117.258 3.70639C117.339 3.68674 117.404 3.65726 117.47 3.65726C118.812 3.65333 120.151 3.65136 121.493 3.65333C121.576 3.65333 121.661 3.68084 121.769 3.69853C121.948 4.14464 122.129 4.59467 122.307 5.04275C122.644 5.89566 122.981 6.75054 123.319 7.60541C123.802 8.82976 124.286 10.0541 124.772 11.2784C125.09 12.0842 125.408 12.8899 125.73 13.6937C126.349 15.2364 126.974 16.7791 127.502 18.3572C127.671 18.8662 127.822 19.3831 127.986 19.894C128.016 19.9903 128.065 20.0807 128.124 20.2222C128.203 20.1259 128.275 20.0748 128.298 20.008C128.458 19.5324 128.595 19.047 128.766 18.5754C129.125 17.5809 129.491 16.5905 129.869 15.6039C130.314 14.4385 130.773 13.279 131.232 12.1196C131.569 11.2647 131.918 10.4157 132.256 9.56279C132.747 8.32272 133.233 7.0807 133.725 5.8426C134.006 5.13511 134.293 4.43156 134.586 3.70639C134.71 3.68674 134.823 3.65529 134.939 3.65529C136.177 3.65136 137.414 3.65136 138.654 3.65529C138.771 3.65529 138.887 3.68477 138.985 3.69853C139.113 3.87343 139.093 4.05227 139.103 4.22324C139.18 5.64411 139.251 7.06497 139.332 8.48584C139.469 10.8952 139.612 13.3026 139.753 15.712C139.853 17.4453 139.949 19.1767 140.055 20.9101C140.14 22.2955 140.236 23.681 140.325 25.0665C140.339 25.2709 140.368 25.4792 140.308 25.7072C140.223 25.7229 140.142 25.7504 140.061 25.7504C138.6 25.7524 137.139 25.7504 135.677 25.7504C135.61 25.7504 135.544 25.7327 135.448 25.7209C135.423 25.6207 135.39 25.5264 135.377 25.4301C135.359 25.2925 135.355 25.153 135.35 25.0154C135.219 21.8593 135.113 18.7011 135.143 15.541C135.149 15.0202 135.161 14.4995 135.167 13.9787C135.167 13.8647 135.19 13.735 135.045 13.6348C134.771 14.1123 134.656 14.641 134.453 15.1303C134.243 15.6432 134.058 16.166 133.856 16.6828C133.659 17.182 133.455 17.6792 133.252 18.1764C133.042 18.6893 132.834 19.2023 132.622 19.7152C132.416 20.2104 132.209 20.7057 132.001 21.2009C131.793 21.6961 131.583 22.1894 131.377 22.6847C131.163 23.1956 130.954 23.7085 130.738 24.2195C130.53 24.7128 130.316 25.2061 130.1 25.7092C129.651 25.8055 129.204 25.7426 128.763 25.7544C128.315 25.7661 127.868 25.7622 127.421 25.7544C126.976 25.7465 126.528 25.7897 126.058 25.7209C125.487 24.3866 124.921 23.0463 124.342 21.7119C123.764 20.3775 123.201 19.0352 122.682 17.6753C122.168 16.3232 121.665 14.9672 121.127 13.562V13.5601Z" fill="#0C26B7"/>
<path d="M242.08 17.3046C242.163 16.5381 242.024 15.9053 242.013 15.2666C242.001 14.624 241.938 13.9833 241.914 13.3426C241.891 12.7 241.887 12.0593 241.878 11.4167C241.868 10.7918 241.86 10.1668 241.853 9.54188C241.843 8.89924 241.832 8.25661 241.824 7.61595C241.816 6.97331 241.812 6.33068 241.81 5.68805C241.808 5.04738 241.81 4.40672 241.81 3.78767C241.966 3.61276 242.15 3.65403 242.315 3.65403C243.14 3.6501 243.966 3.65207 244.791 3.65207C245.34 3.65207 245.891 3.65207 246.441 3.65207C246.61 3.65207 246.782 3.66386 246.971 3.67172C246.998 3.78963 247.031 3.88593 247.038 3.98419C247.05 4.12176 247.042 4.26129 247.042 4.40082C247.042 11.2772 247.042 18.1516 247.042 25.0279C247.042 25.25 247.065 25.474 247.021 25.6431C246.969 25.7 246.959 25.7177 246.946 25.7256C246.932 25.7335 246.913 25.7374 246.896 25.7374C245.589 25.7433 244.284 25.7492 242.977 25.7551C242.84 25.7551 242.703 25.7551 242.539 25.7551C241.805 24.6388 241.072 23.5285 240.341 22.4161C239.601 21.2881 238.865 20.1581 238.126 19.03C237.398 17.9157 236.655 16.8093 235.938 15.6891C235.223 14.5748 234.57 13.4193 233.866 12.3089C233.696 12.3718 233.725 12.472 233.729 12.5487C233.781 13.38 233.847 14.2113 233.891 15.0426C233.934 15.8916 233.97 16.7425 233.982 17.5915C234.018 20.1954 234.04 22.7994 234.067 25.4033C234.067 25.4878 234.049 25.5743 234.038 25.6843C233.939 25.7079 233.845 25.7492 233.748 25.7492C232.2 25.7531 230.654 25.7531 229.106 25.7492C229.025 25.7492 228.943 25.7276 228.864 25.7158C228.84 25.6411 228.813 25.5939 228.813 25.5468C228.81 18.3422 228.81 11.1357 228.81 3.93113C228.81 3.86431 228.833 3.79946 228.848 3.71299C228.939 3.69334 229.02 3.66582 229.101 3.65993C229.671 3.61669 232.787 3.65207 233.153 3.70709C233.361 4.01367 233.585 4.3399 233.804 4.67006C234.556 5.79024 235.306 6.91239 236.054 8.03454C237.012 9.47309 237.963 10.9195 238.928 12.3541C239.944 13.8615 240.881 15.416 241.824 16.9685C241.876 17.053 241.943 17.1277 242.08 17.3065V17.3046Z" fill="#0C26B7"/>
<path d="M172.571 15.5173C172.614 15.5546 172.658 15.6097 172.714 15.645C173.589 16.2051 174.245 16.9794 174.811 17.8382C175.461 18.8228 175.982 19.8801 176.454 20.961C177.09 22.4212 177.711 23.8892 178.335 25.3553C178.38 25.4614 178.397 25.5773 178.426 25.6933C177.988 25.7699 173.3 25.7739 172.797 25.6972C172.589 25.2315 172.365 24.746 172.153 24.2547C171.449 22.6354 170.761 21.0082 170.044 19.3947C169.749 18.7305 169.412 18.0819 168.965 17.5041C168.795 17.286 168.616 17.0738 168.411 16.891C167.873 16.4075 167.23 16.2995 166.541 16.3918C166.403 16.549 166.449 16.7318 166.449 16.8989C166.445 17.9581 166.447 19.0174 166.447 20.0766C166.447 21.7608 166.447 23.4451 166.447 25.1293C166.447 25.316 166.433 25.5027 166.426 25.7031C166.331 25.7228 166.266 25.7483 166.202 25.7483C164.552 25.7503 162.904 25.7483 161.23 25.7483C161.2 25.6324 161.163 25.54 161.153 25.4437C161.14 25.3061 161.149 25.1666 161.149 25.0271C161.149 18.1507 161.149 11.2744 161.149 4.39799C161.149 4.17592 161.121 3.94796 161.186 3.7534C161.334 3.606 161.494 3.63745 161.645 3.63548C162.487 3.62173 163.33 3.60797 164.172 3.60404C165.581 3.59618 166.992 3.60404 168.402 3.59028C169.527 3.58046 170.632 3.73571 171.713 4.03246C172.594 4.27418 173.423 4.64758 174.156 5.22536C175.181 6.03307 175.787 7.0943 176.034 8.36187C176.207 9.25213 176.217 10.1561 176.08 11.0582C175.874 12.4044 175.239 13.5029 174.212 14.3735C173.803 14.7214 173.358 15.0142 172.876 15.252C172.76 15.309 172.602 15.3306 172.571 15.5232V15.5173ZM166.503 7.10609C166.422 7.56792 166.393 10.5452 166.447 12.6284C166.451 12.7463 166.474 12.8623 166.485 12.9586C166.541 12.9939 166.57 13.0234 166.599 13.0254C166.786 13.0391 166.975 13.0509 167.162 13.0529C167.694 13.0568 168.222 13.0588 168.745 12.9094C169.738 12.6264 170.31 11.9641 170.532 10.9678C170.678 10.3134 170.646 9.65696 170.507 9.00844C170.414 8.58002 170.214 8.19679 169.915 7.87253C169.514 7.43625 169.013 7.17487 168.432 7.11591C167.887 7.06089 167.337 7.06089 166.788 7.04713C166.69 7.04517 166.591 7.08644 166.503 7.10805V7.10609Z" fill="#0C26B7"/>
<path d="M98.3857 25.7485C96.7124 25.7485 95.0796 25.7485 93.4468 25.7485C93.3832 25.7485 93.3196 25.7229 93.229 25.7052C93.2521 25.5873 93.2599 25.4851 93.2926 25.3928C93.576 24.6302 93.8671 23.8697 94.1524 23.1072C94.7539 21.5016 95.3553 19.896 95.9587 18.2904C96.2691 17.463 96.5833 16.6376 96.8937 15.8103C97.4199 14.4169 97.9423 13.0216 98.4706 11.6282C98.9428 10.3803 99.4209 9.13633 99.8894 7.88644C100.335 6.70337 100.768 5.5144 101.21 4.32937C101.289 4.11909 101.38 3.91667 101.468 3.70246C101.59 3.6828 101.688 3.65529 101.788 3.65529C103.147 3.65136 104.504 3.65136 105.863 3.65529C105.966 3.65529 106.066 3.67691 106.203 3.69263C106.766 5.13708 107.269 6.611 107.81 8.06921C108.352 9.53134 108.875 11.0013 109.407 12.4654C109.945 13.9472 110.484 15.429 111.022 16.9108C111.554 18.3769 112.092 19.839 112.614 21.309C113.135 22.7731 113.69 24.2234 114.193 25.7072C113.754 25.7661 109.557 25.7799 108.902 25.7288C108.568 24.8936 108.35 24.0033 108.075 23.1347C107.795 22.2621 107.554 21.3758 107.273 20.5485C107.063 20.3873 106.866 20.4345 106.683 20.4345C105.274 20.4305 103.862 20.4325 102.453 20.4325C101.887 20.4325 101.318 20.4325 100.751 20.4325C100.632 20.4325 100.51 20.4384 100.391 20.4325C100.188 20.4266 100.073 20.5229 100.013 20.7135C99.8489 21.2441 99.6773 21.7708 99.5115 22.2995C99.1935 23.3076 98.8773 24.3158 98.5592 25.324C98.5187 25.4537 98.459 25.5795 98.3896 25.7524L98.3857 25.7485ZM105.977 16.4568C105.981 16.3782 105.998 16.3232 105.985 16.276C105.27 14.014 104.551 11.754 103.83 9.49597C103.81 9.43308 103.76 9.38002 103.722 9.32499C103.714 9.31517 103.693 9.31517 103.67 9.30731C103.641 9.34465 103.596 9.38002 103.581 9.42719C102.848 11.7363 102.12 14.0475 101.393 16.3586C101.385 16.3861 101.41 16.4234 101.42 16.4549C101.815 16.5276 105.457 16.5354 105.977 16.4568Z" fill="#0C26B7"/>
<path d="M226.835 25.7504C225.017 25.7544 223.284 25.7504 221.524 25.7504C221.476 25.6286 221.428 25.5225 221.393 25.4124C220.961 24.0033 220.543 22.5923 220.1 21.1872C219.828 20.3264 219.967 20.4286 219.09 20.4266C217.181 20.4227 215.273 20.4246 213.364 20.4266C213.16 20.4266 212.952 20.3991 212.716 20.4915C212.385 21.3267 212.173 22.2209 211.872 23.0856C211.571 23.9522 211.354 24.8445 211.014 25.7327C210.444 25.7701 209.879 25.7465 209.316 25.7504C208.732 25.7544 208.148 25.7504 207.562 25.7504C206.976 25.7504 206.43 25.7504 205.829 25.7504C205.85 25.6266 205.85 25.5421 205.879 25.4694C206.176 24.6735 206.476 23.8795 206.775 23.0856C207.263 21.7885 207.747 20.4895 208.236 19.1944C208.701 17.9622 209.169 16.732 209.632 15.4998C210.235 13.8942 210.835 12.2886 211.436 10.683C211.862 9.54707 212.29 8.41313 212.716 7.27919C213.094 6.27495 213.472 5.26875 213.85 4.26451C213.917 4.08568 213.995 3.91274 214.076 3.71228C214.185 3.69263 214.301 3.65529 214.415 3.65529C215.772 3.65136 217.131 3.65136 218.488 3.65529C218.59 3.65529 218.691 3.67691 218.825 3.69067C220.167 7.346 221.484 11.0092 222.818 14.6685C224.152 18.3277 225.47 21.9909 226.833 25.7524L226.835 25.7504ZM218.615 16.4529C218.588 16.3016 218.583 16.1797 218.546 16.0677C218.369 15.5253 218.18 14.9849 218.004 14.4425C217.665 13.3891 217.33 12.3318 216.994 11.2765C216.805 10.683 216.624 10.0875 216.437 9.49401C216.41 9.4095 216.375 9.32893 216.233 9.36823C216.204 9.44684 216.163 9.54117 216.134 9.63747C215.905 10.3823 215.681 11.1291 215.448 11.8719C215.138 12.8624 214.822 13.8509 214.502 14.8394C214.357 15.2836 214.197 15.7238 214.052 16.1679C214.023 16.2583 214.029 16.3625 214.02 16.4568C214.473 16.5315 218.112 16.5335 218.617 16.4549L218.615 16.4529Z" fill="#0C26B7"/>
<path d="M144.172 3.71433C144.667 3.6259 155.731 3.5807 157.618 3.65341C157.734 3.65734 157.849 3.68485 157.986 3.70254C158.007 3.84011 158.036 3.95606 158.042 4.07397C158.094 5.24328 158.061 7.05327 157.978 7.47579C157.894 7.49544 157.797 7.53082 157.699 7.53671C157.527 7.54851 157.356 7.54261 157.184 7.54261C154.828 7.54261 152.475 7.54261 150.119 7.54457C149.901 7.54457 149.67 7.48955 149.473 7.63301C149.404 8.07322 149.406 11.8877 149.473 12.3142C149.639 12.438 149.834 12.4007 150.019 12.4007C150.963 12.4046 151.91 12.4026 152.854 12.4026C153.886 12.4026 154.917 12.4007 155.948 12.4046C156.134 12.4046 156.326 12.3673 156.506 12.4793C156.515 12.5284 156.54 12.5795 156.534 12.6247C156.384 13.7921 156.182 14.9515 155.977 16.113C155.765 16.2211 155.557 16.1877 155.357 16.1877C153.637 16.1896 151.919 16.1877 150.2 16.1877C150.046 16.1877 149.89 16.1857 149.735 16.1936C149.652 16.1995 149.571 16.227 149.471 16.2486C149.454 16.3606 149.425 16.4589 149.425 16.5591C149.423 18.1903 149.423 19.8234 149.425 21.4545C149.425 21.5547 149.442 21.6569 149.454 21.7847C149.585 21.8024 149.701 21.8299 149.814 21.8318C150.398 21.8358 150.983 21.8338 151.569 21.8338C153.666 21.8338 155.763 21.8338 157.861 21.8338H158.443C158.468 21.9458 158.501 22.0264 158.501 22.107C158.505 23.235 158.503 24.3631 158.501 25.4911C158.501 25.556 158.48 25.6228 158.47 25.6876C158.404 25.7092 158.358 25.7407 158.31 25.7407C153.668 25.7446 149.028 25.7466 144.386 25.7466C144.32 25.7466 144.257 25.721 144.195 25.7092C144.172 25.6464 144.137 25.5972 144.137 25.5501C144.133 18.3455 144.131 11.1429 144.131 3.93837C144.131 3.87155 144.156 3.80473 144.174 3.71433H144.172Z" fill="#0C26B7"/>
<path d="M205.268 6.01451C204.984 6.38987 202.887 8.53984 202.432 8.92109C202.34 8.83659 202.235 8.75405 202.149 8.65579C201.622 8.06622 201.019 7.57884 200.267 7.33122C198.985 6.90869 197.786 7.04822 196.747 7.97975C196.25 8.42585 195.934 9.0056 195.683 9.62072C195.298 10.5601 195.138 11.5525 195.026 12.5548C194.925 13.4529 194.914 14.355 194.929 15.259C194.949 16.3202 195.064 17.3716 195.288 18.4092C195.434 19.0892 195.675 19.7397 196.034 20.3411C196.672 21.4062 197.588 22.0214 198.821 22.1589C199.722 22.2591 200.605 22.1668 201.482 21.9703C202.068 21.8386 202.648 21.6814 203.209 21.4593C203.334 21.4102 203.469 21.3885 203.595 21.3571C203.853 21.87 204.663 24.4091 204.722 24.9044C204.371 25.1009 203.98 25.2168 203.589 25.3308C202.528 25.6393 201.447 25.8241 200.346 25.9066C198.796 26.0226 197.252 26.0049 195.733 25.6374C194.428 25.321 193.241 24.7629 192.23 23.851C191.303 23.0118 190.65 21.986 190.177 20.8324C189.802 19.9127 189.559 18.9517 189.429 17.971C189.321 17.1653 189.283 16.3458 189.252 15.5321C189.21 14.4552 189.254 13.3782 189.404 12.3111C189.499 11.6429 189.638 10.9767 189.819 10.3262C190.147 9.15103 190.627 8.04067 191.33 7.03643C192.354 5.57823 193.692 4.53862 195.367 3.94315C197.162 3.30445 199.003 3.2337 200.861 3.50491C202.461 3.73877 203.824 4.46591 204.948 5.64308C205.054 5.7551 205.148 5.87694 205.268 6.01648V6.01451Z" fill="#0C26B7"/>
<path d="M180.596 3.70818C181.086 3.62171 183.224 3.59616 185.371 3.64726C185.506 3.65119 185.639 3.6728 185.793 3.68853C185.811 3.80841 185.834 3.90667 185.84 4.00493C185.847 4.12677 185.842 4.24862 185.842 4.3685C185.842 11.2566 185.842 18.1448 185.842 25.0329C185.842 25.2393 185.842 25.4456 185.842 25.6756C185.722 25.7031 185.626 25.7424 185.531 25.7424C183.968 25.7463 182.404 25.7444 180.841 25.7424C180.774 25.7424 180.706 25.7267 180.614 25.7168C180.59 25.6206 180.556 25.5262 180.548 25.428C180.536 25.2904 180.544 25.1509 180.544 25.0113C180.544 18.1409 180.544 11.2704 180.544 4.39994C180.544 4.17787 180.513 3.9499 180.596 3.70621V3.70818Z" fill="#0C26B7"/>
<path d="M93.3419 47.2059C93.3322 47.1508 93.311 47.084 93.311 47.0172C93.311 41.5617 93.311 36.1062 93.311 30.6822C93.4421 30.523 93.5886 30.5564 93.7197 30.5544C95.0441 30.5387 96.3684 30.5328 97.6928 30.5092C98.3984 30.4974 99.102 30.5033 99.8075 30.5466C100.906 30.6153 101.945 30.9062 102.919 31.4073C104.22 32.0775 105.159 33.1132 105.787 34.4397C106.161 35.2297 106.414 36.061 106.541 36.9218C106.692 37.9358 106.74 38.9617 106.67 39.9876C106.609 40.8916 106.472 41.7798 106.183 42.6426C105.616 44.3268 104.61 45.6278 103.01 46.4355C102.2 46.8443 101.348 47.086 100.455 47.2098C99.6688 47.3198 98.8803 47.3375 98.0861 47.3277C96.6923 47.3081 95.2985 47.3041 93.9048 47.2904C93.7197 47.2904 93.525 47.3375 93.34 47.2019L93.3419 47.2059ZM97.3342 44.427C97.4152 44.4545 97.4943 44.5037 97.5733 44.5037C98.088 44.5037 98.6027 44.5037 99.1174 44.4801C99.3545 44.4703 99.5994 44.4349 99.8268 44.3661C100.814 44.0713 101.479 43.4189 101.878 42.4638C102.238 41.599 102.333 40.6852 102.385 39.7674C102.445 38.7416 102.375 37.7197 102.19 36.7095C102.057 35.9883 101.826 35.2965 101.4 34.6912C100.924 34.0132 100.291 33.573 99.4702 33.4119C98.8032 33.2802 98.1362 33.3215 97.4673 33.3569C97.4229 33.3588 97.3805 33.404 97.3304 33.4335C97.3188 33.5023 97.2957 33.5691 97.2957 33.6359C97.2957 37.1596 97.2957 40.6832 97.2957 44.2089C97.2957 44.2757 97.3188 44.3445 97.3342 44.4251V44.427Z" fill="#0C26B7"/>
<path d="M220.195 39.0141C220.204 39.6763 220.158 40.5941 219.95 41.4981C219.734 42.4336 219.439 43.3356 218.938 44.161C218.369 45.0965 217.631 45.8491 216.688 46.4092C215.84 46.9123 214.92 47.1698 213.962 47.3191C212.651 47.5235 211.352 47.4449 210.066 47.1344C208.455 46.7453 207.177 45.8708 206.315 44.4204C205.877 43.6835 205.584 42.8856 205.418 42.0445C205.206 40.9675 205.087 39.8788 205.131 38.7802C205.183 37.4733 205.351 36.1802 205.816 34.95C206.311 33.6411 207.069 32.5209 208.214 31.6955C208.967 31.1531 209.798 30.7837 210.699 30.5852C211.491 30.4103 212.295 30.3199 213.108 30.3552C214.232 30.4024 215.331 30.5577 216.372 31.0332C217.457 31.5285 218.304 32.2831 218.936 33.2952C219.553 34.2837 219.859 35.3823 220.056 36.5202C220.185 37.2611 220.191 38.0079 220.195 39.016V39.0141ZM215.919 38.9885C215.9 38.5719 215.877 38.1395 215.857 37.7052C215.823 36.9191 215.69 36.1527 215.437 35.4098C215.227 34.7908 214.909 34.2366 214.404 33.8199C213.818 33.3365 213.12 33.1812 212.376 33.2088C211.524 33.2402 210.862 33.6136 210.386 34.327C210.057 34.8222 209.837 35.3705 209.719 35.9522C209.338 37.8271 209.316 39.7058 209.677 41.5905C209.773 42.0916 209.941 42.5613 210.165 43.0113C210.467 43.6206 210.93 44.0824 211.56 44.3438C212.027 44.5383 212.522 44.5914 213.025 44.5698C213.945 44.5305 214.608 44.0844 215.086 43.3042C215.371 42.8384 215.522 42.3255 215.653 41.8047C215.882 40.8869 215.873 39.9456 215.919 38.9924V38.9885Z" fill="#0C26B7"/>
<path d="M171.724 38.5358C171.938 38.6301 172.057 38.693 172.183 38.7362C172.72 38.9269 173.227 39.1725 173.696 39.5105C174.922 40.391 175.4 41.6015 175.263 43.0833C175.221 43.5314 175.142 43.9755 174.96 44.3961C174.571 45.2981 173.916 45.9309 173.06 46.3692C172.028 46.8978 170.92 47.1494 169.779 47.1907C168.265 47.2437 166.75 47.228 165.237 47.2378C164.859 47.2398 164.479 47.2319 164.101 47.226C163.93 47.2241 163.76 47.2162 163.567 47.2103C163.539 47.0983 163.502 47.004 163.492 46.9057C163.479 46.7858 163.488 46.662 163.488 46.5402C163.488 41.4306 163.488 36.319 163.49 31.2094C163.49 31.007 163.44 30.7927 163.571 30.5844C163.666 30.5746 163.766 30.5549 163.866 30.5549C165.536 30.5392 167.205 30.5196 168.875 30.5156C169.983 30.5137 171.07 30.6571 172.113 31.0679C172.948 31.398 173.677 31.8717 174.186 32.6342C174.556 33.1923 174.777 33.8054 174.804 34.4854C174.827 35.0809 174.787 35.6626 174.534 36.2168C174.199 36.9557 173.657 37.4981 172.979 37.9069C172.715 38.0661 172.425 38.184 172.148 38.3196C172.042 38.3727 171.934 38.4257 171.726 38.5299L171.724 38.5358ZM167.531 40.1355C167.506 40.275 167.477 40.3595 167.477 40.442C167.475 41.7253 167.473 43.0106 167.479 44.2939C167.479 44.3902 167.529 44.4865 167.556 44.5848C167.986 44.6653 168.398 44.6103 168.807 44.628C169.21 44.6457 169.597 44.5553 169.966 44.4158C170.417 44.2448 170.748 43.9244 170.914 43.4508C171.169 42.7296 171.136 42.0103 170.843 41.3166C170.642 40.841 170.29 40.4912 169.798 40.2947C169.069 40.0018 168.327 40.0156 167.531 40.1335V40.1355ZM167.525 37.5394C168.03 37.5925 168.493 37.5787 168.954 37.5453C169.707 37.4903 170.274 37.0166 170.49 36.2875C170.642 35.7766 170.648 35.2597 170.563 34.7409C170.511 34.4147 170.411 34.1022 170.201 33.833C169.831 33.3593 169.318 33.1884 168.755 33.1451C168.431 33.1196 168.102 33.1373 167.776 33.1451C167.697 33.1451 167.618 33.1864 167.535 33.208C167.512 33.2965 167.481 33.3613 167.481 33.4262C167.477 34.6937 167.475 35.9613 167.475 37.2269C167.475 37.3095 167.5 37.394 167.523 37.5374L167.525 37.5394Z" fill="#0C26B7"/>
<path d="M235.761 47.1908C235.649 47.2124 235.568 47.236 235.487 47.2419C234.713 47.2851 231.933 47.2517 231.532 47.1947C231.401 46.9196 231.25 46.6267 231.121 46.328C230.703 45.3572 230.302 44.3785 229.876 43.4097C229.604 42.7906 229.319 42.1775 229.01 41.5761C228.821 41.2066 228.58 40.8647 228.266 40.5837C227.855 40.2181 227.379 40.0845 226.818 40.1533C226.791 40.2692 226.753 40.3655 226.749 40.4638C226.739 40.7075 226.743 40.9511 226.743 41.1929C226.743 43.0009 226.743 44.8089 226.743 46.6169C226.743 46.8056 226.774 46.9982 226.678 47.1908C226.612 47.2085 226.548 47.2379 226.483 47.2379C225.33 47.2399 224.175 47.2399 223.023 47.2379C222.957 47.2379 222.893 47.2104 222.803 47.1888C222.789 47.0807 222.772 46.9825 222.766 46.8822C222.76 46.7781 222.764 46.6739 222.764 46.5698C222.764 41.4582 222.764 36.3466 222.764 31.235C222.764 31.0306 222.741 30.8204 222.813 30.5924C222.917 30.5786 223.015 30.557 223.113 30.557C224.696 30.5393 226.281 30.5177 227.863 30.5118C228.551 30.5099 229.24 30.5354 229.92 30.6592C230.67 30.7948 231.391 31.0228 232.056 31.4021C232.796 31.8266 233.357 32.426 233.695 33.2199C233.928 33.7663 234.044 34.346 234.076 34.9415C234.115 35.643 234.026 36.3309 233.781 36.9912C233.521 37.6928 233.074 38.2607 232.494 38.7167C232.237 38.9191 231.948 39.0763 231.672 39.2551C231.572 39.32 231.472 39.3809 231.347 39.4595C231.42 39.5401 231.466 39.6148 231.534 39.66C232.338 40.2122 232.897 40.9806 233.375 41.8119C234.017 42.9262 234.506 44.1132 235.011 45.2924C235.229 45.8033 235.439 46.3162 235.649 46.8292C235.694 46.9373 235.717 47.0532 235.759 47.1927L235.761 47.1908ZM226.803 33.1413C226.776 33.2592 226.755 33.3083 226.753 33.3594C226.749 34.6958 226.749 36.0302 226.753 37.3666C226.753 37.4471 226.793 37.5257 226.822 37.6299C227.37 37.6672 227.896 37.6849 228.42 37.565C229.17 37.3921 229.604 36.891 229.803 36.1737C229.949 35.6489 229.936 35.1046 229.797 34.5779C229.639 33.9785 229.294 33.5226 228.696 33.2946C228.085 33.0627 227.46 33.0823 226.805 33.1413H226.803Z" fill="#0C26B7"/>
<path d="M141.743 30.5923C141.907 30.5766 142.005 30.5589 142.106 30.5589C143.708 30.5432 145.308 30.5196 146.91 30.5157C147.737 30.5137 148.562 30.555 149.369 30.7633C149.955 30.9146 150.528 31.1053 151.048 31.4197C151.906 31.9385 152.521 32.6598 152.808 33.6463C153.098 34.6368 153.121 35.6332 152.862 36.6315C152.637 37.506 152.128 38.1939 151.43 38.7422C151.228 38.9013 151 39.0311 150.782 39.1686C150.638 39.261 150.491 39.3455 150.316 39.4497C150.385 39.5342 150.426 39.6108 150.489 39.656C151.313 40.2377 151.889 41.0277 152.379 41.8983C152.984 42.9733 153.47 44.1033 153.94 45.2412C154.152 45.7541 154.376 46.2631 154.59 46.7741C154.642 46.8979 154.678 47.0276 154.73 47.1809C154.638 47.2084 154.576 47.2359 154.515 47.2418C154.061 47.2791 150.854 47.2477 150.509 47.2025C150.462 47.116 150.403 47.0138 150.354 46.9058C149.948 45.9664 149.551 45.0231 149.136 44.0876C148.778 43.2799 148.409 42.4761 148.026 41.6802C147.829 41.2734 147.569 40.9059 147.235 40.5954C146.827 40.2181 146.351 40.0903 145.784 40.1591C145.755 40.2613 145.712 40.3537 145.705 40.4519C145.691 40.6249 145.695 40.7998 145.695 40.9727C145.695 42.8338 145.695 44.6949 145.695 46.554C145.695 46.7584 145.722 46.9686 145.63 47.1907C145.55 47.2084 145.47 47.2418 145.389 47.2418C144.269 47.2457 143.15 47.2457 142.03 47.2418C141.963 47.2418 141.895 47.2202 141.805 47.2064C141.78 47.1121 141.739 47.0178 141.734 46.9195C141.72 46.7466 141.726 46.5717 141.726 46.3987C141.726 41.3913 141.726 36.3819 141.726 31.3745C141.726 31.1328 141.735 30.8911 141.743 30.5923ZM145.757 37.6279C146.416 37.679 147.044 37.6986 147.659 37.4844C147.74 37.4569 147.819 37.4176 147.891 37.3724C148.415 37.0383 148.722 36.5627 148.808 35.9397C148.859 35.5762 148.853 35.2146 148.808 34.851C148.704 34.0138 148.228 33.4596 147.428 33.2199C146.973 33.0843 146.511 33.1098 146.048 33.1118C145.951 33.1118 145.855 33.1491 145.749 33.1727C145.73 33.3142 145.703 33.4321 145.703 33.55C145.699 34.7645 145.699 35.979 145.703 37.1936C145.703 37.3272 145.737 37.4608 145.759 37.6279H145.757Z" fill="#0C26B7"/>
<path d="M187.257 30.6116C187.818 30.5565 190.646 30.5644 191.092 30.6214C191.111 30.7059 191.144 30.8022 191.149 30.9005C191.161 31.0557 191.155 31.2129 191.155 31.3702C191.155 34.4654 191.151 37.5606 191.157 40.6559C191.157 41.4793 191.068 42.2851 190.841 43.0771C190.33 44.8635 189.237 46.1291 187.523 46.811C186.07 47.3888 184.557 47.5362 183.007 47.3554C182.251 47.2669 181.511 47.1235 180.807 46.8149C179.556 46.2647 178.633 45.3803 178.052 44.1285C177.599 43.1498 177.391 42.118 177.389 41.045C177.383 37.7414 177.385 34.4379 177.389 31.1324C177.389 30.9634 177.353 30.7845 177.443 30.645C177.474 30.6194 177.486 30.6037 177.501 30.5978C177.516 30.59 177.534 30.588 177.551 30.588C178.704 30.5841 179.859 30.5801 181.011 30.5762C181.079 30.5762 181.146 30.588 181.243 30.5978C181.264 30.6941 181.299 30.7884 181.304 30.8847C181.316 31.04 181.308 31.1972 181.308 31.3544C181.308 34.3101 181.308 37.2659 181.308 40.2235C181.308 40.9566 181.374 41.6778 181.592 42.3853C181.985 43.6568 182.906 44.2267 184.067 44.327C184.356 44.3525 184.655 44.3407 184.94 44.2896C185.914 44.1167 186.527 43.5035 186.852 42.5858C187.026 42.0944 187.132 41.5815 187.142 41.0548C187.153 40.3945 187.178 39.7342 187.178 39.0739C187.182 36.4837 187.178 33.8916 187.182 31.3014C187.182 31.0793 187.149 30.8513 187.252 30.6116H187.257Z" fill="#0C26B7"/>
<path d="M247.44 31.8964C247.427 31.9731 247.432 32.0477 247.402 32.1047C246.979 32.9164 246.553 33.726 246.131 34.5318C245.894 34.522 245.757 34.3726 245.593 34.2901C245.424 34.2056 245.258 34.1152 245.09 34.0267C244.464 33.6946 243.812 33.4293 243.114 33.2917C242.613 33.1935 242.123 33.2131 241.641 33.3998C241.009 33.6435 240.732 34.1938 240.886 34.858C240.99 35.3022 241.237 35.6422 241.568 35.935C241.935 36.2592 242.357 36.4951 242.79 36.7034C243.38 36.9864 243.982 37.2438 244.572 37.5248C245.181 37.8137 245.755 38.1577 246.27 38.6018C247.068 39.2916 247.504 40.174 247.616 41.2156C247.739 42.3613 247.602 43.4677 247.066 44.5073C246.669 45.2797 246.114 45.9026 245.404 46.394C244.682 46.8971 243.872 47.1663 243.016 47.3215C242.104 47.4866 241.202 47.4277 240.296 47.2842C238.937 47.068 237.68 46.5689 236.473 45.9164C236.34 45.8437 236.223 45.7435 236.107 45.6609C236.201 45.2305 237.104 43.2162 237.373 42.829C237.649 42.9862 237.933 43.1435 238.208 43.3085C238.877 43.7075 239.581 44.0239 240.311 44.2912C240.863 44.4936 241.435 44.5034 241.992 44.4091C242.605 44.3049 243.058 43.9492 243.245 43.3105C243.334 43.0059 243.371 42.6973 243.338 42.3829C243.284 41.8523 243.029 41.4376 242.603 41.1193C242.143 40.7734 241.62 40.5533 241.094 40.3332C240.267 39.9893 239.459 39.606 238.711 39.1029C238.28 38.8121 237.892 38.4701 237.547 38.081C236.876 37.3224 236.585 36.4066 236.525 35.4122C236.481 34.6379 236.6 33.8892 236.932 33.1817C237.368 32.2521 238.058 31.5721 238.941 31.0808C240.009 30.4873 241.161 30.2731 242.372 30.3183C243.891 30.3753 245.327 30.7507 246.692 31.4169C246.954 31.5446 247.203 31.694 247.436 31.8925L247.44 31.8964Z" fill="#0C26B7"/>
<path d="M115.364 45.6481C115.531 45.1037 116.403 43.2033 116.648 42.8516C116.761 42.9066 116.885 42.9557 116.999 43.0245C117.824 43.5315 118.681 43.9659 119.593 44.294C120.148 44.4925 120.717 44.5024 121.276 44.412C121.893 44.3117 122.342 43.9383 122.527 43.3095C122.585 43.111 122.628 42.9007 122.633 42.6963C122.656 42.0655 122.425 41.5486 121.924 41.1556C121.454 40.7881 120.916 40.5621 120.374 40.338C119.53 39.9862 118.705 39.5971 117.947 39.0783C117.531 38.7953 117.151 38.4671 116.825 38.0819C116.324 37.4884 115.99 36.8124 115.882 36.0302C115.763 35.1754 115.769 34.3283 116.075 33.5108C116.484 32.424 117.228 31.634 118.23 31.0798C119.302 30.4883 120.453 30.2741 121.666 30.3232C123.202 30.3841 124.656 30.7673 126.034 31.4493C126.281 31.5711 126.512 31.7146 126.716 31.8914C126.593 32.3218 125.685 34.0788 125.344 34.5484C125.003 34.3657 124.657 34.1751 124.309 33.9942C123.694 33.6778 123.057 33.4165 122.375 33.2868C121.874 33.1924 121.386 33.2199 120.902 33.4047C120.291 33.6366 120.058 34.1908 120.137 34.7253C120.21 35.2166 120.467 35.594 120.825 35.9143C121.203 36.2523 121.639 36.494 122.092 36.7102C122.683 36.9912 123.283 37.2526 123.873 37.5356C124.623 37.8952 125.324 38.3256 125.899 38.9466C126.398 39.4851 126.697 40.1199 126.836 40.8313C127.094 42.1578 126.917 43.4274 126.284 44.6222C125.774 45.5891 125.008 46.3064 124.039 46.7742C122.813 47.3657 121.511 47.5347 120.162 47.3657C119.321 47.2596 118.5 47.0866 117.7 46.8017C116.95 46.5364 116.241 46.1885 115.551 45.7935C115.493 45.7601 115.443 45.711 115.366 45.6501L115.364 45.6481Z" fill="#0C26B7"/>
<path d="M131.609 33.5539C131.43 33.5421 131.262 33.5244 131.094 33.5244C130.148 33.5225 129.201 33.5244 128.255 33.5205C128.087 33.5205 127.908 33.5657 127.761 33.436C127.686 32.9663 127.692 31.0423 127.775 30.6277C127.925 30.5333 128.102 30.5766 128.268 30.5746C129.541 30.5707 130.815 30.5746 132.087 30.5746C134.514 30.5746 136.939 30.5746 139.366 30.5766C139.551 30.5766 139.744 30.5333 139.92 30.6277C139.945 31.0404 139.669 32.7462 139.453 33.4773C139.339 33.491 139.208 33.5205 139.077 33.5205C138.148 33.5244 137.219 33.5205 136.29 33.5244C136.103 33.5244 135.91 33.4891 135.709 33.5873C135.692 33.6541 135.655 33.7347 135.652 33.8173C135.64 34.0079 135.644 34.1985 135.644 34.3911C135.644 38.4218 135.644 42.4525 135.644 46.4852C135.644 46.7092 135.634 46.9313 135.628 47.173C135.522 47.2025 135.443 47.2418 135.362 47.2418C134.21 47.2457 133.057 47.2418 131.904 47.2418C131.854 47.2418 131.804 47.2202 131.727 47.2005C131.705 47.1121 131.669 47.0177 131.663 46.9195C131.651 46.7642 131.659 46.607 131.659 46.4498C131.659 42.3837 131.659 38.3176 131.659 34.2516C131.659 34.0295 131.684 33.8055 131.609 33.5559V33.5539Z" fill="#0C26B7"/>
<path d="M200.395 47.1902C199.95 47.2629 197.099 47.2707 196.574 47.2039C196.551 47.1194 196.507 47.0251 196.499 46.9288C196.486 46.7382 196.491 46.5475 196.491 46.3549C196.491 42.3419 196.491 38.327 196.49 34.314C196.49 34.0742 196.53 33.8285 196.434 33.6045C196.287 33.4866 196.127 33.5239 195.977 33.5239C195.013 33.52 194.049 33.5239 193.087 33.52C192.919 33.52 192.752 33.5043 192.561 33.4944C192.466 33.1584 192.518 32.8479 192.509 32.5413C192.501 32.2288 192.509 31.9164 192.509 31.6039C192.509 31.2914 192.509 30.9809 192.509 30.6468C192.63 30.6173 192.723 30.5859 192.819 30.5761C192.939 30.5643 193.06 30.5721 193.18 30.5721C196.827 30.5721 200.474 30.5721 204.123 30.5721C204.326 30.5721 204.534 30.5427 204.744 30.6173C204.748 30.7176 204.769 30.804 204.754 30.8866C204.584 31.7356 204.503 32.6003 204.305 33.4139C204.145 33.5573 203.983 33.52 203.832 33.52C202.903 33.5239 201.974 33.52 201.045 33.5239C200.875 33.5239 200.7 33.4905 200.534 33.5868C200.42 33.8109 200.465 34.0585 200.465 34.2982C200.461 37.6686 200.463 41.039 200.463 44.4113C200.463 45.1404 200.463 45.8715 200.463 46.6006C200.463 46.7893 200.482 46.9819 200.397 47.1902H200.395Z" fill="#0C26B7"/>
<path d="M160.351 30.6113C160.372 30.7057 160.401 30.7725 160.401 30.8373C160.401 36.2417 160.397 41.6461 160.389 47.0505C160.389 47.0977 160.351 47.1449 160.316 47.2254C159.057 47.2687 157.787 47.2372 156.501 47.2451C156.472 47.1134 156.437 47.0171 156.432 46.9189C156.42 46.7636 156.428 46.6064 156.428 46.4492C156.428 41.4083 156.428 36.3695 156.428 31.3287V30.6389C156.538 30.6113 156.617 30.576 156.696 30.576C157.849 30.572 159.001 30.576 160.154 30.576C160.204 30.576 160.254 30.5937 160.351 30.6113Z" fill="#0C26B7"/>
<path d="M109.236 47.1991C109.144 46.6292 109.103 34.4919 109.178 31.0508C109.182 30.9152 109.201 30.7796 109.217 30.6282C109.66 30.528 110.088 30.5909 110.512 30.5791C110.925 30.5673 111.337 30.5771 111.752 30.5771H113.057C113.09 30.699 113.13 30.7933 113.14 30.8916C113.153 31.0291 113.148 31.1687 113.148 31.3082C113.148 36.3648 113.148 41.4233 113.148 46.4798C113.148 46.7039 113.136 46.9279 113.13 47.1637C113.024 47.1971 112.947 47.2423 112.868 47.2423C111.733 47.2482 110.597 47.2463 109.462 47.2443C109.396 47.2443 109.331 47.2187 109.238 47.1991H109.236Z" fill="#0C26B7"/>
</svg>
