<svg width="32" height="33" viewBox="0 0 32 33" fill="none" xmlns="http://www.w3.org/2000/svg">
<g id="magnifier">
<path id="XMLID 223" d="M27.414 25.3419L22.337 20.2649C23.386 18.6839 24 16.7909 24 14.7559C24 9.24186 19.514 4.75586 14 4.75586C8.486 4.75586 4 9.24186 4 14.7559C4 20.2699 8.486 24.7559 14 24.7559C16.035 24.7559 17.928 24.1419 19.509 23.0929L24.586 28.1699C25.366 28.9509 26.634 28.9509 27.414 28.1699C28.195 27.3889 28.195 26.1229 27.414 25.3419ZM7 14.7559C7 10.8959 10.14 7.75586 14 7.75586C17.86 7.75586 21 10.8959 21 14.7559C21 18.6159 17.86 21.7559 14 21.7559C10.14 21.7559 7 18.6159 7 14.7559Z" fill="#979797"/>
</g>
</svg>
