<svg width="49" height="47" viewBox="0 0 49 47" fill="none" xmlns="http://www.w3.org/2000/svg">
<rect x="0.818848" y="0.949219" width="47.061" height="45" rx="4.5" fill="#9E6EFF" stroke="url(#paint0_linear_101_5207)"/>
<path d="M17.4381 11.2311C17.1846 11.3241 16.8573 11.6304 16.7094 11.9147C16.6197 12.0843 16.6144 12.4015 16.5985 17.2468L16.588 22.4038H15.9121C14.9564 22.4093 14.5868 22.5788 14.3386 23.1366L14.2119 23.4155V27.1069V30.7983L14.3386 31.0772C14.5868 31.635 14.9564 31.8046 15.9121 31.81H16.5827L16.5985 33.303L16.6144 34.7905L16.7569 35.0421C16.9206 35.3319 17.1794 35.5561 17.4909 35.6655C17.8288 35.7913 33.2468 35.7858 33.5953 35.6655C33.928 35.5452 34.2184 35.2827 34.3609 34.96L34.4877 34.6811V25.603C34.4877 16.6124 34.4824 16.5249 34.3768 16.2788C34.2976 16.0929 33.7168 15.4585 32.0166 13.6921C29.9943 11.5975 29.7303 11.346 29.4821 11.2475C29.2128 11.1382 29.065 11.1382 23.4363 11.1436C18.3779 11.1436 17.644 11.1546 17.4381 11.2311ZM28.7957 14.1022C28.8115 15.896 28.8168 15.989 28.9277 16.235C29.0597 16.5304 29.2445 16.7272 29.5507 16.9022C29.7514 17.0116 29.8359 17.0171 31.5994 17.0335L33.4316 17.0499V25.7671C33.4316 33.6147 33.4211 34.4897 33.3472 34.5663C33.2732 34.6429 32.4918 34.6538 25.5537 34.6538C18.4466 34.6538 17.8288 34.6483 17.7391 34.5608C17.6546 34.4788 17.644 34.364 17.644 33.139V31.81H23.5895C27.9509 31.81 29.593 31.7936 29.7408 31.7444C30.0101 31.6624 30.3428 31.3671 30.4906 31.0772L30.6068 30.853V27.1069V23.3608L30.4906 23.1366C30.3428 22.8468 30.0101 22.5515 29.7408 22.4694C29.593 22.4202 27.9509 22.4038 23.5895 22.4038H17.644V17.4054C17.644 12.9319 17.6546 12.396 17.7285 12.3194C17.8024 12.2429 18.3779 12.2319 23.2938 12.2319H28.7798L28.7957 14.1022ZM19.3865 24.4819C19.7085 24.6679 19.9462 25.0124 20.0201 25.3952C20.057 25.5811 20.0782 25.9804 20.0623 26.3905C20.0359 27.1452 19.9884 27.3093 19.6821 27.6429C19.3759 27.9819 19.1753 28.053 18.4255 28.0804L17.7496 28.1022V28.8241C17.7496 29.4202 17.7338 29.5624 17.6546 29.6554C17.4381 29.9397 17.079 29.9561 16.8467 29.6991L16.72 29.5569V27.1069C16.72 24.7335 16.7253 24.6515 16.8256 24.5366C16.8837 24.471 16.9787 24.3944 17.0368 24.3671C17.0949 24.3397 17.5965 24.3288 18.1456 24.3343C19.1066 24.3452 19.1594 24.3507 19.3865 24.4819ZM23.1512 24.4054C23.4469 24.5093 23.7637 24.8155 23.9221 25.1491C24.033 25.3952 24.0383 25.439 24.0224 27.178L24.0066 28.9608L23.7901 29.278C23.637 29.4968 23.4944 29.639 23.3149 29.7319C23.0773 29.8577 22.9981 29.8686 22.1427 29.885C21.6358 29.896 21.1659 29.8905 21.0919 29.8686C21.018 29.8522 20.9019 29.7702 20.8332 29.6936L20.7065 29.5515V27.1124C20.7118 24.5257 20.7012 24.6022 20.9705 24.4108C21.1553 24.2796 22.7816 24.2741 23.1512 24.4054ZM27.7977 24.378C28.0723 24.5257 28.1673 24.8155 28.0353 25.1108C27.9192 25.3733 27.766 25.4116 26.7523 25.4116H25.8282V25.9858V26.56H26.3615C26.9107 26.56 27.0585 26.6038 27.2116 26.8007C27.4017 27.0358 27.2961 27.4405 27.0057 27.5936C26.9423 27.6265 26.6519 27.6538 26.3615 27.6538H25.8388L25.8177 28.6054C25.8018 29.5241 25.7966 29.5624 25.6751 29.6991C25.5167 29.8686 25.2897 29.9288 25.0837 29.8413C24.7722 29.7046 24.7722 29.6882 24.7722 27.1124C24.7722 25.5483 24.7933 24.7171 24.8303 24.6296C24.957 24.3397 25.0626 24.3233 26.4249 24.3179C27.2486 24.3179 27.7238 24.3397 27.7977 24.378Z" fill="white"/>
<path d="M17.7595 26.189L17.7753 26.9711L18.2875 26.9875C18.995 27.0094 19.0162 26.9875 19.0162 26.1836C19.0162 25.407 19.0214 25.4125 18.2981 25.4125H17.7437L17.7595 26.189Z" fill="white"/>
<path d="M21.7607 27.1055V28.8008H22.2782C22.7164 28.8008 22.8168 28.7844 22.8854 28.7023C22.9646 28.6148 22.9752 28.418 22.9752 27.0891C22.9752 25.2898 23.028 25.4102 22.2518 25.4102H21.7607V27.1055Z" fill="white"/>
<defs>
<linearGradient id="paint0_linear_101_5207" x1="1.30266" y1="23.4493" x2="48.3983" y2="23.5061" gradientUnits="userSpaceOnUse">
<stop stop-color="#0172F7"/>
<stop offset="1" stop-color="#00CEFB"/>
</linearGradient>
</defs>
</svg>
