<svg width="28" height="28" viewBox="0 0 28 28" fill="none" xmlns="http://www.w3.org/2000/svg">
<g id="Group 299">
<path id="Vector" d="M27.0982 4.11239C27.03 5.57621 26.5994 6.51551 25.8037 7.31031C20.9306 12.1754 16.0041 16.9897 11.226 21.9458C9.32168 23.9221 7.25825 25.4608 4.63985 26.2824C3.64491 26.5941 2.70079 27.0691 1.7326 27.4679C1.2485 27.6673 0.779113 27.7168 0.372579 27.2993C-0.0272686 26.8885 0.00750082 26.4215 0.208093 25.9345C1.07599 23.8338 1.9372 21.7304 2.8158 19.6337C2.91609 19.3955 3.08325 19.1694 3.2678 18.986C8.96596 13.274 14.6574 7.55785 20.377 1.8685C22.3321 -0.0770108 25.246 0.22271 26.5419 2.484C26.8735 3.06337 26.9858 3.76718 27.0995 4.11239H27.0982ZM18.8204 6.47805C18.5997 6.68678 18.3537 6.90622 18.121 7.13904C16.4654 8.79286 14.8126 10.448 13.1583 12.1032C10.7165 14.5464 8.28261 16.9964 5.82468 19.4236C5.44356 19.8009 5.43286 20.0297 5.83672 20.3803C6.33954 20.8178 6.81962 21.2915 7.2529 21.7973C7.64339 22.2522 7.8948 22.2134 8.30935 21.7946C12.2008 17.8701 16.1097 13.9644 20.028 10.0667C20.4345 9.66258 20.9226 9.34279 21.3385 9.0123C20.393 8.06095 19.6455 7.30763 18.8217 6.47671L18.8204 6.47805ZM20.5896 4.75331C21.3853 5.57353 22.1369 6.34826 22.9178 7.15376C23.43 6.6346 24.0091 6.10875 24.5159 5.52269C25.107 4.83895 25.0628 3.87957 24.4825 3.26408C23.8954 2.64322 22.9152 2.52146 22.2372 3.09281C21.6126 3.61866 21.0804 4.25289 20.5896 4.75465V4.75331ZM4.19988 21.8722C3.85486 22.7312 3.53258 23.534 3.21029 24.3369L3.35205 24.4734C4.15575 24.1469 4.95946 23.8204 5.78189 23.4872C5.23762 22.9306 4.75084 22.4355 4.19855 21.8722H4.19988Z" fill="url(#paint0_linear_1_1871)"/>
</g>
<defs>
<linearGradient id="paint0_linear_1_1871" x1="13.581" y1="0.580078" x2="13.581" y2="27.6171" gradientUnits="userSpaceOnUse">
<stop stop-color="#2F4C8F"/>
<stop offset="1" stop-color="#2581BF"/>
</linearGradient>
</defs>
</svg>
