<svg width="49" height="47" viewBox="0 0 49 47" fill="none" xmlns="http://www.w3.org/2000/svg">
<rect x="0.388672" y="0.449219" width="48.061" height="46" rx="5" fill="#FF5A3F"/>
<g clip-path="url(#clip0_101_5213)">
<path d="M16.3701 11.4842C16.3497 11.4994 16.3345 12.9212 16.3345 14.6355V17.7515H17.0158C17.5904 17.7515 17.7022 17.7414 17.7276 17.6708C17.7429 17.6254 17.7582 16.5263 17.7582 15.2254V12.8607H22.6139H27.4697V14.5246V16.1884H29.0968H30.7188L30.734 16.9548L30.7493 17.7263L31.4052 17.7414C31.8984 17.7515 32.0713 17.7363 32.1069 17.691C32.1272 17.6557 32.1475 16.9447 32.1475 16.1128V14.6002L30.6628 13.1279C29.473 11.9531 29.1222 11.6355 28.929 11.5498C28.6849 11.4489 28.6137 11.4489 22.5427 11.4489C19.1666 11.4489 16.3853 11.4641 16.3701 11.4842ZM29.6307 14.0708L30.3425 14.7767H29.6154H28.8934V14.0708C28.8934 13.6826 28.8985 13.3649 28.9086 13.3649C28.9137 13.3649 29.2391 13.6826 29.6307 14.0708Z" fill="#FCFCFC"/>
<path d="M13.0704 18.3516C12.2924 18.5986 11.6925 19.244 11.4789 20.0558C11.3671 20.4843 11.3671 28.1784 11.4789 28.607C11.6925 29.4289 12.267 30.039 13.0653 30.3011C13.3602 30.402 13.4975 30.407 14.9822 30.407H16.5838L16.5991 32.4339C16.6143 34.4104 16.6194 34.4709 16.7262 34.6726C16.8584 34.9146 17.1889 35.2272 17.4482 35.3381C17.616 35.4188 18.216 35.4238 24.4192 35.4238C30.6224 35.4238 31.2224 35.4188 31.3901 35.3381C31.6495 35.2272 31.98 34.9146 32.1122 34.6726C32.2189 34.4709 32.224 34.4104 32.2393 32.4339L32.2545 30.407H33.8562C35.3409 30.407 35.4781 30.402 35.7731 30.3011C36.5713 30.039 37.1459 29.4289 37.3594 28.607C37.4713 28.1784 37.4713 20.4843 37.3594 20.0558C37.1459 19.2339 36.5408 18.5936 35.7527 18.3516C35.4527 18.2608 35.1019 18.2558 24.4039 18.2608C13.8382 18.2608 13.35 18.2658 13.0704 18.3516ZM35.4883 19.7583C35.6103 19.8188 35.768 19.965 35.8442 20.081L35.9866 20.2927V24.3314V28.37L35.8442 28.5818C35.7019 28.7986 35.4222 28.9751 35.1985 28.9953C35.1273 29.0003 34.4358 29.0053 33.663 29.0003L32.2545 28.9953L32.2393 27.8457L32.224 26.7011L32.0664 26.4238C31.8986 26.1213 31.563 25.8591 31.2427 25.7684C30.9834 25.6978 17.855 25.6978 17.5957 25.7684C17.2753 25.8591 16.9398 26.1213 16.772 26.4238L16.6143 26.7011L16.5991 27.8457L16.5838 28.9953H15.0585C13.3246 28.9953 13.2585 28.9801 12.9941 28.5818L12.8518 28.37L12.8365 24.3818L12.8263 20.3936L12.9433 20.1717C13.0043 20.0507 13.1162 19.9095 13.1873 19.8591C13.5229 19.607 12.9636 19.6221 24.4954 19.6322L35.2748 19.6423L35.4883 19.7583ZM30.8258 30.5835V34.0373H24.4192H18.0126V30.5835V27.1297H24.4192H30.8258V30.5835Z" fill="#FCFCFC"/>
</g>
<defs>
<clipPath id="clip0_101_5213">
<rect width="26.0331" height="24" fill="white" transform="translate(11.4028 11.4492)"/>
</clipPath>
</defs>
</svg>
