<svg width="27" height="25" viewBox="0 0 27 25" fill="none" xmlns="http://www.w3.org/2000/svg">
<g clip-path="url(#clip0_101_5216)">
<path d="M5.37006 0.484238C5.34973 0.499364 5.33447 1.92121 5.33447 3.6355V6.75146H6.01581C6.59036 6.75146 6.70223 6.74138 6.72765 6.67079C6.7429 6.62541 6.75816 5.52625 6.75816 4.22541V1.86071H11.6139H16.4697V3.52457V5.18844H18.0968H19.7188L19.734 5.95483L19.7493 6.72625L20.4052 6.74138C20.8984 6.75146 21.0713 6.73634 21.1069 6.69096C21.1272 6.65567 21.1475 5.94474 21.1475 5.11281V3.6002L19.6628 2.12794C18.473 0.953146 18.1222 0.635499 17.929 0.549785C17.6849 0.448944 17.6137 0.448944 11.5427 0.448944C8.16659 0.448944 5.38532 0.46407 5.37006 0.484238ZM18.6307 3.07079L19.3425 3.77668H18.6154H17.8934V3.07079C17.8934 2.68256 17.8985 2.36491 17.9086 2.36491C17.9137 2.36491 18.2391 2.68256 18.6307 3.07079Z" fill="#FCFCFC"/>
<path d="M2.07039 7.35156C1.29245 7.59862 0.692468 8.244 0.478915 9.05576C0.367054 9.48433 0.367054 17.1784 0.478915 17.607C0.692468 18.4289 1.26703 19.039 2.06531 19.3011C2.36021 19.402 2.49749 19.407 3.98219 19.407H5.58384L5.59909 21.4339C5.61434 23.4104 5.61943 23.4709 5.7262 23.6726C5.8584 23.9146 6.1889 24.2272 6.44822 24.3381C6.61601 24.4188 7.21599 24.4238 13.4192 24.4238C19.6224 24.4238 20.2224 24.4188 20.3901 24.3381C20.6495 24.2272 20.98 23.9146 21.1122 23.6726C21.2189 23.4709 21.224 23.4104 21.2393 21.4339L21.2545 19.407H22.8562C24.3409 19.407 24.4781 19.402 24.7731 19.3011C25.5713 19.039 26.1459 18.4289 26.3594 17.607C26.4713 17.1784 26.4713 9.48433 26.3594 9.05576C26.1459 8.23391 25.5408 7.59357 24.7527 7.35156C24.4527 7.2608 24.1019 7.25576 13.4039 7.2608C2.83816 7.2608 2.35004 7.26584 2.07039 7.35156ZM24.4883 8.75828C24.6103 8.81879 24.768 8.965 24.8442 9.08097L24.9866 9.29274V13.3314V17.37L24.8442 17.5818C24.7019 17.7986 24.4222 17.9751 24.1985 17.9953C24.1273 18.0003 23.4358 18.0053 22.663 18.0003L21.2545 17.9953L21.2393 16.8457L21.224 15.7011L21.0664 15.4238C20.8986 15.1213 20.563 14.8591 20.2427 14.7684C19.9834 14.6978 6.85498 14.6978 6.59567 14.7684C6.27534 14.8591 5.93976 15.1213 5.77197 15.4238L5.61434 15.7011L5.59909 16.8457L5.58384 17.9953H4.05846C2.32462 17.9953 2.25852 17.9801 1.99412 17.5818L1.85175 17.37L1.8365 13.3818L1.82633 9.39358L1.94328 9.17173C2.00429 9.05072 2.11615 8.90954 2.18734 8.85912C2.52292 8.60702 1.96361 8.62215 13.4954 8.63223L24.2748 8.64231L24.4883 8.75828ZM19.8258 19.5835V23.0373H13.4192H7.0126V19.5835V16.1297H13.4192H19.8258V19.5835Z" fill="#FCFCFC"/>
</g>
<defs>
<clipPath id="clip0_101_5216">
<rect width="26.0331" height="24" fill="white" transform="translate(0.402832 0.449219)"/>
</clipPath>
</defs>
</svg>
