<svg width="49" height="47" viewBox="0 0 49 47" fill="none" xmlns="http://www.w3.org/2000/svg">
<rect x="0.679688" y="0.949219" width="47.061" height="45" rx="4.5" fill="url(#paint0_linear_101_5198)" stroke="url(#paint1_linear_101_5198)"/>
<path d="M24.2107 27.7792C26.0419 27.7792 27.5264 26.2966 27.5264 24.4677C27.5264 22.6389 26.0419 21.1562 24.2107 21.1562C22.3795 21.1562 20.895 22.6389 20.895 24.4677C20.895 26.2966 22.3795 27.7792 24.2107 27.7792Z" fill="white"/>
<path d="M33.726 22.1244H32.6112C32.4279 21.4694 32.1677 20.8384 31.8358 20.2445L32.62 19.4606C32.9133 19.1614 33.0775 18.7593 33.0775 18.3405C33.0775 17.9218 32.9133 17.5197 32.62 17.2205L31.4997 16.1016C31.1977 15.8135 30.7962 15.6527 30.3786 15.6527C29.961 15.6527 29.5594 15.8135 29.2575 16.1016L28.4821 16.8752C27.8851 16.5384 27.25 16.2739 26.5903 16.0873V14.9978C26.5903 14.5777 26.4232 14.1749 26.1259 13.8779C25.8285 13.5809 25.4252 13.4141 25.0046 13.4141H23.4189C22.9983 13.4141 22.595 13.5809 22.2976 13.8779C22.0003 14.1749 21.8332 14.5777 21.8332 14.9978V16.0873C21.1732 16.2738 20.5379 16.5383 19.9407 16.8752L19.166 16.1016C19.0188 15.9545 18.8439 15.8377 18.6515 15.7581C18.4591 15.6785 18.2528 15.6375 18.0445 15.6375C17.8363 15.6375 17.63 15.6785 17.4376 15.7581C17.2451 15.8377 17.0703 15.9545 16.9231 16.1016L15.8028 17.2213C15.5097 17.5205 15.3456 17.9224 15.3456 18.3409C15.3456 18.7595 15.5097 19.1614 15.8028 19.4606L16.5877 20.2445C16.2558 20.8384 15.9956 21.4694 15.8123 22.1244H14.6975C14.277 22.1244 13.8736 22.2912 13.5763 22.5882C13.2789 22.8852 13.1118 23.288 13.1118 23.7081V25.2917C13.1118 25.7118 13.2789 26.1146 13.5763 26.4116C13.8736 26.7086 14.277 26.8754 14.6975 26.8754H15.8289C16.0148 27.5236 16.2764 28.1476 16.6083 28.7347L15.8028 29.5392C15.5094 29.8384 15.3452 30.2405 15.3452 30.6593C15.3452 31.078 15.5094 31.4801 15.8028 31.7793L16.9239 32.899C17.0711 33.0461 17.2459 33.1628 17.4384 33.2425C17.6308 33.3221 17.837 33.3631 18.0453 33.3631C18.2536 33.3631 18.4599 33.3221 18.6523 33.2425C18.8447 33.1628 19.0196 33.0461 19.1668 32.899L19.9827 32.0842C20.5676 32.4104 21.1886 32.6674 21.8332 32.8499V34.002C21.8332 34.4221 22.0003 34.8249 22.2976 35.1219C22.595 35.4189 22.9983 35.5857 23.4189 35.5857H25.0046C25.4252 35.5857 25.8285 35.4189 26.1259 35.1219C26.4232 34.8249 26.5903 34.4221 26.5903 34.002V32.8499C27.2351 32.6671 27.8564 32.4099 28.4416 32.0834L29.2575 32.8974C29.5595 33.1858 29.9612 33.3467 30.379 33.3467C30.7967 33.3467 31.1984 33.1858 31.5004 32.8974L32.6215 31.7778C32.9146 31.4786 33.0787 31.0766 33.0787 30.6581C33.0787 30.2395 32.9146 29.8376 32.6215 29.5384L31.8152 28.7347C32.1471 28.1476 32.4087 27.5236 32.5946 26.8754H33.726C34.1465 26.8754 34.5499 26.7086 34.8472 26.4116C35.1446 26.1146 35.3117 25.7118 35.3117 25.2917V23.7081C35.3117 23.288 35.1446 22.8852 34.8472 22.5882C34.5499 22.2912 34.1465 22.1244 33.726 22.1244ZM24.2118 29.3634C23.2426 29.3633 22.2952 29.0761 21.4894 28.5382C20.6836 28.0004 20.0556 27.236 19.6848 26.3417C19.314 25.4474 19.217 24.4633 19.4061 23.514C19.5952 22.5646 20.062 21.6926 20.7473 21.0082C21.4326 20.3237 22.3057 19.8576 23.2563 19.6687C24.2068 19.4798 25.1921 19.5767 26.0876 19.947C26.983 20.3174 27.7484 20.9446 28.2869 21.7493C28.8255 22.5541 29.113 23.5003 29.1132 24.4682C29.1119 25.7661 28.5951 27.0105 27.6762 27.9283C26.7573 28.846 25.5113 29.3622 24.2118 29.3634Z" fill="white"/>
<defs>
<linearGradient id="paint0_linear_101_5198" x1="1.1635" y1="23.4493" x2="48.2591" y2="23.5061" gradientUnits="userSpaceOnUse">
<stop stop-color="#0172F7"/>
<stop offset="1" stop-color="#00CEFB"/>
</linearGradient>
<linearGradient id="paint1_linear_101_5198" x1="1.1635" y1="23.4493" x2="48.2591" y2="23.5061" gradientUnits="userSpaceOnUse">
<stop stop-color="#0172F7"/>
<stop offset="1" stop-color="#00CEFB"/>
</linearGradient>
</defs>
</svg>
