<svg width="26" height="27" viewBox="0 0 26 27" fill="none" xmlns="http://www.w3.org/2000/svg">
<g id="Setting">
<g id="06 Setting">
<path id="Vector" d="M13.2107 16.7792C15.0419 16.7792 16.5264 15.2966 16.5264 13.4677C16.5264 11.6389 15.0419 10.1562 13.2107 10.1562C11.3795 10.1562 9.89502 11.6389 9.89502 13.4677C9.89502 15.2966 11.3795 16.7792 13.2107 16.7792Z" fill="white"/>
<path id="Vector_2" d="M22.726 11.1244H21.6112C21.4279 10.4694 21.1677 9.83838 20.8358 9.24452L21.62 8.46059C21.9133 8.16136 22.0775 7.75928 22.0775 7.34053C22.0775 6.92178 21.9133 6.51969 21.62 6.22046L20.4997 5.10159C20.1977 4.81349 19.7962 4.65272 19.3786 4.65272C18.961 4.65272 18.5594 4.81349 18.2575 5.10159L17.4821 5.87522C16.8851 5.53836 16.25 5.27386 15.5903 5.08733V3.99775C15.5903 3.57773 15.4232 3.17491 15.1259 2.87791C14.8285 2.58092 14.4252 2.41406 14.0046 2.41406H12.4189C11.9983 2.41406 11.595 2.58092 11.2976 2.87791C11.0003 3.17491 10.8332 3.57773 10.8332 3.99775V5.08733C10.1732 5.2738 9.53786 5.5383 8.94066 5.87522L8.16604 5.10159C8.01878 4.95446 7.84395 4.83775 7.65152 4.75812C7.45909 4.67849 7.25284 4.63751 7.04455 4.63751C6.83626 4.63751 6.63001 4.67849 6.43758 4.75812C6.24515 4.83775 6.07031 4.95446 5.92306 5.10159L4.80276 6.22126C4.50968 6.52045 4.34557 6.92237 4.34557 7.34093C4.34557 7.75948 4.50968 8.1614 4.80276 8.46059L5.58768 9.24452C5.25584 9.83838 4.99556 10.4694 4.81227 11.1244H3.69752C3.27697 11.1244 2.87364 11.2912 2.57626 11.5882C2.27888 11.8852 2.11182 12.288 2.11182 12.7081V14.2917C2.11182 14.7118 2.27888 15.1146 2.57626 15.4116C2.87364 15.7086 3.27697 15.8754 3.69752 15.8754H4.82892C5.01481 16.5236 5.27639 17.1476 5.6083 17.7347L4.80276 18.5392C4.50945 18.8384 4.34519 19.2405 4.34519 19.6593C4.34519 20.078 4.50945 20.4801 4.80276 20.7793L5.92385 21.899C6.07111 22.0461 6.24594 22.1628 6.43837 22.2425C6.6308 22.3221 6.83705 22.3631 7.04534 22.3631C7.25363 22.3631 7.45988 22.3221 7.65231 22.2425C7.84474 22.1628 8.01958 22.0461 8.16683 21.899L8.98268 21.0842C9.5676 21.4104 10.1886 21.6674 10.8332 21.8499V23.002C10.8332 23.4221 11.0003 23.8249 11.2976 24.1219C11.595 24.4189 11.9983 24.5857 12.4189 24.5857H14.0046C14.4252 24.5857 14.8285 24.4189 15.1259 24.1219C15.4232 23.8249 15.5903 23.4221 15.5903 23.002V21.8499C16.2351 21.6671 16.8564 21.4099 17.4416 21.0834L18.2575 21.8974C18.5595 22.1858 18.9612 22.3467 19.379 22.3467C19.7967 22.3467 20.1984 22.1858 20.5004 21.8974L21.6215 20.7778C21.9146 20.4786 22.0787 20.0766 22.0787 19.6581C22.0787 19.2395 21.9146 18.8376 21.6215 18.5384L20.8152 17.7347C21.1471 17.1476 21.4087 16.5236 21.5946 15.8754H22.726C23.1465 15.8754 23.5499 15.7086 23.8472 15.4116C24.1446 15.1146 24.3117 14.7118 24.3117 14.2917V12.7081C24.3117 12.288 24.1446 11.8852 23.8472 11.5882C23.5499 11.2912 23.1465 11.1244 22.726 11.1244ZM13.2118 18.3634C12.2426 18.3633 11.2952 18.0761 10.4894 17.5382C9.68363 17.0004 9.05563 16.236 8.68481 15.3417C8.31399 14.4474 8.21701 13.4633 8.40613 12.514C8.59524 11.5646 9.06197 10.6926 9.74728 10.0082C10.4326 9.32371 11.3057 8.85758 12.2563 8.6687C13.2068 8.47983 14.1921 8.57669 15.0876 8.94703C15.983 9.31738 16.7484 9.94458 17.2869 10.7493C17.8255 11.5541 18.113 12.5003 18.1132 13.4682C18.1119 14.7661 17.5951 16.0105 16.6762 16.9283C15.7573 17.846 14.5113 18.3622 13.2118 18.3634Z" fill="white"/>
</g>
</g>
</svg>
