<svg width="12" height="12" viewBox="0 0 12 12" fill="none" xmlns="http://www.w3.org/2000/svg">
<path id="Star 7" d="M5.15338 1.01431C5.30305 0.55365 5.95476 0.553651 6.10443 1.01431L7.08825 4.04217C7.15518 4.24818 7.34716 4.38766 7.56378 4.38766H10.7475C11.2318 4.38766 11.4332 5.00747 11.0414 5.29217L8.4657 7.16349C8.29045 7.29082 8.21712 7.5165 8.28406 7.72251L9.26787 10.7504C9.41755 11.211 8.89031 11.5941 8.49845 11.3094L5.9228 9.43807C5.74755 9.31075 5.51026 9.31075 5.33501 9.43807L2.75936 11.3094C2.3675 11.5941 1.84026 11.211 1.98994 10.7504L2.97375 7.72251C3.04069 7.5165 2.96736 7.29082 2.79211 7.16349L0.216459 5.29217C-0.175398 5.00747 0.0259904 4.38766 0.510352 4.38766H3.69404C3.91065 4.38766 4.10263 4.24818 4.16957 4.04217L5.15338 1.01431Z" fill="#E49696"/>
</svg>
