<svg width="12" height="12" viewBox="0 0 12 12" fill="none" xmlns="http://www.w3.org/2000/svg">
<path id="Star 6" d="M5.39557 1.01431C5.54524 0.55365 6.19695 0.553651 6.34662 1.01431L7.33043 4.04217C7.39737 4.24818 7.58935 4.38766 7.80596 4.38766H10.9896C11.474 4.38766 11.6754 5.00747 11.2835 5.29217L8.70789 7.16349C8.53264 7.29082 8.45931 7.5165 8.52625 7.72251L9.51006 10.7504C9.65974 11.211 9.1325 11.5941 8.74064 11.3094L6.16499 9.43807C5.98974 9.31075 5.75244 9.31075 5.5772 9.43807L3.00154 11.3094C2.60969 11.5941 2.08245 11.211 2.23213 10.7504L3.21594 7.72251C3.28288 7.5165 3.20955 7.29082 3.0343 7.16349L0.458646 5.29217C0.0667896 5.00747 0.268178 4.38766 0.75254 4.38766H3.93622C4.15284 4.38766 4.34482 4.24818 4.41175 4.04217L5.39557 1.01431Z" fill="#FAD75E"/>
</svg>
