<svg width="26" height="16" viewBox="0 0 26 16" fill="none" xmlns="http://www.w3.org/2000/svg">
<path id="Vector" d="M0.418945 13.5172C0.63608 13.1882 0.807943 12.8114 1.07706 12.5373C3.1478 10.4234 5.23698 8.32782 7.32282 6.22962C8.07566 5.4725 8.80252 5.48207 9.55368 6.23484C11.0594 7.74387 12.5701 9.24855 14.0137 10.6914C16.3209 8.34696 18.6079 6.02337 20.9562 3.63712C20.7533 3.62668 20.6351 3.61536 20.5177 3.61536C19.4421 3.61275 18.3673 3.6232 17.2917 3.60579C16.5162 3.59274 15.9545 2.96528 15.9696 2.17335C15.9839 1.40317 16.5481 0.806169 17.3093 0.801818C19.6416 0.790505 21.9731 0.787894 24.3054 0.794856C25.039 0.796597 25.4297 1.27176 25.6535 1.94012V10.0353C25.6359 10.057 25.6099 10.0753 25.6015 10.0997C25.3207 10.882 24.7405 11.2771 24.0388 11.1605C23.3405 11.0448 22.8987 10.4582 22.8878 9.6245C22.8819 9.17458 22.8869 8.72465 22.8869 8.2756C22.8869 7.44102 22.8869 6.60731 22.8869 5.77274C22.8391 5.7388 22.7922 5.70573 22.7444 5.67179C22.6421 5.82321 22.5591 5.99465 22.4359 6.12432C20.0575 8.62022 17.6749 11.1109 15.2931 13.6016C14.5159 14.4135 13.805 14.424 13.006 13.6294C11.9162 12.546 10.8305 11.4581 9.74232 10.3721C9.3114 9.94127 8.87881 9.51224 8.43699 9.07363C6.58758 10.936 4.76415 12.7748 2.93737 14.6111C2.7982 14.7512 2.65317 14.8957 2.48717 14.9949C1.6572 15.4909 0.858244 15.1158 0.420622 14.0376C0.420622 13.8635 0.420622 13.6895 0.420622 13.5154L0.418945 13.5172Z" fill="#FCFCFC"/>
</svg>
