<svg width="30" height="30" viewBox="0 0 30 30" fill="none" xmlns="http://www.w3.org/2000/svg">
<g id="Group">
<path id="Vector" d="M6.58117 3.98653L0.541992 7.48613V14.4909V21.4957L6.58117 24.9785C9.90216 26.893 12.6427 28.4614 12.6762 28.4614C12.7264 28.4614 14.9143 27.2111 17.0688 25.9609L17.3869 25.7767L17.6828 26.2288C18.079 26.8539 18.866 27.6242 19.5191 28.0484C20.133 28.4446 20.6633 28.6791 21.4112 28.88C21.8856 29.0028 22.0531 29.0195 22.8959 29.0195C23.7387 29.0195 23.9061 29.0028 24.3861 28.8744C25.5303 28.5674 26.4736 28.0316 27.2774 27.2223C29.7723 24.7162 29.7165 20.7422 27.1546 18.3086C26.5462 17.7337 25.9099 17.3375 24.9778 16.9579L24.8215 16.8909V12.2025V7.51403L24.615 7.38008C24.2745 7.1624 12.7822 0.537165 12.6985 0.514839C12.6594 0.503676 9.90774 2.06649 6.58117 3.98653ZM17.5042 5.19771C20.1163 6.69914 22.2484 7.94381 22.254 7.96055C22.254 7.99962 12.838 13.436 12.7152 13.4695C12.6315 13.4918 3.15413 8.06102 3.12622 7.97172C3.10948 7.9159 12.6092 2.43487 12.6929 2.45162C12.732 2.4572 14.8976 3.69071 17.5042 5.19771ZM8.14957 12.8444L11.8166 14.9597V20.5078V26.0558L11.5264 25.8939C11.3645 25.8046 10.2147 25.146 8.97005 24.426C7.72538 23.7059 5.70487 22.5394 4.47695 21.8306L2.24435 20.5412L2.2276 14.9765L2.21644 9.41732L3.34948 10.0704C3.96903 10.4276 6.12907 11.6778 8.14957 12.8444ZM23.147 13.0341V16.5951L22.5219 16.6286C21.0484 16.7068 19.7033 17.2872 18.6149 18.3366C18.0177 18.9003 17.6716 19.3691 17.3144 20.1003C16.8567 21.0212 16.7172 21.6241 16.706 22.6957C16.706 23.1701 16.7227 23.7004 16.7451 23.8734L16.7897 24.186L15.1767 25.1125C14.2892 25.626 13.5469 26.0446 13.5301 26.0446C13.5078 26.0446 13.4966 23.5552 13.5022 20.5078L13.519 14.9709L18.2632 12.2248C20.8754 10.7122 23.041 9.47314 23.0801 9.47314C23.1303 9.46756 23.147 10.2155 23.147 13.0341ZM23.8057 18.3756C26.3118 18.8835 27.9415 21.4734 27.3053 23.9292C26.6969 26.2623 24.3917 27.7525 22.0754 27.306C19.9042 26.8874 18.347 25.0232 18.347 22.8352C18.347 19.9608 20.9926 17.8007 23.8057 18.3756Z" fill="white"/>
<path id="Vector_2" d="M22.0308 21.0774V21.9704H21.1378H20.2448V22.8076V23.6449H21.1378H22.0308V24.5658V25.4868H22.8681H23.7053L23.7164 24.577L23.7332 23.6728L24.643 23.656L25.5472 23.6449V22.8076V21.9704H24.6262H23.7053V21.0774V20.1843H22.8681H22.0308V21.0774Z" fill="white"/>
</g>
</svg>
