<svg width="29" height="29" viewBox="0 0 29 29" fill="none" xmlns="http://www.w3.org/2000/svg">
<g id="Group 424">
<g id="Vector">
<mask id="path-1-outside-1_1_978" maskUnits="userSpaceOnUse" x="0.0292969" y="-0.174072" width="29" height="29" fill="black">
<rect fill="white" x="0.0292969" y="-0.174072" width="29" height="29"/>
<path d="M19.0238 0.914229C18.9362 0.925186 18.6184 0.985452 18.3171 1.04572C16.7502 1.36896 15.3641 2.14146 14.2135 3.33581C13.3589 4.21788 12.822 5.07256 12.4275 6.15734L12.2303 6.69973L11.8522 6.82574C10.2634 7.36265 8.69102 8.62823 7.69937 10.1677C7.46927 10.5239 7.13507 11.2251 6.97071 11.6799L6.82278 12.0962L6.4064 12.2496C5.32162 12.6386 4.34641 13.2413 3.52461 14.0247C2.30834 15.1917 1.59611 16.4408 1.20712 18.079C1.04276 18.7912 0.977015 20.1225 1.07563 20.8238C1.58515 24.4452 4.26971 27.19 7.85825 27.7543C8.69102 27.8804 9.97851 27.8365 10.7784 27.6502C12.4165 27.2613 13.6657 26.5436 14.8381 25.3218C15.6599 24.4726 16.2023 23.5905 16.6132 22.4729L16.7776 22.0127L17.1556 21.8812C18.1582 21.5305 19.1553 20.9169 19.9662 20.139C20.9469 19.2021 21.6262 18.1831 22.0316 17.0325L22.1796 16.6216L22.574 16.4902C24.4423 15.893 26.1571 14.4137 27.1049 12.5893C27.4117 12.0031 27.7076 11.1649 27.8555 10.4636C27.9322 10.0965 27.9541 9.75684 27.9541 8.87477C27.9486 7.86121 27.9377 7.69137 27.8062 7.1435C27.0337 3.88368 24.4697 1.48401 21.1879 0.95806C20.7167 0.881358 19.4676 0.859442 19.0238 0.914229ZM21.0729 1.51141C23.4561 1.85656 25.6202 3.44539 26.6666 5.61495C27.2364 6.79287 27.4665 7.87217 27.4172 9.1761C27.3186 11.7894 25.9708 14.0521 23.7465 15.3561C23.2369 15.6519 22.2563 16.0519 22.0371 16.0519C21.9549 16.0519 21.6372 16.1066 21.3358 16.1724C20.2182 16.408 18.717 16.3094 17.5829 15.9204C15.6544 15.2574 13.967 13.6741 13.1616 11.773C13.0247 11.4443 12.8932 11.0882 12.8767 10.9895C12.8493 10.8197 12.8603 10.8033 13.0794 10.7156C13.7369 10.4526 14.8052 10.3869 15.4901 10.5622L15.8407 10.6553L16.0653 11.0443C16.542 11.8935 17.1501 12.4688 18.0267 12.9126C18.7609 13.2796 19.2101 13.3837 20.0648 13.3837C20.64 13.3892 20.8592 13.3673 21.2098 13.2687C22.0426 13.0331 22.7274 12.6003 23.3575 11.9264C24.2231 10.995 24.5628 10.0636 24.5135 8.7652C24.4861 7.95983 24.3984 7.59823 24.0697 6.92983C23.5109 5.79574 22.4864 4.9575 21.2098 4.59043C20.5962 4.41511 19.484 4.41511 18.8759 4.59043C17.8569 4.8808 17.0351 5.42319 16.3119 6.27787L16.1201 6.50798L15.6544 6.43127C15.0682 6.34361 13.956 6.33813 13.3643 6.43127L12.9096 6.49702L12.9425 6.36005C12.9644 6.27787 13.074 6.00941 13.1945 5.75739C14.1916 3.62618 16.3119 1.96614 18.5581 1.56619C19.4731 1.40183 20.2237 1.3854 21.0729 1.51141ZM20.6948 5.0616C22.6124 5.41224 23.982 7.01749 23.982 8.92956C23.982 10.0636 23.4671 11.1758 22.6069 11.8881L22.2617 12.1729L22.1083 11.7456C21.6646 10.5403 21.1057 9.6637 20.1798 8.73232C19.243 7.79547 18.2787 7.18185 17.1227 6.79287C16.9145 6.72712 16.7502 6.65042 16.7502 6.62851C16.7502 6.56824 17.4076 5.96011 17.7199 5.73548C18.5581 5.12734 19.6648 4.87532 20.6948 5.0616ZM15.7914 7.04489C18.4486 7.46675 20.7606 9.45551 21.6262 12.0688C21.692 12.277 21.7358 12.4524 21.7303 12.4578C21.7193 12.4688 21.5714 12.5236 21.4071 12.5893C20.7113 12.8413 19.7251 12.8797 19.0129 12.6825C18.7335 12.6058 18.6622 12.5619 18.6075 12.425C18.4869 12.1291 18.1144 11.5922 17.8295 11.2909C17.4514 10.9074 17.0899 10.6389 16.5584 10.3595C15.9722 10.0527 15.4682 9.91572 14.7943 9.87737C13.3534 9.79519 12.1974 10.2883 11.1016 11.4388L10.6195 11.9483L10.3018 11.8935C9.52378 11.7566 8.23081 11.773 7.60623 11.9264C7.49118 11.9538 7.4857 11.9428 7.51858 11.8278C7.5898 11.5648 8.05001 10.6553 8.28559 10.3047C8.6691 9.72397 9.21697 9.12131 9.75936 8.66658C11.4742 7.2476 13.5397 6.69425 15.7914 7.04489ZM12.4987 11.6196C12.5809 11.8497 12.7398 12.2277 12.8548 12.4578C12.9699 12.6879 13.0575 12.8742 13.0466 12.8742C13.0301 12.8742 12.8932 12.7975 12.7288 12.7099C12.5699 12.6167 12.1864 12.4524 11.8796 12.3373C11.5783 12.2168 11.3153 12.1127 11.2989 12.0962C11.255 12.0524 11.6605 11.6086 11.9782 11.3621C12.1481 11.2306 12.296 11.1429 12.3179 11.1649C12.3343 11.1868 12.4165 11.3895 12.4987 11.6196ZM17.172 11.4278C17.4131 11.6251 17.7637 12.0415 17.7254 12.0798C17.687 12.1182 17.046 11.5265 16.9036 11.3292C16.7666 11.1375 16.8324 11.1594 17.172 11.4278ZM10.6414 12.5455C12.4987 12.9454 14.1807 14.1124 15.2709 15.7615C15.638 16.3203 16.1256 17.3613 16.1859 17.7174L16.2133 17.8982L15.7585 18.0516C15.1449 18.2598 14.1861 18.3036 13.5999 18.1502L13.2164 18.0516L13.0137 17.679C11.7591 15.378 8.59788 14.5671 6.55432 16.0299C5.54624 16.7531 4.89428 17.679 4.60939 18.7638C4.45051 19.3774 4.4779 20.38 4.66418 21.0101C4.85045 21.6237 5.12986 22.1496 5.51885 22.6153C6.1489 23.3714 6.88853 23.8645 7.79251 24.1384C8.21437 24.2644 8.38421 24.2863 8.99782 24.2918C9.80867 24.2918 10.2196 24.2096 10.877 23.9083C11.5619 23.596 12.0988 23.1577 12.7233 22.3962L12.8877 22.199L13.3534 22.2702C13.9341 22.3633 15.0463 22.3688 15.6435 22.2757L16.0982 22.2099L16.0653 22.3469C15.9996 22.6153 15.6051 23.3933 15.3093 23.848C12.685 27.8804 7.10767 28.4556 3.7328 25.0424C1.48653 22.7742 0.938664 19.3281 2.37408 16.4847C3.23424 14.7753 4.86141 13.3399 6.5598 12.7975C6.93783 12.677 7.83634 12.4688 8.23081 12.414C8.65814 12.3537 10.11 12.4304 10.6414 12.5455ZM16.531 16.0847C16.7885 16.2107 17.1556 16.3696 17.3528 16.4408C17.5501 16.5066 17.7199 16.5723 17.7309 16.5778C17.8021 16.6326 16.8817 17.5311 16.7557 17.5311C16.7392 17.5311 16.657 17.3393 16.5749 17.1038C16.4927 16.8737 16.3283 16.4902 16.2078 16.2546C16.0873 16.019 16.0105 15.8327 16.027 15.8437C16.0489 15.8546 16.2735 15.9642 16.531 16.0847ZM10.0443 16.019C10.2689 16.0902 10.3401 16.1395 10.3949 16.2765C10.614 16.797 11.1948 17.5092 11.7536 17.9201C12.1426 18.2159 12.811 18.5447 13.3041 18.6816C13.83 18.835 14.7011 18.8843 15.2545 18.7912C15.7969 18.7035 16.5475 18.4351 16.7721 18.2488C16.8652 18.1666 17.0679 18.0132 17.2159 17.9037C17.5062 17.6955 18.0158 17.1805 18.2185 16.8956C18.3335 16.7257 18.3445 16.7257 18.5965 16.775C19.1553 16.8791 20.0483 16.923 20.6784 16.8682C21.0345 16.8408 21.3687 16.8024 21.4235 16.786C21.5659 16.7422 21.5276 16.8682 21.1605 17.6188C20.2894 19.4048 18.6184 20.8402 16.7228 21.4374C15.3312 21.8757 13.5451 21.8647 12.1755 21.4155C9.9292 20.6704 8.16506 18.9227 7.40352 16.6874C7.3323 16.4737 7.28847 16.2874 7.31038 16.2655C7.38161 16.2053 7.85825 16.0409 8.19245 15.9642C8.59788 15.8711 9.66622 15.9039 10.0443 16.019ZM11.8906 17.0983C12.1207 17.3339 12.3124 17.553 12.3124 17.5859C12.3124 17.7448 11.4358 16.9394 11.2441 16.6107C11.1455 16.4299 11.4851 16.6929 11.8906 17.0983ZM6.96523 17.1312C7.409 18.2872 8.05001 19.2405 8.95947 20.1116C9.80319 20.9279 10.8661 21.5799 11.8906 21.9141C12.296 22.0455 12.296 22.0291 11.9728 22.4181C11.2989 23.2344 10.1648 23.7385 9.02522 23.7385C8.34038 23.7385 7.924 23.6398 7.27203 23.3276C6.87757 23.1358 6.71869 23.0153 6.253 22.5496C5.78731 22.0839 5.6613 21.9195 5.47502 21.5305C5.34901 21.2731 5.20657 20.8895 5.15726 20.6814C5.04768 20.1937 5.04768 19.3117 5.16274 18.8734C5.28327 18.4077 5.5846 17.7996 5.86949 17.427C6.09411 17.1366 6.64746 16.6052 6.72964 16.5997C6.74608 16.5997 6.85017 16.8408 6.96523 17.1312Z"/>
</mask>
<path d="M19.0238 0.914229C18.9362 0.925186 18.6184 0.985452 18.3171 1.04572C16.7502 1.36896 15.3641 2.14146 14.2135 3.33581C13.3589 4.21788 12.822 5.07256 12.4275 6.15734L12.2303 6.69973L11.8522 6.82574C10.2634 7.36265 8.69102 8.62823 7.69937 10.1677C7.46927 10.5239 7.13507 11.2251 6.97071 11.6799L6.82278 12.0962L6.4064 12.2496C5.32162 12.6386 4.34641 13.2413 3.52461 14.0247C2.30834 15.1917 1.59611 16.4408 1.20712 18.079C1.04276 18.7912 0.977015 20.1225 1.07563 20.8238C1.58515 24.4452 4.26971 27.19 7.85825 27.7543C8.69102 27.8804 9.97851 27.8365 10.7784 27.6502C12.4165 27.2613 13.6657 26.5436 14.8381 25.3218C15.6599 24.4726 16.2023 23.5905 16.6132 22.4729L16.7776 22.0127L17.1556 21.8812C18.1582 21.5305 19.1553 20.9169 19.9662 20.139C20.9469 19.2021 21.6262 18.1831 22.0316 17.0325L22.1796 16.6216L22.574 16.4902C24.4423 15.893 26.1571 14.4137 27.1049 12.5893C27.4117 12.0031 27.7076 11.1649 27.8555 10.4636C27.9322 10.0965 27.9541 9.75684 27.9541 8.87477C27.9486 7.86121 27.9377 7.69137 27.8062 7.1435C27.0337 3.88368 24.4697 1.48401 21.1879 0.95806C20.7167 0.881358 19.4676 0.859442 19.0238 0.914229ZM21.0729 1.51141C23.4561 1.85656 25.6202 3.44539 26.6666 5.61495C27.2364 6.79287 27.4665 7.87217 27.4172 9.1761C27.3186 11.7894 25.9708 14.0521 23.7465 15.3561C23.2369 15.6519 22.2563 16.0519 22.0371 16.0519C21.9549 16.0519 21.6372 16.1066 21.3358 16.1724C20.2182 16.408 18.717 16.3094 17.5829 15.9204C15.6544 15.2574 13.967 13.6741 13.1616 11.773C13.0247 11.4443 12.8932 11.0882 12.8767 10.9895C12.8493 10.8197 12.8603 10.8033 13.0794 10.7156C13.7369 10.4526 14.8052 10.3869 15.4901 10.5622L15.8407 10.6553L16.0653 11.0443C16.542 11.8935 17.1501 12.4688 18.0267 12.9126C18.7609 13.2796 19.2101 13.3837 20.0648 13.3837C20.64 13.3892 20.8592 13.3673 21.2098 13.2687C22.0426 13.0331 22.7274 12.6003 23.3575 11.9264C24.2231 10.995 24.5628 10.0636 24.5135 8.7652C24.4861 7.95983 24.3984 7.59823 24.0697 6.92983C23.5109 5.79574 22.4864 4.9575 21.2098 4.59043C20.5962 4.41511 19.484 4.41511 18.8759 4.59043C17.8569 4.8808 17.0351 5.42319 16.3119 6.27787L16.1201 6.50798L15.6544 6.43127C15.0682 6.34361 13.956 6.33813 13.3643 6.43127L12.9096 6.49702L12.9425 6.36005C12.9644 6.27787 13.074 6.00941 13.1945 5.75739C14.1916 3.62618 16.3119 1.96614 18.5581 1.56619C19.4731 1.40183 20.2237 1.3854 21.0729 1.51141ZM20.6948 5.0616C22.6124 5.41224 23.982 7.01749 23.982 8.92956C23.982 10.0636 23.4671 11.1758 22.6069 11.8881L22.2617 12.1729L22.1083 11.7456C21.6646 10.5403 21.1057 9.6637 20.1798 8.73232C19.243 7.79547 18.2787 7.18185 17.1227 6.79287C16.9145 6.72712 16.7502 6.65042 16.7502 6.62851C16.7502 6.56824 17.4076 5.96011 17.7199 5.73548C18.5581 5.12734 19.6648 4.87532 20.6948 5.0616ZM15.7914 7.04489C18.4486 7.46675 20.7606 9.45551 21.6262 12.0688C21.692 12.277 21.7358 12.4524 21.7303 12.4578C21.7193 12.4688 21.5714 12.5236 21.4071 12.5893C20.7113 12.8413 19.7251 12.8797 19.0129 12.6825C18.7335 12.6058 18.6622 12.5619 18.6075 12.425C18.4869 12.1291 18.1144 11.5922 17.8295 11.2909C17.4514 10.9074 17.0899 10.6389 16.5584 10.3595C15.9722 10.0527 15.4682 9.91572 14.7943 9.87737C13.3534 9.79519 12.1974 10.2883 11.1016 11.4388L10.6195 11.9483L10.3018 11.8935C9.52378 11.7566 8.23081 11.773 7.60623 11.9264C7.49118 11.9538 7.4857 11.9428 7.51858 11.8278C7.5898 11.5648 8.05001 10.6553 8.28559 10.3047C8.6691 9.72397 9.21697 9.12131 9.75936 8.66658C11.4742 7.2476 13.5397 6.69425 15.7914 7.04489ZM12.4987 11.6196C12.5809 11.8497 12.7398 12.2277 12.8548 12.4578C12.9699 12.6879 13.0575 12.8742 13.0466 12.8742C13.0301 12.8742 12.8932 12.7975 12.7288 12.7099C12.5699 12.6167 12.1864 12.4524 11.8796 12.3373C11.5783 12.2168 11.3153 12.1127 11.2989 12.0962C11.255 12.0524 11.6605 11.6086 11.9782 11.3621C12.1481 11.2306 12.296 11.1429 12.3179 11.1649C12.3343 11.1868 12.4165 11.3895 12.4987 11.6196ZM17.172 11.4278C17.4131 11.6251 17.7637 12.0415 17.7254 12.0798C17.687 12.1182 17.046 11.5265 16.9036 11.3292C16.7666 11.1375 16.8324 11.1594 17.172 11.4278ZM10.6414 12.5455C12.4987 12.9454 14.1807 14.1124 15.2709 15.7615C15.638 16.3203 16.1256 17.3613 16.1859 17.7174L16.2133 17.8982L15.7585 18.0516C15.1449 18.2598 14.1861 18.3036 13.5999 18.1502L13.2164 18.0516L13.0137 17.679C11.7591 15.378 8.59788 14.5671 6.55432 16.0299C5.54624 16.7531 4.89428 17.679 4.60939 18.7638C4.45051 19.3774 4.4779 20.38 4.66418 21.0101C4.85045 21.6237 5.12986 22.1496 5.51885 22.6153C6.1489 23.3714 6.88853 23.8645 7.79251 24.1384C8.21437 24.2644 8.38421 24.2863 8.99782 24.2918C9.80867 24.2918 10.2196 24.2096 10.877 23.9083C11.5619 23.596 12.0988 23.1577 12.7233 22.3962L12.8877 22.199L13.3534 22.2702C13.9341 22.3633 15.0463 22.3688 15.6435 22.2757L16.0982 22.2099L16.0653 22.3469C15.9996 22.6153 15.6051 23.3933 15.3093 23.848C12.685 27.8804 7.10767 28.4556 3.7328 25.0424C1.48653 22.7742 0.938664 19.3281 2.37408 16.4847C3.23424 14.7753 4.86141 13.3399 6.5598 12.7975C6.93783 12.677 7.83634 12.4688 8.23081 12.414C8.65814 12.3537 10.11 12.4304 10.6414 12.5455ZM16.531 16.0847C16.7885 16.2107 17.1556 16.3696 17.3528 16.4408C17.5501 16.5066 17.7199 16.5723 17.7309 16.5778C17.8021 16.6326 16.8817 17.5311 16.7557 17.5311C16.7392 17.5311 16.657 17.3393 16.5749 17.1038C16.4927 16.8737 16.3283 16.4902 16.2078 16.2546C16.0873 16.019 16.0105 15.8327 16.027 15.8437C16.0489 15.8546 16.2735 15.9642 16.531 16.0847ZM10.0443 16.019C10.2689 16.0902 10.3401 16.1395 10.3949 16.2765C10.614 16.797 11.1948 17.5092 11.7536 17.9201C12.1426 18.2159 12.811 18.5447 13.3041 18.6816C13.83 18.835 14.7011 18.8843 15.2545 18.7912C15.7969 18.7035 16.5475 18.4351 16.7721 18.2488C16.8652 18.1666 17.0679 18.0132 17.2159 17.9037C17.5062 17.6955 18.0158 17.1805 18.2185 16.8956C18.3335 16.7257 18.3445 16.7257 18.5965 16.775C19.1553 16.8791 20.0483 16.923 20.6784 16.8682C21.0345 16.8408 21.3687 16.8024 21.4235 16.786C21.5659 16.7422 21.5276 16.8682 21.1605 17.6188C20.2894 19.4048 18.6184 20.8402 16.7228 21.4374C15.3312 21.8757 13.5451 21.8647 12.1755 21.4155C9.9292 20.6704 8.16506 18.9227 7.40352 16.6874C7.3323 16.4737 7.28847 16.2874 7.31038 16.2655C7.38161 16.2053 7.85825 16.0409 8.19245 15.9642C8.59788 15.8711 9.66622 15.9039 10.0443 16.019ZM11.8906 17.0983C12.1207 17.3339 12.3124 17.553 12.3124 17.5859C12.3124 17.7448 11.4358 16.9394 11.2441 16.6107C11.1455 16.4299 11.4851 16.6929 11.8906 17.0983ZM6.96523 17.1312C7.409 18.2872 8.05001 19.2405 8.95947 20.1116C9.80319 20.9279 10.8661 21.5799 11.8906 21.9141C12.296 22.0455 12.296 22.0291 11.9728 22.4181C11.2989 23.2344 10.1648 23.7385 9.02522 23.7385C8.34038 23.7385 7.924 23.6398 7.27203 23.3276C6.87757 23.1358 6.71869 23.0153 6.253 22.5496C5.78731 22.0839 5.6613 21.9195 5.47502 21.5305C5.34901 21.2731 5.20657 20.8895 5.15726 20.6814C5.04768 20.1937 5.04768 19.3117 5.16274 18.8734C5.28327 18.4077 5.5846 17.7996 5.86949 17.427C6.09411 17.1366 6.64746 16.6052 6.72964 16.5997C6.74608 16.5997 6.85017 16.8408 6.96523 17.1312Z" fill="white"/>
<path d="M19.0238 0.914229C18.9362 0.925186 18.6184 0.985452 18.3171 1.04572C16.7502 1.36896 15.3641 2.14146 14.2135 3.33581C13.3589 4.21788 12.822 5.07256 12.4275 6.15734L12.2303 6.69973L11.8522 6.82574C10.2634 7.36265 8.69102 8.62823 7.69937 10.1677C7.46927 10.5239 7.13507 11.2251 6.97071 11.6799L6.82278 12.0962L6.4064 12.2496C5.32162 12.6386 4.34641 13.2413 3.52461 14.0247C2.30834 15.1917 1.59611 16.4408 1.20712 18.079C1.04276 18.7912 0.977015 20.1225 1.07563 20.8238C1.58515 24.4452 4.26971 27.19 7.85825 27.7543C8.69102 27.8804 9.97851 27.8365 10.7784 27.6502C12.4165 27.2613 13.6657 26.5436 14.8381 25.3218C15.6599 24.4726 16.2023 23.5905 16.6132 22.4729L16.7776 22.0127L17.1556 21.8812C18.1582 21.5305 19.1553 20.9169 19.9662 20.139C20.9469 19.2021 21.6262 18.1831 22.0316 17.0325L22.1796 16.6216L22.574 16.4902C24.4423 15.893 26.1571 14.4137 27.1049 12.5893C27.4117 12.0031 27.7076 11.1649 27.8555 10.4636C27.9322 10.0965 27.9541 9.75684 27.9541 8.87477C27.9486 7.86121 27.9377 7.69137 27.8062 7.1435C27.0337 3.88368 24.4697 1.48401 21.1879 0.95806C20.7167 0.881358 19.4676 0.859442 19.0238 0.914229ZM21.0729 1.51141C23.4561 1.85656 25.6202 3.44539 26.6666 5.61495C27.2364 6.79287 27.4665 7.87217 27.4172 9.1761C27.3186 11.7894 25.9708 14.0521 23.7465 15.3561C23.2369 15.6519 22.2563 16.0519 22.0371 16.0519C21.9549 16.0519 21.6372 16.1066 21.3358 16.1724C20.2182 16.408 18.717 16.3094 17.5829 15.9204C15.6544 15.2574 13.967 13.6741 13.1616 11.773C13.0247 11.4443 12.8932 11.0882 12.8767 10.9895C12.8493 10.8197 12.8603 10.8033 13.0794 10.7156C13.7369 10.4526 14.8052 10.3869 15.4901 10.5622L15.8407 10.6553L16.0653 11.0443C16.542 11.8935 17.1501 12.4688 18.0267 12.9126C18.7609 13.2796 19.2101 13.3837 20.0648 13.3837C20.64 13.3892 20.8592 13.3673 21.2098 13.2687C22.0426 13.0331 22.7274 12.6003 23.3575 11.9264C24.2231 10.995 24.5628 10.0636 24.5135 8.7652C24.4861 7.95983 24.3984 7.59823 24.0697 6.92983C23.5109 5.79574 22.4864 4.9575 21.2098 4.59043C20.5962 4.41511 19.484 4.41511 18.8759 4.59043C17.8569 4.8808 17.0351 5.42319 16.3119 6.27787L16.1201 6.50798L15.6544 6.43127C15.0682 6.34361 13.956 6.33813 13.3643 6.43127L12.9096 6.49702L12.9425 6.36005C12.9644 6.27787 13.074 6.00941 13.1945 5.75739C14.1916 3.62618 16.3119 1.96614 18.5581 1.56619C19.4731 1.40183 20.2237 1.3854 21.0729 1.51141ZM20.6948 5.0616C22.6124 5.41224 23.982 7.01749 23.982 8.92956C23.982 10.0636 23.4671 11.1758 22.6069 11.8881L22.2617 12.1729L22.1083 11.7456C21.6646 10.5403 21.1057 9.6637 20.1798 8.73232C19.243 7.79547 18.2787 7.18185 17.1227 6.79287C16.9145 6.72712 16.7502 6.65042 16.7502 6.62851C16.7502 6.56824 17.4076 5.96011 17.7199 5.73548C18.5581 5.12734 19.6648 4.87532 20.6948 5.0616ZM15.7914 7.04489C18.4486 7.46675 20.7606 9.45551 21.6262 12.0688C21.692 12.277 21.7358 12.4524 21.7303 12.4578C21.7193 12.4688 21.5714 12.5236 21.4071 12.5893C20.7113 12.8413 19.7251 12.8797 19.0129 12.6825C18.7335 12.6058 18.6622 12.5619 18.6075 12.425C18.4869 12.1291 18.1144 11.5922 17.8295 11.2909C17.4514 10.9074 17.0899 10.6389 16.5584 10.3595C15.9722 10.0527 15.4682 9.91572 14.7943 9.87737C13.3534 9.79519 12.1974 10.2883 11.1016 11.4388L10.6195 11.9483L10.3018 11.8935C9.52378 11.7566 8.23081 11.773 7.60623 11.9264C7.49118 11.9538 7.4857 11.9428 7.51858 11.8278C7.5898 11.5648 8.05001 10.6553 8.28559 10.3047C8.6691 9.72397 9.21697 9.12131 9.75936 8.66658C11.4742 7.2476 13.5397 6.69425 15.7914 7.04489ZM12.4987 11.6196C12.5809 11.8497 12.7398 12.2277 12.8548 12.4578C12.9699 12.6879 13.0575 12.8742 13.0466 12.8742C13.0301 12.8742 12.8932 12.7975 12.7288 12.7099C12.5699 12.6167 12.1864 12.4524 11.8796 12.3373C11.5783 12.2168 11.3153 12.1127 11.2989 12.0962C11.255 12.0524 11.6605 11.6086 11.9782 11.3621C12.1481 11.2306 12.296 11.1429 12.3179 11.1649C12.3343 11.1868 12.4165 11.3895 12.4987 11.6196ZM17.172 11.4278C17.4131 11.6251 17.7637 12.0415 17.7254 12.0798C17.687 12.1182 17.046 11.5265 16.9036 11.3292C16.7666 11.1375 16.8324 11.1594 17.172 11.4278ZM10.6414 12.5455C12.4987 12.9454 14.1807 14.1124 15.2709 15.7615C15.638 16.3203 16.1256 17.3613 16.1859 17.7174L16.2133 17.8982L15.7585 18.0516C15.1449 18.2598 14.1861 18.3036 13.5999 18.1502L13.2164 18.0516L13.0137 17.679C11.7591 15.378 8.59788 14.5671 6.55432 16.0299C5.54624 16.7531 4.89428 17.679 4.60939 18.7638C4.45051 19.3774 4.4779 20.38 4.66418 21.0101C4.85045 21.6237 5.12986 22.1496 5.51885 22.6153C6.1489 23.3714 6.88853 23.8645 7.79251 24.1384C8.21437 24.2644 8.38421 24.2863 8.99782 24.2918C9.80867 24.2918 10.2196 24.2096 10.877 23.9083C11.5619 23.596 12.0988 23.1577 12.7233 22.3962L12.8877 22.199L13.3534 22.2702C13.9341 22.3633 15.0463 22.3688 15.6435 22.2757L16.0982 22.2099L16.0653 22.3469C15.9996 22.6153 15.6051 23.3933 15.3093 23.848C12.685 27.8804 7.10767 28.4556 3.7328 25.0424C1.48653 22.7742 0.938664 19.3281 2.37408 16.4847C3.23424 14.7753 4.86141 13.3399 6.5598 12.7975C6.93783 12.677 7.83634 12.4688 8.23081 12.414C8.65814 12.3537 10.11 12.4304 10.6414 12.5455ZM16.531 16.0847C16.7885 16.2107 17.1556 16.3696 17.3528 16.4408C17.5501 16.5066 17.7199 16.5723 17.7309 16.5778C17.8021 16.6326 16.8817 17.5311 16.7557 17.5311C16.7392 17.5311 16.657 17.3393 16.5749 17.1038C16.4927 16.8737 16.3283 16.4902 16.2078 16.2546C16.0873 16.019 16.0105 15.8327 16.027 15.8437C16.0489 15.8546 16.2735 15.9642 16.531 16.0847ZM10.0443 16.019C10.2689 16.0902 10.3401 16.1395 10.3949 16.2765C10.614 16.797 11.1948 17.5092 11.7536 17.9201C12.1426 18.2159 12.811 18.5447 13.3041 18.6816C13.83 18.835 14.7011 18.8843 15.2545 18.7912C15.7969 18.7035 16.5475 18.4351 16.7721 18.2488C16.8652 18.1666 17.0679 18.0132 17.2159 17.9037C17.5062 17.6955 18.0158 17.1805 18.2185 16.8956C18.3335 16.7257 18.3445 16.7257 18.5965 16.775C19.1553 16.8791 20.0483 16.923 20.6784 16.8682C21.0345 16.8408 21.3687 16.8024 21.4235 16.786C21.5659 16.7422 21.5276 16.8682 21.1605 17.6188C20.2894 19.4048 18.6184 20.8402 16.7228 21.4374C15.3312 21.8757 13.5451 21.8647 12.1755 21.4155C9.9292 20.6704 8.16506 18.9227 7.40352 16.6874C7.3323 16.4737 7.28847 16.2874 7.31038 16.2655C7.38161 16.2053 7.85825 16.0409 8.19245 15.9642C8.59788 15.8711 9.66622 15.9039 10.0443 16.019ZM11.8906 17.0983C12.1207 17.3339 12.3124 17.553 12.3124 17.5859C12.3124 17.7448 11.4358 16.9394 11.2441 16.6107C11.1455 16.4299 11.4851 16.6929 11.8906 17.0983ZM6.96523 17.1312C7.409 18.2872 8.05001 19.2405 8.95947 20.1116C9.80319 20.9279 10.8661 21.5799 11.8906 21.9141C12.296 22.0455 12.296 22.0291 11.9728 22.4181C11.2989 23.2344 10.1648 23.7385 9.02522 23.7385C8.34038 23.7385 7.924 23.6398 7.27203 23.3276C6.87757 23.1358 6.71869 23.0153 6.253 22.5496C5.78731 22.0839 5.6613 21.9195 5.47502 21.5305C5.34901 21.2731 5.20657 20.8895 5.15726 20.6814C5.04768 20.1937 5.04768 19.3117 5.16274 18.8734C5.28327 18.4077 5.5846 17.7996 5.86949 17.427C6.09411 17.1366 6.64746 16.6052 6.72964 16.5997C6.74608 16.5997 6.85017 16.8408 6.96523 17.1312Z" stroke="white" stroke-width="0.4" mask="url(#path-1-outside-1_1_978)"/>
</g>
<path id="Vector_2" d="M8.58432 5.84056C8.59326 5.85605 8.59724 5.8615 8.59715 5.86157L8.5984 5.86308C8.68886 5.97094 8.84702 5.93717 8.88883 5.81461C8.88858 5.81219 8.88814 5.80869 8.88734 5.80392C8.88461 5.78752 8.87912 5.76414 8.87039 5.73348C8.85304 5.67253 8.82522 5.59096 8.78925 5.49455C8.7175 5.30219 8.61578 5.05725 8.50773 4.81319C8.39968 4.56915 8.28599 4.32755 8.1905 4.14181C8.14266 4.04876 8.10009 3.97109 8.06554 3.91458C8.04821 3.88622 8.0338 3.86468 8.02249 3.84972C8.01444 3.83908 8.01025 3.83489 8.00968 3.83421C7.96864 3.806 7.92152 3.80132 7.87207 3.81855C7.82038 3.83918 7.80465 3.85477 7.79801 3.8662C7.79138 3.87762 7.78194 3.9058 7.79504 3.98011C7.82193 4.13275 7.92656 4.39519 8.13686 4.87943C8.24612 5.13074 8.35389 5.36945 8.43964 5.55115C8.48255 5.64209 8.51966 5.71812 8.54851 5.77407C8.56297 5.80212 8.57497 5.82435 8.58432 5.84056Z" fill="white" stroke="white" stroke-width="0.2"/>
<path id="Vector_3" d="M4.66911 4.51858C4.63076 4.55692 4.62559 4.57534 4.62564 4.59069C4.62571 4.61366 4.63823 4.65969 4.70213 4.75059C4.82877 4.93076 5.10727 5.22074 5.63336 5.74683C5.91485 6.02832 6.18089 6.28479 6.38296 6.47053C6.48415 6.56354 6.56838 6.63797 6.63007 6.68873C6.66113 6.71429 6.68495 6.73258 6.70158 6.74401C6.70171 6.7441 6.70183 6.74418 6.70195 6.74426C6.71044 6.74156 6.72182 6.73682 6.736 6.72876C6.76188 6.71404 6.79013 6.69216 6.81641 6.66588C6.84269 6.6396 6.86458 6.61134 6.87929 6.58546C6.88735 6.57129 6.89209 6.55991 6.8948 6.55141C6.89471 6.55129 6.89463 6.55117 6.89455 6.55105C6.88311 6.53442 6.86482 6.5106 6.83927 6.47954C6.7885 6.41784 6.71408 6.33362 6.62106 6.23243C6.43532 6.03036 6.17886 5.76432 5.89736 5.48283C5.37128 4.95674 5.08129 4.67824 4.90112 4.55159C4.81022 4.4877 4.76419 4.47517 4.74122 4.4751C4.72588 4.47505 4.70746 4.48023 4.66911 4.51858Z" fill="white" stroke="white" stroke-width="0.2"/>
<path id="Vector_4" d="M6.08328 8.37098L6.01887 8.44747C6.01938 8.4479 6.01923 8.44781 6.0182 8.44714C6.01592 8.44567 6.00934 8.44143 5.99604 8.43394C5.97915 8.42442 5.95623 8.4123 5.92764 8.39778C5.87058 8.36879 5.7938 8.33171 5.70341 8.28926C5.52279 8.20444 5.2902 8.09933 5.05749 7.99681C4.82475 7.89428 4.59256 7.79465 4.41272 7.72078C4.32268 7.68379 4.24651 7.65357 4.19025 7.63272C4.16199 7.62225 4.13981 7.61454 4.12389 7.60958C4.12123 7.60875 4.11886 7.60804 4.11677 7.60743C4.11138 7.60945 4.10447 7.61237 4.09623 7.61627C4.07642 7.62565 4.05384 7.63839 4.03397 7.65132C3.98421 7.69397 3.96396 7.73403 3.95916 7.76556C3.95455 7.79587 3.96198 7.83231 3.99616 7.87432C3.99614 7.87427 3.99624 7.87437 3.99651 7.87462C3.99802 7.876 4.0046 7.88205 4.02027 7.89304C4.03774 7.90529 4.06153 7.92028 4.09158 7.93779C4.15155 7.97274 4.23186 8.01509 4.32666 8.06219C4.51597 8.15626 4.75837 8.26694 5.00111 8.37161C5.24388 8.47628 5.48553 8.57431 5.67328 8.64324C5.7674 8.67779 5.84638 8.70444 5.90454 8.72098C5.93384 8.72931 5.95569 8.73444 5.97048 8.73694C5.97202 8.73719 5.97339 8.73741 5.97461 8.73759C6.09265 8.68677 6.11674 8.53185 6.01799 8.44672L6.08328 8.37098ZM6.08328 8.37098C6.24216 8.50795 6.19833 8.76545 5.99562 8.83667L3.9192 7.93816C3.82058 7.81763 3.8425 7.68067 3.97398 7.57109C4.02329 7.53822 4.08904 7.50535 4.11643 7.50535C4.21505 7.50535 5.97919 8.28332 6.08328 8.37098ZM5.98232 8.73844C5.98309 8.73846 5.98291 8.73841 5.98194 8.73842C5.98211 8.73843 5.98223 8.73844 5.98232 8.73844Z" fill="white" stroke="white" stroke-width="0.2"/>
<path id="Vector_5" d="M22.9943 20.2589L22.9943 20.2589L22.9968 20.2611C22.9964 20.2607 22.9962 20.2605 22.9962 20.2605C22.9963 20.2604 23.0018 20.2644 23.0173 20.2733C23.0337 20.2827 23.0561 20.2947 23.0844 20.3092C23.141 20.3382 23.2178 20.3755 23.3095 20.4188C23.4926 20.5053 23.7327 20.6144 23.9842 20.7265C24.374 20.8939 24.6049 20.9891 24.751 21.0367C24.9013 21.0856 24.9341 21.0739 24.9477 21.0674L24.9482 21.0672C25.0055 21.0404 25.0356 20.9991 25.0455 20.9591C25.0548 20.9213 25.0484 20.8764 25.0164 20.8328C25.0134 20.8307 25.0091 20.8279 25.0032 20.8243C24.9878 20.8148 24.9659 20.8023 24.9375 20.7869C24.8811 20.7563 24.8033 20.7164 24.7107 20.6705C24.5256 20.5786 24.2844 20.4638 24.0431 20.3521C23.8019 20.2403 23.5614 20.132 23.3778 20.0532C23.2859 20.0137 23.2092 19.982 23.1541 19.961C23.1288 19.9513 23.1094 19.9444 23.0958 19.9401L23.0911 19.9418C23.0748 19.9476 23.0537 19.9555 23.0317 19.9638C22.9224 20.0058 22.8901 20.1727 22.9943 20.2589ZM24.9905 21.1578C25.1549 21.0811 25.1987 20.9003 25.0891 20.7633L23.9441 20.8181C24.7221 21.1523 24.8864 21.2071 24.9905 21.1578Z" fill="white" stroke="white" stroke-width="0.2"/>
<path id="Vector_6" d="M24.141 24.3081C24.3163 24.3519 24.4423 24.2643 24.4642 24.078C24.4807 23.9465 24.3601 23.7986 23.4507 22.8946C22.8809 22.3248 22.3768 21.8591 22.3221 21.8591C22.2727 21.8591 22.1796 21.9084 22.1193 21.9687C22.0591 22.029 22.0098 22.1221 22.0098 22.1714C22.0098 22.2974 23.9766 24.2643 24.141 24.3081ZM24.141 24.3081L24.1652 24.2111C24.1674 24.2116 24.1696 24.2122 24.1717 24.2126M24.141 24.3081L24.1667 24.2115C24.1718 24.2128 24.1747 24.2142 24.1747 24.2142C24.1747 24.2143 24.1738 24.2138 24.1717 24.2126M24.1717 24.2126C24.1715 24.2125 24.1713 24.2124 24.171 24.2122C24.1661 24.2093 24.1586 24.2045 24.1483 24.1971C24.1278 24.1823 24.1003 24.1606 24.0664 24.1322C23.9988 24.0756 23.9099 23.996 23.8067 23.9002C23.6004 23.7088 23.3401 23.4558 23.0845 23.1999C22.8289 22.944 22.5789 22.686 22.3932 22.4845C22.3001 22.3836 22.2242 22.2979 22.1719 22.2342C22.1456 22.2021 22.1266 22.1772 22.1147 22.1596C22.1143 22.1591 22.114 22.1585 22.1136 22.158C22.1171 22.148 22.1225 22.1355 22.1301 22.1215C22.1459 22.0919 22.1677 22.0618 22.1901 22.0394C22.2124 22.0171 22.2426 21.9953 22.2721 21.9794C22.2855 21.9722 22.2976 21.9669 22.3074 21.9634C22.324 21.9749 22.3474 21.993 22.3778 22.018C22.4396 22.0689 22.524 22.1434 22.6255 22.2368C22.8283 22.4232 23.0957 22.6811 23.38 22.9653L23.3802 22.9655C23.8358 23.4185 24.09 23.6782 24.2285 23.8408C24.3715 24.0086 24.3672 24.0476 24.365 24.0656L24.3649 24.0663L24.3649 24.0663C24.3563 24.1397 24.3293 24.1786 24.3024 24.1977C24.2767 24.2159 24.2351 24.2271 24.1717 24.2126Z" fill="white" stroke="white" stroke-width="0.2"/>
<path id="Vector_7" d="M20.1705 22.8072L20.1702 22.8074C20.1447 22.8247 20.1378 22.8363 20.1341 22.85C20.1288 22.8697 20.1271 22.9084 20.1456 22.9864C20.1829 23.1431 20.2867 23.4023 20.4851 23.8624C20.5996 24.1188 20.7139 24.3623 20.8069 24.5482C20.8534 24.6413 20.8942 24.719 20.9266 24.7763C20.9429 24.805 20.9565 24.8276 20.9672 24.8439C20.975 24.8556 20.9795 24.8615 20.9812 24.8637C21.0255 24.8971 21.0714 24.9039 21.1098 24.8944C21.1498 24.8845 21.1911 24.8544 21.2178 24.7972L21.2178 24.7972L21.2181 24.7966C21.2245 24.783 21.2363 24.7502 21.1873 24.5999C21.1397 24.4538 21.0446 24.2229 20.8771 23.8331C20.7651 23.5816 20.6559 23.3415 20.5694 23.1576C20.5261 23.0655 20.4887 22.9881 20.4596 22.9306C20.4451 22.9018 20.4329 22.8786 20.4233 22.8615C20.4163 22.8488 20.4119 22.8417 20.4099 22.8385C20.3845 22.8139 20.3421 22.7936 20.2928 22.7867C20.2405 22.7795 20.1964 22.7895 20.1705 22.8072Z" fill="white" stroke="white" stroke-width="0.2"/>
</g>
</svg>
