<svg width="27" height="27" viewBox="0 0 27 27" fill="none" xmlns="http://www.w3.org/2000/svg">
<g id="Group">
<path id="Vector" d="M22.5121 0.670581C22.4025 0.710438 22.2232 0.78517 22.1136 0.844955C21.989 0.909723 19.6873 3.18157 16.1052 6.76869L10.296 12.5878L9.9074 14.5308C9.5736 16.2247 9.53374 16.4938 9.57858 16.6532C9.64335 16.8674 9.91238 17.1215 10.1216 17.1713C10.2213 17.1913 10.8789 17.0817 12.0597 16.8475C13.0412 16.6532 13.923 16.4738 14.0176 16.4489C14.1571 16.4091 15.3429 15.2482 20.0261 10.5601C26.5875 3.98867 26.0993 4.5367 26.0993 3.74455C26.0943 3.062 25.9996 2.90257 24.9135 1.81647C24.1812 1.0841 23.952 0.884812 23.7178 0.780188C23.3741 0.62076 22.8161 0.570939 22.5121 0.670581ZM23.8523 2.8926C24.5299 3.57017 24.6395 3.69971 24.6146 3.79935C24.5947 3.86412 24.3804 4.1182 24.1313 4.36731L23.6829 4.8157L22.7961 3.92888L21.9143 3.04705L22.3926 2.57375C22.6616 2.3097 22.9107 2.10045 22.9655 2.10045C23.0203 2.10045 23.384 2.4193 23.8523 2.8926ZM21.7399 5.01498L22.6118 5.88685L18.0332 10.4654L13.4547 15.044L12.3885 15.2532C11.8056 15.3728 11.3124 15.4525 11.2924 15.4376C11.2775 15.4176 11.3572 14.9294 11.4718 14.3465L11.681 13.2853L16.2496 8.71171C18.7606 6.20073 20.8282 4.14311 20.8431 4.14311C20.8581 4.14311 21.2616 4.5367 21.7399 5.01498Z" fill="white"/>
<path id="Vector_2" d="M2.83276 4.741C1.86623 4.94028 1.07905 5.6328 0.755214 6.57442L0.640625 6.90822V15.4027V23.8972L0.755214 24.226C1.03919 25.0531 1.6769 25.6908 2.49895 25.9748L2.83276 26.0894H11.3273H19.8218L20.1556 25.9748C20.9677 25.6908 21.5805 25.088 21.8993 24.241L22.0139 23.947L22.0288 18.108C22.0388 12.3138 22.0388 12.264 21.9392 12.0647C21.8246 11.8405 21.5406 11.6661 21.2915 11.6661C21.0424 11.6661 20.7584 11.8405 20.6438 12.0647C20.5442 12.259 20.5442 12.3437 20.5442 17.9087C20.5442 24.2559 20.5691 23.8524 20.1705 24.246C19.767 24.6495 20.4844 24.6196 11.3273 24.6196C2.17013 24.6196 2.88756 24.6495 2.48401 24.246C2.08046 23.8424 2.11035 24.5598 2.11035 15.4027C2.11035 6.2456 2.08046 6.96302 2.48401 6.55947C2.87759 6.1609 2.47404 6.18581 8.82126 6.18581C14.3863 6.18581 14.471 6.18581 14.6653 6.08617C14.8895 5.97158 15.0638 5.6876 15.0638 5.43849C15.0638 5.18939 14.8895 4.90541 14.6653 4.79082C14.471 4.69118 14.3913 4.69118 8.75151 4.69616C5.60779 4.70114 2.94236 4.72107 2.83276 4.741Z" fill="white"/>
</g>
</svg>
