<svg width="25" height="26" viewBox="0 0 25 26" fill="none" xmlns="http://www.w3.org/2000/svg">
<path id="Vector" d="M12.2749 0.392549C12.1907 0.439905 9.47034 1.92373 6.22907 3.69696C-0.0219416 7.11186 0.146436 7.00663 0.146436 7.39074C0.146436 7.7538 0.230625 7.81168 2.32482 8.94823C3.40875 9.53755 4.29799 10.0322 4.29799 10.0479C4.29799 10.0637 3.40875 10.5583 2.31956 11.1529C0.225363 12.2947 0.146436 12.3473 0.146436 12.7104C0.146436 13.063 0.272719 13.1524 2.30377 14.2679C3.36139 14.8414 4.24011 15.3308 4.26116 15.3518C4.28221 15.3729 3.40875 15.8728 2.31956 16.4673C0.225363 17.6091 0.146436 17.667 0.146436 18.0248C0.146436 18.4142 -0.0114176 18.3195 6.37114 21.8186C11.4383 24.5915 12.3906 25.0967 12.5695 25.0967C12.7432 25.0967 13.5219 24.6915 17.4735 22.5394C20.0518 21.1293 22.7564 19.6612 23.472 19.2719C24.8611 18.5142 24.9821 18.4195 24.9821 18.0669C24.9821 17.7091 24.8611 17.6197 22.8248 16.5094C21.7672 15.9359 20.8884 15.4465 20.8674 15.4255C20.8516 15.4045 21.7251 14.9046 22.809 14.31C24.9821 13.1261 25.0084 13.1103 24.9663 12.6841C24.9453 12.521 24.8979 12.4158 24.7927 12.3105C24.7085 12.2316 23.8456 11.7317 22.8774 11.2055C21.9092 10.6741 21.0463 10.2058 20.9674 10.1532L20.8148 10.0637L22.7564 9.00611C23.8245 8.42205 24.7506 7.88535 24.819 7.81694C25.0558 7.56964 24.9926 7.07503 24.7085 6.89613C24.6401 6.85404 21.9355 5.36495 18.6943 3.58646C15.0636 1.5975 12.7327 0.345195 12.6169 0.334671C12.5064 0.318886 12.3696 0.339931 12.2749 0.392549ZM17.6787 4.46518C20.478 5.99636 22.83 7.2855 22.9037 7.3276C23.0405 7.396 22.9248 7.4644 17.805 10.2742L12.5643 13.1524L7.79183 10.532C5.16093 9.0903 2.80364 7.7959 2.54582 7.65383L2.08278 7.40126L2.57212 7.13817C2.84574 6.99084 5.19776 5.7017 7.80235 4.27575C10.4069 2.84981 12.5485 1.68169 12.5695 1.68169C12.5853 1.68169 14.8847 2.934 17.6787 4.46518ZM9.10727 12.6841C11.8592 14.1942 12.3906 14.4679 12.5695 14.4679C12.7432 14.4679 13.0221 14.3363 14.106 13.7365C17.563 11.837 19.4362 10.8214 19.4888 10.8214C19.5625 10.8214 22.9826 12.6894 22.9826 12.7262C22.9826 12.7683 23.2983 12.5894 17.5788 15.7254L12.5643 18.4721L9.52822 16.8041C7.85497 15.8885 5.75551 14.7362 4.85574 14.2469C2.23537 12.8104 2.14592 12.7578 2.14592 12.7315C2.14592 12.7157 2.92993 12.2684 3.89283 11.7475C5.38718 10.9267 5.65554 10.8004 5.74499 10.8477C5.80813 10.8793 7.31826 11.7054 9.10727 12.6841ZM9.15989 18.0301C11.8224 19.4876 12.3959 19.7823 12.5643 19.7823C12.7695 19.7823 13.2325 19.535 18.8311 16.4621L19.4888 16.099L21.2673 17.083C23.0142 18.0459 23.0458 18.0669 22.9037 18.1353C22.83 18.1774 20.4728 19.4666 17.6787 20.9977L12.5906 23.7865L12.4275 23.7076C12.338 23.6655 10.1333 22.4658 7.534 21.0398C4.92941 19.6192 2.64053 18.3616 2.44584 18.2563L2.08804 18.0617L3.86126 17.083L5.63449 16.1043L5.7976 16.1885C5.88706 16.2358 7.40245 17.0619 9.15989 18.0301Z" fill="white"/>
</svg>
